<svg width="88" height="87" viewBox="0 0 88 87" fill="none" xmlns="http://www.w3.org/2000/svg">
<g clip-path="url(#clip0)" filter="url(#filter0_d)">
<path d="M62.4289 3.42891V33.4672H28.81V2.93614C33.8497 1.02661 39.3094 0 45.0209 0C51.1945 0 57.0741 1.21137 62.4498 3.42891H62.4289Z" fill="#E4E7ED"/>
<path d="M62.4289 33.4671C56.9693 33.4671 51.5095 33.4671 46.05 33.4671C46.5748 18.2529 61.9038 17.6573 62.4289 33.4671Z" fill="#C6CBD6"/>
<path d="M23.3924 21.6816H46.134H54.2185C50.1657 21.6816 46.785 26.1576 46.134 32.0093V70.1782L42.8372 65.4969L39.3303 70.4861L35.8235 65.4969L32.3167 70.4861L28.8098 65.4969L25.303 70.4861L21.7962 65.4969L18.2893 70.4861L14.7825 65.4969L11.2757 70.4861V33.5902C11.2757 27.0199 16.7563 21.6816 23.4548 21.6816H23.3924Z" fill="white"/>
<path d="M49.7878 40.5095H82.8185V79.1096H49.7878V40.5095Z" fill="#5D718F"/>
<path d="M53.7143 53.1162H57.1161C57.578 53.1162 57.9559 53.4857 57.9559 53.9374V57.2636C57.9559 57.7152 57.578 58.0848 57.1161 58.0848H53.7143C53.2524 58.0848 52.8745 57.7152 52.8745 57.2636V53.9374C52.8745 53.4857 53.2524 53.1162 53.7143 53.1162Z" fill="white"/>
<path d="M60.3079 53.1162H63.7096C64.1716 53.1162 64.5495 53.4857 64.5495 53.9374V57.2636C64.5495 57.7152 64.1716 58.0848 63.7096 58.0848H60.3079C59.8459 58.0848 59.468 57.7152 59.468 57.2636V53.9374C59.468 53.4857 59.8459 53.1162 60.3079 53.1162Z" fill="white"/>
<path d="M66.9015 53.1162H70.3032C70.7651 53.1162 71.1431 53.4857 71.1431 53.9374V57.2636C71.1431 57.7152 70.7651 58.0848 70.3032 58.0848H66.9015C66.4395 58.0848 66.0616 57.7152 66.0616 57.2636V53.9374C66.0616 53.4857 66.4395 53.1162 66.9015 53.1162Z" fill="#83CF8F"/>
<path d="M73.495 53.1162H76.8967C77.3587 53.1162 77.7366 53.4857 77.7366 53.9374V57.2636C77.7366 57.7152 77.3587 58.0848 76.8967 58.0848H73.495C73.0331 58.0848 72.6551 57.7152 72.6551 57.2636V53.9374C72.6551 53.4857 73.0331 53.1162 73.495 53.1162Z" fill="#FFE356"/>
<path d="M53.7143 59.4197H57.1161C57.578 59.4197 57.9559 59.7892 57.9559 60.2409V63.567C57.9559 64.0187 57.578 64.3882 57.1161 64.3882H53.7143C53.2524 64.3882 52.8745 64.0187 52.8745 63.567V60.2409C52.8745 59.7892 53.2524 59.4197 53.7143 59.4197Z" fill="white"/>
<path d="M60.3079 59.4197H63.7096C64.1716 59.4197 64.5495 59.7892 64.5495 60.2409V63.567C64.5495 64.0187 64.1716 64.3882 63.7096 64.3882H60.3079C59.8459 64.3882 59.468 64.0187 59.468 63.567V60.2409C59.468 59.7892 59.8459 59.4197 60.3079 59.4197Z" fill="white"/>
<path d="M66.9014 59.4197H70.3032C70.7651 59.4197 71.143 59.7892 71.143 60.2409V63.567C71.143 64.0187 70.7651 64.3882 70.3032 64.3882H66.9014C66.4395 64.3882 66.0616 64.0187 66.0616 63.567V60.2409C66.0616 59.7892 66.4395 59.4197 66.9014 59.4197Z" fill="white"/>
<path d="M73.495 59.4197H76.8967C77.3587 59.4197 77.7366 59.7892 77.7366 60.2409V63.567C77.7366 64.0187 77.3587 64.3882 76.8967 64.3882H73.495C73.0331 64.3882 72.6551 64.0187 72.6551 63.567V60.2409C72.6551 59.7892 73.0331 59.4197 73.495 59.4197Z" fill="white"/>
<path d="M53.7143 65.7434H57.1161C57.578 65.7434 57.9559 66.1129 57.9559 66.5646V69.8907C57.9559 70.3424 57.578 70.712 57.1161 70.712H53.7143C53.2524 70.712 52.8745 70.3424 52.8745 69.8907V66.5646C52.8745 66.1129 53.2524 65.7434 53.7143 65.7434Z" fill="white"/>
<path d="M60.3079 65.7434H63.7096C64.1716 65.7434 64.5495 66.1129 64.5495 66.5646V69.8907C64.5495 70.3424 64.1716 70.712 63.7096 70.712H60.3079C59.8459 70.712 59.468 70.3424 59.468 69.8907V66.5646C59.468 66.1129 59.8459 65.7434 60.3079 65.7434Z" fill="white"/>
<path d="M66.9014 65.7434H70.3032C70.7651 65.7434 71.143 66.1129 71.143 66.5646V69.8907C71.143 70.3424 70.7651 70.712 70.3032 70.712H66.9014C66.4395 70.712 66.0616 70.3424 66.0616 69.8907V66.5646C66.0616 66.1129 66.4395 65.7434 66.9014 65.7434Z" fill="white"/>
<path d="M73.495 65.7434H76.8967C77.3587 65.7434 77.7366 66.1129 77.7366 66.5646V69.8907C77.7366 70.3424 77.3587 70.712 76.8967 70.712H73.495C73.0331 70.712 72.6551 70.3424 72.6551 69.8907V66.5646C72.6551 66.1129 73.0331 65.7434 73.495 65.7434Z" fill="white"/>
<path d="M53.7143 72.0469H57.1161C57.578 72.0469 57.9559 72.4164 57.9559 72.8681V76.1942C57.9559 76.6459 57.578 77.0154 57.1161 77.0154H53.7143C53.2524 77.0154 52.8745 76.6459 52.8745 76.1942V72.8681C52.8745 72.4164 53.2524 72.0469 53.7143 72.0469Z" fill="white"/>
<path d="M60.3079 72.0469H63.7096C64.1716 72.0469 64.5495 72.4164 64.5495 72.8681V76.1942C64.5495 76.6459 64.1716 77.0154 63.7096 77.0154H60.3079C59.8459 77.0154 59.468 76.6459 59.468 76.1942V72.8681C59.468 72.4164 59.8459 72.0469 60.3079 72.0469Z" fill="white"/>
<path d="M66.9014 72.0469H70.3032C70.7651 72.0469 71.143 72.4164 71.143 72.8681V76.1942C71.143 76.6459 70.7651 77.0154 70.3032 77.0154H66.9014C66.4395 77.0154 66.0616 76.6459 66.0616 76.1942V72.8681C66.0616 72.4164 66.4395 72.0469 66.9014 72.0469Z" fill="white"/>
<path d="M73.495 72.0469H76.8967C77.3587 72.0469 77.7366 72.4164 77.7366 72.8681V76.1942C77.7366 76.6459 77.3587 77.0154 76.8967 77.0154H73.495C73.0331 77.0154 72.6551 76.6459 72.6551 76.1942V72.8681C72.6551 72.4164 73.0331 72.0469 73.495 72.0469Z" fill="white"/>
<path d="M52.0346 42.5422H80.5716V48.7223H52.0346V42.5422Z" fill="#ECF0F1"/>
<path d="M77.6319 43.2815C78.0729 43.2815 78.4929 43.4663 78.7868 43.7538C79.0807 44.0412 79.2698 44.452 79.2698 44.883V46.0533C79.2698 46.505 79.0809 46.8952 78.7868 47.1825C78.4929 47.4699 78.0727 47.6548 77.6319 47.6548C77.191 47.6548 76.7709 47.4701 76.477 47.1825C76.1831 46.8952 75.994 46.4844 75.994 46.0533V44.883C75.994 44.4313 76.1829 44.0412 76.477 43.7538C76.7711 43.4664 77.1909 43.2815 77.6319 43.2815ZM78.3668 44.1644C78.1779 43.9796 77.9049 43.8564 77.6319 43.8564C77.338 43.8564 77.0859 43.9796 76.8969 44.1644C76.708 44.3492 76.5819 44.6161 76.5819 44.883V46.0533C76.5819 46.3407 76.708 46.5872 76.8969 46.7719C77.0859 46.9567 77.3589 47.0799 77.6319 47.0799C77.9258 47.0799 78.1779 46.9567 78.3668 46.7719C78.5558 46.5872 78.6818 46.3202 78.6818 46.0533V44.883C78.6818 44.5955 78.5558 44.3492 78.3668 44.1644Z" fill="#807E7E"/>
<path d="M20.7677 29.8125H36.1596V31.2087H20.7677V29.8125Z" fill="#83CF8F"/>
<path d="M25.2402 33.4673H42.4802V34.8634H25.2402V33.4673Z" fill="#C6CBD6"/>
<path d="M25.2402 38.6619H42.4802V40.0374H25.2402V38.6619Z" fill="#C6CBD6"/>
<path d="M25.2402 43.8357H42.4802V45.232H25.2402V43.8357Z" fill="#C6CBD6"/>
<path d="M25.2402 49.0305H42.4802V50.4062H25.2402V49.0305Z" fill="#C6CBD6"/>
<path d="M25.2402 54.2043H33.8708V55.6005H25.2402V54.2043Z" fill="#FF7069"/>
<path d="M12.6832 59.7891H14.1741V61.2469H12.6832V59.7891ZM42.6482 59.7891H44.1392V61.2469H42.6482V59.7891ZM39.3094 59.7891H40.8004V61.2469H39.3094V59.7891ZM35.9706 59.7891H37.4616V61.2469H35.9706V59.7891ZM32.6319 59.7891H34.1228V61.2469H32.6319V59.7891ZM29.2931 59.7891H30.784V61.2469H29.2931V59.7891ZM25.9543 59.7891H27.4453V61.2469H25.9543V59.7891ZM22.6155 59.7891H24.1065V61.2469H22.6155V59.7891ZM19.2767 59.7891H20.7677V61.2469H19.2767V59.7891ZM15.9379 59.7891H17.4289V61.2469H15.9379V59.7891Z" fill="#C6CBD6"/>
<path d="M14.972 37.5529C14.972 36.6906 15.161 35.9925 15.518 35.4586C15.875 34.9248 16.421 34.5757 17.1348 34.432V33.4875H18.8147V34.432C19.5497 34.5757 20.0957 34.9248 20.4736 35.438C20.8306 35.9718 21.0196 36.67 21.0196 37.5527V37.9633H19.0666V37.4295C19.0666 36.9572 18.9826 36.6494 18.7937 36.444C18.6047 36.2592 18.3526 36.1566 18.0376 36.1566C17.7226 36.1566 17.4707 36.2592 17.2816 36.444C17.0926 36.6287 17.0086 36.9572 17.0086 37.4295C17.0086 37.8607 17.1135 38.2507 17.3025 38.5587C17.4915 38.8667 17.7435 39.1747 18.0585 39.4416C18.3524 39.7086 18.6674 39.9755 19.0245 40.2424C19.3604 40.5093 19.6965 40.7967 19.9904 41.1253C20.2843 41.4538 20.5363 41.8439 20.7464 42.2752C20.9354 42.7064 21.0403 43.2196 21.0403 43.8356C21.0403 44.7186 20.8513 45.4165 20.4734 45.9504C20.0955 46.4842 19.5495 46.8333 18.8146 46.977V47.901H17.1346V46.977C16.3786 46.8333 15.8328 46.4842 15.4547 45.9504C15.0977 45.4165 14.9087 44.6979 14.9087 43.8356V42.9527H16.8616V43.9587C16.8616 44.431 16.9666 44.7388 17.1555 44.9238C17.3445 45.1087 17.5966 45.1907 17.9325 45.1907C18.2475 45.1907 18.5205 45.1085 18.7095 44.9238C18.8984 44.739 19.0034 44.4106 19.0034 43.9587C19.0034 43.5275 18.8984 43.1375 18.7095 42.8295C18.5205 42.5215 18.2684 42.2135 17.9534 41.9466C17.6595 41.6796 17.3234 41.4127 16.9875 41.1458C16.6516 40.8789 16.3155 40.5915 16.0216 40.2629C15.7277 39.9344 15.4756 39.5443 15.2655 39.113C15.0555 38.6818 14.972 38.1689 14.972 37.5529Z" fill="#FFE356"/>
</g>
<defs>
<filter id="filter0_d" x="-4" y="0" width="96" height="87" filterUnits="userSpaceOnUse" color-interpolation-filters="sRGB">
<feFlood flood-opacity="0" result="BackgroundImageFix"/>
<feColorMatrix in="SourceAlpha" type="matrix" values="0 0 0 0 0 0 0 0 0 0 0 0 0 0 0 0 0 0 127 0"/>
<feOffset dy="4"/>
<feGaussianBlur stdDeviation="2"/>
<feColorMatrix type="matrix" values="0 0 0 0 0 0 0 0 0 0 0 0 0 0 0 0 0 0 0.25 0"/>
<feBlend mode="normal" in2="BackgroundImageFix" result="effect1_dropShadow"/>
<feBlend mode="normal" in="SourceGraphic" in2="effect1_dropShadow" result="shape"/>
</filter>
<clipPath id="clip0">
<rect width="88" height="79" fill="white"/>
</clipPath>
</defs>
</svg>
