<svg width="1861" height="850" viewBox="0 0 1861 850" fill="none" xmlns="http://www.w3.org/2000/svg">
<rect x="34.9808" y="219" width="127.127" height="108.875" transform="rotate(18.7412 34.9808 219)" fill="url(#paint0_linear)" fill-opacity="0.06"/>
<rect x="571.845" y="775" width="56.9003" height="50.5573" transform="rotate(36.1795 571.845 775)" fill="url(#paint1_linear)" fill-opacity="0.13"/>
<rect x="430.246" y="321.859" width="27.9299" height="32.2487" transform="rotate(-150.24 430.246 321.859)" fill="url(#paint2_linear)" fill-opacity="0.2"/>
<rect x="1736" y="722.335" width="39.9459" height="27.578" transform="rotate(-43.1818 1736 722.335)" fill="url(#paint3_linear)" fill-opacity="0.1"/>
<rect x="1238.4" y="191.265" width="36.6222" height="34.0701" transform="rotate(146.059 1238.4 191.265)" fill="url(#paint4_linear)" fill-opacity="0.1"/>
<rect x="1794" y="215.226" width="55.8603" height="63.2163" transform="rotate(-43.1818 1794 215.226)" fill="url(#paint5_linear)" fill-opacity="0.1"/>
<rect x="391.351" width="52.6845" height="62.1468" transform="rotate(54.1153 391.351 0)" fill="url(#paint6_linear)" fill-opacity="0.06"/>
<defs>
<linearGradient id="paint0_linear" x1="98.5444" y1="219" x2="137.623" y2="329.75" gradientUnits="userSpaceOnUse">
<stop stop-color="#FEE5A5"/>
<stop offset="0.9375" stop-color="#FFD600"/>
</linearGradient>
<linearGradient id="paint1_linear" x1="600.295" y1="775" x2="618.964" y2="825.997" gradientUnits="userSpaceOnUse">
<stop stop-color="#FEE5A5"/>
<stop offset="0.9375" stop-color="#FFD600"/>
</linearGradient>
<linearGradient id="paint2_linear" x1="444.211" y1="321.859" x2="458.521" y2="351.94" gradientUnits="userSpaceOnUse">
<stop stop-color="#FEE5A5"/>
<stop offset="0.9375" stop-color="#FFD600"/>
</linearGradient>
<linearGradient id="paint3_linear" x1="1755.97" y1="722.335" x2="1764.27" y2="751.52" gradientUnits="userSpaceOnUse">
<stop stop-color="#FEE5A5"/>
<stop offset="0.9375" stop-color="#FFD600"/>
</linearGradient>
<linearGradient id="paint4_linear" x1="1256.72" y1="191.265" x2="1269.74" y2="225.245" gradientUnits="userSpaceOnUse">
<stop stop-color="#FEE5A5"/>
<stop offset="0.9375" stop-color="#FFD600"/>
</linearGradient>
<linearGradient id="paint5_linear" x1="1821.93" y1="215.226" x2="1849.63" y2="274.624" gradientUnits="userSpaceOnUse">
<stop stop-color="#FEE5A5"/>
<stop offset="0.9375" stop-color="#FFD600"/>
</linearGradient>
<linearGradient id="paint6_linear" x1="417.693" y1="0" x2="445.641" y2="57.5053" gradientUnits="userSpaceOnUse">
<stop stop-color="#FEE5A5"/>
<stop offset="0.9375" stop-color="#FFD600"/>
</linearGradient>
</defs>
</svg>
