<svg width="1820" height="619" viewBox="0 0 1820 619" fill="none" xmlns="http://www.w3.org/2000/svg">
<path d="M13.8629 23.9241L15.2586 28.0672L13.5982 28.4494C13.34 28.4907 13.0923 28.5958 12.8754 28.7561C12.6584 28.9164 12.4783 29.1274 12.3497 29.3719C12.2231 29.6523 12.1577 29.9573 12.1584 30.2637C12.1591 30.5701 12.2258 30.8698 12.3536 31.1397L14.2645 36.7636C14.4674 37.334 14.5892 37.9361 14.6257 38.5506C14.6664 38.9857 14.6146 39.4286 14.4739 39.8467C14.3636 40.1393 14.2219 40.4185 14.0517 40.6787C13.9447 40.8618 13.801 41.0185 13.6315 41.1372L13.4505 41.2889L13.7199 41.3288C13.9398 41.3854 14.1548 41.4598 14.363 41.5512C14.687 41.6853 14.9913 41.8649 15.2681 42.0854C15.6037 42.3864 15.9017 42.7314 16.1556 43.1125C16.5152 43.6294 16.8003 44.2018 17.002 44.8116L18.9183 50.4665C19.0929 51.0799 19.4715 51.5983 19.9854 51.9274C20.4757 52.236 21.0629 52.3368 21.6339 52.2104L23.321 51.8412L24.6634 56.0289L22.1395 56.5683C20.5498 56.978 18.8949 56.7484 17.4984 55.9246C16.0844 54.9909 15.0356 53.5552 14.5297 51.8603L12.5993 45.8808C12.4167 45.2344 12.0178 44.6883 11.476 44.3429C10.9337 44.0222 10.2916 43.9297 9.67289 44.0833L8.36053 40.2422C8.6432 40.2061 8.91645 40.1008 9.15861 39.9347C9.40077 39.7686 9.60518 39.5463 9.75566 39.2854C9.88516 39.0035 9.954 38.6965 9.95702 38.3873C9.96003 38.0781 9.89715 37.7747 9.77306 37.4998L7.76018 31.5718C7.43807 30.8451 7.27014 30.0474 7.26789 29.2332C7.26564 28.4191 7.42911 27.6075 7.74713 26.8542C8.1384 26.1866 8.66828 25.6201 9.29433 25.1999C9.92038 24.7797 10.6252 24.5176 11.3522 24.4346L13.8629 23.9241Z" fill="#FFF2C4" fill-opacity="0.47"/>
<path d="M1222.16 429.299L1220.93 431.716L1219.8 431.244C1219.63 431.162 1219.44 431.113 1219.24 431.102C1219.04 431.09 1218.83 431.115 1218.64 431.176C1218.43 431.254 1218.25 431.366 1218.1 431.505C1217.95 431.644 1217.84 431.806 1217.78 431.978L1216.12 435.265C1215.96 435.602 1215.73 435.922 1215.46 436.214C1215.27 436.427 1215.02 436.607 1214.74 436.741C1214.53 436.831 1214.31 436.902 1214.09 436.954C1213.94 436.995 1213.78 437.01 1213.63 436.998L1213.45 436.996L1213.58 437.119C1213.68 437.23 1213.77 437.347 1213.84 437.47C1213.96 437.656 1214.05 437.856 1214.1 438.063C1214.14 438.33 1214.14 438.601 1214.1 438.873C1214.05 439.246 1213.93 439.616 1213.75 439.97L1212.08 443.274C1211.88 443.619 1211.84 444.001 1211.97 444.349C1212.1 444.679 1212.39 444.953 1212.77 445.118L1213.91 445.606L1212.63 448.023L1210.93 447.286C1209.83 446.854 1209 446.107 1208.61 445.192C1208.26 444.22 1208.37 443.163 1208.9 442.199L1210.73 438.744C1210.94 438.38 1210.98 437.978 1210.84 437.611C1210.69 437.255 1210.37 436.964 1209.94 436.793L1211.07 434.545C1211.25 434.639 1211.45 434.697 1211.67 434.716C1211.89 434.735 1212.12 434.714 1212.33 434.654C1212.54 434.577 1212.73 434.465 1212.88 434.326C1213.03 434.187 1213.15 434.026 1213.21 433.853L1214.96 430.388C1215.13 429.935 1215.42 429.508 1215.82 429.139C1216.22 428.77 1216.71 428.466 1217.25 428.249C1217.8 428.099 1218.38 428.048 1218.94 428.101C1219.5 428.154 1220.03 428.31 1220.48 428.554L1222.16 429.299Z" fill="#FFF2C4" fill-opacity="0.47"/>
<path d="M35.9817 19.1454C37.5714 18.7357 39.2263 18.9653 40.6228 19.789C42.035 20.718 43.0814 22.1507 43.5835 23.8424L45.5032 29.8308C45.6859 30.4772 46.0847 31.0233 46.6265 31.3687C47.1697 31.6869 47.8109 31.7792 48.4296 31.6283L49.742 35.4694C49.4622 35.5067 49.1917 35.6104 48.9505 35.7726C48.7094 35.9349 48.504 36.1515 48.3495 36.4064C48.2198 36.6894 48.15 36.9973 48.1452 37.3076C48.1403 37.618 48.2005 37.9231 48.3214 38.2009L50.3369 44.109C50.6619 44.8365 50.832 45.6358 50.8356 46.452C50.8393 47.2682 50.6763 48.0821 50.358 48.8376C49.9667 49.5051 49.4368 50.0717 48.8107 50.4919C48.1847 50.9121 47.4799 51.1742 46.7528 51.2572L44.2289 51.7966L42.8864 47.6088L44.5629 47.2486C44.8211 47.2091 45.0695 47.1073 45.2888 46.9511C45.5081 46.7949 45.6924 46.5886 45.8275 46.348C45.9496 46.0812 46.0159 45.7912 46.0218 45.4987C46.0276 45.2061 45.9727 44.9181 45.8611 44.6551L43.9448 39.0003C43.7392 38.4264 43.6148 37.8207 43.5755 37.2023C43.5352 36.7702 43.5899 36.3304 43.7354 35.9172C43.8567 35.6367 43.9969 35.3653 44.1549 35.1051C44.2607 34.9087 44.4132 34.7442 44.5965 34.6287L44.7562 34.4948L44.4948 34.466C44.2764 34.4044 44.0617 34.3301 43.8517 34.2435C43.5214 34.1128 43.2135 33.929 42.9385 33.6984C42.6036 33.3966 42.3056 33.0518 42.051 32.6713C41.6921 32.1539 41.4071 31.5817 41.2047 30.9721L39.2938 25.3482C39.1102 24.7292 38.7273 24.205 38.2106 23.8653C37.7161 23.5205 37.1087 23.3956 36.5139 23.5164L34.8375 23.8766L33.4418 19.7335L35.9817 19.1454Z" fill="#FFF2C4" fill-opacity="0.47"/>
<path d="M1237.07 435.73C1238.17 436.162 1239 436.909 1239.39 437.824C1239.74 438.793 1239.64 439.848 1239.1 440.809L1237.27 444.264C1237.05 444.628 1237.01 445.03 1237.15 445.397C1237.31 445.752 1237.63 446.043 1238.05 446.215L1236.92 448.463C1236.75 448.371 1236.54 448.313 1236.32 448.293C1236.11 448.272 1235.89 448.29 1235.67 448.346C1235.46 448.423 1235.27 448.536 1235.12 448.674C1234.96 448.813 1234.85 448.974 1234.78 449.147L1233.04 452.603C1232.87 453.059 1232.58 453.487 1232.18 453.857C1231.79 454.228 1231.3 454.533 1230.75 454.751C1230.2 454.901 1229.62 454.952 1229.06 454.899C1228.5 454.846 1227.97 454.69 1227.52 454.446L1225.82 453.709L1227.1 451.293L1228.23 451.781C1228.4 451.863 1228.59 451.914 1228.79 451.928C1228.99 451.943 1229.19 451.921 1229.39 451.865C1229.59 451.791 1229.77 451.686 1229.91 451.556C1230.06 451.426 1230.17 451.274 1230.23 451.112L1231.9 447.808C1232.07 447.469 1232.29 447.146 1232.57 446.851C1232.76 446.64 1233.01 446.462 1233.29 446.332C1233.5 446.252 1233.71 446.184 1233.92 446.127C1234.08 446.08 1234.25 446.064 1234.41 446.083L1234.56 446.085L1234.43 445.97C1234.34 445.857 1234.25 445.74 1234.17 445.62C1234.05 445.432 1233.96 445.229 1233.92 445.018C1233.88 444.751 1233.88 444.48 1233.92 444.209C1233.96 443.835 1234.08 443.465 1234.26 443.111L1235.92 439.824C1236.12 439.472 1236.16 439.086 1236.03 438.732C1235.92 438.384 1235.63 438.091 1235.24 437.915L1234.11 437.426L1235.34 435.009L1237.07 435.73Z" fill="#FFF2C4" fill-opacity="0.47"/>
<path d="M34.1848 27.754L31.7897 37.235L40.3177 44.7508L35.4057 45.8042L30.0385 41.1822L28.3295 47.3256L23.4361 48.381L26.0488 38.4695L17.9562 31.2442L23.0441 30.1496L27.7868 34.5512L29.1075 28.8396L34.1848 27.754Z" fill="#FFF2C4" fill-opacity="0.47"/>
<path d="M1231.84 438.927L1225.86 442.287L1227.03 449.001L1223.73 447.569L1222.93 443.393L1218.96 445.509L1215.67 444.085L1221.99 440.615L1220.92 434.201L1224.34 435.683L1224.89 439.517L1228.43 437.446L1231.84 438.927Z" fill="#FFF2C4" fill-opacity="0.47"/>
<path d="M293.306 543.26L299.892 557.376L279.961 576.402L312.115 583.526L318.701 597.641L265.24 585.218L260.636 575.415L293.306 543.26Z" fill="#F8F3EA" fill-opacity="0.15"/>
<path d="M1787.31 4.24453L1785.97 11.8415L1774.53 16.7203L1783.5 25.9198L1782.17 33.5169L1767.39 17.96L1768.3 12.6783L1787.31 4.24453Z" fill="#F8F3EA" fill-opacity="0.22"/>
<path d="M337.561 532.851L391.02 545.289L395.59 555.056L362.948 587.239L356.343 573.098L376.264 554.082L344.165 546.992L337.561 532.851Z" fill="#F8F3EA" fill-opacity="0.15"/>
<path d="M1804.74 7.78209L1819.51 23.3454L1818.59 28.6042L1799.59 37.0561L1800.93 29.4441L1812.37 24.5682L1803.4 15.3941L1804.74 7.78209Z" fill="#F8F3EA" fill-opacity="0.22"/>
<path d="M318.747 526.094L328.005 523.999L340.987 603.543L331.728 605.582L318.747 526.094Z" fill="#F8F3EA" fill-opacity="0.15"/>
<path d="M1800.13 1.23058L1803.76 2.00798L1788.15 40.3278L1784.53 39.5254L1800.13 1.23058Z" fill="#F8F3EA" fill-opacity="0.22"/>
<path d="M473.693 93.9173C473.867 93.9448 474.007 94.0318 474.114 94.1782C474.22 94.3247 474.259 94.4848 474.232 94.6587L471.806 109.972C471.778 110.146 471.691 110.286 471.545 110.392C471.398 110.498 471.238 110.538 471.064 110.51L466.181 109.737C466.007 109.709 465.867 109.622 465.761 109.476C465.655 109.329 465.615 109.169 465.643 108.995L466.443 103.946L461.702 103.195L460.902 108.244C460.874 108.418 460.787 108.558 460.641 108.665C460.494 108.771 460.334 108.81 460.16 108.783L455.277 108.009C455.103 107.982 454.962 107.903 454.853 107.772C454.747 107.626 454.709 107.457 454.739 107.268L457.165 91.9548C457.192 91.781 457.279 91.6409 457.426 91.5345C457.572 91.4281 457.732 91.3886 457.906 91.4162L462.789 92.1898C462.963 92.2173 463.103 92.3043 463.209 92.4508C463.316 92.5972 463.355 92.7574 463.328 92.9312L462.558 97.7906L467.299 98.5417L468.069 93.6823C468.096 93.5084 468.183 93.3683 468.33 93.2619C468.476 93.1555 468.636 93.1161 468.81 93.1436L473.693 93.9173ZM494.354 97.1905C494.528 97.218 494.668 97.305 494.774 97.4514C494.881 97.5979 494.92 97.758 494.893 97.9319L494.288 101.748C494.261 101.922 494.174 102.062 494.027 102.169C493.881 102.275 493.721 102.314 493.547 102.287L488.45 101.479L486.73 112.336C486.703 112.51 486.616 112.65 486.469 112.756C486.323 112.863 486.163 112.902 485.989 112.875L481.106 112.101C480.932 112.074 480.792 111.987 480.685 111.84C480.579 111.694 480.54 111.534 480.567 111.36L482.287 100.503L477.191 99.6957C477.017 99.6682 476.877 99.5812 476.77 99.4347C476.664 99.2883 476.625 99.1281 476.652 98.9543L477.257 95.1379C477.284 94.9641 477.371 94.8239 477.518 94.7175C477.664 94.6111 477.824 94.5717 477.998 94.5993L494.354 97.1905ZM509.556 100.255C509.861 99.8658 510.235 99.7063 510.677 99.7764L515.015 100.464C515.189 100.491 515.329 100.578 515.435 100.725C515.542 100.871 515.581 101.031 515.554 101.205L513.128 116.518C513.1 116.692 513.013 116.832 512.867 116.938C512.72 117.045 512.56 117.084 512.386 117.057L508.096 116.377C507.922 116.349 507.782 116.262 507.675 116.116C507.569 115.97 507.53 115.809 507.557 115.636L508.721 108.287L506.45 111.427C506.385 111.53 506.255 111.639 506.058 111.753C505.862 111.868 505.629 111.904 505.361 111.861L503.749 111.606C503.48 111.563 503.27 111.457 503.119 111.288C502.968 111.118 502.877 110.974 502.847 110.856L501.657 107.168L500.493 114.516C500.466 114.69 500.379 114.83 500.232 114.937C500.086 115.043 499.926 115.083 499.752 115.055L495.461 114.375C495.288 114.348 495.147 114.261 495.041 114.114C494.935 113.968 494.895 113.808 494.923 113.634L497.349 98.321C497.376 98.1471 497.463 98.007 497.61 97.9006C497.756 97.7942 497.916 97.7548 498.09 97.7823L502.428 98.4696C502.871 98.5397 503.176 98.8068 503.346 99.2711L505.55 105.452L509.556 100.255ZM532.798 115.309C532.972 115.337 533.112 115.424 533.218 115.57C533.325 115.716 533.364 115.877 533.336 116.05L532.769 119.63C532.742 119.804 532.655 119.944 532.508 120.05C532.362 120.157 532.202 120.196 532.028 120.168L518.185 117.975C518.011 117.948 517.871 117.861 517.764 117.714C517.658 117.568 517.618 117.408 517.646 117.234L520.072 101.921C520.1 101.747 520.187 101.607 520.333 101.501C520.479 101.394 520.64 101.355 520.813 101.382L525.934 102.193C526.107 102.221 526.247 102.308 526.354 102.454C526.46 102.601 526.5 102.761 526.472 102.935L524.715 114.028L532.798 115.309Z" fill="#FFCF25" fill-opacity="0.22"/>
</svg>
