<svg width="88" height="83" viewBox="0 0 88 83" fill="none" xmlns="http://www.w3.org/2000/svg">
<g clip-path="url(#clip0)" filter="url(#filter0_d)">
<path d="M26.4016 0.436784C25.7005 0.847761 24.54 1.86307 23.9959 2.3586C29.7018 -0.312571 35.2866 7.43516 38.9375 12.4029C39.7113 13.4544 40.4124 14.4819 41.0289 15.4367C42.2377 15.2555 43.4949 15.0136 44.8247 14.6995C46.5896 13.8533 35.5164 -4.83314 26.4016 0.436784Z" fill="#FEFEFE"/>
<path d="M23.9959 2.35864C18.8461 8.10001 23.7299 18.0717 41.0287 15.4368C40.4122 14.4941 39.7111 13.4666 38.9374 12.403C38.8769 12.3184 38.8045 12.2337 38.744 12.137C29.7502 12.3063 24.2015 8.40218 23.9959 2.35864Z" fill="#E4E7ED"/>
<path d="M63.6103 0.436784C64.3114 0.847761 65.4719 1.86307 66.016 2.3586C60.3101 -0.312571 54.7253 7.43516 51.0744 12.4029C50.3007 13.4544 49.5995 14.4819 48.983 15.4367C47.7742 15.2555 46.517 15.0136 45.1872 14.6995C43.4223 13.8533 54.4955 -4.83314 63.6103 0.436784Z" fill="#FEFEFE"/>
<path d="M66.016 2.35864C71.1656 8.10001 66.282 18.0717 48.9832 15.4368C49.5997 14.4941 50.3008 13.4666 51.0745 12.403C51.135 12.3184 51.2074 12.2337 51.2679 12.137C60.2617 12.3063 65.8105 8.40218 66.016 2.35864Z" fill="#E4E7ED"/>
<path d="M16.2229 14.5303H72.2294C73.9098 14.5303 75.2758 15.9082 75.2758 17.5762V71.424C75.2758 73.1041 73.8976 74.4699 72.2294 74.4699H16.2229C14.5426 74.4699 13.1766 73.092 13.1766 71.424V17.5762C13.1766 15.8961 14.5547 14.5303 16.2229 14.5303Z" fill="#001379"/>
<path d="M16.0055 16.6697H72.4473C74.0067 16.6697 75.276 17.9388 75.276 19.498V69.5141C75.276 71.0732 74.0067 72.3424 72.4473 72.3424H16.0055C14.4461 72.3424 13.1768 71.0732 13.1768 69.5141V19.498C13.1766 17.9388 14.4459 16.6697 16.0055 16.6697Z" fill="#5E73BB"/>
<path d="M76.6177 25.3118L75.0462 31.6817L13.0558 31.3917L12.548 25.3118H76.6177Z" fill="#102179"/>
<path d="M12.1492 14.095H77.8629C78.2497 14.095 78.5762 14.4214 78.5762 14.8081V27.3786C78.5762 27.7653 78.2497 28.0917 77.8629 28.0917H12.1492C11.7624 28.0917 11.4359 27.7653 11.4359 27.3786V14.8081C11.4359 14.4214 11.7622 14.095 12.1492 14.095Z" fill="#2C46A5"/>
<path d="M37.8133 14.095H50.3854V74.4818H37.8133V14.095Z" fill="#FEFEFE"/>
<path d="M50.3854 72.3545V74.5061L37.8133 74.4818V72.3545H50.3854Z" fill="#E4E7ED"/>
<path d="M50.3854 28.1643V31.5486L37.8133 31.5124V28.1643H50.3854Z" fill="#E4E7ED"/>
</g>
<defs>
<filter id="filter0_d" x="-4" y="0" width="96" height="83" filterUnits="userSpaceOnUse" color-interpolation-filters="sRGB">
<feFlood flood-opacity="0" result="BackgroundImageFix"/>
<feColorMatrix in="SourceAlpha" type="matrix" values="0 0 0 0 0 0 0 0 0 0 0 0 0 0 0 0 0 0 127 0"/>
<feOffset dy="4"/>
<feGaussianBlur stdDeviation="2"/>
<feColorMatrix type="matrix" values="0 0 0 0 0 0 0 0 0 0 0 0 0 0 0 0 0 0 0.25 0"/>
<feBlend mode="normal" in2="BackgroundImageFix" result="effect1_dropShadow"/>
<feBlend mode="normal" in="SourceGraphic" in2="effect1_dropShadow" result="shape"/>
</filter>
<clipPath id="clip0">
<rect width="88" height="75" fill="white"/>
</clipPath>
</defs>
</svg>
