<svg width="400" height="300" viewBox="0 0 400 300" fill="none" xmlns="http://www.w3.org/2000/svg">
<path d="M200.42 286.63L367 193.12C368.198 192.435 369.199 191.451 369.905 190.265C370.611 189.079 370.997 187.73 371.028 186.35C371.058 184.97 370.73 183.605 370.077 182.389C369.424 181.173 368.467 180.147 367.3 179.41L205.81 79.35C204.582 78.5938 203.173 78.1835 201.732 78.1624C200.29 78.1412 198.869 78.5101 197.62 79.23L21.39 181.51C20.1939 182.218 19.2029 183.225 18.5144 184.432C17.826 185.639 17.4639 187.005 17.4639 188.395C17.4639 189.785 17.826 191.151 18.5144 192.358C19.2029 193.565 20.1939 194.572 21.39 195.28L178.53 286.46C181.849 288.39 185.614 289.42 189.452 289.45C193.291 289.48 197.072 288.508 200.42 286.63Z" fill="#75D3B4"/>
<path style="mix-blend-mode:multiply" d="M204.53 153.09C204.32 152.92 203.11 152.09 202.94 151.98L236.59 131.24L253.85 139.93L218.17 161.42C208.59 155 214 159.74 204.53 153.09Z" fill="url(#paint0_linear)"/>
<path style="mix-blend-mode:multiply" d="M69.91 222C69.7275 221.85 69.5372 221.71 69.34 221.58L102 200.14L196.8 247.9L155 272.83C145.46 266.42 79.37 228.64 69.91 222Z" fill="url(#paint1_linear)"/>
<path d="M285.91 191.83V195.25L284.18 197.37" fill="#ADCEE1"/>
<path d="M217.23 150.22L284 191.57C284.608 191.949 285.108 192.48 285.449 193.11C285.791 193.74 285.963 194.448 285.949 195.165C285.935 195.881 285.735 196.582 285.369 197.198C285.003 197.814 284.483 198.325 283.86 198.68L182.57 256C181.155 256.8 179.555 257.213 177.929 257.199C176.304 257.185 174.711 256.744 173.31 255.92L106.89 216.92C102.06 212.92 102.42 205.49 106.89 205.18L207.55 150.18C209.016 149.309 210.691 148.853 212.396 148.86C214.1 148.867 215.771 149.337 217.23 150.22Z" fill="#88D3D8"/>
<path d="M217.23 147.37L284 188.72C284.608 189.099 285.108 189.63 285.449 190.26C285.791 190.89 285.963 191.598 285.949 192.315C285.935 193.031 285.735 193.732 285.369 194.348C285.003 194.964 284.483 195.475 283.86 195.83L182.57 253.11C181.155 253.91 179.555 254.323 177.929 254.309C176.304 254.295 174.711 253.854 173.31 253.03L106.89 214.03C106.109 213.579 105.461 212.93 105.01 212.149C104.56 211.368 104.322 210.482 104.322 209.58C104.322 208.678 104.56 207.792 105.01 207.011C105.461 206.23 106.109 205.581 106.89 205.13L207.55 147.25C209.023 146.391 210.702 145.949 212.407 145.97C214.112 145.991 215.779 146.475 217.23 147.37Z" fill="white"/>
<path d="M214.51 141.72C214.51 141.72 186.81 52.3 187 52.3C187.19 52.3 186.14 48.3 181.18 50.57L74.83 113.16C74.83 113.16 69.67 115.25 70.68 120.05C71.69 124.85 97.76 207.55 97.76 207.55C98.3029 208.331 99.0795 208.919 99.9781 209.23C100.877 209.541 101.851 209.558 102.76 209.28C106 208.28 212 146.71 212 146.71C212.976 146.355 213.779 145.641 214.246 144.714C214.713 143.786 214.807 142.715 214.51 141.72Z" fill="#274598"/>
<path d="M185.21 58.7999L76.33 122.28L98.91 198.1L209.2 136.51L185.21 58.7999Z" fill="#193A42"/>
<path d="M221.33 156.85L245.73 172.05C246.164 172.319 246.521 172.696 246.766 173.145C247.01 173.593 247.133 174.098 247.123 174.608C247.113 175.119 246.97 175.618 246.708 176.057C246.446 176.496 246.075 176.859 245.63 177.11L158.07 227C156.761 227.756 155.276 228.153 153.765 228.153C152.254 228.153 150.769 227.756 149.46 227C143.83 223.72 134.14 217.81 128.21 214.17C127.681 213.846 127.245 213.391 126.945 212.849C126.645 212.306 126.491 211.695 126.498 211.075C126.505 210.455 126.673 209.848 126.985 209.312C127.298 208.777 127.744 208.331 128.28 208.02C145.99 197.72 203.76 164.12 216.41 156.78C217.159 156.343 218.013 156.119 218.88 156.132C219.747 156.144 220.594 156.392 221.33 156.85Z" fill="#001241"/>
<path d="M220 198.1L189.41 215.3C188.945 215.569 188.559 215.955 188.29 216.42C188.021 216.885 187.88 217.413 187.88 217.95C187.88 218.487 188.021 219.015 188.29 219.48C188.559 219.945 188.945 220.331 189.41 220.6L207.41 231.13C208.027 231.486 208.727 231.674 209.44 231.674C210.153 231.674 210.853 231.486 211.47 231.13L242.77 213.28C243.161 213.056 243.485 212.732 243.711 212.343C243.936 211.953 244.055 211.51 244.055 211.06C244.055 210.61 243.936 210.167 243.711 209.777C243.485 209.388 243.161 209.064 242.77 208.84L224 198.12C223.392 197.772 222.704 197.587 222.003 197.583C221.302 197.58 220.612 197.758 220 198.1Z" fill="#394C7E"/>
<path opacity="0.1" d="M221.33 156.85L245.73 172.05C246.164 172.319 246.521 172.696 246.766 173.145C247.01 173.593 247.133 174.098 247.123 174.608C247.113 175.119 246.97 175.618 246.708 176.057C246.446 176.496 246.075 176.859 245.63 177.11L158.07 227C156.761 227.756 155.276 228.153 153.765 228.153C152.254 228.153 150.769 227.756 149.46 227C143.83 223.72 134.14 217.81 128.21 214.17C127.681 213.846 127.245 213.391 126.945 212.849C126.645 212.306 126.491 211.695 126.498 211.075C126.505 210.455 126.673 209.848 126.985 209.312C127.298 208.777 127.744 208.331 128.28 208.02C145.99 197.72 203.76 164.12 216.41 156.78C217.159 156.343 218.013 156.119 218.88 156.132C219.747 156.144 220.594 156.392 221.33 156.85Z" fill="#56A1CC"/>
<path opacity="0.1" d="M220 198.1L189.41 215.3C188.945 215.569 188.559 215.955 188.29 216.42C188.021 216.885 187.88 217.413 187.88 217.95C187.88 218.487 188.021 219.015 188.29 219.48C188.559 219.945 188.945 220.331 189.41 220.6L207.41 231.13C208.027 231.486 208.727 231.674 209.44 231.674C210.153 231.674 210.853 231.486 211.47 231.13L242.77 213.28C243.161 213.056 243.485 212.732 243.711 212.343C243.936 211.953 244.055 211.51 244.055 211.06C244.055 210.61 243.936 210.167 243.711 209.777C243.485 209.388 243.161 209.064 242.77 208.84L224 198.12C223.392 197.772 222.704 197.587 222.003 197.583C221.302 197.58 220.612 197.758 220 198.1Z" fill="#56A1CC"/>
<path d="M137.638 152.359L169.17 134.292C169.56 134.045 169.84 133.656 169.949 133.207C170.059 132.758 169.99 132.285 169.757 131.886C169.524 131.486 169.146 131.193 168.701 131.067C168.257 130.942 167.781 130.993 167.374 131.211L135.83 149.279C135.44 149.526 135.16 149.914 135.051 150.363C134.941 150.812 135.01 151.286 135.243 151.685C135.476 152.084 135.854 152.377 136.298 152.503C136.743 152.629 137.219 152.577 137.626 152.359H137.638Z" fill="#F2F2F2"/>
<path d="M118.206 144.764L132.62 136.505C132.799 136.392 132.927 136.214 132.977 136.009C133.027 135.804 132.995 135.587 132.889 135.405C132.783 135.222 132.61 135.088 132.406 135.031C132.203 134.973 131.986 134.997 131.799 135.097L117.38 143.356C117.201 143.469 117.073 143.647 117.023 143.852C116.973 144.057 117.005 144.274 117.111 144.456C117.217 144.638 117.39 144.772 117.594 144.83C117.797 144.887 118.014 144.864 118.201 144.764H118.206Z" fill="#F2F2F2"/>
<path d="M138.206 133.764L152.62 125.505C152.799 125.392 152.927 125.214 152.977 125.009C153.027 124.804 152.995 124.587 152.889 124.405C152.783 124.222 152.61 124.088 152.406 124.031C152.203 123.973 151.986 123.997 151.799 124.097L137.38 132.356C137.201 132.469 137.073 132.647 137.023 132.852C136.973 133.057 137.005 133.274 137.111 133.456C137.217 133.638 137.39 133.772 137.594 133.83C137.797 133.887 138.014 133.864 138.201 133.764H138.206Z" fill="#F2F2F2"/>
<path d="M158.206 122.764L172.62 114.505C172.799 114.392 172.927 114.214 172.977 114.009C173.027 113.804 172.995 113.587 172.889 113.405C172.783 113.222 172.61 113.088 172.406 113.031C172.203 112.973 171.986 112.997 171.799 113.097L157.38 121.356C157.201 121.469 157.073 121.647 157.023 121.852C156.973 122.057 157.005 122.274 157.111 122.456C157.217 122.638 157.39 122.772 157.594 122.83C157.797 122.887 158.014 122.864 158.201 122.764H158.206Z" fill="#F2F2F2"/>
<path d="M120.206 150.764L134.62 142.505C134.799 142.392 134.927 142.214 134.977 142.009C135.027 141.804 134.995 141.587 134.889 141.405C134.783 141.222 134.61 141.088 134.406 141.031C134.203 140.973 133.986 140.997 133.799 141.097L119.38 149.356C119.201 149.469 119.073 149.647 119.023 149.852C118.973 150.057 119.005 150.274 119.111 150.456C119.217 150.638 119.39 150.772 119.594 150.83C119.797 150.887 120.014 150.864 120.201 150.764H120.206Z" fill="#F2F2F2"/>
<path d="M140.206 139.764L154.62 131.505C154.799 131.392 154.927 131.214 154.977 131.009C155.027 130.804 154.995 130.587 154.889 130.405C154.783 130.222 154.61 130.088 154.406 130.031C154.203 129.973 153.986 129.997 153.799 130.097L139.38 138.356C139.201 138.469 139.073 138.647 139.023 138.852C138.973 139.057 139.005 139.274 139.111 139.456C139.217 139.638 139.39 139.772 139.594 139.83C139.797 139.887 140.014 139.864 140.201 139.764H140.206Z" fill="#F2F2F2"/>
<path d="M160.206 128.764L174.62 120.505C174.799 120.392 174.927 120.214 174.977 120.009C175.027 119.804 174.995 119.587 174.889 119.405C174.783 119.222 174.61 119.088 174.406 119.031C174.203 118.973 173.986 118.997 173.799 119.097L159.38 127.356C159.201 127.469 159.073 127.647 159.023 127.852C158.973 128.057 159.005 128.274 159.111 128.456C159.217 128.638 159.39 128.772 159.594 128.83C159.797 128.887 160.014 128.864 160.201 128.764H160.206Z" fill="#F2F2F2"/>
<path d="M116.206 137.764L130.62 129.505C130.799 129.392 130.927 129.214 130.977 129.009C131.027 128.804 130.995 128.587 130.889 128.405C130.783 128.222 130.61 128.088 130.406 128.031C130.203 127.973 129.986 127.997 129.799 128.097L115.38 136.356C115.201 136.469 115.073 136.647 115.023 136.852C114.973 137.057 115.005 137.274 115.111 137.456C115.217 137.638 115.39 137.772 115.594 137.83C115.797 137.887 116.014 137.864 116.201 137.764H116.206Z" fill="#F2F2F2"/>
<path d="M136.206 126.764L150.62 118.505C150.799 118.392 150.927 118.214 150.977 118.009C151.027 117.804 150.995 117.587 150.889 117.405C150.783 117.222 150.61 117.088 150.406 117.031C150.203 116.973 149.986 116.997 149.799 117.097L135.38 125.356C135.201 125.469 135.073 125.647 135.023 125.852C134.973 126.057 135.005 126.274 135.111 126.456C135.217 126.638 135.39 126.772 135.594 126.83C135.797 126.887 136.014 126.864 136.201 126.764H136.206Z" fill="#F2F2F2"/>
<path d="M156.206 115.764L170.62 107.505C170.799 107.392 170.927 107.214 170.977 107.009C171.027 106.804 170.995 106.587 170.889 106.405C170.783 106.222 170.61 106.088 170.406 106.031C170.203 105.973 169.986 105.997 169.799 106.097L155.38 114.356C155.201 114.469 155.073 114.647 155.023 114.852C154.973 115.057 155.005 115.274 155.111 115.456C155.217 115.638 155.39 115.772 155.594 115.83C155.797 115.887 156.014 115.864 156.201 115.764H156.206Z" fill="#F2F2F2"/>
<path d="M232.39 123.68V137.41H254.6V123.68" fill="#FFE70D"/>
<path d="M243.49 129.14C249.626 129.14 254.6 126.695 254.6 123.68C254.6 120.664 249.626 118.22 243.49 118.22C237.354 118.22 232.38 120.664 232.38 123.68C232.38 126.695 237.354 129.14 243.49 129.14Z" fill="#B6BA00"/>
<path d="M243.49 143.4C249.626 143.4 254.6 140.955 254.6 137.94C254.6 134.925 249.626 132.48 243.49 132.48C237.354 132.48 232.38 134.925 232.38 137.94C232.38 140.955 237.354 143.4 243.49 143.4Z" fill="#FFE70D"/>
<path d="M255.93 91.76C253.59 90.76 250.34 87.61 247.5 87.71C246.563 90.4334 245.985 93.2672 245.78 96.14C245.241 100.81 245.134 105.52 245.46 110.21C245.527 111.257 245.613 112.3 245.72 113.34C245.748 113.646 245.833 113.945 245.97 114.22C245.97 117.84 245.97 121.463 245.97 125.09C245.984 125.171 246.026 125.245 246.089 125.299C246.152 125.352 246.232 125.381 246.315 125.381C246.398 125.381 246.478 125.352 246.541 125.299C246.604 125.245 246.646 125.171 246.66 125.09C246.66 121.603 246.66 118.12 246.66 114.64C247.772 114.272 248.839 113.779 249.84 113.17C251.926 111.86 253.503 109.878 254.31 107.55C256.1 102.55 254.97 96.99 256.67 92.05C256.42 91.95 256.18 91.86 255.93 91.76Z" fill="#297600"/>
<path d="M251.13 83.58C249.82 84.3665 248.741 85.4839 248 86.82C247.799 87.1353 247.632 87.4704 247.5 87.82L247.4 88.03C247.188 88.5918 247.011 89.1663 246.87 89.75C247.139 89.3082 247.558 88.978 248.05 88.82C248.632 88.5649 249.281 88.5052 249.9 88.65C250.502 88.8816 251.073 89.1873 251.6 89.56C252.39 90.04 253.15 90.56 253.94 91.07C257.62 93.41 262.52 93.65 265.36 90.24C265.36 90.11 265.43 89.97 265.46 89.83C265.83 87.47 259.27 78.85 251.13 83.58Z" fill="#5FAD00"/>
<path d="M263.69 91.66L264.15 91.36C264.156 91.3127 264.151 91.2646 264.135 91.2195C264.12 91.1744 264.094 91.1335 264.06 91.1C261.84 88.82 259.45 86.58 256.41 85.45C254.233 84.6242 251.876 84.3929 249.58 84.78C249.33 85.07 249.11 85.37 248.89 85.67C251.508 84.9845 254.281 85.2138 256.75 86.32C259.355 87.6047 261.68 89.3924 263.59 91.58C263.618 91.613 263.652 91.6401 263.69 91.66Z" fill="#297600"/>
<path d="M226.41 96.63C224.797 97.4613 223.463 98.7477 222.575 100.33C221.686 101.912 221.281 103.72 221.41 105.53C221.67 112.08 232.47 105.69 235.34 100.16C238.21 94.63 238.66 102.52 238.66 102.52" fill="#297600"/>
<path d="M236.12 94.34C234.089 94.3033 232.065 94.5833 230.12 95.17C228.815 95.4822 227.56 95.9736 226.39 96.63C227.069 97.0859 227.793 97.4713 228.55 97.78C229.961 98.1983 231.19 99.0788 232.04 100.28C232.216 100.597 232.357 100.932 232.46 101.28C233.12 103.44 232.55 106.05 233.46 108.22C234.37 110.39 236.16 112.3 238.71 112.46C241.71 112.65 243.15 109.72 243.71 107.19C244.27 104.66 245.13 101.19 244.17 98.61C243.07 95.57 239 94.48 236.12 94.34Z" fill="#5FAD00"/>
<path d="M240.13 104.57C238.85 100.43 236.13 96.5699 232.18 94.6899H232L231.81 94.7499L231.09 94.9399C235.7 96.6499 238.6 101.2 239.79 105.85C241.3 111.8 240.79 118.24 240.79 124.32C240.79 124.405 240.824 124.486 240.884 124.546C240.944 124.606 241.025 124.64 241.11 124.64C241.195 124.64 241.276 124.606 241.336 124.546C241.396 124.486 241.43 124.405 241.43 124.32C241.47 117.83 242.07 110.86 240.13 104.57Z" fill="#297600"/>
<defs>
<linearGradient id="paint0_linear" x1="237.46" y1="132.61" x2="219.77" y2="158.66" gradientUnits="userSpaceOnUse">
<stop stop-color="#78B46A"/>
<stop offset="1" stop-color="white"/>
</linearGradient>
<linearGradient id="paint1_linear" x1="18523" y1="16009.5" x2="17320.6" y2="19115.1" gradientUnits="userSpaceOnUse">
<stop stop-color="#78B46A"/>
<stop offset="1" stop-color="white"/>
</linearGradient>
</defs>
</svg>
