<svg width="18" height="17" viewBox="0 0 18 17" fill="none" xmlns="http://www.w3.org/2000/svg">
<g clip-path="url(#clip0)">
<path d="M11.9203 8.42006C11.8185 6.4602 10.3651 5.2819 8.61421 5.2819H8.54809C6.51549 5.2819 5.39141 6.87677 5.39141 8.68719C5.39141 10.7132 6.75089 11.9933 8.53486 11.9933C10.5185 11.9933 11.8291 10.5386 11.9243 8.81944L11.9203 8.42006ZM8.55205 3.52702C9.89641 3.54771 11.1777 4.10083 12.1147 5.06502C12.1147 4.61407 12.4176 4.27156 12.8381 4.27156H12.9439C13.6051 4.27156 13.7374 4.89443 13.7374 5.09147V12.0872C13.7233 12.1806 13.7388 12.276 13.7816 12.3601C13.8244 12.4443 13.8924 12.513 13.9761 12.5567C14.0598 12.6003 14.1551 12.6168 14.2486 12.6038C14.3421 12.5907 14.4292 12.5488 14.4978 12.4839C15.6205 11.3294 16.9641 6.5488 13.7995 3.77961C10.8518 1.20746 6.89239 1.63329 4.78838 3.084C2.54948 4.62862 1.11728 8.04449 2.51245 11.2527C4.0293 14.7532 8.36823 15.7966 10.947 14.7559C12.2536 14.2269 12.8566 15.9937 11.4998 16.5703C9.45131 17.4431 3.74762 17.3558 1.08289 12.7352C-0.722241 9.62348 -0.625703 4.13931 4.14832 1.29871C7.8009 -0.875388 12.612 -0.273677 15.5213 2.75339C18.5563 5.92726 18.3791 11.8611 15.4182 14.1687C14.0772 15.2174 12.0843 14.1978 12.0975 12.6691L12.083 12.1692C11.6201 12.6344 11.0699 13.0035 10.464 13.2554C9.85802 13.5073 9.20828 13.637 8.55205 13.6371C5.87675 13.6371 3.52677 11.2831 3.52677 8.61181C3.52677 5.91006 5.88072 3.52835 8.55205 3.52835" fill="#573E0D"/>
</g>
<defs>
<clipPath id="clip0">
<rect width="17.7194" height="17" fill="white"/>
</clipPath>
</defs>
</svg>
