<svg width="129" height="263" viewBox="0 0 129 263" fill="none" xmlns="http://www.w3.org/2000/svg">
<g filter="url(#filter0_d)">
<path d="M123.173 12.4901C123.328 12.0944 123.391 11.6742 123.359 11.2555C123.327 10.8369 123.2 10.4286 122.986 10.0559C122.679 9.55608 122.195 9.16307 121.612 8.93919C121.029 8.71532 120.38 8.6734 119.767 8.82011C119.771 8.7515 119.771 8.68274 119.767 8.61414C119.756 8.27854 119.7 7.94536 119.601 7.62175C119.409 6.98876 119.003 6.42572 118.438 6.01146C118.235 5.86692 118.012 5.74728 117.774 5.65569C119.529 4.93816 121.612 3.92846 122.298 3.59105C124.19 2.65919 126.197 0.805147 124.12 2.57123e-08C121.902 -0.000124045 121.111 0.448725 117.552 2.24462C115.179 3.59105 112.859 4.1515 111.129 6.0489C110.231 5.76988 109.265 5.71658 108.336 5.8947C107.407 6.07283 106.549 6.47566 105.855 7.06002C102.944 9.38773 100.21 11.89 97.6732 14.5498C97.4511 14.7812 97.3289 15.077 97.3289 15.383C97.3289 15.689 97.4511 15.9848 97.6732 16.2162C97.5022 16.4888 97.4433 16.8071 97.5071 17.115C97.6317 17.6954 97.7771 18.2572 97.9224 18.8189C98.1456 19.7588 98.437 20.6846 98.7946 21.5901C98.9076 21.8834 99.1325 22.131 99.4291 22.2887C99.7257 22.4465 100.075 22.5041 100.414 22.4514C100.318 22.6368 100.278 22.8417 100.298 23.0455C100.318 23.2494 100.397 23.4448 100.528 23.6121C100.659 23.7793 100.836 23.9125 101.042 23.998C101.248 24.0836 101.476 24.1185 101.702 24.0992C106.042 23.7247 110.34 23.2191 114.638 22.5638C118.023 22.0395 121.865 21.3467 122.944 17.9201C123.004 17.7114 123.004 17.4923 122.944 17.2835C123.567 16.7926 124.003 16.1376 124.19 15.4111C124.323 14.8866 124.299 14.3396 124.12 13.8263C123.941 13.313 123.614 12.8518 123.173 12.4901Z" fill="#F1A74F"/>
<path d="M119.529 8.52952C118.082 8.94665 116.635 10.2743 115.339 11.0044C114.672 9.29864 113.647 7.73298 112.323 6.39832C111.869 5.91852 111.105 6.62863 111.559 7.10843C113.332 8.71788 114.474 10.8327 114.802 13.1155C114.699 15.5529 112.241 15.7064 110.774 13.9984C110.01 13.0963 109.369 12.0791 108.708 11.1004C108.337 10.5822 107.407 11.1004 107.779 11.5994L109.845 14.4974C110.209 15.1744 110.766 15.7454 111.456 16.1479C112.104 16.321 112.79 16.3342 113.446 16.1861C114.101 16.038 114.704 15.7338 115.195 15.3034C115.587 14.8359 115.834 14.2769 115.907 13.6877C115.979 13.0985 115.876 12.5021 115.608 11.964H115.752C117 11.254 118.526 9.82612 119.925 9.42741C120.606 9.13953 120.19 8.29922 119.529 8.52952Z" fill="#42210B"/>
<path d="M117.318 14.7582C118.171 14.2289 119.111 13.867 120.09 13.6904L123.114 12.7752C123.246 12.7286 123.356 12.6311 123.421 12.5029C123.486 12.3747 123.501 12.2255 123.464 12.0859C123.426 11.9464 123.338 11.8271 123.218 11.7526C123.099 11.6782 122.956 11.6542 122.82 11.6856C121.027 12.1407 119.26 12.7009 117.528 13.3635C116.986 13.5433 116.509 13.8895 116.161 14.3564C115.812 14.8232 115.608 15.3888 115.575 15.9785C115.564 16.3585 115.668 16.7326 115.871 17.0489C116.074 17.3653 116.367 17.6081 116.709 17.7437C116.422 18.0213 116.195 18.3592 116.043 18.7349C115.891 19.1106 115.817 19.5155 115.827 19.9228C115.845 20.2925 115.974 20.647 116.196 20.9364C116.419 21.2258 116.723 21.4353 117.066 21.5354C117.203 21.5668 117.345 21.5428 117.465 21.4684C117.585 21.3939 117.673 21.2746 117.71 21.1351C117.748 20.9955 117.733 20.8463 117.668 20.7181C117.602 20.5899 117.492 20.4924 117.36 20.4458C116.352 20.1843 117.234 18.8768 117.612 18.4846C117.705 18.3849 117.757 18.2525 117.759 18.1141C119.458 18.1736 121.154 17.9379 122.778 17.4168C122.91 17.3702 123.02 17.2727 123.085 17.1445C123.15 17.0163 123.165 16.8671 123.128 16.7275C123.09 16.588 123.002 16.4687 122.882 16.3942C122.763 16.3198 122.62 16.2958 122.484 16.3272C121.421 16.6371 120.33 16.8342 119.229 16.9156C118.782 16.9507 118.333 16.9507 117.885 16.9156C116.604 16.7848 116.436 15.4991 117.318 14.7582Z" fill="#42210B"/>
<path d="M26.8004 28.3293C26.8004 28.3293 11.8183 29.8166 6.87236 45.9857C1.08149 64.9196 4.81155 69.1907 11.2825 74.1101" fill="url(#paint0_linear)"/>
<path d="M23.6071 220.385C22.8224 224.898 22.6809 229.487 23.1862 234.034C23.3335 235.009 23.4808 235.984 23.6912 237.134L11.2547 235.184V220.385H23.6071Z" fill="#F1A74F"/>
<path d="M10.3037 231.551C13.6035 233.76 16.0625 235.042 16.0625 235.042C18.6897 235.042 23.5658 235.613 22.0735 232.143C23.7882 235.004 25.9649 237.598 28.5259 239.833C31.3633 242.318 47.4417 250.285 40.7161 254.505C35.7349 257.64 11.2915 245 10.661 241.628C10.2365 238.285 10.117 234.914 10.3037 231.551Z" fill="#161601"/>
<path d="M45.3781 212.569C44.6588 216.781 44.5291 221.064 44.9923 225.308C45.1274 226.218 45.2624 227.128 45.4553 228.201L34.0551 226.381V212.587L45.3781 212.569Z" fill="#F1A74F"/>
<path d="M33.1014 223.735C36.2947 225.838 38.6744 227.059 38.6744 227.059C41.2168 227.059 45.9356 227.604 44.4915 224.299C46.1509 227.023 48.2573 229.494 50.7358 231.623C53.4816 233.989 69.0413 241.576 62.5327 245.595C57.7122 248.581 34.0573 236.543 33.4472 233.332C33.0363 230.148 32.9206 226.937 33.1014 223.735Z" fill="#161601"/>
<path d="M54.8561 79.8196C54.8561 79.8196 58.6663 175.452 51.1283 215.619C51.1283 215.619 49.6248 220.09 31.6448 217.522L30.4297 225.894C22.2709 227.911 13.6167 227.355 5.83846 224.314C5.83846 224.314 0.833721 131.441 15.8274 77.4602" fill="#002367"/>
<path d="M101.679 26.0391L98.9107 8.53027C98.9107 8.53027 71.0366 30.7015 40.0165 26.8207C35.5998 27.2434 31.0187 27.3779 26.643 28.1079C24.4776 28.4879 22.3948 29.2021 20.48 30.2212C14.3171 38.271 12.2628 48.2996 11.5643 58.0592C11.2151 63.4385 11.2356 68.8562 11.2767 74.2355C11.247 77.664 11.4528 81.0908 11.893 84.4946C11.9524 84.8913 12.107 85.2702 12.3454 85.6029C12.5838 85.9357 12.8997 86.2136 13.2694 86.4158C15.4391 87.6384 17.8906 88.3565 20.4184 88.5099C31.2446 88.9325 44.3306 88.5099 52.7738 81.9202C53.3078 81.2283 53.8015 80.5101 54.2529 79.7685L52.8765 50.067C52.8765 50.067 86.256 42.65 101.679 26.0391Z" fill="url(#paint1_linear)"/>
<path d="M45.0359 12.3504C45.0359 12.3504 49.8867 28.1987 41.8788 31.6644C33.8709 35.13 28.2675 29.9597 25.8422 25.2389C23.4168 20.5181 24.3577 9.42807 34.6655 8.37901C43.6769 7.31122 45.0359 12.3504 45.0359 12.3504Z" fill="#F1A74F"/>
<path d="M46.5524 8.99921C47.3857 7.07429 47.7109 3.45543 45.2516 2.35822C44.3262 2.01882 43.3197 1.92909 42.3437 2.099C41.3677 2.26891 40.4606 2.69181 39.7232 3.32069C38.841 2.67766 37.8214 2.22441 36.7354 1.99248C34.7866 1.45446 32.7268 1.3857 30.7427 1.79243C28.7587 2.19916 26.9133 3.0685 25.3738 4.32164C25.2371 4.44809 25.0791 4.55217 24.9064 4.62964C24.6645 4.67156 24.4166 4.67156 24.1747 4.62964C18.0772 4.72588 16.7561 11.2706 17.7926 15.7365C18.8484 20.3677 21.4323 24.5609 25.1706 27.7095C26.7871 29.0256 28.6878 29.9913 30.7396 30.5391C30.8122 30.5631 30.8902 30.5689 30.9659 30.556C31.0416 30.5431 31.1125 30.5119 31.1718 30.4655C31.2311 30.419 31.2767 30.3589 31.3042 30.2909C31.3317 30.2228 31.3403 30.1492 31.329 30.0772C31.3966 30.0399 31.4553 29.9898 31.5014 29.93C31.5476 29.8703 31.5804 29.8021 31.5975 29.7299C31.6147 29.6576 31.6159 29.5828 31.6012 29.5101C31.5865 29.4374 31.5561 29.3683 31.512 29.3072C30.9914 28.3332 30.8065 27.229 30.9835 26.1503C30.9975 26.0741 30.9918 25.9958 30.9671 25.9221C30.9423 25.8484 30.8991 25.7814 30.8412 25.7268C30.976 25.6579 31.0763 25.5411 31.1202 25.4021C31.164 25.2631 31.1477 25.1134 31.0749 24.9857C31.0022 24.8581 30.8789 24.7631 30.7321 24.7215C30.5854 24.68 30.4272 24.6954 30.2925 24.7644C29.6379 24.8425 28.9732 24.7773 28.3494 24.5737C27.7257 24.3702 27.1596 24.0336 26.6949 23.5902C26.1258 23.0319 25.6584 21.9347 26.6949 21.6652C26.9062 21.6195 27.126 21.6237 27.3351 21.6774C27.5443 21.7311 27.7362 21.8327 27.8941 21.9732C28.0602 22.2437 28.2579 22.4955 28.4835 22.7239C28.565 22.805 28.6719 22.859 28.7884 22.8779C29.1949 23.0127 29.7437 22.6854 29.4795 22.2427C29.2938 21.9352 29.0685 21.6506 28.8087 21.3957C28.4372 20.8044 28.2929 20.1096 28.4004 19.429C28.5078 18.7485 28.8603 18.124 29.3981 17.6614C30.8209 16.4679 32.1623 17.1224 33.7883 17.1801C34.2899 17.2576 34.8039 17.1544 35.229 16.8907C35.6541 16.627 35.9596 16.2221 36.0851 15.7557C36.0929 15.1067 36.0109 14.4596 35.8411 13.8308C35.8161 13.3444 35.9513 12.8627 36.228 12.4523C36.5048 12.0419 36.9094 11.7231 37.3859 11.5401C39.1338 10.9049 40.2517 12.2908 41.4508 13.1378C41.9815 13.508 42.5912 13.7636 43.2373 13.8866C43.8834 14.0097 44.5502 13.9972 45.1906 13.85C45.6918 13.7309 46.1533 13.4947 46.5331 13.1629C46.9129 12.8312 47.1988 12.4146 47.3646 11.9511C47.5304 11.4877 47.5709 10.9923 47.4822 10.5102C47.3936 10.0281 47.1787 9.57479 46.8572 9.19172C46.7831 9.09517 46.675 9.02689 46.5524 8.99921ZM35.9834 11.2899C36.1747 10.9959 36.4593 10.7669 36.7964 10.6354L37.1013 10.4622H37.2029H37.3655C36.8438 10.6339 36.3709 10.9172 35.9834 11.2899ZM45.8207 7.84426C45.9 7.6687 45.9679 7.4887 46.024 7.30528C45.9223 7.44003 45.8817 7.69027 45.8207 7.86351V7.84426Z" fill="#7A311A"/>
<path d="M37.8791 110.47C36.9739 140.135 35.3486 169.776 33.0033 199.391C32.3449 207.702 31.6591 216.013 30.9459 224.324C30.9459 225.028 32.0774 225.028 32.1391 224.324C34.8823 194.759 36.9396 165.144 38.3112 135.479C38.6815 127.142 38.9901 118.806 39.237 110.47C39.237 110.303 39.1654 110.143 39.0381 110.026C38.9108 109.908 38.7381 109.842 38.5581 109.842C38.378 109.842 38.2053 109.908 38.078 110.026C37.9506 110.143 37.8791 110.303 37.8791 110.47Z" fill="#001D40"/>
<path d="M58.7259 46.2849C59.2415 45.996 59.6492 45.5665 59.8936 45.0547C60.1381 44.5429 60.2074 43.9734 60.0923 43.4237C59.7708 41.3853 56.8169 42.3764 56.8169 42.3764C56.8169 42.3764 56.5757 39.5713 54.3854 39.4965C52.1951 39.4217 44.7198 44.0782 44.7198 44.0782L44.8605 40.8056C44.8605 40.2258 44.3782 40.0949 43.6548 40.3006C41.6453 40.8617 41.3238 43.6107 41.2233 45.2377C41.166 45.8685 41.2411 46.5036 41.4444 47.1077C41.6051 47.5566 42.0472 48.1176 41.7056 48.5664C40.2671 49.3774 38.7459 50.0539 37.1642 50.5861L37.5862 51.3528L38.7919 52.7367C40.4888 54.4591 41.9223 56.391 43.052 58.4779L46.7092 57.1688C46.7092 57.1688 59.5096 55.2987 60.1124 53.7466C60.4463 52.7287 60.4463 51.6413 60.1124 50.6235L60.8559 48.8469C61.6798 47.0329 58.7259 46.2849 58.7259 46.2849Z" fill="#F1A74F"/>
<path d="M46.6585 45.6569C50.0358 44.6164 53.3218 43.3126 56.485 41.7582C56.8046 41.6022 57.0243 42.1091 56.6847 42.2845C53.5215 43.8389 50.2355 45.1427 46.8582 46.1832C46.5187 46.2807 46.339 45.7543 46.6585 45.6569Z" fill="#42210B"/>
<path d="M47.7245 48.964C51.3236 48.5303 54.8444 47.7714 58.2148 46.703C58.2811 46.684 58.3543 46.6862 58.4185 46.709C58.4827 46.7318 58.5326 46.7734 58.5571 46.8246C58.5816 46.8759 58.5788 46.9326 58.5493 46.9822C58.5199 47.0319 58.4661 47.0704 58.3998 47.0894C54.9877 48.171 51.4235 48.9395 47.78 49.379C47.447 49.4363 47.3915 48.964 47.7245 48.964Z" fill="#42210B"/>
<path d="M50.1015 52.4137C53.3867 52.0069 56.6292 51.2991 59.7899 50.299C59.8574 50.2735 59.9321 50.2764 59.9975 50.307C60.0629 50.3377 60.1136 50.3935 60.1386 50.4624C60.1636 50.5312 60.1608 50.6074 60.1307 50.6741C60.1007 50.7408 60.0459 50.7926 59.9784 50.818C56.7752 51.8359 53.4884 52.5565 50.158 52.9712C49.8187 53.0289 49.7622 52.4714 50.1015 52.4137Z" fill="#42210B"/>
<path d="M45.3835 62.9443L46.4916 62.0211C43.6823 57.2063 40.2631 52.7158 36.3057 48.6438C35.6878 47.9956 34.6649 48.9581 35.2829 49.5867C39.221 53.648 42.6125 58.1331 45.3835 62.9443Z" fill="#311E69"/>
<path d="M34.1177 49.7096C30.0379 52.5588 25.9582 55.3265 21.8784 58.0125C22.1374 55.6068 22.5874 53.2218 23.2247 50.8769C23.2488 50.7953 23.2553 50.7101 23.2437 50.6262C23.2322 50.5423 23.2028 50.4613 23.1573 50.3879C23.1119 50.3145 23.0512 50.25 22.9787 50.1983C22.9063 50.1465 22.8235 50.1084 22.7351 50.0861C22.5566 50.0412 22.366 50.0635 22.2053 50.1483C22.0447 50.233 21.9271 50.3732 21.8784 50.538C21.1298 53.3003 20.6317 56.1153 20.3892 58.9539L17.7782 60.6107C17.0438 61.0626 17.7782 62.1734 18.4717 61.7215C24.0475 58.2322 29.4872 54.5984 34.7909 50.8204C35.5049 50.2367 34.8113 49.1259 34.1177 49.7096Z" fill="#311E69"/>
<path d="M46.4916 61.8276C46.4916 61.8276 30.3863 82.206 11.2547 74.0099L11.5241 80.8089C11.5241 80.8089 35.7962 81.2746 46.4916 61.8276Z" fill="#311E69"/>
</g>
<path d="M37.6142 18.8291C36.0324 19.1883 34.5824 20.1759 34.0551 20.6249" stroke="#6D400B"/>
<path d="M42.751 17.2723C44.0143 17.1326 45.3893 17.6533 45.9189 17.9312" stroke="#6D400B"/>
<path d="M37.2474 20.4309L35.1215 21.4587L35.486 23.3439L35.7291 24.6007L39.419 22.645L37.2474 20.4309Z" fill="#F5F3DD"/>
<path d="M43.0676 18.6234L45.9026 18.7263L45.9635 19.3862L46.4433 21.3767L43.0894 21.5195L43.0676 18.6234Z" fill="#F5F3DD"/>
<path d="M37.2188 21.7313C37.2453 21.8892 37.224 22.1013 37.3768 22.1509C37.4627 22.1787 37.4482 22.1772 37.4482 22.0438C37.4482 21.8681 37.4903 21.591 37.3105 21.5229" stroke="#6D400B" stroke-linecap="round" stroke-linejoin="round"/>
<path d="M45.2703 19.3393C45.3007 19.4762 45.3903 19.637 45.2761 19.7384C45.2119 19.7954 45.2238 19.7882 45.179 19.6817C45.1198 19.5414 44.9905 19.337 45.1215 19.21" stroke="#6D400B" stroke-linecap="round" stroke-linejoin="round"/>
<path d="M39.6994 27.2583C40.4188 27.8708 41.56 28.0155 42.358 27.5148C42.5768 27.3776 43.1293 27.1082 43.2181 26.8133C43.2887 26.579 43.3408 26.3662 43.3934 26.1274" stroke="#6D400B" stroke-linecap="round" stroke-linejoin="round"/>
<defs>
<filter id="filter0_d" x="0" y="0" width="129" height="263" filterUnits="userSpaceOnUse" color-interpolation-filters="sRGB">
<feFlood flood-opacity="0" result="BackgroundImageFix"/>
<feColorMatrix in="SourceAlpha" type="matrix" values="0 0 0 0 0 0 0 0 0 0 0 0 0 0 0 0 0 0 127 0"/>
<feOffset dy="4"/>
<feGaussianBlur stdDeviation="2"/>
<feColorMatrix type="matrix" values="0 0 0 0 0 0 0 0 0 0 0 0 0 0 0 0 0 0 0.25 0"/>
<feBlend mode="normal" in2="BackgroundImageFix" result="effect1_dropShadow"/>
<feBlend mode="normal" in="SourceGraphic" in2="effect1_dropShadow" result="shape"/>
</filter>
<linearGradient id="paint0_linear" x1="15.4002" y1="28.3293" x2="15.4002" y2="74.1101" gradientUnits="userSpaceOnUse">
<stop stop-color="#A1E117"/>
<stop offset="1" stop-color="#25A505"/>
</linearGradient>
<linearGradient id="paint1_linear" x1="56.4668" y1="8.53027" x2="56.4668" y2="88.6262" gradientUnits="userSpaceOnUse">
<stop stop-color="#A1E117"/>
<stop offset="1" stop-color="#25A505"/>
</linearGradient>
</defs>
</svg>
