<svg width="333" height="275" viewBox="0 0 333 275" fill="none" xmlns="http://www.w3.org/2000/svg">
<path d="M328.653 198.658L201.276 272.197C198.095 274.033 194.487 275 190.814 275C187.141 275 183.533 274.033 180.352 272.197L4.22315 170.515C2.93872 169.77 1.8725 168.701 1.13132 167.415C0.390132 166.128 0 164.67 0 163.185C0 161.7 0.390132 160.242 1.13132 158.955C1.8725 157.669 2.93872 156.6 4.22315 155.855L134.995 79.9641C136.666 78.997 138.563 78.4877 140.494 78.4877C142.425 78.4877 144.321 78.997 145.993 79.9641L328.643 185.423C329.803 186.095 330.766 187.06 331.436 188.22C332.106 189.381 332.459 190.698 332.46 192.038C332.461 193.378 332.11 194.695 331.441 195.857C330.773 197.019 329.812 197.985 328.653 198.658Z" fill="#92ACF2"/>
<path d="M135.904 197.482C135.502 197.482 134.24 197.386 133.771 197.386C132.288 198.392 130.559 198.977 128.77 199.079C126.605 199.395 124.399 198.893 122.583 197.673L122.21 200.992C121.999 203.545 125.337 203.038 126.599 202.981C129.059 202.849 131.5 202.474 133.886 201.862C134.842 201.632 137.883 201.145 138.055 199.586C138.228 198.027 137.721 197.702 135.904 197.482Z" fill="#FF666D"/>
<path d="M130.128 188.33C130.128 188.33 128.215 197.32 129.095 197.281C129.975 197.243 135.904 197.482 135.904 197.482C135.365 198.586 134.557 199.536 133.554 200.244C132.551 200.953 131.386 201.398 130.166 201.537C125.758 202.178 122.611 197.712 122.611 197.712L124.361 186.494" fill="#E4A05B"/>
<path d="M121.837 184.171L120.527 191.324C120.527 191.324 122.583 193.437 129.506 193.188C136.43 192.94 129.506 180.546 129.506 180.546" fill="#2E2401"/>
<path d="M117.792 166.871C117.792 166.871 125.519 160.675 130.644 159.938C135.77 159.202 138.448 164.777 138.084 168.497C137.721 172.217 125.442 174.235 125.442 174.235" fill="#EDBAB9"/>
<path d="M143.095 202.837C142.693 202.837 141.431 202.742 140.963 202.742C139.479 203.748 137.751 204.332 135.961 204.434C133.796 204.75 131.59 204.249 129.774 203.029L129.391 206.309C129.181 208.862 132.519 208.355 133.781 208.298C136.241 208.166 138.682 207.791 141.068 207.179C142.024 206.949 145.065 206.462 145.237 204.903C145.409 203.344 144.922 203.048 143.095 202.837Z" fill="#FF666D"/>
<path d="M137.319 193.686C137.319 193.686 135.407 202.675 136.286 202.637C137.166 202.598 143.095 202.837 143.095 202.837C142.557 203.941 141.748 204.891 140.746 205.6C139.743 206.308 138.577 206.753 137.357 206.892C132.949 207.533 129.803 203.067 129.803 203.067L131.553 191.85" fill="#FCBF81"/>
<path d="M118.279 167.158C118.279 167.158 126.006 160.962 131.132 160.225C136.258 159.489 138.935 165.064 138.572 168.784C138.208 172.504 125.93 174.522 125.93 174.522" fill="#EDBAB9"/>
<path d="M122.401 169.224C123.357 168.268 136.516 162.176 141.135 164.968C145.754 167.761 145.467 169.836 144.883 173.24C144.3 176.645 139.834 194.986 139.834 194.986C136.473 196.284 132.783 196.458 129.315 195.483L130.606 181.856L113.135 172.293" fill="#6B460E"/>
<path d="M122.506 167.809L126.647 170.916L144.329 161.822L132.509 153.416L115.946 162.807L122.506 167.809Z" fill="#E9121C"/>
<path d="M78.7752 164.529L77.7424 169.31C79.1188 169.035 80.518 168.891 81.9214 168.88C82.9925 169.023 84.3599 170.926 83.0211 172.217C81.6823 173.508 79.4064 173.384 77.1209 173.919C74.8353 174.455 74.4815 174.56 73.0184 174.149C71.5553 173.738 71.3353 171.748 71.3353 171.748L72.4829 163.41" fill="#E55600"/>
<path d="M71.2206 159.871L69.9105 167.024C69.9105 167.024 71.9665 169.138 78.89 168.889C85.8135 168.641 78.89 156.247 78.89 156.247" fill="#2E2401"/>
<path d="M62.2315 180.202C67.6767 180.202 72.0908 178.562 72.0908 176.539C72.0908 174.517 67.6767 172.877 62.2315 172.877C56.7864 172.877 52.3722 174.517 52.3722 176.539C52.3722 178.562 56.7864 180.202 62.2315 180.202Z" fill="#FF666D"/>
<path d="M60.5676 160.158L60.9501 174.904H63.8955V160.158" fill="#FF666D"/>
<path d="M86.8367 168.449L85.8039 173.231C87.1803 172.956 88.5795 172.812 89.9829 172.8C91.0539 172.944 92.4214 174.847 91.0826 176.138C89.7438 177.429 87.4679 177.304 85.1823 177.84C82.8968 178.375 82.543 178.481 81.0799 178.069C79.6168 177.658 79.3968 175.669 79.3968 175.669L80.5444 167.33" fill="#E55600"/>
<path d="M152.075 63.9558L156.98 55.0624L159.811 50.4913L148.871 45.1744L141.852 59.576L152.075 63.9558Z" fill="#C3F362"/>
<path d="M163.493 62.3206L160.375 58.8588C160.122 58.6327 159.894 58.3794 159.696 58.1034C159.529 57.6383 159.467 57.1418 159.515 56.6498C159.458 55.9351 159.32 55.2292 159.103 54.546C159.044 54.3532 158.918 54.1878 158.747 54.0794C158.577 53.971 158.374 53.9267 158.174 53.9542C157.974 53.9818 157.79 54.0795 157.656 54.23C157.521 54.3804 157.445 54.5737 157.439 54.7755C157.439 55.2154 157.439 55.6648 157.439 56.1047L156.684 55.4258C155.661 57.281 154.609 59.1266 153.49 60.934C154.102 60.934 154.724 60.934 155.345 60.934C157.569 62.2564 159.543 63.9589 161.178 65.964C161.271 66.0662 161.389 66.1425 161.52 66.1852C161.652 66.2279 161.792 66.2357 161.927 66.2077C162.062 66.1797 162.188 66.1169 162.291 66.0255C162.395 65.9342 162.473 65.8174 162.517 65.6867C162.606 65.6682 162.693 65.6393 162.775 65.6006C162.965 65.4835 163.102 65.2983 163.159 65.0831C163.216 64.8678 163.188 64.639 163.081 64.4435C163.044 64.3506 162.987 64.2667 162.914 64.1975C162.842 64.1282 162.755 64.0752 162.661 64.0419C162.489 63.8411 162.326 63.6403 162.163 63.4299L162.269 63.5446C163.024 64.3288 164.219 63.1334 163.493 62.3206Z" fill="#FCBF81"/>
<path d="M157.133 59.6621C156.792 59.1834 156.572 58.6287 156.493 58.046C156.523 57.4648 156.745 56.9101 157.124 56.4681C157.267 56.2577 156.933 56.0665 156.789 56.2768C156.376 56.7768 156.138 57.398 156.11 58.046C156.191 58.6967 156.43 59.3174 156.808 59.8534C156.837 59.888 156.878 59.9112 156.922 59.9189C156.967 59.9265 157.013 59.9182 157.052 59.8952C157.091 59.8723 157.12 59.8363 157.135 59.7936C157.15 59.7509 157.15 59.7043 157.133 59.6621Z" fill="#A0722D"/>
<path d="M167.05 6.03357V73.7865C167.051 74.855 167.336 75.9041 167.875 76.8265C168.414 77.7489 169.189 78.5115 170.12 79.0365L280.38 141.386C281.298 141.906 282.336 142.177 283.391 142.17C284.446 142.164 285.481 141.881 286.392 141.349C287.303 140.818 288.06 140.057 288.585 139.143C289.111 138.228 289.388 137.191 289.388 136.136V71.8548C289.384 70.813 289.111 69.7898 288.595 68.8849C288.079 67.98 287.337 67.2241 286.442 66.6908L176.173 0.850495C175.257 0.304713 174.213 0.0113695 173.147 0.000323892C172.081 -0.0107217 171.031 0.260926 170.103 0.787613C169.176 1.3143 168.405 2.07722 167.869 2.99871C167.333 3.9202 167.05 4.96735 167.05 6.03357Z" fill="#021E6A"/>
<path d="M212.187 57.6061L210.752 57.979C211.082 57.7315 211.307 57.3701 211.384 56.9654C211.414 56.8282 211.405 56.685 211.357 56.5528C211.309 56.4206 211.224 56.305 211.113 56.2195C211.001 56.134 210.867 56.0822 210.727 56.0704C210.587 56.0585 210.446 56.087 210.322 56.1525C209.047 56.7901 207.753 57.4276 206.44 58.0651L206.516 57.7782C206.727 57.1642 206.805 56.5122 206.746 55.8656C206.468 54.7755 205.483 55.3779 205.082 56.2386C204.537 57.3861 204.422 58.6198 203.389 59.5282C202.784 59.9379 202.1 60.2149 201.381 60.3411C200.654 60.5514 199.927 60.7427 199.2 60.934C199.053 60.9804 198.924 61.0726 198.833 61.1973C198.741 61.322 198.692 61.4726 198.692 61.6273C198.692 61.7819 198.741 61.9326 198.833 62.0572C198.924 62.1819 199.053 62.2742 199.2 62.3206C199.096 62.3885 199.012 62.4825 198.956 62.5934C198.9 62.7042 198.874 62.8279 198.88 62.9519C198.887 63.076 198.927 63.1961 198.994 63.3001C199.062 63.4042 199.157 63.4885 199.267 63.5446C198.942 64.0706 199.315 64.9217 200.013 64.6348C201.717 63.9434 203.486 63.4213 205.292 63.076C207.071 62.9804 208.843 62.8306 210.609 62.6266C211.517 62.5214 211.565 61.1061 210.609 61.1826H210.475L212.072 60.9148C212.866 60.781 212.694 59.3943 211.881 59.4995H211.69L211.164 59.576L211.919 59.3274C212.388 59.1648 212.818 59.0596 213.057 58.5911C213.111 58.4645 213.129 58.3251 213.107 58.1891C213.085 58.0531 213.025 57.9261 212.934 57.8229C212.843 57.7197 212.724 57.6445 212.592 57.6061C212.46 57.5677 212.319 57.5677 212.187 57.6061Z" fill="#FCBF81"/>
<path d="M206.449 58.8302C206.432 58.7973 206.404 58.7713 206.369 58.7567C206.335 58.742 206.297 58.7395 206.261 58.7496C206.225 58.7596 206.194 58.7817 206.173 58.812C206.151 58.8423 206.141 58.8791 206.143 58.9162C206.269 59.3707 206.264 59.8514 206.128 60.303C205.993 60.7547 205.733 61.159 205.378 61.4695C205.225 61.6034 205.454 61.8329 205.608 61.699C205.998 61.3444 206.283 60.889 206.432 60.3829C206.58 59.8768 206.586 59.3395 206.449 58.8302Z" fill="#A0722D"/>
<path d="M210.848 57.74C209.681 58.046 208.527 58.403 207.386 58.811C207.195 58.878 207.281 59.1935 207.472 59.117C208.613 58.7154 209.767 58.3584 210.934 58.046C210.967 58.0286 210.993 58.0005 211.008 57.9663C211.022 57.9322 211.025 57.894 211.015 57.8582C211.005 57.8224 210.983 57.7911 210.952 57.7696C210.922 57.7481 210.885 57.7376 210.848 57.74Z" fill="#A0722D"/>
<path d="M211.661 59.3848L207.979 59.949C207.778 59.949 207.864 60.2932 208.065 60.255L211.747 59.6908C211.948 59.6621 211.862 59.3465 211.661 59.3848Z" fill="#A0722D"/>
<path d="M211.001 61.02C210.013 61.0838 209.021 61.1284 208.027 61.1539C207.817 61.1539 207.817 61.4791 208.027 61.4791C209.021 61.4791 210.013 61.4344 211.001 61.3452C211.202 61.3261 211.202 61.0105 211.001 61.02Z" fill="#A0722D"/>
<path d="M305.989 186.485C305.495 186.727 304.984 186.932 304.459 187.097C302.236 186.342 299.825 186.342 297.602 187.097C297.482 187.133 297.376 187.206 297.3 187.307C297.225 187.408 297.184 187.53 297.184 187.656C297.184 187.782 297.225 187.905 297.3 188.005C297.376 188.106 297.482 188.18 297.602 188.216C299.822 188.902 302.194 188.932 304.43 188.302C304.688 188.397 304.937 188.503 305.186 188.627C305.779 188.914 306.305 188.168 305.96 187.757L306.582 187.479C307.251 187.183 306.658 186.15 305.989 186.485Z" fill="#007058"/>
<path d="M82.0553 127.157C81.2042 130.026 79.9228 133.009 77.2739 134.568C74.405 136.222 70.8668 135.773 67.7971 135.104C67.185 134.97 66.9269 135.907 67.5389 136.06C70.8763 136.787 74.6728 137.226 77.7711 135.429C80.64 133.746 82.1031 130.513 83.0307 127.444C83.0496 127.38 83.0556 127.312 83.0485 127.246C83.0414 127.18 83.0213 127.115 82.9893 127.057C82.9573 126.998 82.9141 126.946 82.8622 126.905C82.8102 126.863 82.7505 126.831 82.6865 126.813C82.6224 126.794 82.5553 126.788 82.4889 126.795C82.4225 126.802 82.3582 126.822 82.2996 126.854C82.241 126.886 82.1892 126.929 82.1473 126.981C82.1054 127.033 82.0741 127.093 82.0553 127.157Z" fill="#E55600"/>
<path d="M81.1851 138.89C78.2334 139.528 75.2561 140.028 72.2534 140.392C72.1867 140.397 72.1219 140.416 72.0627 140.448C72.0036 140.479 71.9513 140.522 71.9091 140.573C71.5649 139.534 71.2716 138.479 71.0293 137.408C70.8955 136.796 69.9583 137.054 70.073 137.666C70.6258 140.102 71.4468 142.469 72.5211 144.724C72.7889 145.288 73.6209 144.8 73.3627 144.236C72.9132 143.28 72.5211 142.323 72.1673 141.367H72.2343C75.3199 141.004 78.3832 140.494 81.4242 139.837C82.0553 139.684 81.7971 138.757 81.1851 138.89Z" fill="#008074"/>
<path d="M73.2097 145.728C72.4212 147.039 71.408 148.201 70.2165 149.161C69.7288 149.553 70.4173 150.242 70.905 149.849C72.1577 148.835 73.2226 147.608 74.0512 146.225C74.1171 146.114 74.1361 145.98 74.1038 145.855C74.0715 145.729 73.9907 145.622 73.8791 145.556C73.7675 145.49 73.6343 145.471 73.5087 145.503C73.3832 145.535 73.2756 145.616 73.2097 145.728Z" fill="#008074"/>
<path d="M165.577 119.373C165.577 119.373 165.482 124.078 164.927 124.814C164.372 125.55 159.438 128.17 159.189 129.366C158.941 130.561 159.792 132.235 162.144 131.632C164.497 131.03 170.158 127.319 170.158 127.319V117.135" fill="#007058"/>
<path d="M184.474 124.728L185.076 129.834C185.076 129.834 182.915 137.705 183.775 138.661C184.636 139.617 187.754 140.65 188.968 138.661C190.183 136.672 188.452 129.318 188.452 129.318L188.366 123.781" fill="#007058"/>
<path d="M173.122 70.6977C173.122 70.6977 167.002 95.5611 166.734 99.3863C166.467 103.211 164.631 121.725 164.631 121.725C164.631 121.725 170.445 124.307 174.366 122.997L177.426 99.6445L180.859 75.1731C180.859 75.1731 174.586 68.9285 173.122 70.6977Z" fill="#FF666D"/>
<path d="M184.866 76.5597C189.188 94.8821 189.647 108.72 191.894 124.737C191.894 124.737 182.532 128.151 180.467 124.843C179.071 108.519 177.942 92.1472 177.416 75.7755L184.866 76.5597Z" fill="#FF666D"/>
<path d="M202.031 57.1279C198.101 58.6197 193.424 59.9968 190.221 59.5569C186.192 59.0141 182.235 58.0329 178.42 56.6307C177.904 56.4585 172.31 54.3165 170.234 56.1621C168.159 58.0077 168.714 64.0132 168.714 64.0132L161.159 57.4722C158.357 58.4763 157.248 61.3739 156.98 64.2523L157.267 64.5487C157.809 65.1863 158.357 65.8238 158.912 66.4613C161.389 69.2441 164.229 72.4572 167.872 73.6717C169.313 74.0904 170.854 73.9958 172.233 73.4039C173.314 73.0023 174.901 71.6826 176.058 72.1129C176.364 72.2277 176.651 72.4477 177.015 72.4094C177.885 72.3042 179.051 70.9176 179.883 70.4968C182.15 69.3206 184.808 69.1389 187.304 69.0146C190.029 68.9195 192.743 68.619 195.423 68.1157C196.207 67.9531 204.565 65.811 204.747 66.2031C203.352 63.3468 202.434 60.2811 202.031 57.1279Z" fill="#7FAE1A"/>
<path d="M172.596 51.5337C172.042 54.1539 172.51 57.7782 175.312 58.2277C178.927 58.7632 179.826 56.3151 179.635 53.2837C179.482 50.8834 178.229 47.1252 174.987 48.2154C174.19 48.5203 173.54 49.1192 173.17 49.8889C172.908 50.4098 172.715 50.9627 172.596 51.5337Z" fill="#FCBF81"/>
<path d="M172.386 52.117C171.66 51.7416 171.06 51.1604 170.662 50.4461C170.264 49.7317 170.085 48.9159 170.148 48.1006C170.301 46.4941 171.86 44.4381 173.668 45.2318C174.892 45.7482 174.557 45.7864 174.557 45.7864C174.844 45.4468 175.214 45.1885 175.632 45.0374C176.05 44.8863 176.501 44.8478 176.938 44.9258C178.65 45.0788 178.946 46.1211 178.946 46.1211C178.946 46.1211 180.859 46.7714 181.404 48.0337C181.987 49.449 180.658 53.6662 180.027 54.852C179.396 56.0378 179.023 53.628 178.803 52.6621C178.727 52.2732 178.557 51.9091 178.307 51.602C178.057 51.295 177.734 51.0547 177.368 50.9026C176.316 50.6157 175.791 51.5528 174.959 51.9449C174.569 52.1628 174.137 52.2913 173.692 52.3211C173.247 52.3509 172.801 52.2812 172.386 52.117Z" fill="#7C7108"/>
<path d="M179.204 77.5925C181.14 77.6113 183.061 77.2607 184.866 76.5597L185.248 64.5583L170.78 71.3384C170.78 71.3384 171.325 74.2073 171.937 76.8944C174.299 77.5558 176.76 77.7922 179.204 77.5925Z" fill="#7FAE1A"/>
<path d="M67.1755 142.572C67.1755 142.572 74.9023 136.375 80.028 135.639C85.1537 134.903 87.8313 140.478 87.4679 144.198C87.1045 147.918 74.8258 149.936 74.8258 149.936" fill="#2E2401"/>
<path d="M71.2875 144.638C72.2438 143.681 85.4023 137.59 90.0212 140.382C94.6401 143.175 94.3532 145.25 93.7698 148.654C93.1865 152.059 88.7493 170.391 88.7493 170.391C85.3887 171.688 81.6983 171.863 78.2302 170.888L79.5212 157.261L62.0498 147.698" fill="#6B460E"/>
<path d="M61.7246 122.72C62.4227 123.236 68.4186 123.953 69.6523 126.707C70.8859 129.461 72.808 143.701 72.808 143.701C72.808 143.701 69.2124 149.056 62.9869 147.153C61.1413 146.589 51.5689 129.089 51.3107 127.272C50.6508 122.548 61.7246 122.72 61.7246 122.72Z" fill="#E55600"/>
<path d="M49.9241 153.464C49.6205 152.744 49.3711 152.003 49.1782 151.246C47.7151 145.508 46.7492 123.886 56.4555 124.766C67.1086 125.722 63.5129 152.412 74.3094 151.59C85.1059 150.768 89.5335 153.579 85.1154 157.768C76.3176 166.145 55.3367 166.317 49.9241 153.464Z" fill="#021E6A"/>
<path d="M64.0197 113.549C64.1058 114.065 64.976 121.333 62.8531 122.968C60.7301 124.604 55.8722 120.74 55.7479 118.818C55.6235 116.896 53.9979 112.899 56.0539 111.894C58.1099 110.89 63.4364 109.925 64.0197 113.549Z" fill="#FCBF81"/>
<path d="M64.0198 113.549C64.0198 113.549 65.8271 112.153 66.1427 110.89C66.4583 109.628 64.8995 108.72 63.3791 108.72C61.8586 108.72 60.5676 109.112 59.2575 108.328C58.5549 107.929 57.7608 107.719 56.9528 107.719C56.1448 107.719 55.3507 107.929 54.6482 108.328C53.4145 109.169 53.2042 111.196 52.3722 112.239C51.5402 113.281 49.9528 113.396 49.991 115.337C50.0293 117.278 52.8599 117.479 53.0798 118.78C53.2998 120.08 53.9788 121.983 55.7288 122.308C57.4788 122.634 59.879 122.672 60.0799 122.414C60.2807 122.155 58.9801 117.804 60.1851 117.517C61.39 117.231 64.0963 116.599 64.0198 113.549Z" fill="#A6D647"/>
<path d="M88.7493 112.296C88.7429 111.447 88.4305 110.629 87.8695 109.991C87.8136 109.93 87.7451 109.881 87.6687 109.848C87.6018 109.054 87.3818 108.261 86.7124 107.983C86.6001 107.95 86.4805 107.95 86.3682 107.983C86.2887 107.969 86.2069 107.972 86.129 107.994C86.0511 108.016 85.979 108.054 85.9183 108.108C85.8576 108.161 85.8097 108.228 85.7783 108.302C85.7469 108.377 85.7328 108.457 85.737 108.538V109.399C85.6631 109.205 85.5246 109.043 85.3449 108.94C85.2327 108.876 85.1058 108.842 84.9768 108.842C84.8477 108.842 84.7208 108.876 84.6086 108.94C84.481 108.959 84.3654 109.026 84.2854 109.127C84.2054 109.228 84.1671 109.356 84.1783 109.485L84.3217 113.128C84.14 112.449 83.7479 111.12 82.7725 111.818C82.0075 112.363 82.5622 113.864 82.6865 114.572C82.9134 116.012 83.2523 117.431 83.7001 118.818C83.7373 118.929 83.8073 119.025 83.9009 119.095C83.8691 119.242 83.8308 119.389 83.7862 119.535C83.5376 120.491 83.2794 121.773 82.543 122.404C81.9788 122.892 82.8012 123.714 83.3654 123.226L83.4419 123.15C83.2507 123.772 84.2165 124.202 84.5034 123.599L84.6182 123.379C84.6711 123.434 84.7324 123.479 84.7999 123.513C84.7999 123.638 84.7042 123.762 84.666 123.886C84.4365 124.604 85.5649 124.91 85.7848 124.192C85.8295 124.281 85.8978 124.355 85.9822 124.407C86.0667 124.459 86.1638 124.487 86.263 124.487C86.3621 124.487 86.4593 124.459 86.5437 124.407C86.6281 124.355 86.6965 124.281 86.7411 124.192C86.875 123.905 86.8368 124.871 86.9515 124.584C87.248 124.709 86.6264 123.628 86.8176 123.293C87.5444 121.916 89.3518 120.539 89.304 116.083C89.3613 114.955 90.2029 112.774 88.7493 112.296Z" fill="#FCBF81"/>
<path d="M84.5417 109.638C84.5417 109.389 84.14 109.389 84.1496 109.638C84.2197 111.187 84.3249 112.733 84.4652 114.276C84.4652 114.524 84.8764 114.524 84.8572 114.276C84.7234 112.733 84.6182 111.187 84.5417 109.638Z" fill="#A0722D"/>
<path d="M86.0717 108.481C86.0717 108.429 86.051 108.379 86.0143 108.342C85.9775 108.305 85.9277 108.284 85.8757 108.284C85.8237 108.284 85.7738 108.305 85.737 108.342C85.7003 108.379 85.6796 108.429 85.6796 108.481L85.8326 114.716C85.8326 114.768 85.8533 114.817 85.89 114.854C85.9268 114.891 85.9767 114.912 86.0287 114.912C86.0807 114.912 86.1305 114.891 86.1673 114.854C86.2041 114.817 86.2247 114.768 86.2247 114.716L86.0717 108.481Z" fill="#A0722D"/>
<path d="M87.4009 110.173L87.2862 114.955C87.2862 115.007 87.3068 115.056 87.3436 115.093C87.3804 115.13 87.4302 115.151 87.4822 115.151C87.5342 115.151 87.5841 115.13 87.6208 115.093C87.6576 115.056 87.6783 115.007 87.6783 114.955L87.793 110.173C87.793 110.121 87.7724 110.071 87.7356 110.035C87.6988 109.998 87.649 109.977 87.597 109.977C87.545 109.977 87.4951 109.998 87.4583 110.035C87.4216 110.071 87.4009 110.121 87.4009 110.173Z" fill="#A0722D"/>
<path d="M88.6059 112.43C88.5485 113.603 88.4465 114.773 88.2999 115.94C88.2999 116.188 88.6537 116.188 88.692 115.94C88.845 114.773 88.947 113.603 88.998 112.43C88.998 112.172 88.6155 112.181 88.6059 112.43Z" fill="#A0722D"/>
<path d="M67.2711 124.604C67.2711 124.604 73.1714 126.755 74.7015 126.621C76.2315 126.487 82.6769 118.273 82.6769 118.273C82.6769 118.273 87.1427 119.507 88.5963 123.485C88.5963 123.485 80.2766 135.39 76.6427 136.108C73.0088 136.825 68.5717 135.037 68.5717 135.037" fill="#E55600"/>
<path d="M104.853 157.672C104.853 157.672 104.576 147.258 109.319 147.086C114.062 146.914 120.268 150.328 120.603 155.836C120.938 161.344 121.875 171.653 121.875 173.584C121.875 175.516 118.404 182.66 118.404 182.66" fill="#E55600"/>
<path d="M181.614 213.557C181.614 213.902 181.337 218.1 181.806 218.587C182.274 219.075 183.498 221.456 185.019 221.552C186.539 221.647 187.954 221.351 188.232 222.977C188.509 224.602 179.625 225.157 179.625 225.157C179.625 225.157 178.669 221.428 178.286 221.533C177.904 221.638 177.904 225.645 177.904 225.645L176.25 225.999L174.595 224.899L175.265 217.755L176.345 211.683" fill="#E55600"/>
<path d="M188.289 219.553C188.069 222.078 188.203 225.463 190.575 227.003C191.875 227.844 194.62 227.07 194.964 228.915C195.261 230.541 186.357 231.143 186.357 231.143C186.357 231.143 185.401 227.423 185 227.529C184.598 227.634 184.636 231.641 184.636 231.641L182.982 232.004L181.327 230.914L181.949 223.761L182.991 217.679" fill="#E55600"/>
<path d="M184.378 173.632L185.545 172.074C185.633 171.926 185.679 171.757 185.679 171.584C185.679 171.412 185.632 171.243 185.544 171.096C185.456 170.948 185.329 170.826 185.178 170.744C185.027 170.662 184.856 170.623 184.684 170.63C184.924 170.203 185.107 169.746 185.229 169.272C185.256 169.084 185.222 168.893 185.131 168.727C185.041 168.56 184.899 168.428 184.728 168.348C184.556 168.269 184.363 168.247 184.177 168.286C183.992 168.325 183.824 168.422 183.699 168.564L181.786 171.175L182.743 169.453C183.307 168.497 181.719 167.742 181.165 168.707L179.491 171.576V170.735C179.491 169.97 179.338 168.994 178.363 168.947C178.138 168.925 177.912 168.985 177.726 169.115C177.541 169.244 177.407 169.435 177.349 169.654C177.198 170.283 177.198 170.938 177.349 171.567C177.512 172.265 177.952 173.221 177.55 173.9L175.571 176.979C175.474 177.1 175.412 177.245 175.39 177.398C175.368 177.551 175.387 177.707 175.446 177.85C175.504 177.994 175.6 178.119 175.722 178.213C175.845 178.307 175.991 178.366 176.144 178.385C176.158 178.521 176.203 178.651 176.274 178.767C176.346 178.883 176.443 178.981 176.558 179.053C176.673 179.126 176.804 179.172 176.939 179.187C177.074 179.202 177.211 179.186 177.34 179.141C177.518 179.257 177.733 179.301 177.942 179.265C178.056 179.415 178.218 179.521 178.401 179.564C178.585 179.608 178.777 179.587 178.946 179.504C179.001 179.643 179.09 179.765 179.205 179.86C179.321 179.954 179.458 180.018 179.605 180.044C179.752 180.07 179.903 180.057 180.044 180.008C180.185 179.959 180.311 179.874 180.409 179.762C181.815 178.07 183.68 176.817 184.961 174.981C185.024 174.856 185.059 174.718 185.064 174.578C185.068 174.438 185.041 174.299 184.985 174.17C184.93 174.041 184.846 173.926 184.741 173.834C184.637 173.741 184.512 173.672 184.378 173.632Z" fill="#DD9C5A"/>
<path d="M165.424 185.27C165.739 186.233 166.336 187.079 167.137 187.698C167.939 188.317 168.908 188.681 169.919 188.742C173.476 188.942 180.228 181.436 180.228 181.436C180.228 181.436 180.409 174.742 177.464 173.585C177.464 173.585 172.577 177.802 171.898 177.85C171.219 177.897 167.26 174.177 167.26 174.177" fill="#8B3907"/>
<path d="M185.965 174.244L186.855 172.513C186.915 172.353 186.931 172.18 186.901 172.011C186.871 171.843 186.797 171.685 186.685 171.556C186.574 171.426 186.43 171.328 186.268 171.273C186.106 171.218 185.932 171.207 185.765 171.242C185.929 170.779 186.032 170.297 186.071 169.807C186.065 169.618 185.999 169.436 185.882 169.288C185.765 169.14 185.603 169.033 185.421 168.984C185.239 168.935 185.045 168.945 184.87 169.014C184.694 169.083 184.545 169.207 184.445 169.367L182.963 172.236L183.642 170.371C184.024 169.31 182.341 168.86 181.959 169.903L180.801 173.059L180.62 172.236C180.457 171.481 180.17 170.553 179.204 170.668C178.98 170.687 178.77 170.785 178.611 170.944C178.452 171.104 178.354 171.314 178.334 171.538C178.302 172.196 178.43 172.853 178.707 173.451C178.985 174.11 179.587 174.981 179.3 175.717L177.875 179.093C177.802 179.228 177.767 179.38 177.772 179.534C177.777 179.687 177.823 179.837 177.904 179.967C177.986 180.097 178.101 180.203 178.237 180.275C178.373 180.346 178.525 180.381 178.678 180.374C178.716 180.504 178.782 180.624 178.873 180.724C178.963 180.825 179.075 180.904 179.2 180.955C179.325 181.007 179.46 181.029 179.595 181.022C179.73 181.014 179.861 180.975 179.979 180.91C180.176 180.986 180.394 180.986 180.591 180.91C180.729 181.039 180.907 181.117 181.095 181.129C181.284 181.141 181.471 181.087 181.624 180.977C181.701 181.105 181.811 181.212 181.941 181.286C182.072 181.36 182.22 181.399 182.37 181.399C182.52 181.399 182.668 181.36 182.798 181.286C182.929 181.212 183.038 181.105 183.116 180.977C184.215 179.064 185.832 177.515 186.788 175.507C186.835 175.369 186.85 175.223 186.832 175.079C186.814 174.935 186.764 174.797 186.684 174.675C186.605 174.553 186.499 174.451 186.375 174.377C186.25 174.302 186.11 174.257 185.965 174.244Z" fill="#FCBF81"/>
<path d="M173.706 210.325L172.396 217.478C172.396 217.478 174.452 219.591 181.375 219.343C188.299 219.094 181.375 206.701 181.375 206.701" fill="#2E2401"/>
<path d="M164.717 230.665C170.162 230.665 174.576 229.025 174.576 227.003C174.576 224.98 170.162 223.34 164.717 223.34C159.272 223.34 154.857 224.98 154.857 227.003C154.857 229.025 159.272 230.665 164.717 230.665Z" fill="#FF666D"/>
<path d="M163.053 210.622L163.435 225.358H166.371V210.622" fill="#FF666D"/>
<path d="M183.67 189.344C180.719 189.982 177.741 190.482 174.739 190.845C174.672 190.851 174.607 190.87 174.548 190.901C174.489 190.932 174.437 190.975 174.394 191.027C174.05 189.988 173.757 188.933 173.515 187.862C173.381 187.25 172.443 187.508 172.558 188.12C173.111 190.556 173.932 192.923 175.006 195.177C175.274 195.742 176.106 195.254 175.848 194.69C175.398 193.733 175.006 192.777 174.653 191.821H174.719C177.805 191.457 180.868 190.947 183.909 190.291C184.541 190.147 184.282 189.21 183.67 189.344Z" fill="#008074"/>
<path d="M175.695 196.182C174.906 197.493 173.893 198.655 172.702 199.615C172.214 200.007 172.903 200.695 173.39 200.303C174.643 199.288 175.708 198.062 176.536 196.679C176.602 196.567 176.621 196.434 176.589 196.308C176.557 196.183 176.476 196.075 176.364 196.009C176.253 195.943 176.119 195.925 175.994 195.957C175.868 195.989 175.761 196.07 175.695 196.182Z" fill="#008074"/>
<path d="M169.651 193.026C169.651 193.026 177.378 186.829 182.504 186.093C187.629 185.356 190.307 190.932 189.944 194.652C189.58 198.371 177.301 200.389 177.301 200.389" fill="#2E2401"/>
<path d="M173.773 195.091C174.729 194.135 187.888 188.044 192.506 190.836C197.125 193.628 196.838 195.703 196.255 199.108C195.672 202.512 191.206 220.854 191.206 220.854C187.845 222.151 184.155 222.326 180.687 221.351L181.978 207.724L164.506 198.161" fill="#6B460E"/>
<path d="M164.21 173.183C164.908 173.699 170.904 174.416 172.138 177.171C173.371 179.925 175.293 194.164 175.293 194.164C175.293 194.164 171.698 199.519 165.472 197.616C163.627 197.052 154.054 179.552 153.796 177.735C153.136 173.001 164.21 173.183 164.21 173.183Z" fill="#E55600"/>
<path d="M152.409 203.927C152.106 203.208 151.856 202.466 151.663 201.709C150.2 195.971 149.234 174.35 158.941 175.229C169.594 176.186 165.998 202.876 176.795 202.053C187.591 201.231 192.019 204.042 187.601 208.231C178.784 216.598 157.822 216.828 152.409 203.927Z" fill="#021E6A"/>
<path d="M168.035 165.743C168.102 166.183 168.877 172.37 167.079 173.766C165.281 175.162 161.131 171.854 161.035 170.238C160.939 168.621 159.543 165.198 161.293 164.347C163.043 163.496 167.547 162.683 168.035 165.743Z" fill="#FCBF81"/>
<path d="M169.651 189.287C170.147 190.171 170.897 190.886 171.804 191.338C172.712 191.79 173.734 191.958 174.739 191.821C178.267 191.333 183.441 182.66 183.441 182.66C183.441 182.66 182.322 176.052 179.214 175.488C179.214 175.488 175.236 180.565 174.576 180.747C173.916 180.929 172.147 177.18 172.147 177.18" fill="#E55600"/>
<path d="M167.643 175.994C166.859 175.459 165.73 175.038 166.008 173.948C166.218 172.992 167.155 172.361 167.184 171.385C167.193 170.916 167.109 170.449 166.937 170.013C166.764 169.576 166.507 169.178 166.18 168.841C165.769 168.421 165.224 168.182 165.539 167.512C165.776 167.078 166.131 166.72 166.562 166.479L168.571 166.604C168.945 165.553 168.921 164.401 168.501 163.368C168.081 162.334 167.296 161.491 166.295 161C164.997 160.319 163.524 160.047 162.068 160.217C160.613 160.388 159.243 160.994 158.137 161.956C157.613 162.537 157.16 163.179 156.789 163.869C156.359 164.734 155.765 165.507 155.039 166.145C154.64 166.381 154.299 166.704 154.041 167.09C153.782 167.475 153.614 167.914 153.547 168.373C153.488 169.266 153.727 170.154 154.226 170.897C154.733 171.854 153.92 172.523 153.27 173.212C152.546 173.853 152.075 174.731 151.941 175.688C151.845 177.764 153.853 178.72 155.584 179.035C157.315 179.351 158.826 179.58 160.452 179.858C162.517 180.212 164.535 180.958 166.648 180.384C167.203 180.228 167.709 179.935 168.121 179.533C168.342 179.31 168.514 179.043 168.625 178.749C168.737 178.456 168.786 178.142 168.769 177.828C168.752 177.515 168.669 177.208 168.526 176.929C168.383 176.649 168.183 176.402 167.939 176.205C167.845 176.129 167.746 176.059 167.643 175.994Z" fill="#700FBC"/>
<path d="M135.607 157.844L135.693 157.796C135.771 157.751 135.838 157.691 135.892 157.62C135.946 157.548 135.986 157.467 136.008 157.381C136.031 157.294 136.036 157.204 136.024 157.115C136.012 157.026 135.982 156.941 135.937 156.864C135.892 156.787 135.832 156.719 135.761 156.665C135.689 156.611 135.608 156.571 135.522 156.549C135.435 156.526 135.345 156.521 135.256 156.533C135.168 156.545 135.082 156.575 135.005 156.62L134.842 156.716C134.843 156.596 134.813 156.479 134.755 156.374C134.696 156.27 134.612 156.183 134.51 156.121C134.407 156.059 134.291 156.025 134.172 156.022C134.052 156.019 133.934 156.047 133.829 156.104C133.045 156.486 132.27 156.878 131.505 157.289L131.801 156.926C132.251 156.362 131.687 155.415 130.979 155.855C130.048 156.435 129.133 157.041 128.234 157.672C128.155 157.729 128.088 157.801 128.037 157.884C127.987 157.968 127.954 158.061 127.94 158.157C127.927 158.254 127.933 158.352 127.959 158.447C127.985 158.541 128.03 158.629 128.091 158.705L127.948 158.81C127.803 158.917 127.703 159.074 127.666 159.25C127.629 159.426 127.657 159.61 127.747 159.766C127.713 159.869 127.702 159.977 127.714 160.084C127.725 160.191 127.759 160.295 127.814 160.388C127.393 160.703 127.632 161.344 128.091 161.497L128.148 161.564L127.345 161.841C126.523 162.128 126.876 163.438 127.708 163.151L131.83 161.707C132.906 161.441 133.894 160.9 134.699 160.139C134.792 160.041 134.853 159.918 134.873 159.784C134.894 159.651 134.873 159.514 134.814 159.393C135.112 159.238 135.391 159.049 135.646 158.829C135.721 158.769 135.78 158.693 135.82 158.605C135.86 158.518 135.879 158.423 135.875 158.327C135.872 158.231 135.846 158.137 135.799 158.053C135.752 157.97 135.687 157.898 135.607 157.844Z" fill="#FCBF81"/>
<path d="M118.758 160.407C118.758 160.407 126.169 157.395 128.378 156.744C128.378 156.744 130.663 158.351 130.032 162.568C130.032 162.568 123.338 169.396 119.207 171.452" fill="#E55600"/>
<path d="M112.991 145.594C113.089 145.462 113.137 145.3 113.129 145.136C113.12 144.972 113.054 144.816 112.943 144.695C112.653 144.276 112.253 143.945 111.786 143.739C111.651 143.697 111.509 143.683 111.369 143.699C111.228 143.714 111.092 143.758 110.97 143.828C110.847 143.898 110.74 143.992 110.655 144.105C110.57 144.218 110.509 144.347 110.476 144.485C110.443 144.756 110.474 145.031 110.567 145.288C110.66 145.545 110.812 145.776 111.012 145.963C111.212 146.149 111.453 146.286 111.715 146.361C111.978 146.437 112.254 146.449 112.523 146.397C112.694 146.346 112.838 146.231 112.927 146.077C113.016 145.922 113.043 145.739 113.001 145.565L112.991 145.594Z" fill="#FF666D"/>
<path d="M114.062 207.437C119.507 207.437 123.922 205.797 123.922 203.775C123.922 201.752 119.507 200.112 114.062 200.112C108.617 200.112 104.203 201.752 104.203 203.775C104.203 205.797 108.617 207.437 114.062 207.437Z" fill="#FF666D"/>
<path d="M112.408 187.393L112.79 202.13H115.726V187.393" fill="#FF666D"/>
<path d="M100.579 179.093C100.275 178.373 100.026 177.631 99.8327 176.874C98.3696 171.136 97.4037 149.515 107.11 150.395C117.763 151.351 114.167 178.041 124.964 177.218C135.76 176.396 140.188 179.207 135.77 183.396C127.001 191.764 105.963 191.964 100.579 179.093Z" fill="#021E6A"/>
<path d="M114.569 137.819C114.569 137.819 118.117 145.298 115.784 147.497C114.129 149.056 110.859 148.951 109.156 146.091C107.454 143.232 111.327 136.5 114.569 137.819Z" fill="#FCBF81"/>
<path d="M111.079 144.972C112.974 143.245 114.199 140.906 114.54 138.365C114.923 134.367 106.096 135.783 104.652 139.655C103.208 143.528 105.341 149.151 111.279 148.358L111.079 144.972Z" fill="#F5EF4B"/>
<path d="M106.976 145.441C106.364 145.957 90.8914 161.765 98.9147 167.063C105.609 171.481 108.172 148.329 108.162 146.56" fill="#F5EF4B"/>
<path d="M311.44 174.56C311.387 174.341 311.289 174.136 311.153 173.957C310.901 173.652 310.6 173.391 310.263 173.183C305.759 170.132 299.524 169.291 294.753 172.227C293.662 172.906 292.046 174.455 292.687 175.908C293.06 176.75 294.188 177.247 294.972 177.591C297.592 178.629 300.328 179.342 303.12 179.714C304.134 179.886 305.147 180.049 306.171 180.154C306.873 180.221 307.582 180.109 308.23 179.83C308.878 179.551 309.446 179.113 309.881 178.557C310.608 177.706 311.765 175.88 311.44 174.56Z" fill="#010E2F"/>
<path d="M292.582 175.287C295.77 177.747 299.784 178.884 303.789 178.462C310.885 177.917 311.44 174.56 311.44 174.56C311.44 174.56 309.604 198.094 308.628 198.467C307.653 198.84 304.029 200.619 302.279 200.753C300.529 200.887 294.992 198.668 294.858 198.056C294.724 197.444 292.582 175.287 292.582 175.287Z" fill="#3563DF"/>
<path d="M304.784 168.736C304.668 168.989 304.6 169.262 304.583 169.539L304.784 168.736Z" fill="#FF666D"/>
<path d="M293.873 140.994C293.653 140.545 292.983 140.937 293.203 141.386C298.061 151.313 299.008 162.482 299.897 173.326C299.897 173.824 300.71 173.824 300.672 173.326C299.783 162.319 298.798 151.054 293.873 140.994Z" fill="#007F68"/>
<path d="M293.261 141.09C293.261 141.09 294.619 146.235 293.261 148.817C291.903 151.399 290.698 151.906 292.371 155.119C294.045 158.332 298.52 158.743 298.817 161.201C299.113 163.658 296.627 145.46 293.261 141.09Z" fill="#007F68"/>
<path d="M308.8 150.385C305.067 158.327 302.969 166.938 302.632 175.707C302.632 176.319 303.589 176.319 303.589 175.707C303.921 167.097 305.983 158.641 309.652 150.844C309.871 150.318 309.059 149.84 308.8 150.385Z" fill="#007F68"/>
<path d="M309.46 152.9C309.46 152.384 309.345 151.37 309.403 150.461L308.858 150.806C307.012 155.348 304.258 166.03 303.426 169.3C304.545 166.852 309.164 166.518 310.493 162.998C311.088 161.514 311.115 159.863 310.57 158.36C309.907 156.612 309.533 154.768 309.46 152.9Z" fill="#007F68"/>
</svg>
