<svg width="11" height="14" viewBox="0 0 11 14" fill="none" xmlns="http://www.w3.org/2000/svg">
<path d="M5.46747 0C4.01741 0 2.62674 0.576036 1.60139 1.60139C0.576036 2.62674 0 4.01741 0 5.46747C0 9.53303 4.37216 14 5.46747 14C6.56278 14 10.9349 9.53303 10.9349 5.46747C10.9349 4.01741 10.3589 2.62674 9.33356 1.60139C8.30821 0.576036 6.91754 0 5.46747 0ZM5.46747 8.80282C4.8564 8.80276 4.25722 8.63389 3.73603 8.31487C3.21484 7.99584 2.79191 7.53905 2.51388 6.99489C2.23585 6.45073 2.11354 5.84034 2.16043 5.23107C2.20732 4.6218 2.4216 4.03732 2.77963 3.54211C2.79392 3.77729 2.86999 4.00454 3.00018 4.20092C3.13036 4.39731 3.31005 4.55588 3.5211 4.66062C3.73215 4.76537 3.9671 4.81259 4.20223 4.79752C4.43737 4.78244 4.66436 4.70561 4.86031 4.57477C5.05626 4.44393 5.21423 4.26372 5.31827 4.05232C5.42231 3.84092 5.46875 3.60582 5.45289 3.37074C5.43704 3.13565 5.35945 2.90892 5.22796 2.7134C5.09647 2.51789 4.91573 2.36052 4.70398 2.25719C5.15941 2.14966 5.63243 2.13972 6.09197 2.22799C6.55152 2.31627 6.98718 2.50078 7.37035 2.76939C7.75352 3.03801 8.07553 3.38465 8.31521 3.78655C8.55489 4.18845 8.70683 4.63652 8.76105 5.10131C8.81526 5.56611 8.77052 6.03711 8.62977 6.48339C8.48902 6.92966 8.25544 7.34111 7.94438 7.6907C7.63332 8.04029 7.25181 8.32011 6.82492 8.51179C6.39803 8.70346 5.93542 8.80264 5.46747 8.80282Z" fill="#573E0D"/>
</svg>
