<svg width="496" height="378" viewBox="0 0 496 378" fill="none" xmlns="http://www.w3.org/2000/svg">
<g filter="url(#filter0_d)">
<path d="M65 79C65 68.5066 73.5066 60 84 60H496V308H84C73.5066 308 65 299.493 65 289V79Z" fill="url(#paint0_linear)"/>
</g>
<path d="M383.386 111.618L385.58 98.6121L390.646 77.1336L408.89 84.6666L400.509 102.522L383.386 111.618Z" fill="url(#paint1_linear)"/>
<path d="M74 196.5L89.5 168L116.5 125L126.5 196.5L100 220.5L74 196.5Z" fill="url(#paint2_linear)"/>
<path d="M431.536 246.811L419.551 233.548L401.345 210.341L429.724 200.376L440.28 223.438L431.536 246.811Z" fill="url(#paint3_linear)"/>
<defs>
<filter id="filter0_d" x="0" y="0" width="561" height="378" filterUnits="userSpaceOnUse" color-interpolation-filters="sRGB">
<feFlood flood-opacity="0" result="BackgroundImageFix"/>
<feColorMatrix in="SourceAlpha" type="matrix" values="0 0 0 0 0 0 0 0 0 0 0 0 0 0 0 0 0 0 127 0"/>
<feOffset dy="5"/>
<feGaussianBlur stdDeviation="32.5"/>
<feColorMatrix type="matrix" values="0 0 0 0 0.295833 0 0 0 0 0.238964 0 0 0 0 0.0456076 0 0 0 0.47 0"/>
<feBlend mode="normal" in2="BackgroundImageFix" result="effect1_dropShadow"/>
<feBlend mode="normal" in="SourceGraphic" in2="effect1_dropShadow" result="shape"/>
</filter>
<linearGradient id="paint0_linear" x1="280.5" y1="60" x2="269.952" y2="340.639" gradientUnits="userSpaceOnUse">
<stop stop-color="#FFFBD6"/>
<stop offset="1" stop-color="#FCEB90"/>
</linearGradient>
<linearGradient id="paint1_linear" x1="392.685" y1="77.6037" x2="406.841" y2="91.9115" gradientUnits="userSpaceOnUse">
<stop stop-color="#F5EC94"/>
<stop offset="0.978025" stop-color="#D8CB5D" stop-opacity="0.06"/>
</linearGradient>
<linearGradient id="paint2_linear" x1="118" y1="132" x2="111" y2="209.5" gradientUnits="userSpaceOnUse">
<stop stop-color="#F5EC94"/>
<stop offset="0.978025" stop-color="#D8CB5D" stop-opacity="0.06"/>
</linearGradient>
<linearGradient id="paint3_linear" x1="404.105" y1="208.905" x2="435.492" y2="208.968" gradientUnits="userSpaceOnUse">
<stop stop-color="#F5EC94"/>
<stop offset="0.978025" stop-color="#D8CB5D" stop-opacity="0.06"/>
</linearGradient>
</defs>
</svg>
