<svg width="34" height="34" viewBox="0 0 34 34" fill="none" xmlns="http://www.w3.org/2000/svg">
<path d="M16.9833 0.333334C7.78333 0.333334 0.333328 7.8 0.333328 17C0.333328 26.2 7.78333 33.6667 16.9833 33.6667C26.2 33.6667 33.6667 26.2 33.6667 17C33.6667 7.8 26.2 0.333334 16.9833 0.333334ZM17 30.3333C9.63333 30.3333 3.66666 24.3667 3.66666 17C3.66666 9.63333 9.63333 3.66667 17 3.66667C24.3667 3.66667 30.3333 9.63333 30.3333 17C30.3333 24.3667 24.3667 30.3333 17 30.3333ZM8.66666 20.3333C9.96666 24.2333 13.2 27 17 27C20.8 27 24.0333 24.2333 25.3333 20.3333H8.66666Z" fill="#544700"/>
</svg>
