<svg width="37" height="53" viewBox="0 0 37 53" fill="none" xmlns="http://www.w3.org/2000/svg">
<path d="M19.2989 26.3394L22.3835 22.1295C26.0633 17.0761 29.7452 12.0199 33.4289 6.96106C33.6657 6.67589 33.8383 6.3039 33.9267 5.88871C34.015 5.47351 34.0154 5.03232 33.9278 4.61684C33.8554 4.22526 33.7025 3.87057 33.4874 3.59513C33.2723 3.31969 33.004 3.13513 32.7146 3.06349C32.432 2.96834 32.1358 2.98033 31.8577 3.09817C31.5796 3.21602 31.33 3.43531 31.1354 3.73269C29.5612 5.89575 27.9918 8.0588 26.4274 10.2219C22.9286 15.0347 19.4268 19.8434 15.9221 24.6481C15.7525 24.8636 15.6166 25.1244 15.5229 25.4146C15.4291 25.7047 15.3795 26.0181 15.377 26.3355C15.3745 26.653 15.4192 26.9678 15.5084 27.2606C15.5976 27.5535 15.7293 27.8183 15.8956 28.0387C20.9608 34.9984 26.0269 41.958 31.0941 48.9176C31.7671 49.8423 32.6054 49.9883 33.2991 49.3232C33.4999 49.1315 33.6668 48.8802 33.7875 48.5879C33.9081 48.2957 33.9795 47.9699 33.9962 47.6346C34.0129 47.2994 33.9746 46.9633 33.8841 46.6512C33.7935 46.339 33.6531 46.0588 33.4732 45.8312C32.3899 44.3184 31.2889 42.8259 30.1968 41.3212L21.2353 29.0161C20.6125 28.1482 19.9719 27.2722 19.2989 26.3394Z" fill="#CDDAED"/>
<path d="M6.92693 26.6074C7.44939 25.9017 7.963 25.2122 8.4707 24.5146C10.9482 21.1078 13.4247 17.6997 15.9003 14.2901C17.6123 11.9378 19.3263 9.59089 21.0422 7.24938C21.7624 6.26383 21.8126 4.85649 21.1603 3.94801C20.5079 3.03953 19.4689 3.0517 18.7369 4.05752L3.61212 24.835C2.79743 25.9585 2.79448 27.3131 3.61212 28.4365L18.7369 49.2141C19.4689 50.2199 20.4843 50.2645 21.1603 49.3236C21.8362 48.3826 21.7506 47.0118 21.0422 46.0222L7.16898 26.9603C7.09518 26.867 7.02729 26.7575 6.92693 26.6074Z" fill="#CDDAED"/>
<path d="M19.2989 26.3394L22.3835 22.1295C26.0633 17.0761 29.7452 12.0199 33.4289 6.96106C33.6657 6.67589 33.8383 6.3039 33.9267 5.88871C34.015 5.47351 34.0154 5.03232 33.9278 4.61684C33.8554 4.22526 33.7025 3.87057 33.4874 3.59513C33.2723 3.31969 33.004 3.13513 32.7146 3.06349C32.432 2.96834 32.1358 2.98033 31.8577 3.09817C31.5796 3.21602 31.33 3.43531 31.1354 3.73269C29.5612 5.89575 27.9918 8.0588 26.4274 10.2219C22.9286 15.0347 19.4268 19.8434 15.9221 24.6481C15.7525 24.8636 15.6166 25.1244 15.5229 25.4146C15.4291 25.7047 15.3795 26.0181 15.377 26.3355C15.3745 26.653 15.4192 26.9678 15.5084 27.2606C15.5976 27.5535 15.7293 27.8183 15.8956 28.0387C20.9608 34.9984 26.0269 41.958 31.0941 48.9176C31.7671 49.8423 32.6054 49.9883 33.2991 49.3232C33.4999 49.1315 33.6668 48.8802 33.7875 48.5879C33.9081 48.2957 33.9795 47.9699 33.9962 47.6346C34.0129 47.2994 33.9746 46.9633 33.8841 46.6512C33.7935 46.339 33.6531 46.0588 33.4732 45.8312C32.3899 44.3184 31.2889 42.8259 30.1968 41.3212L21.2353 29.0161C20.6125 28.1482 19.9719 27.2722 19.2989 26.3394Z" stroke="#C1D2ED" stroke-width="5"/>
<path d="M6.92693 26.6074C7.44939 25.9017 7.963 25.2122 8.4707 24.5146C10.9482 21.1078 13.4247 17.6997 15.9003 14.2901C17.6123 11.9378 19.3263 9.59089 21.0422 7.24938C21.7624 6.26383 21.8126 4.85649 21.1603 3.94801C20.5079 3.03953 19.4689 3.0517 18.7369 4.05752L3.61212 24.835C2.79743 25.9585 2.79448 27.3131 3.61212 28.4365L18.7369 49.2141C19.4689 50.2199 20.4843 50.2645 21.1603 49.3236C21.8362 48.3826 21.7506 47.0118 21.0422 46.0222L7.16898 26.9603C7.09518 26.867 7.02729 26.7575 6.92693 26.6074Z" stroke="#C1D2ED" stroke-width="5"/>
</svg>
