<svg width="363" height="281" viewBox="0 0 363 281" fill="none" xmlns="http://www.w3.org/2000/svg">
<g filter="url(#filter0_d)">
<path d="M9.63365 179.878L155.244 263.948C157.405 265.195 159.859 265.844 162.354 265.83C164.85 265.816 167.296 265.139 169.444 263.868C201.764 244.738 333.574 167.868 355.124 154.698C356.074 154.118 355.644 152.548 355.444 151.698C355.044 149.968 351.614 147.518 349.274 146.388C345.844 144.728 342.604 142.588 339.324 140.648L328.224 134.128L315.324 126.508L301.134 118.128L286.134 109.288L270.904 100.288L255.904 91.4475L241.714 83.0375L228.714 75.3975L217.504 68.8075L208.574 63.5775L204.964 61.4775C203.253 60.4858 201.309 59.9677 199.332 59.9765C197.355 59.9853 195.415 60.5207 193.714 61.5275L9.58365 170.758C8.79192 171.229 8.13705 171.899 7.6839 172.701C7.23075 173.504 6.99503 174.41 7.00008 175.332C7.00513 176.253 7.25078 177.157 7.7127 177.955C8.17462 178.752 8.83679 179.415 9.63365 179.878Z" fill="#FFD15B"/>
<path d="M93.9136 36.2475C93.9136 36.2475 80.1336 40.1275 84.1936 65.1275L114.394 45.8275C114.394 45.8275 102.174 33.8675 93.9136 36.2475Z" fill="#0A297C"/>
<path opacity="0.39" d="M93.9136 36.2475C93.9136 36.2475 80.1336 40.1275 84.1936 65.1275L114.394 45.8275C114.394 45.8275 102.174 33.8675 93.9136 36.2475Z" fill="#06489E"/>
<path d="M199.524 144.478C156.444 121.128 171.714 85.1275 171.914 49.9075C171.964 38.6475 171.754 26.9075 168.694 15.9075C167.574 11.9075 166.074 7.70753 163.324 4.51753C161.784 2.72753 159.564 0.647526 157.184 0.107526C154.524 -0.492474 152.014 1.55753 149.884 2.81753L142.474 7.20753L122.924 18.8375L107.064 28.2275L104.264 29.8875L92.5636 36.8175C94.7836 35.4975 99.6236 39.9575 100.814 41.3475C103.554 44.5375 105.064 48.7475 106.184 52.7375C109.244 63.6575 109.454 75.4375 109.404 86.7375C109.244 121.988 89.4036 166.648 132.534 189.968C156.534 202.968 193.304 225.168 193.304 225.168L265.054 182.528C257.434 177.918 220.214 155.678 199.524 144.478Z" fill="#0A297C"/>
<path d="M185.354 81.2575L180.964 77.9675C180.956 77.8265 180.915 77.6893 180.844 77.5675C180.773 77.4456 180.673 77.3428 180.554 77.2675C176.36 74.3475 172.174 71.4142 167.994 68.4675C167.862 68.3663 167.707 68.2994 167.544 68.2729C167.38 68.2464 167.212 68.2611 167.055 68.3156C166.898 68.3702 166.758 68.4629 166.646 68.5855C166.534 68.708 166.454 68.8565 166.414 69.0175C165.974 69.7775 166.534 70.5675 167.244 71.1575C167.954 71.7475 168.834 72.4675 169.634 73.1575C169.53 73.2333 169.442 73.3283 169.374 73.4375C168.734 74.4375 167.664 75.8575 167.654 77.1075C167.644 78.3575 168.654 78.9775 169.434 79.6575V79.8375C169.274 81.3775 169.954 81.8375 171.174 82.5675C171.291 82.6469 171.424 82.7005 171.564 82.7246C171.703 82.7487 171.846 82.7429 171.984 82.7075C172.83 83.2587 173.723 83.7339 174.654 84.1275L178.354 86.0075C179.294 86.4875 179.974 85.3575 179.594 84.5975C180.334 84.6575 180.644 83.8475 180.454 83.2175C180.548 83.1253 180.62 83.0124 180.664 82.8875V82.8375L181.944 83.8375C182.944 84.6475 184.204 83.0375 183.174 82.2275L182.264 81.5075L184.134 82.9075C184.352 83.0693 184.627 83.1375 184.896 83.0972C185.165 83.0569 185.407 82.9113 185.569 82.6925C185.73 82.4737 185.799 82.1996 185.758 81.9305C185.718 81.6614 185.572 81.4193 185.354 81.2575Z" fill="#FEC877"/>
<path d="M214.424 209.848L216.004 208.848V191.058L208.194 190.778C208.194 190.778 208.044 198.368 206.194 200.098C204.344 201.828 199.784 200.588 199.334 200.738C198.884 200.888 195.814 199.998 194.434 201.418C193.054 202.838 199.114 206.938 202.334 207.688C204.539 208.133 206.801 208.217 209.034 207.938C209.034 207.938 209.734 203.388 210.854 203.838C211.974 204.288 212.054 209.098 212.054 209.098L214.424 209.848Z" fill="#FF6753"/>
<path d="M220.304 115.668C221.402 121.765 222.051 127.935 222.244 134.128C222.374 141.128 219.904 197.068 219.904 197.068C219.904 197.068 215.264 202.508 203.964 199.228C202.324 198.758 201.804 144.638 201.804 144.638L205.714 119.818" fill="#A03DFF"/>
<path d="M215.104 87.4175C214.484 87.4175 193.694 86.8775 179.644 74.2875C179.644 74.2875 172.914 80.8875 175.644 85.9375C175.644 85.9375 195.564 105.128 210.754 101.198" fill="#FC9C54"/>
<path d="M198.634 81.4775C198.605 81.4342 198.567 81.3986 198.522 81.3739C198.476 81.3493 198.425 81.3363 198.374 81.3363C198.322 81.3363 198.271 81.3493 198.226 81.3739C198.18 81.3986 198.142 81.4342 198.114 81.4775C196.111 84.5076 195.392 88.208 196.114 91.7675C196.194 92.1475 196.774 91.9875 196.704 91.6075C196.065 88.3853 196.661 85.0407 198.374 82.2375C200.085 85.4349 200.965 89.0111 200.934 92.6375C200.934 92.7184 200.966 92.796 201.023 92.8532C201.08 92.9104 201.158 92.9425 201.239 92.9425C201.32 92.9425 201.397 92.9104 201.454 92.8532C201.511 92.796 201.544 92.7184 201.544 92.6375C201.569 88.7266 200.566 84.8778 198.634 81.4775Z" fill="#42A200"/>
<path d="M193.034 223.578L194.614 222.578V204.788L186.804 204.508C186.804 204.508 186.654 212.098 184.804 213.828C182.954 215.558 178.394 214.318 177.944 214.468C177.494 214.618 174.424 213.728 173.044 215.148C171.664 216.568 177.724 220.668 180.944 221.418C183.149 221.863 185.411 221.947 187.644 221.668C187.644 221.668 188.344 217.118 189.464 217.568C190.584 218.018 190.664 222.828 190.664 222.828L193.034 223.578Z" fill="#FF6753"/>
<path d="M195.834 118.258C195.834 118.258 188.634 144.838 185.704 168.628C185.004 174.338 179.094 208.398 179.094 208.398C179.094 208.398 188.834 211.958 197.494 209.168C197.494 209.168 207.794 165.708 208.234 164.858C208.674 164.008 215.624 135.858 216.424 115.658" fill="#A03DFF"/>
<path d="M217.844 84.4375L213.714 82.8875C212.664 82.9575 203.314 86.0175 199.064 92.2075C198.466 94.1443 198.015 96.1232 197.714 98.1275C197.174 100.798 196.714 103.478 196.374 106.128C195.986 109.064 195.818 112.026 195.874 114.988C195.874 116.258 195.944 116.898 196.074 118.158C196.531 118.62 197.066 118.999 197.654 119.278C209.934 124.558 219.654 118.148 220.144 117.158C220.634 116.168 222.254 101.688 223.144 93.0675C223.33 91.2468 222.911 89.4155 221.954 87.856C220.996 86.2964 219.552 85.0952 217.844 84.4375Z" fill="#FFAF68"/>
<path d="M207.814 68.6675C207.814 68.6675 203.954 82.6675 209.084 84.5975C214.214 86.5275 220.814 81.0275 221.474 78.1375C222.134 75.2475 215.504 64.4575 207.814 68.6675Z" fill="#FEC877"/>
<path d="M233.144 64.4875C232.474 63.0821 231.323 61.9627 229.9 61.3318C228.477 60.7009 226.875 60.6 225.384 61.0475C222.554 61.9675 220.844 64.3975 220.014 67.1075C217.464 64.8775 213.664 63.7475 208.844 65.2275C208.844 65.2275 204.114 67.2275 204.974 70.2275C205.834 73.2275 209.424 73.2275 212.434 73.8175C215.444 74.4075 213.004 77.0475 213.154 80.0175C213.304 82.9875 214.644 83.4775 215.894 83.7375C217.144 83.9975 222.824 82.7375 223.624 76.0675C223.672 75.6594 223.692 75.2484 223.684 74.8375C224.464 74.9188 225.25 74.9422 226.034 74.9075C227.802 74.9647 229.545 74.4835 231.034 73.5275C232.338 72.4677 233.252 71.0047 233.634 69.3683C234.016 67.732 233.844 66.0151 233.144 64.4875Z" fill="#653200"/>
<path d="M202.874 84.0175C203.265 83.4665 203.433 82.7875 203.344 82.1175C203.316 81.9171 203.227 81.7298 203.091 81.5806C202.954 81.4313 202.775 81.327 202.578 81.2815C202.381 81.236 202.174 81.2514 201.986 81.3257C201.798 81.3999 201.637 81.5296 201.524 81.6975L201.084 82.2975C201.014 81.5275 200.934 80.7575 200.824 79.9875C200.814 79.7223 200.7 79.4716 200.506 79.2907C200.312 79.1097 200.054 79.0132 199.789 79.0225C199.523 79.0318 199.273 79.1461 199.092 79.3402C198.911 79.5343 198.814 79.7923 198.824 80.0575C198.824 80.2975 198.764 80.5475 198.744 80.7875C198.66 81.0445 198.603 81.3091 198.574 81.5775C197.484 81.7175 196.184 82.1175 195.994 83.3675C195.994 83.3675 195.994 83.4275 195.994 83.4475C195.154 83.4475 194.334 83.7775 194.304 84.7775C194.289 84.9672 194.289 85.1578 194.304 85.3475C193.454 85.5975 192.834 86.0275 192.954 87.1375C193.135 88.4296 193.471 89.6953 193.954 90.9075C194.023 91.0581 194.129 91.189 194.262 91.2885C194.394 91.388 194.55 91.453 194.714 91.4775C194.834 92.0175 194.974 92.5475 195.124 93.0775C195.234 93.305 195.401 93.5008 195.608 93.6466C195.815 93.7924 196.055 93.8836 196.307 93.9115C196.558 93.9395 196.813 93.9033 197.046 93.8065C197.28 93.7096 197.486 93.5552 197.644 93.3575C197.746 93.3506 197.847 93.3305 197.944 93.2975C198.063 93.3798 198.2 93.4349 198.343 93.4591C198.487 93.4833 198.633 93.4759 198.774 93.4375C198.897 93.5255 199.04 93.5841 199.189 93.6089C199.339 93.6336 199.493 93.624 199.638 93.5806C199.784 93.5372 199.918 93.4613 200.029 93.3585C200.141 93.2558 200.228 93.1289 200.284 92.9875C200.401 92.8832 200.491 92.7528 200.549 92.6069C200.606 92.461 200.628 92.3036 200.614 92.1475C200.614 91.9175 200.614 91.6875 200.614 91.4675C201.414 88.9875 202.167 86.5042 202.874 84.0175Z" fill="#FEC877"/>
<path d="M201.164 89.1975C200.844 89.2775 196.344 85.1475 192.934 86.5675C192.934 86.5675 179.934 108.488 192.064 114.288C198.064 117.168 202.734 108.288 202.734 108.288L199.284 101.468L201.164 89.1975Z" fill="#FFAF68"/>
<path d="M124.394 63.1975C127.409 63.1975 129.854 59.8441 129.854 55.7075C129.854 51.5709 127.409 48.2175 124.394 48.2175C121.378 48.2175 118.934 51.5709 118.934 55.7075C118.934 59.8441 121.378 63.1975 124.394 63.1975Z" fill="white"/>
<path d="M133.294 48.0075L162.714 30.7575C163 30.5905 163.208 30.3164 163.293 29.9957C163.377 29.6751 163.331 29.334 163.164 29.0475C162.997 28.7611 162.723 28.5528 162.402 28.4684C162.081 28.384 161.74 28.4305 161.454 28.5975L132.034 45.8475C131.892 45.9303 131.768 46.0401 131.668 46.1708C131.569 46.3016 131.496 46.4506 131.454 46.6093C131.413 46.7681 131.403 46.9336 131.425 47.0963C131.447 47.259 131.501 47.4157 131.584 47.5575C131.666 47.6994 131.776 47.8235 131.907 47.9229C132.038 48.0223 132.187 48.0949 132.345 48.1367C132.504 48.1785 132.67 48.1886 132.832 48.1664C132.995 48.1443 133.152 48.0903 133.294 48.0075Z" fill="#F2F2F2"/>
<path d="M135.714 53.7275L154.344 43.0475C154.63 42.8804 154.838 42.6064 154.923 42.2857C155.007 41.965 154.961 41.6239 154.794 41.3375C154.627 41.0511 154.352 40.8428 154.032 40.7584C153.711 40.674 153.37 40.7204 153.084 40.8875L134.414 51.5675C134.127 51.7399 133.921 52.019 133.84 52.3435C133.76 52.6679 133.811 53.0111 133.984 53.2975C134.156 53.5839 134.435 53.7902 134.76 53.8708C135.084 53.9515 135.427 53.8999 135.714 53.7275Z" fill="#F2F2F2"/>
<path d="M128.961 89.5135C129.789 85.4605 128.065 81.6859 125.11 81.0826C122.156 80.4794 119.09 83.2759 118.262 87.3289C117.434 91.3819 119.159 95.1565 122.113 95.7598C125.068 96.363 128.134 93.5665 128.961 89.5135Z" fill="white"/>
<path d="M132.484 82.6775L161.854 65.4175C162.14 65.2505 162.348 64.9764 162.433 64.6557C162.517 64.3351 162.471 63.994 162.304 63.7075C162.136 63.4211 161.862 63.2128 161.542 63.1284C161.221 63.044 160.88 63.0905 160.594 63.2575L131.224 80.5175C131.082 80.6003 130.958 80.7101 130.858 80.8408C130.759 80.9716 130.686 81.1206 130.644 81.2793C130.603 81.4381 130.593 81.6036 130.615 81.7663C130.637 81.929 130.691 82.0857 130.774 82.2275C130.856 82.3694 130.966 82.4935 131.097 82.5929C131.228 82.6923 131.377 82.7649 131.535 82.8067C131.694 82.8485 131.86 82.8586 132.022 82.8364C132.185 82.8143 132.342 82.7603 132.484 82.6775Z" fill="#F2F2F2"/>
<path d="M134.864 88.3975L153.494 77.7175C153.78 77.5504 153.988 77.2764 154.073 76.9557C154.157 76.635 154.111 76.294 153.944 76.0075C153.777 75.7211 153.502 75.5128 153.182 75.4284C152.861 75.344 152.52 75.3904 152.234 75.5575L133.604 86.2375C133.317 86.4046 133.109 86.6786 133.024 86.9993C132.94 87.32 132.987 87.6611 133.154 87.9475C133.321 88.234 133.595 88.4423 133.915 88.5267C134.236 88.6111 134.577 88.5646 134.864 88.3975Z" fill="#F2F2F2"/>
<path d="M125.288 121.003C126.453 117.034 125.051 113.128 122.157 112.279C119.264 111.43 115.974 113.96 114.81 117.929C113.645 121.898 115.047 125.804 117.941 126.653C120.834 127.502 124.124 124.972 125.288 121.003Z" fill="white"/>
<path d="M128.904 114.668L158.274 97.4075C158.415 97.3248 158.54 97.2149 158.639 97.0842C158.738 96.9535 158.811 96.8045 158.853 96.6457C158.895 96.4869 158.905 96.3215 158.883 96.1588C158.86 95.9961 158.806 95.8394 158.724 95.6975C158.641 95.5557 158.531 95.4316 158.4 95.3322C158.27 95.2328 158.121 95.1602 157.962 95.1184C157.803 95.0766 157.638 95.0665 157.475 95.0887C157.312 95.1108 157.155 95.1648 157.014 95.2475L127.644 112.508C127.502 112.59 127.378 112.7 127.278 112.831C127.179 112.962 127.106 113.111 127.064 113.269C127.023 113.428 127.013 113.594 127.035 113.756C127.057 113.919 127.111 114.076 127.194 114.218C127.276 114.359 127.386 114.483 127.517 114.583C127.648 114.682 127.797 114.755 127.955 114.797C128.114 114.838 128.28 114.849 128.442 114.826C128.605 114.804 128.762 114.75 128.904 114.668Z" fill="#F2F2F2"/>
<path d="M129.524 121.038L148.154 110.358C148.295 110.275 148.42 110.165 148.519 110.034C148.618 109.904 148.691 109.755 148.733 109.596C148.775 109.437 148.785 109.271 148.763 109.109C148.74 108.946 148.686 108.789 148.604 108.648C148.521 108.506 148.411 108.382 148.28 108.282C148.15 108.183 148.001 108.11 147.842 108.068C147.683 108.027 147.518 108.017 147.355 108.039C147.192 108.061 147.035 108.115 146.894 108.198L128.264 118.878C127.977 119.045 127.769 119.319 127.684 119.639C127.6 119.96 127.647 120.301 127.814 120.588C127.981 120.874 128.255 121.082 128.575 121.167C128.896 121.251 129.237 121.205 129.524 121.038Z" fill="#F2F2F2"/>
<path d="M123.514 155.958C126.529 155.958 128.974 152.604 128.974 148.468C128.974 144.331 126.529 140.978 123.514 140.978C120.498 140.978 118.054 144.331 118.054 148.468C118.054 152.604 120.498 155.958 123.514 155.958Z" fill="white"/>
<path d="M132.094 142.298L161.464 125.038C161.75 124.87 161.958 124.596 162.043 124.276C162.127 123.955 162.081 123.614 161.914 123.328C161.831 123.186 161.721 123.062 161.59 122.962C161.46 122.863 161.311 122.79 161.152 122.748C160.831 122.664 160.49 122.71 160.204 122.878L130.834 140.128C130.692 140.21 130.568 140.32 130.468 140.451C130.369 140.582 130.296 140.731 130.254 140.889C130.213 141.048 130.203 141.214 130.225 141.376C130.247 141.539 130.301 141.696 130.384 141.838C130.466 141.979 130.576 142.104 130.707 142.203C130.838 142.302 130.987 142.375 131.145 142.417C131.304 142.458 131.47 142.469 131.632 142.446C131.795 142.424 131.952 142.37 132.094 142.288V142.298Z" fill="#F2F2F2"/>
<path d="M134.714 147.638L153.344 136.958C153.63 136.79 153.838 136.516 153.923 136.196C154.007 135.875 153.961 135.534 153.794 135.248C153.711 135.106 153.601 134.982 153.47 134.882C153.34 134.783 153.191 134.71 153.032 134.668C152.711 134.584 152.37 134.63 152.084 134.798L133.454 145.478C133.167 145.645 132.959 145.919 132.874 146.239C132.79 146.56 132.837 146.901 133.004 147.188C133.171 147.474 133.445 147.682 133.765 147.767C134.086 147.851 134.427 147.805 134.714 147.638Z" fill="#F2F2F2"/>
<path d="M121.354 56.2975L122.534 54.0075C122.534 54.0075 125.194 56.9375 125.194 56.6475C125.194 56.3575 127.714 45.1275 127.714 45.1275L129.714 46.7875L126.424 60.2275L121.354 56.2975Z" fill="#4EB300"/>
<path d="M251.124 123.308C250.699 123.306 250.28 123.214 249.894 123.038L249.704 124.288L269.704 124.798V123.308H251.124Z" fill="#EF8A3F"/>
<path d="M249.884 123.128L249.704 124.328L260.714 130.668V129.128C257.034 127.308 253.434 125.238 249.884 123.128Z" fill="#EF8A3F"/>
<path d="M261.044 36.7875C260.39 36.8958 259.719 36.798 259.124 36.5075L246.444 134.358C247.214 134.828 248.014 135.248 248.794 135.688L261.624 36.6875L261.044 36.7875Z" fill="#EF8A3F"/>
<path d="M263.964 36.6675C263.502 36.7182 263.036 36.7182 262.574 36.6675C262.204 36.6675 261.824 36.6675 261.454 36.7275L270.024 137.068C270.675 136.749 271.342 136.465 272.024 136.218L272.364 136.048H272.424L263.964 36.6675Z" fill="#EF8A3F"/>
<path d="M262.574 36.6775C262.062 36.6801 261.551 36.7169 261.044 36.7875C260.844 36.8033 260.643 36.8033 260.444 36.7875L259.604 142.788C260.033 142.634 260.495 142.597 260.944 142.678H261.714H262.134L262.974 36.6775H262.574Z" fill="#EF8A3F"/>
<path d="M248.714 38.3675V60.2875C248.714 60.2875 273.934 61.0375 273.934 60.2875V38.3675" fill="#FF6753"/>
<path d="M261.344 44.1675C268.308 44.1675 273.954 41.5529 273.954 38.3275C273.954 35.1022 268.308 32.4875 261.344 32.4875C254.379 32.4875 248.734 35.1022 248.734 38.3275C248.734 41.5529 254.379 44.1675 261.344 44.1675Z" fill="#D64338"/>
<path d="M261.344 66.4575C268.308 66.4575 273.954 63.8429 273.954 60.6175C273.954 57.3922 268.308 54.7775 261.344 54.7775C254.379 54.7775 248.734 57.3922 248.734 60.6175C248.734 63.8429 254.379 66.4575 261.344 66.4575Z" fill="#FF6753"/>
<path d="M200.084 90.1275C197.23 94.7768 195.269 99.9183 194.304 105.288C194.194 105.918 195.154 106.188 195.304 105.558C196.249 100.273 198.176 95.2127 200.984 90.6375C201.284 90.0475 200.424 89.5475 200.084 90.1275Z" fill="#F04900"/>
<path d="M202.504 109.128C201.504 111.078 200.224 113.128 198.224 114.128C197.044 114.68 195.726 114.869 194.438 114.669C193.15 114.47 191.951 113.891 190.994 113.008C186.734 109.338 187.374 103.008 188.224 98.0775C188.334 97.4475 187.374 97.1775 187.224 97.8075C186.224 103.348 185.714 110.548 190.944 114.258C191.949 115 193.124 115.481 194.362 115.656C195.6 115.83 196.862 115.693 198.034 115.258C200.534 114.258 202.124 111.878 203.324 109.568C203.664 109.068 202.794 108.568 202.504 109.128Z" fill="#F04900"/>
<path d="M213.404 135.218C212.764 147.928 209.014 160.108 205.834 172.348C202.654 184.588 199.944 196.778 197.624 209.128L198.704 208.828C201.057 196.354 203.837 183.971 207.044 171.678C210.194 159.678 213.774 147.678 214.404 135.218C214.434 134.578 213.434 134.578 213.404 135.218Z" fill="#653200"/>
<path d="M280.614 119.318V153.028L306.714 168.098L327.984 155.458V124.138" fill="#FFAF68"/>
<path d="M306.714 168.098V134.838L327.984 125.418V155.458L306.714 168.098Z" fill="#F49E5D"/>
<path d="M327.984 122.388V125.418L325.964 126.038L324.624 123.978" fill="#EA8E50"/>
<path d="M302.104 109.618L280.604 122.348L307.484 137.868C308.284 138.328 327.974 125.418 327.974 125.418L302.104 109.618Z" fill="#EA8E50"/>
<path d="M280.614 122.348V119.318L284.474 117.398L284.004 122.788" fill="#EA8E50"/>
<path d="M302.104 106.588L280.604 119.318L307.484 134.838C308.284 135.298 327.974 122.388 327.974 122.388L302.104 106.588Z" fill="#FFB883"/>
<path d="M284.364 128.828V135.798L303.924 146.958V140.118L284.364 128.828Z" fill="#EA8E50"/>
<path d="M284.104 139.248V146.228L303.664 157.388V150.538L284.104 139.248Z" fill="#EA8E50"/>
<path d="M293.383 138.78C293.867 138.734 294.206 138.139 294.141 137.452C294.075 136.765 293.63 136.245 293.146 136.291C292.662 136.338 292.323 136.932 292.389 137.619C292.454 138.307 292.9 138.826 293.383 138.78Z" fill="#FFB883"/>
<path d="M292.572 148.842C293.056 148.795 293.395 148.201 293.33 147.514C293.264 146.826 292.819 146.307 292.335 146.353C291.851 146.399 291.512 146.994 291.578 147.681C291.643 148.368 292.089 148.888 292.572 148.842Z" fill="#FFB883"/>
<path d="M67.3136 143.418C55.0136 143.418 45.0336 146.678 45.0336 150.698H89.5936C89.5936 146.678 79.6136 143.418 67.3136 143.418Z" fill="#06489E"/>
<path d="M45.1036 151.268L45.0336 150.708C45.0355 150.896 45.059 151.084 45.1036 151.268Z" fill="#06489E"/>
<path d="M89.5936 150.708L89.5036 151.348C89.5614 151.139 89.5916 150.924 89.5936 150.708Z" fill="#06489E"/>
<path d="M67.3136 157.988C78.9636 157.988 88.5136 155.068 89.5036 151.338L89.5936 150.698H45.0336L45.1036 151.258C45.9836 155.028 55.5836 157.988 67.3136 157.988Z" fill="#06489E"/>
<path d="M75.8236 113.098H70.8136V164.808H75.8236V113.098Z" fill="#25B000"/>
<path d="M73.3236 114.158C74.7098 114.158 75.8336 113.683 75.8336 113.098C75.8336 112.512 74.7098 112.038 73.3236 112.038C71.9374 112.038 70.8136 112.512 70.8136 113.098C70.8136 113.683 71.9374 114.158 73.3236 114.158Z" fill="#25B000"/>
<path d="M86.9686 122.972L82.0599 121.97L71.7152 172.634L76.6239 173.636L86.9686 122.972Z" fill="#FF8F02"/>
<path d="M86.9688 122.972C87.0859 122.399 86.0798 121.709 84.7216 121.432C83.3633 121.154 82.1674 121.395 82.0503 121.968C81.9331 122.542 82.9392 123.232 84.2975 123.509C85.6557 123.786 86.8517 123.546 86.9688 122.972Z" fill="#FF8F02"/>
<path d="M61.2637 151.848L56.7136 154.458C56.6232 154.489 56.5246 154.488 56.4349 154.454C56.3453 154.421 56.2702 154.357 56.2226 154.274C56.1751 154.191 56.1582 154.094 56.1748 153.999C56.1915 153.905 56.2406 153.819 56.3136 153.758L60.9636 151.128C61.0069 151.102 61.0543 151.086 61.1036 151.078L60.1837 146.078L55.5837 148.708C55.4932 148.739 55.3946 148.738 55.305 148.704C55.2153 148.671 55.1401 148.607 55.0926 148.524C55.0451 148.441 55.0282 148.344 55.0448 148.249C55.0615 148.155 55.1106 148.069 55.1837 148.008L59.8637 145.328C59.916 145.299 59.974 145.282 60.0336 145.278L59.1837 140.698L54.7136 143.278C54.6232 143.309 54.5246 143.308 54.4349 143.274C54.3453 143.241 54.2702 143.177 54.2226 143.094C54.1751 143.011 54.1582 142.914 54.1748 142.819C54.1915 142.725 54.2406 142.639 54.3136 142.578L58.9936 139.898H59.0837L58.1336 134.798L53.6237 137.378C53.5332 137.409 53.4346 137.408 53.345 137.374C53.2553 137.341 53.1802 137.277 53.1326 137.194C53.0851 137.111 53.0682 137.014 53.0849 136.919C53.1015 136.825 53.1506 136.739 53.2237 136.678L57.9037 133.998H57.9737L57.0437 128.998L52.4636 131.618C52.3732 131.649 52.2746 131.648 52.1849 131.614C52.0953 131.581 52.0202 131.517 51.9726 131.434C51.9251 131.351 51.9082 131.254 51.9248 131.159C51.9415 131.065 51.9906 130.979 52.0636 130.918L56.7136 128.128C56.7569 128.102 56.8043 128.086 56.8536 128.078L56.0536 123.748L51.4737 126.368C51.3832 126.399 51.2846 126.398 51.195 126.364C51.1053 126.331 51.0302 126.267 50.9826 126.184C50.9351 126.101 50.9182 126.004 50.9348 125.909C50.9515 125.815 51.0006 125.729 51.0737 125.668L55.7136 123.028C55.7599 123.001 55.8109 122.984 55.8637 122.978L55.0636 118.658L50.4936 121.268C50.4032 121.299 50.3046 121.298 50.2149 121.264C50.1253 121.231 50.0502 121.167 50.0026 121.084C49.9551 121.001 49.9382 120.904 49.9548 120.809C49.9715 120.715 50.0206 120.629 50.0936 120.568L54.7736 117.888C54.82 117.88 54.8673 117.88 54.9136 117.888L54.0636 113.128L49.5336 115.718C49.4432 115.749 49.3446 115.748 49.2549 115.714C49.1653 115.681 49.0902 115.617 49.0426 115.534C48.9951 115.451 48.9782 115.354 48.9948 115.259C49.0115 115.165 49.0606 115.079 49.1336 115.018L53.8136 112.338H53.9037L53.4936 110.128L43.5536 116.288C43.5536 116.288 50.6137 155.598 50.7637 155.678C54.8837 157.828 62.3836 158.078 62.3836 158.078L61.2637 151.848Z" fill="#FFAF68"/>
<path d="M49.1436 114.968C49.0706 115.029 49.0214 115.115 49.0048 115.209C48.9882 115.304 49.0051 115.401 49.0526 115.484C49.1001 115.567 49.1752 115.631 49.2649 115.664C49.3546 115.698 49.4532 115.699 49.5436 115.668L54.0636 113.128L53.9136 112.298H53.8236L49.1436 114.968Z" fill="#CA4300"/>
<path d="M50.1336 120.568C50.0605 120.629 50.0114 120.715 49.9948 120.809C49.9782 120.904 49.9951 121.001 50.0426 121.084C50.0901 121.167 50.1652 121.231 50.2549 121.264C50.3446 121.298 50.4432 121.299 50.5336 121.268L55.1036 118.658L54.9536 117.838C54.9073 117.83 54.8599 117.83 54.8136 117.838L50.1336 120.568Z" fill="#CA4300"/>
<path d="M51.0736 125.708C51.0005 125.769 50.9514 125.855 50.9348 125.949C50.9182 126.044 50.9351 126.141 50.9826 126.224C51.0301 126.307 51.1052 126.371 51.1949 126.404C51.2846 126.438 51.3832 126.439 51.4736 126.408L56.0536 123.788L55.9036 122.978C55.8508 122.984 55.7999 123.001 55.7536 123.028L51.0736 125.708Z" fill="#CA4300"/>
<path d="M52.0336 130.848C51.9606 130.909 51.9115 130.995 51.8948 131.089C51.8782 131.184 51.8951 131.281 51.9426 131.364C51.9901 131.447 52.0653 131.511 52.1549 131.544C52.2446 131.578 52.3432 131.579 52.4336 131.548L57.0136 128.928L56.8636 128.118C56.8135 128.112 56.7626 128.115 56.7136 128.128L52.0336 130.848Z" fill="#CA4300"/>
<path d="M53.1836 136.628C53.1105 136.689 53.0614 136.775 53.0448 136.869C53.0282 136.964 53.0451 137.061 53.0926 137.144C53.1401 137.227 53.2152 137.291 53.3049 137.324C53.3946 137.358 53.4932 137.359 53.5836 137.328L58.0936 134.748L57.9336 133.908H57.8636L53.1836 136.628Z" fill="#CA4300"/>
<path d="M54.2636 142.578C54.1905 142.639 54.1414 142.725 54.1248 142.819C54.1082 142.914 54.1251 143.011 54.1726 143.094C54.2201 143.177 54.2952 143.241 54.3849 143.274C54.4746 143.308 54.5732 143.309 54.6636 143.278L59.1936 140.688L59.0436 139.858H58.9536L54.2636 142.578Z" fill="#CA4300"/>
<path d="M59.8636 145.328L55.1836 148.008C55.1105 148.069 55.0614 148.155 55.0448 148.249C55.0282 148.344 55.0451 148.441 55.0926 148.524C55.1401 148.607 55.2152 148.671 55.3049 148.704C55.3946 148.738 55.4932 148.739 55.5836 148.708L60.1836 146.078L60.0336 145.278C59.974 145.282 59.9159 145.299 59.8636 145.328Z" fill="#CA4300"/>
<path d="M56.2836 153.758C56.2106 153.819 56.1615 153.905 56.1448 153.999C56.1282 154.094 56.1451 154.191 56.1926 154.274C56.2401 154.357 56.3153 154.421 56.4049 154.454C56.4946 154.488 56.5932 154.489 56.6836 154.458L61.2636 151.838L61.1136 151.028C61.0643 151.036 61.0169 151.053 60.9736 151.078L56.2836 153.758Z" fill="#CA4300"/>
<path d="M82.0536 121.968C82.0536 121.968 82.3036 123.278 84.2936 123.508C86.2836 123.738 86.9636 122.968 86.9636 122.968L86.3136 113.128L82.0536 121.968Z" fill="#FFD8BD"/>
<path d="M86.3136 113.128L84.3136 117.248C84.5958 117.556 84.9768 117.757 85.3911 117.816C85.8053 117.874 86.227 117.786 86.5836 117.568L86.3136 113.128Z" fill="#653200"/>
<path d="M70.8136 112.798C70.8136 112.798 71.2736 114.058 73.2736 113.968C75.2736 113.878 75.8236 112.968 75.8236 112.968L73.6236 103.328L70.8136 112.798Z" fill="#FFD8BD"/>
<path d="M73.6336 103.378L72.3236 107.758C72.646 108.023 73.0508 108.169 73.4686 108.169C73.8864 108.169 74.2912 108.023 74.6136 107.758L73.6336 103.378Z" fill="#653200"/>
<path d="M67.3136 157.988C55.5936 157.988 45.9836 154.988 45.1036 151.268C45.6836 155.768 49.6936 186.678 49.8436 186.858C49.8436 186.858 51.8436 195.578 67.3136 195.568C80.4436 195.568 84.1836 188.978 84.1836 188.978L89.5036 151.348C88.5136 155.068 78.9636 157.988 67.3136 157.988Z" fill="#0A297C"/>
</g>
<defs>
<filter id="filter0_d" x="0" y="0" width="362.716" height="280.831" filterUnits="userSpaceOnUse" color-interpolation-filters="sRGB">
<feFlood flood-opacity="0" result="BackgroundImageFix"/>
<feColorMatrix in="SourceAlpha" type="matrix" values="0 0 0 0 0 0 0 0 0 0 0 0 0 0 0 0 0 0 127 0"/>
<feOffset dy="8"/>
<feGaussianBlur stdDeviation="3.5"/>
<feColorMatrix type="matrix" values="0 0 0 0 0 0 0 0 0 0 0 0 0 0 0 0 0 0 0.21 0"/>
<feBlend mode="normal" in2="BackgroundImageFix" result="effect1_dropShadow"/>
<feBlend mode="normal" in="SourceGraphic" in2="effect1_dropShadow" result="shape"/>
</filter>
</defs>
</svg>
