<svg width="85" height="85" viewBox="0 0 85 85" fill="none" xmlns="http://www.w3.org/2000/svg">
<g clip-path="url(#clip0)" filter="url(#filter0_d)">
<path d="M42.4615 0C21.2095 0 4 17.248 4 38.5C4 59.752 21.2095 77 42.4615 77C63.752 77 81 59.752 81 38.5C81 17.248 63.752 0 42.4615 0ZM42.5 69.3C25.483 69.3 11.7 55.517 11.7 38.5C11.7 21.483 25.483 7.7 42.5 7.7C59.517 7.7 73.3 21.483 73.3 38.5C73.3 55.517 59.517 69.3 42.5 69.3ZM55.975 34.65C59.1705 34.65 61.75 32.0705 61.75 28.875C61.75 25.6795 59.1705 23.1 55.975 23.1C52.7795 23.1 50.2 25.6795 50.2 28.875C50.2 32.0705 52.7795 34.65 55.975 34.65ZM29.025 34.65C32.2205 34.65 34.8 32.0705 34.8 28.875C34.8 25.6795 32.2205 23.1 29.025 23.1C25.8295 23.1 23.25 25.6795 23.25 28.875C23.25 32.0705 25.8295 34.65 29.025 34.65ZM42.5 59.675C51.4705 59.675 59.0935 54.054 62.1735 46.2H22.8265C25.9065 54.054 33.5295 59.675 42.5 59.675Z" fill="url(#paint0_linear)"/>
</g>
<defs>
<filter id="filter0_d" x="0" y="0" width="85" height="85" filterUnits="userSpaceOnUse" color-interpolation-filters="sRGB">
<feFlood flood-opacity="0" result="BackgroundImageFix"/>
<feColorMatrix in="SourceAlpha" type="matrix" values="0 0 0 0 0 0 0 0 0 0 0 0 0 0 0 0 0 0 127 0"/>
<feOffset dy="4"/>
<feGaussianBlur stdDeviation="2"/>
<feColorMatrix type="matrix" values="0 0 0 0 0 0 0 0 0 0 0 0 0 0 0 0 0 0 0.25 0"/>
<feBlend mode="normal" in2="BackgroundImageFix" result="effect1_dropShadow"/>
<feBlend mode="normal" in="SourceGraphic" in2="effect1_dropShadow" result="shape"/>
</filter>
<linearGradient id="paint0_linear" x1="42.5" y1="0" x2="42.5" y2="77" gradientUnits="userSpaceOnUse">
<stop stop-color="#F9FE00"/>
<stop offset="1" stop-color="#DBFF00"/>
</linearGradient>
<clipPath id="clip0">
<rect width="77" height="77" fill="white" transform="translate(4)"/>
</clipPath>
</defs>
</svg>
