<svg width="182" height="167" viewBox="0 0 182 167" fill="none" xmlns="http://www.w3.org/2000/svg">
<path d="M94.2202 166.018L179.655 115.946C180.37 115.52 180.962 114.914 181.373 114.188C181.784 113.463 182 112.643 182 111.809C182 110.974 181.784 110.154 181.373 109.429C180.962 108.703 180.37 108.098 179.655 107.671L94.3941 58.0082C93.8109 57.6648 93.161 57.451 92.4882 57.3814C91.8155 57.3119 91.1357 57.3881 90.4949 57.605C90.411 57.605 92.5165 56.949 92.4566 57.0032L2.40273 107.882C1.67948 108.3 1.07746 108.9 0.656127 109.623C0.234797 110.346 0.00872825 111.167 0.000247715 112.004C-0.00823282 112.842 0.20117 113.667 0.607772 114.398C1.01437 115.13 1.60411 115.742 2.31875 116.175L86.3918 165.964C87.5864 166.634 88.9304 166.99 90.299 167C91.6676 167.009 93.0164 166.672 94.2202 166.018Z" fill="#FFD600"/>
<path style="mix-blend-mode:multiply" opacity="0.32" d="M65.5163 81.0394L58.2949 78.9324C50.0935 83.4955 42.3699 88.9284 34.6769 94.3C29.2808 98.0608 23.7009 101.65 18.2313 105.325C19.2603 105.876 20.4179 106.452 21.7899 107.077C22.5065 107.401 30.5915 112.283 31.4123 112.589L69.5159 90.0738L65.5163 81.0394Z" fill="url(#paint0_linear)"/>
<path style="mix-blend-mode:multiply" opacity="0.32" d="M73.1236 105.307C73.8402 105.631 81.9252 110.513 82.7459 110.819L120.85 88.3036L116.85 79.2386L97.9298 73.7261L57.7253 96.1558C64.5179 100.088 66.0002 102.06 73.1236 105.307Z" fill="url(#paint1_linear)"/>
<path d="M62.7478 77.0091L73.0439 82.3379C73.4368 82.5597 73.7662 82.8786 74.0008 83.264C74.2354 83.6495 74.3673 84.0886 74.3839 84.5395C74.4005 84.9904 74.3012 85.438 74.0956 85.8396C73.8899 86.2413 73.5848 86.5835 73.2093 86.8336L48.8012 102.146C48.5399 102.31 48.2481 102.418 47.9435 102.466C47.6389 102.513 47.3279 102.498 47.0294 102.421C46.7309 102.344 46.4511 102.207 46.2071 102.019C45.9631 101.831 45.76 101.595 45.61 101.325L39.681 91.409" fill="#00275E"/>
<path d="M6.71631 51.376L88.8465 0.538477C91.2965 -0.992773 94.4018 0.924352 94.4018 3.98685V56.8946C94.409 57.4634 94.2717 58.0248 94.0028 58.5261C93.7339 59.0274 93.3423 59.4524 92.8645 59.7611L5.3198 114.053C5.00884 114.233 4.65509 114.325 4.29603 114.32C3.93698 114.315 3.58599 114.212 3.28025 114.024C2.97451 113.836 2.72541 113.568 2.55934 113.25C2.39327 112.931 2.31642 112.574 2.33693 112.216V59.5406C2.31393 57.9199 2.70388 56.3199 3.47005 54.8916C4.23621 53.4632 5.35338 52.2533 6.71631 51.376Z" fill="#112E7C"/>
<path d="M88.8402 4.51358L9.21528 53.7647C8.34823 54.3253 7.63697 55.096 7.1476 56.0051C6.65822 56.9143 6.40661 57.9324 6.41615 58.9648V98.6242C6.39359 98.9881 6.46987 99.3513 6.63692 99.6754C6.80398 99.9995 7.05558 100.272 7.36508 100.465C7.67458 100.658 8.03045 100.763 8.39499 100.77C8.75953 100.777 9.11916 100.685 9.43578 100.505L90.641 50.4143C90.9488 50.2171 91.2017 49.9452 91.3763 49.6239C91.5508 49.3026 91.6413 48.9424 91.6393 48.5768V6.25921C91.6605 5.92173 91.5901 5.58481 91.4353 5.28413C91.2806 4.98346 91.0475 4.73024 90.7606 4.55131C90.4736 4.37238 90.1437 4.2744 89.8056 4.26776C89.4675 4.26112 89.1339 4.34606 88.8402 4.51358Z" fill="#00275E"/>
<path d="M54.0074 76.8621C53.7991 78.0136 54.3933 79.11 55.3304 79.3121C56.2675 79.5142 57.1679 78.6996 57.4068 77.5726C57.6457 76.4456 57.0209 75.3248 56.0838 75.1227C55.1467 74.9205 54.2156 75.7229 54.0074 76.8621Z" fill="#AB643C"/>
<path d="M60.4755 31.2124V33.2827L77.7663 23.2377V21.2164L60.4755 31.2124Z" fill="#F7931E"/>
<path d="M58.7543 32.2108L10.0116 60.3858V62.6092L58.7543 34.2811V32.2108Z" fill="#00A99D"/>
<path d="M17.6372 62.7072L10.0116 67.1172V69.3406L17.6372 64.9061V62.7072Z" fill="#8CC63F"/>
<path d="M19.3583 61.715V63.9077L46.6513 48.044V45.937L19.3583 61.715Z" fill="#F7931E"/>
<path d="M48.3724 44.9386V47.0456L66.2207 36.6698V34.6179L48.3724 44.9386Z" fill="#F15A24"/>
<path d="M67.9418 33.6257V35.6715L77.7663 29.9629V27.9478L67.9418 33.6257Z" fill="#8CC63F"/>
<path d="M59.3055 45.2938L10.5628 73.4749V75.6983L59.3055 47.3702V45.2938Z" fill="#00A99D"/>
<path style="mix-blend-mode:multiply" d="M112.219 136.262L168.655 106.544L177.279 112.167L85.2511 162.545L72.5785 154.258" fill="url(#paint2_linear)"/>
<path d="M138.728 89.4428L168.655 106.544C168.97 106.723 169.231 106.983 169.413 107.296C169.595 107.609 169.69 107.964 169.69 108.326C169.69 108.688 169.595 109.044 169.413 109.357C169.231 109.67 168.97 109.929 168.655 110.109L85.5389 157.92C84.5303 158.502 83.3865 158.808 82.2222 158.808C81.0579 158.808 79.9141 158.502 78.9055 157.92L50.9082 141.75C50.5826 141.562 50.3123 141.292 50.1243 140.966C49.9364 140.64 49.8374 140.271 49.8374 139.894C49.8374 139.518 49.9364 139.149 50.1243 138.823C50.3123 138.497 50.5826 138.227 50.9082 138.039L135.017 89.4551C135.58 89.1286 136.22 88.9557 136.871 88.9536C137.522 88.9514 138.163 89.1201 138.728 89.4428Z" fill="#00275E"/>
<path d="M93.5015 116.675L102.046 121.74L95.7065 125.415C93.918 124.374 88.7913 121.348 87.1315 120.368L93.5015 116.675Z" fill="#112E7C"/>
<path d="M102.867 111.266L111.411 116.332L103.381 120.962C101.978 120.147 96.8028 117.091 94.806 115.915L102.867 111.266Z" fill="#112E7C"/>
<path d="M136.872 91.5192L145.552 96.505L137.828 100.988C136.603 100.284 131.366 97.191 129.253 95.9415L136.872 91.5192Z" fill="#112E7C"/>
<path d="M118.589 102.134L127.134 107.199L120.794 110.874C119.294 110.004 114.143 106.96 112.219 105.827L118.589 102.134Z" fill="#112E7C"/>
<path d="M127.948 96.701L136.493 101.766L128.469 106.428C127.52 105.889 122.148 102.716 119.894 101.387L127.948 96.701Z" fill="#112E7C"/>
<path d="M85.8329 121.158L94.3773 126.223L88.3074 129.745C86.4699 128.68 81.3494 125.654 79.7324 124.698L85.8329 121.158Z" fill="#112E7C"/>
<path d="M110.915 106.593L119.459 111.658L112.722 115.56C111.141 114.641 105.984 111.609 104.147 110.513L110.915 106.593Z" fill="#112E7C"/>
<path d="M78.434 125.452L86.9783 130.517L78.9485 135.178C77.2702 134.198 72.1436 131.173 70.3735 130.131L78.434 125.452Z" fill="#112E7C"/>
<path d="M69.0688 130.891L77.6132 135.956L63.201 144.323L54.528 139.337L69.0688 130.891Z" fill="#112E7C"/>
<path d="M146.654 97.9812L155.333 102.967L144.088 109.484C142.618 108.633 137.46 105.588 135.513 104.437L146.654 97.9812Z" fill="#112E7C"/>
<path d="M124.874 110.629L133.418 115.695L127.079 119.37C125.382 118.383 120.255 115.358 118.504 114.323L124.874 110.629Z" fill="#112E7C"/>
<path d="M109.175 119.737L117.72 124.802L109.69 129.464C108.079 128.526 102.952 125.495 101.115 124.417L109.175 119.737Z" fill="#112E7C"/>
<path d="M117.199 115.082L125.743 120.147L119.006 124.049C117.242 123.02 112.115 119.994 110.431 119.002L117.199 115.082Z" fill="#112E7C"/>
<path d="M99.7918 125.194L108.336 130.26L101.991 133.935C100.031 132.789 94.8734 129.745 93.4156 128.888L99.7918 125.194Z" fill="#112E7C"/>
<path d="M92.1171 129.654L100.662 134.719L94.5917 138.241C92.601 137.077 87.4254 134.027 86.0166 133.194L92.1171 129.654Z" fill="#112E7C"/>
<path d="M134.239 105.19L142.783 110.256L134.753 114.917C133.479 114.182 128.261 111.101 126.178 109.87L134.239 105.19Z" fill="#112E7C"/>
<path d="M84.7182 133.947L93.2503 139.012L85.2204 143.68C83.3829 142.596 78.2319 139.564 76.6455 138.633L84.7182 133.947Z" fill="#112E7C"/>
<path d="M83.8974 144.445L72.9888 150.785L64.3097 145.799L75.3592 139.386L83.8974 144.445Z" fill="#112E7C"/>
<path d="M90.2858 143.582L96.6435 147.355L89.2752 151.624L82.8195 147.912L90.2858 143.582Z" fill="#112E7C"/>
<path d="M87.75 152.506L81.4842 156.138L75.0223 152.445L81.4045 148.739L87.75 152.506Z" fill="#112E7C"/>
<path d="M157.367 104.627L164.012 108.32L156.466 112.693L149.937 108.939L157.367 104.627Z" fill="#112E7C"/>
<path d="M148.528 109.76L154.947 113.575L146.887 118.243L140.364 114.5L148.528 109.76Z" fill="#112E7C"/>
<path d="M138.949 115.321L145.356 119.125L98.1748 146.467L91.7129 142.749L138.949 115.321Z" fill="#112E7C"/>
<path d="M105.451 92.634C114.372 92.634 121.603 89.0169 121.603 84.5551C121.603 80.0932 114.372 76.4762 105.451 76.4762C96.5311 76.4762 89.2998 80.0932 89.2998 84.5551C89.2998 89.0169 96.5311 92.634 105.451 92.634Z" fill="#045967"/>
<path d="M89.2998 80.8189V84.5551H121.603V80.8189" fill="#045967"/>
<path d="M105.451 88.8977C114.372 88.8977 121.603 85.2807 121.603 80.8189C121.603 76.357 114.372 72.74 105.451 72.74C96.5311 72.74 89.2998 76.357 89.2998 80.8189C89.2998 85.2807 96.5311 88.8977 105.451 88.8977Z" fill="#2E90A0"/>
<path d="M100.067 71.5334V79.4959H112.942V71.5334" fill="#F8997C"/>
<path d="M106.505 74.7C110.06 74.7 112.942 73.2822 112.942 71.5333C112.942 69.7845 110.06 68.3667 106.505 68.3667C102.949 68.3667 100.067 69.7845 100.067 71.5333C100.067 73.2822 102.949 74.7 106.505 74.7Z" fill="#DD654A"/>
<path d="M106.505 82.9687C110.06 82.9687 112.942 81.551 112.942 79.8021C112.942 78.0532 110.06 76.6355 106.505 76.6355C102.949 76.6355 100.067 78.0532 100.067 79.8021C100.067 81.551 102.949 82.9687 106.505 82.9687Z" fill="#F8997C"/>
<path d="M113.714 53.0297C112.354 52.4724 110.474 50.6226 108.814 50.6839C108.269 52.2668 107.934 53.914 107.816 55.5839C107.504 58.2899 107.442 61.0189 107.632 63.7362C107.673 64.3406 107.722 64.9531 107.779 65.5737C107.794 65.7504 107.842 65.9227 107.92 66.0821C107.92 68.1809 107.92 70.2818 107.92 72.3847C107.928 72.4315 107.952 72.4739 107.989 72.5045C108.025 72.5351 108.071 72.5518 108.119 72.5518C108.166 72.5518 108.212 72.5351 108.249 72.5045C108.285 72.4739 108.31 72.4315 108.318 72.3847C108.318 70.3635 108.318 68.3443 108.318 66.3271C108.961 66.1139 109.577 65.8283 110.155 65.4757C111.367 64.7173 112.283 63.5676 112.752 62.2172C113.793 59.3262 113.138 56.0922 114.124 53.2319C114.002 53.14 113.855 53.091 113.714 53.0297Z" fill="#297600"/>
<path d="M110.927 48.289C110.159 48.7424 109.525 49.3912 109.089 50.1693C108.975 50.3451 108.879 50.5318 108.802 50.7267L108.746 50.8492C108.622 51.1752 108.517 51.5086 108.434 51.8476C108.589 51.5898 108.833 51.398 109.12 51.3086C109.459 51.1595 109.838 51.1251 110.198 51.2106C110.547 51.3445 110.879 51.5215 111.184 51.7373C111.644 52.0191 112.085 52.3498 112.538 52.6132C114.669 53.9668 117.511 54.1077 119.159 52.1355C119.159 52.0558 119.202 51.9762 119.214 51.8966C119.453 50.5246 115.649 45.5511 110.927 48.289Z" fill="#5FAD00"/>
<path d="M118.21 52.9746L118.473 52.7969C118.476 52.7689 118.473 52.7405 118.463 52.7139C118.454 52.6874 118.438 52.6634 118.418 52.6438C117.126 51.3208 115.741 50.0223 113.983 49.3669C112.72 48.8885 111.352 48.7553 110.02 48.9811C109.88 49.1465 109.745 49.3241 109.616 49.4956C111.134 49.0988 112.742 49.2328 114.173 49.8753C115.684 50.624 117.031 51.665 118.136 52.9378C118.158 52.9553 118.183 52.9678 118.21 52.9746Z" fill="#297600"/>
<path d="M96.6007 55.8595C95.6699 56.3445 94.9014 57.0911 94.3899 58.0075C93.8784 58.9239 93.6462 59.97 93.7219 61.0167C93.875 64.8142 100.135 61.1086 101.795 57.8991C103.455 54.6896 103.718 59.265 103.718 59.265" fill="#297600"/>
<path d="M102.236 54.5304C101.06 54.5105 99.8883 54.6737 98.7628 55.0142C98.0065 55.1949 97.2789 55.4794 96.6006 55.8595C96.9856 56.1224 97.396 56.3461 97.8256 56.5271C98.6431 56.7707 99.355 57.2819 99.8469 57.9787C99.9467 58.1595 100.027 58.3505 100.086 58.5484C100.466 59.7734 100.135 61.3107 100.649 62.5725C100.868 63.2335 101.273 63.8169 101.817 64.2518C102.361 64.6867 103.019 64.9545 103.712 65.0225C105.476 65.1327 106.284 63.4361 106.633 61.96C106.983 60.4839 107.46 58.4932 106.903 56.9865C106.26 55.247 103.902 54.61 102.236 54.5304Z" fill="#5FAD00"/>
<path d="M104.557 60.4594C103.816 58.0584 102.248 55.7982 99.951 54.7325H99.8652L99.755 54.7692L99.3385 54.8795C102.015 55.8717 103.693 58.5116 104.379 61.2066C105.255 64.655 104.961 68.3851 104.992 71.9131C104.992 71.9618 105.011 72.0086 105.046 72.043C105.08 72.0775 105.127 72.0968 105.176 72.0968C105.224 72.0968 105.271 72.0775 105.306 72.043C105.34 72.0086 105.359 71.9618 105.359 71.9131C105.329 68.1462 105.678 64.1098 104.557 60.4594Z" fill="#297600"/>
<defs>
<linearGradient id="paint0_linear" x1="26.304" y1="110.838" x2="49.3279" y2="93.6508" gradientUnits="userSpaceOnUse">
<stop stop-color="white" stop-opacity="0"/>
<stop offset="0.98" stop-color="#F15A24"/>
</linearGradient>
<linearGradient id="paint1_linear" x1="10736.4" y1="6825.77" x2="12150.4" y2="5030.21" gradientUnits="userSpaceOnUse">
<stop stop-color="white" stop-opacity="0"/>
<stop offset="0.98" stop-color="#F15A24"/>
</linearGradient>
<linearGradient id="paint2_linear" x1="123.912" y1="131.485" x2="127.863" y2="138.204" gradientUnits="userSpaceOnUse">
<stop stop-color="#D4A397"/>
<stop offset="1" stop-color="white"/>
</linearGradient>
</defs>
</svg>
