<svg width="576" height="446" viewBox="0 0 576 446" fill="none" xmlns="http://www.w3.org/2000/svg">
<g filter="url(#filter0_d)">
<path d="M99.6193 298.316L251.813 383.345C253.779 384.444 256.016 385.024 258.293 385.024C260.57 385.024 262.807 384.444 264.773 383.345L446.4 282.992C448.36 281.915 449.987 280.362 451.12 278.49C452.252 276.619 452.848 274.495 452.848 272.332C452.848 270.17 452.252 268.046 451.12 266.174C449.987 264.302 448.36 262.75 446.4 261.672L292.32 177.609C290.374 176.54 288.17 175.977 285.926 175.977C283.683 175.977 281.478 176.54 279.533 177.609L99.6767 276.997C97.7145 278.069 96.0821 279.618 94.9452 281.486C93.8083 283.355 93.2061 285.478 93.2005 287.641C93.1949 289.803 93.7852 291.929 94.9118 293.804C96.0391 295.678 97.6627 297.234 99.6193 298.316Z" fill="#7AC11F"/>
<path d="M235.872 32.0958C215.928 43.41 166.58 71.3577 151.819 79.5711C150.561 80.271 149.519 81.2774 148.798 82.4874C148.077 83.6974 147.704 85.069 147.715 86.462V280.373C147.413 284.328 152.035 287.994 155.894 285.886L238.881 240.67C242.222 238.838 244.354 236.261 244.354 232.581V36.7124C244.352 35.764 244.089 34.8328 243.591 34.0133C243.092 33.1938 242.376 32.5152 241.514 32.0463C240.652 31.5774 239.677 31.335 238.686 31.3437C237.695 31.3524 236.724 31.6119 235.872 32.0958Z" fill="#172D51"/>
<path d="M243.792 34.4523L217.44 48.9775V54.3795C217.44 54.8348 217.316 55.2821 217.078 55.6764C216.84 56.0708 216.499 56.3982 216.087 56.6259L195.927 67.8022C195.655 67.952 195.348 68.0309 195.035 68.0312C194.722 68.0314 194.415 67.9529 194.143 67.8036C193.872 67.6542 193.647 67.4392 193.49 67.1802C193.332 66.9212 193.249 66.6272 193.248 66.3277V62.3725L155.217 83.6501C154.857 83.8544 154.559 84.1442 154.352 84.4926C154.145 84.8403 154.037 85.2344 154.037 85.6347V279.45C154.033 279.728 154.107 280 154.25 280.241C154.393 280.483 154.6 280.684 154.85 280.824C155.1 280.963 155.384 281.037 155.674 281.038C155.964 281.039 156.248 280.966 156.499 280.828L244.34 232.098C244.479 233.594 244.195 235.098 243.515 236.452C242.836 237.805 241.788 238.958 240.48 239.788C235.93 242.545 155.894 285.899 155.894 285.899C155.894 285.899 149.573 288.656 147.715 281.407V86.4475C147.71 85.1742 148.024 83.9177 148.63 82.7832C149.237 81.6495 150.118 80.6705 151.2 79.9294C154.872 77.3799 235.93 32.0407 235.93 32.0407C236.609 31.6948 237.354 31.4827 238.121 31.417C238.888 31.3512 239.66 31.4332 240.393 31.658C241.126 31.8828 241.804 32.2459 242.388 32.7258C242.972 33.2058 243.45 33.7928 243.792 34.4523Z" fill="#112E7C"/>
<path d="M332.323 270.947C332.482 271.722 332.461 272.522 332.262 273.288C332.063 274.055 331.691 274.77 331.171 275.385C329.415 277.19 322.733 282.853 322.1 284.08C321.465 285.307 320.573 288.656 322.1 289.813C323.625 290.971 326.592 291.108 330.221 289.813C335.248 287.608 339.957 284.792 344.232 281.435C345.845 279.753 344.232 262.486 344.232 262.486C344.232 262.486 334.858 260.295 331.704 262.486L332.323 270.947Z" fill="#F96156"/>
<path d="M321.379 286.437C321.202 287.007 321.175 287.611 321.304 288.194C321.432 288.776 321.71 289.319 322.114 289.772C323.64 290.929 326.606 291.067 330.235 289.772C335.262 287.567 339.972 284.75 344.247 281.393C344.803 280.166 345.04 278.827 344.938 277.493C338.861 283.046 326.016 292.308 321.379 286.437Z" fill="#391A3A"/>
<path d="M336.168 277.52C335.61 276.719 334.834 276.08 333.922 275.674C332.853 275.326 331.716 275.213 330.595 275.344C329.674 275.344 329.674 276.721 330.595 276.721C331.389 276.556 332.215 276.608 332.979 276.871C333.743 277.134 334.414 277.598 334.915 278.21C335.52 278.912 336.73 278.223 336.168 277.52Z" fill="#391A3A"/>
<path d="M334.08 279.904C333.34 279.067 332.38 278.434 331.3 278.072C330.218 277.708 329.055 277.627 327.931 277.837C327.024 278.017 327.413 279.339 328.32 279.216C329.199 279.073 330.101 279.156 330.934 279.459C331.767 279.763 332.5 280.273 333.058 280.938C333.734 281.531 334.757 280.552 334.08 279.904Z" fill="#391A3A"/>
<path d="M354.557 281.517C354.716 282.292 354.695 283.091 354.496 283.858C354.297 284.625 353.925 285.341 353.405 285.954C351.648 287.76 344.967 293.424 344.333 294.651C343.699 295.877 342.806 299.226 344.333 300.383C345.859 301.541 348.826 301.679 352.455 300.383C357.482 298.178 362.191 295.362 366.466 292.004C368.078 290.323 366.466 273.056 366.466 273.056C366.466 273.056 357.091 270.864 353.937 273.056L354.557 281.517Z" fill="#F96156"/>
<path d="M343.613 296.993C343.435 297.563 343.409 298.167 343.537 298.749C343.666 299.332 343.944 299.875 344.347 300.328C345.873 301.486 348.84 301.623 352.469 300.328C357.496 298.123 362.205 295.307 366.48 291.949C367.051 290.716 367.298 289.368 367.2 288.021C361.095 293.603 348.25 302.877 343.613 296.993Z" fill="#391A3A"/>
<path d="M358.402 288.091C357.844 287.289 357.067 286.65 356.155 286.244C355.086 285.896 353.949 285.783 352.828 285.913C351.907 285.913 351.907 287.292 352.828 287.292C353.622 287.125 354.448 287.177 355.213 287.441C355.977 287.704 356.648 288.168 357.149 288.78C357.71 289.482 358.964 288.794 358.402 288.091Z" fill="#391A3A"/>
<path d="M356.357 290.475C355.617 289.638 354.657 289.005 353.576 288.641C352.495 288.278 351.332 288.197 350.208 288.408C349.301 288.586 349.689 289.91 350.597 289.786C351.476 289.642 352.378 289.727 353.211 290.03C354.044 290.332 354.777 290.843 355.335 291.508C355.968 292.156 356.99 291.122 356.357 290.475Z" fill="#391A3A"/>
<path d="M334.21 163.91C329.199 174.881 326.437 186.671 326.073 198.638C325.757 217.628 328.104 268.659 328.104 268.659C328.104 268.659 333.605 273.717 345.686 271.939V201.133C345.686 201.133 349.92 202.58 349.92 205.625C349.92 208.671 353.78 281.063 353.78 281.063C353.78 281.063 355.939 284.907 371.75 279.037C371.75 279.037 373.91 184.21 362.304 165.592" fill="#5B434D"/>
<path d="M276.149 194.918V304.063L308.966 322.033L346.032 301.086V191.928" fill="#112E7C"/>
<path d="M276.149 194.918L314.237 174.164L346.032 191.927L308.966 212.888L276.149 194.918Z" fill="#112E7C"/>
<path d="M308.966 212.888V322.033L346.032 301.086V191.928L308.966 212.888Z" fill="#112E7C"/>
<path opacity="0.1" d="M276.149 194.918V304.063L308.966 322.033L346.032 301.086V191.928" fill="#2E90A0"/>
<path d="M276.149 194.918L314.237 174.164L346.032 191.927L308.966 212.888L276.149 194.918Z" fill="#112E7C"/>
<path opacity="0.47" d="M308.966 212.888V322.033L346.032 301.086V191.928L308.966 212.888Z" fill="#2E90A0"/>
<path d="M308.333 193.939L289.785 202.387V311.532L197.122 263.56" stroke="#1B1464" stroke-miterlimit="10"/>
<path d="M325.973 207.114L353.621 191.583L309.686 167.935L283.982 183.479L325.973 207.114Z" fill="#6C7F91"/>
<path d="M332.554 168.926C340.113 171.435 347.832 171.573 355.738 171.131C358.877 167.973 361.512 164.388 363.557 160.492C370.311 147.126 372.744 124.662 372.744 124.662C372.744 124.662 362.664 117.207 355.982 115.415C349.301 113.624 334.54 116.794 332.122 120.666C329.702 124.539 328.81 141.958 332.122 166.722C332.222 167.163 332.482 168.5 332.554 168.926Z" fill="#FFE70D"/>
<path d="M345.297 117.758C342.936 118.241 342.49 111.984 343.498 111.405C344.505 110.826 355.565 110.758 357.264 111.488C360.993 113.072 357.264 118.378 357.264 118.378" fill="#FFE70D"/>
<path d="M359.51 91.5878C357.379 91.2302 357.451 87.8259 353.491 86.2828C349.532 84.7389 344.851 86.9575 343.123 88.1568C341.395 89.3554 340.128 86.9164 338.228 88.7904C336.327 90.6645 337.536 93.5312 336.427 94.5513L336.269 94.6611C335.79 95.4327 335.523 96.308 335.496 97.2046C335.468 98.102 335.68 98.991 336.111 99.7877C336.98 100.902 338.002 101.898 339.149 102.751L356.918 111.626C359.064 110.179 363.168 96.4666 362.937 94.8266C362.856 93.9871 362.467 93.2026 361.84 92.6102C361.213 92.0178 360.389 91.6556 359.51 91.5878Z" fill="#200904"/>
<path d="M340.013 96.7837C339.207 97.6102 341.871 114.009 347.069 114.589C352.267 115.167 358.416 108.58 358.963 106.623C359.511 104.667 359.194 94.2204 357.077 93.1729C354.96 92.1253 344.894 91.7532 340.013 96.7837Z" fill="#F9B16F"/>
<path d="M342.446 92.0567C342.446 92.0567 341.424 95.8742 347.645 96.5909C353.866 97.3075 354.297 98.6441 355.032 100.725C356.472 104.653 360.792 109.214 362.232 97.4311C362.304 96.8661 357.826 88.7904 352.987 88.1568C348.149 87.5225 342.446 92.0567 342.446 92.0567Z" fill="#200904"/>
<path d="M355.594 102.82C355.594 102.82 357.552 99.5948 359.064 101.124C360.576 102.654 359.481 106.251 357.437 107.381" fill="#F1A056"/>
<path d="M308.419 170.884C308.419 170.884 303.351 174.715 302.011 175.486C300.672 176.258 307.771 178.463 307.887 179.221C308.002 179.979 314.827 174.081 314.827 174.081L308.419 170.884Z" fill="#F9B16F"/>
<path d="M325.973 207.114L315.159 180.531L273.168 156.799L283.982 183.48L325.973 207.114Z" fill="#8BAADC"/>
<path d="M332.122 120.666C332.122 120.666 329.386 124.414 328.118 134.295C326.851 144.176 323.208 152.775 321.105 155.89C319.004 159.004 305.05 171.49 305.626 172.73C306.202 173.971 309.945 176.176 312.379 177.002C319.183 172.925 325.269 167.842 330.408 161.94C337.608 153.162 337.363 137.603 337.363 137.603" fill="#FFE70D"/>
<path d="M336.83 196.916C336.856 195.871 337.08 194.838 337.493 193.87C337.871 193.368 338.364 192.954 338.933 192.657C339.625 192.239 340.289 191.779 340.92 191.279L345.816 186.318L338.429 185.257C336.801 186.291 335.12 187.243 333.388 188.11C333.058 188.11 328.349 190.866 328.579 191.555C328.81 192.244 331.978 189.929 331.978 189.929C330.215 190.682 328.52 191.571 326.909 192.589C326.333 193.237 325.584 196.53 326.102 196.985C326.621 197.44 327.427 196.985 327.96 196.737C328.493 196.488 327.6 198.115 328.421 198.377C329.036 198.583 329.684 198.69 330.336 198.693C330.654 198.853 331.018 198.914 331.374 198.867C331.73 198.82 332.062 198.668 332.323 198.432C333.286 197.313 334.001 196.019 334.426 194.628C334.426 194.628 334.238 198.584 335.419 198.321C335.837 198.17 336.341 197.618 336.83 196.916Z" fill="#F9B16F"/>
<path d="M331.646 191.087C330.75 191.466 329.927 191.987 329.213 192.63C328.305 193.728 327.745 195.053 327.6 196.447C327.514 196.833 328.161 196.916 328.234 196.53C328.344 195.146 328.943 193.838 329.932 192.823C330.653 192.274 331.441 191.811 332.28 191.445C332.052 191.354 331.839 191.234 331.646 191.087Z" fill="#5B434D"/>
<path d="M333.388 191.79C332.666 192.286 332 192.855 331.402 193.484C330.422 194.684 330.321 196.861 329.962 198.294C329.861 198.68 330.508 198.763 330.595 198.377C331.041 196.599 331.186 194.587 332.597 193.278C333.115 192.795 333.663 192.327 334.224 191.899C333.944 191.878 333.665 191.841 333.388 191.79Z" fill="#5B434D"/>
<path d="M372.758 124.662C372.758 124.662 375.638 125.255 375.264 135.274C374.889 145.293 372.298 165.165 367.545 169.988C362.793 174.811 340.992 192.037 340.992 192.037C340.992 192.037 334.239 189.281 334.772 186.842C335.304 184.403 358.387 162.615 358.387 162.615C358.387 162.615 361.872 118.296 372.758 124.662Z" fill="#FFE70D"/>
<path d="M333.59 128.162L331.978 168.651C331.978 169.533 333.417 169.533 333.417 168.651L335.03 128.162C335.073 127.336 333.634 127.35 333.59 128.162Z" fill="#C7B623"/>
<path d="M358.488 138.471L356.271 151.48C355.522 155.89 355.349 161.03 353.074 165.027C350.798 169.023 347.314 172.11 344.347 175.404L334.541 186.429C333.936 187.104 334.959 188.083 335.564 187.407L345.83 175.886C348.71 172.662 352.166 169.491 354.312 165.757C356.457 162.023 356.731 157.35 357.437 153.189L359.87 138.871C360 137.961 358.632 137.589 358.488 138.471Z" fill="#C7B623"/>
<path d="M164.679 111.584V117.069L231.307 79.9844V75.4782L164.679 111.584Z" fill="#8CC63F"/>
<path d="M199.67 108.373L164.679 127.336V132.821L199.67 113.335V108.373Z" fill="#F7931E"/>
<path d="M204.581 105.713V110.606L212.084 106.43V101.648L204.581 105.713Z" fill="#00A99D"/>
<path d="M216.979 98.9887V103.701L231.307 95.7362V91.2157L216.979 98.9887Z" fill="#F15A24"/>
<path d="M195.624 124.153L164.679 140.924V146.409L195.624 129.182V124.153Z" fill="#F15A24"/>
<path d="M165.542 156.152V161.637L232.171 124.552V120.032L165.542 156.152Z" fill="#8CC63F"/>
<path d="M187.113 160.217V165.385L203.212 156.413V151.48L187.113 160.217Z" fill="#00A99D"/>
<path d="M182.203 162.877L165.542 171.904V177.389L182.203 168.114V162.877Z" fill="#F15A24"/>
<path d="M208.123 148.82V153.686L232.171 140.29V135.784L208.123 148.82Z" fill="#F7931E"/>
<path d="M221.184 155.325L165.542 185.492V190.977L221.184 159.997V155.325Z" fill="#F7931E"/>
<path d="M226.095 152.665V157.268L232.171 153.878V149.372L226.095 152.665Z" fill="#00A99D"/>
<path d="M165.542 201.987V207.458L232.171 170.374V165.868L165.542 201.987Z" fill="#00A99D"/>
<path d="M190.152 204.399V209.525L232.171 186.125V181.619L190.152 204.399Z" fill="#F7931E"/>
<path d="M185.242 207.059L165.542 217.725V223.21L185.242 212.254V207.059Z" fill="#F15A24"/>
<path d="M206.755 208.988L165.542 231.313V236.798L206.755 213.866V208.988Z" fill="#00A99D"/>
<path d="M211.665 206.328V211.138L232.171 199.713V195.207L211.665 206.328Z" fill="#8CC63F"/>
<path d="M252.158 335.277L262.771 347.527L261.374 348.823L250.762 336.586L252.158 335.277Z" fill="white"/>
<path d="M225.029 341.629C225.312 342.321 225.817 342.909 226.468 343.31C226.217 343.581 226.035 343.904 225.935 344.252C225.836 344.601 225.821 344.967 225.892 345.323L225.029 341.629Z" fill="#A68D0B"/>
<path d="M248.515 341.616L251.179 343.366L249.754 348.644L256.118 346.59L258.782 348.327L248.097 351.662L246.269 350.463L248.515 341.616Z" fill="white"/>
<path d="M291.931 342.787C291.952 343.099 291.908 343.413 291.803 343.708C291.697 344.003 291.529 344.276 291.312 344.51C291.092 344.752 290.835 344.961 290.549 345.13L264.629 360.702C263.658 361.241 262.532 361.463 261.418 361.337C260.616 361.267 259.837 361.042 259.128 360.675L226.858 343.545L226.454 343.31C225.802 342.909 225.298 342.321 225.014 341.629C224.805 341.073 224.81 340.463 225.029 339.909C225.248 339.356 225.667 338.895 226.209 338.612L250.69 323.452C251.665 322.899 252.803 322.666 253.93 322.791C254.677 322.856 255.405 323.057 256.075 323.384L289.785 340.031C290.365 340.269 290.868 340.65 291.245 341.134C291.622 341.617 291.858 342.187 291.931 342.787ZM261.36 348.823L262.8 347.527L252.202 335.29L250.762 336.586L261.374 348.823H261.36ZM248.097 351.662L258.783 348.327L256.118 346.577L249.754 348.658L251.193 343.38L248.529 341.629L246.24 350.463L248.069 351.662H248.097ZM265.349 342.153L267.61 333.32L265.766 332.12L255.096 335.456L257.76 337.192L264.139 335.125L262.699 340.417L265.363 342.167" fill="#FFD600"/>
<path d="M265.781 332.121L255.111 335.442L257.76 337.178L264.154 335.111L262.699 340.403L265.363 342.153L267.624 333.306L265.781 332.121Z" fill="white"/>
<path d="M291.326 344.523C291.544 344.29 291.711 344.018 291.817 343.722C291.924 343.426 291.967 343.113 291.946 342.801L292.824 346.343C292.558 345.589 292.029 344.947 291.326 344.523Z" fill="#A68D0B"/>
<path d="M291.326 344.523C292.007 344.957 292.516 345.598 292.767 346.343C292.796 346.438 292.82 346.534 292.838 346.632C292.92 347.145 292.834 347.669 292.592 348.134C292.35 348.597 291.963 348.978 291.485 349.223L265.565 364.796C264.596 365.338 263.469 365.565 262.354 365.443C261.55 365.371 260.771 365.141 260.064 364.768L227.794 347.638C227.312 347.414 226.887 347.091 226.55 346.694C226.211 346.297 225.967 345.833 225.835 345.337C225.763 344.982 225.778 344.615 225.878 344.267C225.978 343.917 226.16 343.595 226.411 343.325L226.814 343.559L259.2 360.675C259.908 361.042 260.687 361.267 261.49 361.337C262.603 361.463 263.731 361.241 264.701 360.702L290.621 345.13C290.885 344.961 291.122 344.757 291.326 344.523Z" fill="#A68D0B"/>
<path d="M347.79 101.989L350.5 102.724" stroke="black"/>
<path d="M344.108 101.888L341.856 102.61" stroke="black"/>
<path d="M344.166 109.028L345.061 109.384C345.719 109.647 346.452 109.691 347.139 109.508L348.946 109.028" stroke="black"/>
<path d="M344.218 103.492L342.744 103.676" stroke="black"/>
<path d="M349.341 103.775L348.149 103.691" stroke="black"/>
</g>
<defs>
<filter id="filter0_d" x="-23" y="0" width="622" height="474" filterUnits="userSpaceOnUse" color-interpolation-filters="sRGB">
<feFlood flood-opacity="0" result="BackgroundImageFix"/>
<feColorMatrix in="SourceAlpha" type="matrix" values="0 0 0 0 0 0 0 0 0 0 0 0 0 0 0 0 0 0 127 0"/>
<feOffset dy="37"/>
<feGaussianBlur stdDeviation="11.5"/>
<feColorMatrix type="matrix" values="0 0 0 0 0.283333 0 0 0 0 0.228272 0 0 0 0 0.0330555 0 0 0 0.18 0"/>
<feBlend mode="normal" in2="BackgroundImageFix" result="effect1_dropShadow"/>
<feBlend mode="normal" in="SourceGraphic" in2="effect1_dropShadow" result="shape"/>
</filter>
</defs>
</svg>
