<svg width="196" height="180" viewBox="0 0 196 180" fill="none" xmlns="http://www.w3.org/2000/svg">
<path d="M194.14 118.732C172.676 130.254 109.513 166.7 89.6284 178.203C87.7866 179.274 85.694 179.838 83.5635 179.838C81.433 179.838 79.3404 179.274 77.4985 178.203L1.82928 133.99C-1.17969 132.235 -0.214317 128.906 2.81973 127.189L108.447 65.8184C108.991 65.5102 109.605 65.3481 110.23 65.3481C110.856 65.3481 111.47 65.5102 112.014 65.8184L194.24 112.577C194.784 112.891 195.233 113.344 195.543 113.891C195.852 114.437 196.01 115.056 196 115.684C195.989 116.312 195.812 116.925 195.485 117.461C195.158 117.997 194.693 118.436 194.14 118.732Z" fill="#709FF9"/>
<path opacity="0.32" d="M144.448 126.392C144.812 126.561 148.955 129.056 149.369 129.219L168.871 117.698L166.827 113.059L157.155 110.232L136.587 121.71C140.048 123.747 140.8 124.731 144.448 126.392Z" fill="url(#paint0_linear)"/>
<path d="M19.1624 51.5318C18.7019 51.7992 18.3202 52.1835 18.056 52.6458C17.7918 53.1082 17.6544 53.6321 17.6579 54.1646V128.342C17.5451 129.859 19.2627 131.257 20.6481 130.461L51.0261 113.166C52.2485 112.463 107.858 81.1952 107.858 79.7785L110.873 2.04678C110.884 1.78748 110.826 1.52988 110.704 1.30073C110.582 1.07158 110.401 0.879224 110.18 0.743623C109.959 0.608022 109.705 0.534117 109.446 0.52958C109.186 0.525043 108.93 0.590038 108.704 0.71782C95.1451 8.40323 25.3183 47.9524 19.1624 51.5318Z" fill="#00275E"/>
<path d="M34.2887 44.9559L20.4036 53.1052C20.2716 53.1828 20.1622 53.2937 20.0863 53.4268C20.0104 53.5599 19.9707 53.7105 19.9711 53.8637V127.984C19.9784 128.086 20.0105 128.185 20.0646 128.272C20.1188 128.358 20.1933 128.43 20.2816 128.482C20.37 128.533 20.4696 128.562 20.5717 128.566C20.6738 128.57 20.7754 128.549 20.8675 128.505L107.933 77.8602C107.929 78.482 107.778 79.094 107.494 79.6471C107.21 80.2002 106.8 80.6788 106.297 81.0447C104.63 82.1103 20.6481 130.467 20.6481 130.467C20.6481 130.467 18.3287 131.514 17.6579 128.749V54.1646C17.6564 53.6821 17.7692 53.2062 17.9871 52.7758C18.2051 52.3454 18.5219 51.9727 18.9117 51.6884C20.2532 50.7168 106.717 0.347968 106.717 0.347968C106.717 0.347968 109.851 -0.805468 110.911 1.08767L43.1589 39.8344" fill="#112E7C"/>
<path d="M165.849 38.7376L170.068 36.1048L172.369 39.9663H166.633" fill="#45126D"/>
<path d="M178.042 50.8987C177.743 51.0611 177.394 51.1061 177.064 51.025C176.733 50.9438 176.445 50.7423 176.255 50.4599C176.105 50.3556 175.975 50.2238 175.873 50.0713C175.704 49.7661 175.659 49.4073 175.747 49.0698C175.836 48.7322 176.052 48.442 176.349 48.2596C176.788 47.9525 177.24 47.6829 177.704 47.4196V47.3569L181.922 44.7241L175.961 39.9662H172.369L171.241 42.2166L167.298 43.2384V48.4163L170.958 52.491L174.124 56.7976L175.252 60.3895L170.864 57.7128L166.608 53.3999C166.608 53.3999 161.8 56.8038 162.709 56.6597C163.618 56.5155 175.748 66.2633 175.748 66.2633L180.919 63.0537L178.387 50.7169C178.276 50.7852 178.161 50.846 178.042 50.8987Z" fill="#45126D"/>
<path d="M158.265 55.318L163.286 52.2276L159.418 51.2998" fill="#45126D"/>
<path d="M160.164 39.4648C159.558 39.1382 159.061 38.6413 158.735 38.0355C158.565 37.7303 158.52 37.3715 158.609 37.034C158.698 36.6964 158.913 36.4062 159.211 36.2238C159.606 35.9668 159.493 36.343 159.907 36.5749L164.439 33.8418L156.704 26.7581L152.666 25.1471L147.551 28.2814L150.472 32.0426L150.366 37.7597L153.394 41.7904L155.901 45.7522L157.368 49.8708L153.506 46.6925L149.118 42.4236L144.887 45.0313L152.641 51.5884L156.24 53.5379L161.38 48.874L161.756 44.1098L160.853 39.6465C160.612 39.6449 160.375 39.5824 160.164 39.4648Z" fill="#45126D"/>
<path d="M127.466 16.3893L131.685 13.7565L143.783 21.0031L148.002 25.0965L143.783 27.7356L140.887 22.7583L131.591 19.5237L130.387 24.5261L131.873 31.1897L134.55 36.4679L138.725 38.0476L143.783 37.2139L147.194 40.9187L143.345 43.2381L136.499 41.5455L131.685 38.499L128.996 34.8067L127.466 30.1177L126.313 25.3598" fill="#45126D"/>
<path d="M139.715 15.023C140.806 15.7163 141.819 16.5255 142.737 17.4364C143.597 18.257 144.38 19.1552 145.075 20.1194C145.702 20.9782 146.216 21.7932 146.68 22.558C147.047 23.1494 147.378 23.7628 147.67 24.3947L147.977 25.103L145.075 26.6263C145.018 26.5072 144.949 26.3317 144.849 26.0998C144.749 25.8678 144.542 25.4729 144.222 24.846C143.891 24.2459 143.525 23.6661 143.125 23.1096C142.645 22.4627 142.117 21.8529 141.546 21.2854C140.937 20.6586 140.258 20.1052 139.521 19.6367C137.607 18.4415 135.981 18.1949 134.644 18.897C133.306 19.5991 132.594 21.0723 132.506 23.3165C132.459 25.6998 133.05 28.0523 134.217 30.1305C135.304 32.2777 136.948 34.094 138.975 35.39C139.638 35.8175 140.361 36.1449 141.119 36.3616C141.677 36.5335 142.261 36.6015 142.843 36.5622C143.259 36.5226 143.669 36.4364 144.066 36.3052C144.349 36.222 144.613 36.0835 144.843 35.8977L145.081 35.6909L147.589 40.5993C147.478 40.7151 147.356 40.8201 147.225 40.9127C146.88 41.1131 146.517 41.281 146.141 41.4142C145.569 41.6275 144.969 41.7543 144.36 41.7903C143.529 41.7968 142.702 41.6741 141.909 41.4267C140.8 41.1142 139.744 40.6388 138.775 40.0163C135.48 37.8799 132.804 34.9164 131.014 31.4219C128.966 27.6356 128.007 24.0227 128.137 20.5833C128.266 17.1439 129.449 14.8705 131.685 13.763C133.921 12.6555 136.597 13.0755 139.715 15.023Z" fill="#45126D"/>
<path d="M157.782 26.3316C158.644 26.8802 159.452 27.5099 160.195 28.2123C160.872 28.8299 161.501 29.4984 162.076 30.212C162.558 30.8388 162.985 31.4093 163.329 31.9672C163.62 32.3932 163.88 32.8394 164.107 33.3024L164.351 33.7976L161.599 35.415C161.493 35.183 161.342 34.8947 161.142 34.5436C160.77 33.939 160.35 33.3647 159.888 32.826C159.324 32.1083 158.646 31.4879 157.882 30.9893C157.046 30.4669 156.365 30.2976 155.838 30.4815C155.571 30.5843 155.345 30.7717 155.195 31.015C155.044 31.2584 154.977 31.5444 155.005 31.8293C155.024 32.7717 155.362 33.6798 155.964 34.4057C156.707 35.4038 157.531 36.3389 158.427 37.2015C159.397 38.1544 160.371 39.1615 161.349 40.223C162.358 41.3388 163.184 42.6085 163.793 43.9842C164.461 45.4019 164.787 46.9563 164.746 48.5228C164.665 50.7356 163.906 52.121 162.483 52.6664C161.06 53.2117 159.136 52.729 156.722 51.2183C155.739 50.5983 154.819 49.8822 153.977 49.0807C153.196 48.3581 152.475 47.5741 151.82 46.7362C151.26 45.9965 150.769 45.2965 150.347 44.6362C150.015 44.1304 149.713 43.605 149.444 43.0627L149.131 42.4359L151.883 41.0004C152.008 41.2574 152.184 41.6272 152.416 42.041C152.888 42.8139 153.425 43.5457 154.02 44.2287C154.751 45.1512 155.627 45.9475 156.616 46.5857C157.673 47.246 158.509 47.4696 159.123 47.2565C159.75 47.0496 160.063 46.498 160.095 45.6078C160.075 44.6636 159.737 43.7537 159.136 43.0251C158.383 42.0202 157.544 41.0827 156.628 40.223C155.646 39.2702 154.672 38.2651 153.707 37.2078C152.701 36.0916 151.88 34.8219 151.275 33.4466C150.624 32.0228 150.317 30.466 150.378 28.9018C150.454 26.9627 151.179 25.7215 152.554 25.1782C153.929 24.6349 155.671 25.0194 157.782 26.3316Z" fill="#45126D"/>
<path d="M175.334 37.2708C176.197 37.8193 177.005 38.449 177.748 39.1514C178.426 39.7679 179.054 40.4365 179.628 41.1511C180.117 41.7779 180.543 42.3546 180.882 42.9063C181.17 43.3302 181.428 43.7744 181.653 44.2353L181.897 44.7305L179.152 46.3478C179.045 46.1159 178.895 45.8275 178.694 45.4764C178.322 44.8719 177.903 44.2976 177.44 43.7588C176.876 43.0415 176.199 42.421 175.434 41.9221C174.599 41.3997 173.915 41.2305 173.385 41.4143C173.119 41.5202 172.894 41.7094 172.745 41.9535C172.596 42.1976 172.53 42.4836 172.557 42.7684C172.575 43.7112 172.913 44.6199 173.516 45.3448C174.258 46.3434 175.083 47.2786 175.98 48.1406C176.949 49.0935 177.923 50.1006 178.901 51.1621C179.91 52.2787 180.735 53.5482 181.346 54.9233C181.996 56.3495 182.303 57.9082 182.242 59.4744C182.161 61.6873 181.402 63.0726 179.973 63.618C178.544 64.1634 176.625 63.6807 174.212 62.1762C173.228 61.5562 172.309 60.8402 171.466 60.0386C170.685 59.3166 169.964 58.5325 169.31 57.6941C168.75 56.9544 168.259 56.2544 167.837 55.5941C167.504 55.0884 167.203 54.5629 166.934 54.0207L166.621 53.3938L169.373 51.9645C169.504 52.2278 169.68 52.5914 169.912 53.0051C170.376 53.7658 170.903 54.487 171.485 55.1616C172.215 56.0859 173.092 56.8843 174.08 57.5249C175.138 58.1852 175.974 58.4108 176.588 58.2019C177.215 57.995 177.528 57.4434 177.559 56.5532C177.536 55.6073 177.194 54.6972 176.588 53.9705C175.846 52.9661 175.017 52.0285 174.112 51.1684C173.13 50.2156 172.156 49.2105 171.191 48.1532C170.183 47.0371 169.36 45.7674 168.752 44.392C168.106 42.9691 167.801 41.415 167.862 39.8534C167.937 37.9143 168.662 36.6731 170.037 36.1299C171.412 35.5866 173.178 35.9669 175.334 37.2708Z" fill="#45126D"/>
<path d="M135.497 17.6622C136.596 18.3541 137.618 19.1633 138.543 20.0757C139.395 20.8974 140.169 21.7955 140.856 22.7587C141.483 23.6175 141.997 24.4324 142.461 25.1972C142.828 25.7886 143.159 26.402 143.452 27.0339L143.759 27.7423L140.856 29.2593C140.8 29.1402 140.731 28.9647 140.631 28.7327C140.53 28.5008 140.323 28.1059 140.004 27.479C139.673 26.8789 139.307 26.299 138.907 25.7426C138.427 25.0956 137.899 24.4858 137.327 23.9184C136.719 23.2915 136.039 22.7382 135.302 22.2697C133.388 21.0745 131.763 20.8279 130.425 21.53C129.088 22.2321 128.386 23.7073 128.319 25.9557C128.272 28.339 128.863 30.6915 130.03 32.7697C131.104 34.9084 132.729 36.7218 134.738 38.0229C135.401 38.4504 136.123 38.7778 136.882 38.9945C137.439 39.1664 138.024 39.2344 138.606 39.1951C139.022 39.1555 139.432 39.0693 139.828 38.9381C140.112 38.8549 140.376 38.7164 140.606 38.5307L140.844 38.3238L143.351 43.2322C143.24 43.348 143.119 43.453 142.988 43.5456C142.642 43.746 142.279 43.9139 141.903 44.0471C141.332 44.2604 140.732 44.3872 140.123 44.4232C139.292 44.4297 138.465 44.307 137.672 44.0596C136.563 43.7471 135.507 43.2717 134.537 42.6492C131.245 40.5103 128.571 37.5446 126.783 34.0486C124.735 30.2623 123.776 26.6494 123.906 23.21C124.035 19.7706 125.218 17.4972 127.454 16.3897C129.702 15.2906 132.383 15.7148 135.497 17.6622Z" fill="#112E7C"/>
<path d="M153.594 28.9706C154.457 29.5191 155.265 30.1488 156.008 30.8512C156.685 31.4688 157.313 32.1373 157.888 32.8509C158.371 33.4777 158.797 34.0482 159.142 34.6061C159.433 35.0321 159.692 35.4783 159.919 35.9413L160.164 36.4366L157.412 38.0539C157.305 37.822 157.155 37.5336 156.954 37.1825C156.582 36.578 156.163 36.0036 155.701 35.4649C155.137 34.7472 154.459 34.1268 153.695 33.6282C152.859 33.1058 152.178 32.9366 151.651 33.1204C151.384 33.2232 151.158 33.4106 151.007 33.654C150.857 33.8973 150.79 34.1833 150.817 34.4682C150.837 35.4107 151.175 36.3187 151.776 37.0446C152.519 38.0427 153.343 38.9779 154.24 39.8405C155.21 40.7933 156.183 41.8005 157.161 42.862C158.171 43.9778 158.996 45.2475 159.606 46.6232C160.256 48.0493 160.563 49.608 160.502 51.1743C160.421 53.3871 159.662 54.7725 158.239 55.3179C156.816 55.8632 154.892 55.3805 152.478 53.8698C151.495 53.2498 150.575 52.5337 149.733 51.7322C148.952 51.0096 148.231 50.2256 147.576 49.3877C147.016 48.648 146.525 47.948 146.103 47.2877C145.786 46.7808 145.499 46.2554 145.244 45.7142L144.931 45.0874L147.683 43.6581C147.808 43.9151 147.984 44.285 148.216 44.6987C148.682 45.4621 149.21 46.1854 149.795 46.8614C150.526 47.7839 151.402 48.5801 152.391 49.2184C153.448 49.8787 154.284 50.1023 154.898 49.8892C155.525 49.6823 155.838 49.1307 155.87 48.2405C155.85 47.2963 155.512 46.3864 154.911 45.6578C154.158 44.6529 153.319 43.7153 152.403 42.8557C151.421 41.9029 150.447 40.8978 149.482 39.8405C148.476 38.7243 147.655 37.4545 147.05 36.0793C146.399 34.6555 146.092 33.0987 146.153 31.5345C146.229 29.5953 146.954 28.3541 148.329 27.8109C149.704 27.2676 151.459 27.6541 153.594 28.9706Z" fill="#112E7C"/>
<path d="M171.096 39.9094C171.959 40.4579 172.767 41.0877 173.51 41.79C174.188 42.4066 174.817 43.0752 175.39 43.7897C175.879 44.4166 176.306 44.9933 176.644 45.545C176.933 45.9689 177.19 46.413 177.415 46.8739L177.66 47.3692L174.914 48.9865C174.807 48.7545 174.657 48.4662 174.456 48.1151C174.084 47.5106 173.665 46.9362 173.203 46.3975C172.638 45.6801 171.961 45.0597 171.197 44.5608C170.361 44.0384 169.678 43.8691 169.147 44.053C168.891 44.1641 168.677 44.3529 168.536 44.5927C168.394 44.8325 168.331 45.1109 168.357 45.3883C168.375 46.3311 168.713 47.2398 169.316 47.9647C170.058 48.9633 170.882 49.8985 171.78 50.7605C172.749 51.7134 173.723 52.7205 174.701 53.782C175.71 54.8986 176.535 56.1681 177.146 57.5432C177.796 58.9694 178.103 60.5281 178.042 62.0943C177.961 64.3072 177.202 65.6925 175.773 66.2379C174.344 66.7833 172.425 66.3006 170.012 64.7961C169.028 64.1761 168.109 63.4601 167.266 62.6585C166.485 61.9365 165.764 61.1524 165.11 60.314C164.55 59.5743 164.059 58.8743 163.637 58.214C163.305 57.7184 163.004 57.2035 162.734 56.6719L162.421 56.045L165.173 54.6158C165.304 54.8791 165.48 55.2426 165.712 55.6564C166.176 56.417 166.702 57.1382 167.285 57.8128C168.016 58.735 168.892 59.5312 169.88 60.1698C170.938 60.8301 171.773 61.0558 172.388 60.8469C173.015 60.64 173.328 60.0883 173.359 59.1982C173.339 58.2509 172.999 57.3384 172.394 56.6092C171.652 55.6048 170.823 54.6672 169.918 53.8071C168.936 52.8543 167.962 51.8492 166.997 50.7919C165.989 49.6758 165.166 48.4061 164.558 47.0307C163.912 45.6078 163.607 44.0537 163.668 42.4921C163.743 40.553 164.468 39.3118 165.843 38.7685C167.218 38.2252 168.969 38.6055 171.096 39.9094Z" fill="#112E7C"/>
<path d="M82.783 33.904V36.0228L100.479 25.7359V23.6735L82.783 33.904Z" fill="#F7931E"/>
<path d="M81.0215 34.9198L31.1353 63.762V66.0376L81.0215 37.0449V34.9198Z" fill="#00A99D"/>
<path d="M38.9398 66.1318L31.1353 70.6453V72.9208L38.9398 68.3885V66.1318Z" fill="#8CC63F"/>
<path d="M40.7014 65.1162V67.3604L68.6346 51.1307V48.968L40.7014 65.1162Z" fill="#F7931E"/>
<path d="M70.3962 47.9521V50.1086L88.6632 39.4894V37.3894L70.3962 47.9521Z" fill="#F15A24"/>
<path d="M90.4246 36.368V38.468L100.48 32.6256V30.5569L90.4246 36.368Z" fill="#8CC63F"/>
<path d="M81.5859 48.316L31.6997 77.1519V79.4275L81.5859 50.4349V48.316Z" fill="#00A99D"/>
<path d="M85.6102 58.9415V61.0603L103.307 50.7734V48.711L85.6102 58.9415Z" fill="#F7931E"/>
<path d="M83.8486 59.9628L33.9625 88.7987V91.0742L83.8486 62.0816V59.9628Z" fill="#00A99D"/>
<path d="M41.767 91.1748L33.9625 95.6882V97.9575L41.767 93.4252V91.1748Z" fill="#8CC63F"/>
<path d="M43.5286 90.1531V92.4035L71.4618 76.1676V74.0049L43.5286 90.1531Z" fill="#F7931E"/>
<path d="M73.2233 72.9892V75.1456L91.4902 64.5264V62.4264L73.2233 72.9892Z" fill="#F15A24"/>
<path d="M93.2517 61.4111V63.5049L103.307 57.6625V55.6001L93.2517 61.4111Z" fill="#8CC63F"/>
<path d="M84.4129 73.353L34.5268 102.195V104.464L84.4129 75.4781V73.353Z" fill="#00A99D"/>
<path d="M166.79 101.474C166.326 100.484 164.282 99.7317 161.831 99.7317C159.38 99.7317 157.23 100.522 156.816 101.55C153.932 105.587 151.093 112.163 154.641 116.594C155.503 117.594 156.573 118.392 157.776 118.933C158.979 119.475 160.286 119.746 161.605 119.729H162.032C163.351 119.746 164.658 119.475 165.861 118.933C167.064 118.392 168.134 117.594 168.996 116.594C172.594 112.137 169.692 105.505 166.79 101.474Z" fill="#112E7C"/>
<path opacity="0.5" d="M161.831 104.07C164.625 104.07 166.89 103.099 166.89 101.901C166.89 100.703 164.625 99.7317 161.831 99.7317C159.037 99.7317 156.772 100.703 156.772 101.901C156.772 103.099 159.037 104.07 161.831 104.07Z" fill="black"/>
<path d="M167.736 83.4959C164.604 88.7908 162.678 94.711 162.095 100.835C162.094 93.4311 161.414 86.0428 160.064 78.7631C160.013 78.5061 159.618 78.6126 159.669 78.8696C161.18 87.0101 161.848 95.2846 161.662 103.562C161.661 103.593 161.668 103.624 161.682 103.652C161.696 103.68 161.716 103.705 161.742 103.723C161.767 103.741 161.796 103.754 161.827 103.758C161.858 103.763 161.889 103.76 161.919 103.75C161.919 103.813 161.919 103.869 161.919 103.932C161.927 103.98 161.953 104.023 161.99 104.054C162.027 104.086 162.074 104.103 162.123 104.103C162.171 104.103 162.219 104.086 162.256 104.054C162.293 104.023 162.318 103.98 162.327 103.932C162.469 96.8072 164.446 89.8397 168.069 83.7028C168.078 83.6608 168.075 83.6168 168.058 83.577C168.042 83.5371 168.013 83.5035 167.976 83.4807C167.94 83.4579 167.897 83.4471 167.854 83.4498C167.811 83.4526 167.77 83.4687 167.736 83.4959Z" fill="#5FAD00"/>
<path d="M164.539 90.2285C164.539 90.2285 167.674 80.161 174.388 76.4374C174.388 76.4374 173.027 78.4372 173.66 80.067C174.294 81.6969 175.297 84.6055 172.118 86.2417C168.94 87.8778 167.103 86.2417 167.398 89.4199C167.693 92.5981 168.928 94.1402 166.89 95.6886C164.853 97.2369 163.129 98.5784 162.439 101.901C162.439 101.901 163.211 93.576 164.539 90.2285Z" fill="#5FAD00"/>
<path d="M161.543 89.1693C161.543 89.1693 160.239 73.7044 157.518 69.7928C157.726 71.2872 157.458 72.8092 156.753 74.1432C155.575 76.3811 154.309 77.1585 154.992 80.0734C155.675 82.9883 158.433 82.4053 158.17 85.3203C157.907 88.2352 155.6 87.6836 156.753 91.3633C157.907 95.043 161.825 97.4627 161.825 97.4627" fill="#5FAD00"/>
<path opacity="0.32" d="M77.7868 166.129C78.5202 166.461 86.7949 171.458 87.6349 171.771L126.632 148.727L113.111 141.769L93.7719 139.519L62.0524 156.764C68.9793 160.795 70.4963 162.807 77.7868 166.129Z" fill="url(#paint1_linear)"/>
<path d="M101.163 132.36C101.163 132.36 101.276 134.278 100.68 134.811C100.085 135.344 96.919 133.858 96.0351 134.385C95.1512 134.911 99.2446 138.773 100.68 138.967C102.116 139.162 103.438 137.143 103.438 137.143V140.045L105.062 140.967L106.253 140.259L105.902 132.366L101.163 132.36Z" fill="#060638"/>
<path d="M103.332 122.644C104.283 121.918 105.377 121.403 106.542 121.131C107.707 120.86 108.916 120.839 110.089 121.07C112.747 121.653 115.042 123.321 117.75 123.734C118.176 123.797 119.887 123.69 120.144 123.935C127.667 131.056 106.629 130.298 106.629 130.298C104.586 128.624 102.667 126.982 100.636 125.283C101.251 123.916 102.285 123.377 103.332 122.644Z" fill="#F8997C"/>
<path d="M113.236 132.974L113.982 154.463C113.982 155.278 112.728 155.278 112.728 154.463L111.982 132.968C111.939 132.159 113.211 132.159 113.236 132.974Z" fill="#844040"/>
<path d="M97.4581 144.471C101.29 140.71 104.951 136.796 108.441 132.73C108.974 132.103 109.864 133.012 109.337 133.626C105.852 137.701 102.191 141.615 98.3545 145.368C97.7715 145.938 96.8751 145.06 97.4581 144.471Z" fill="#844040"/>
<path d="M117.631 130.981C120.606 136.598 123.408 142.3 126.037 148.088C126.369 148.828 125.279 149.467 124.946 148.715C122.314 142.935 119.509 137.237 116.534 131.62C116.151 130.9 117.248 130.26 117.631 130.981Z" fill="#844040"/>
<path d="M100.987 124.656C102.255 126.391 104.039 127.681 106.084 128.342C108.961 129.201 113.142 128.8 114.653 125.835C117.405 120.443 114.822 113.698 117.725 108.458C118.063 107.792 118.538 107.206 119.117 106.736C119.697 106.266 120.37 105.924 121.091 105.731C122.972 105.323 124.263 106.721 124.946 108.357C126.2 111.297 126.125 114.958 126.068 118.093C126.065 120.623 125.879 123.15 125.51 125.653C125.51 125.653 123.749 136.159 110.033 133.338C107.662 132.915 105.381 132.084 103.294 130.881C102.228 130.277 101.293 129.467 100.542 128.499C99.7086 127.295 100.266 125.866 100.987 124.656Z" fill="#112E7C"/>
<path d="M110.961 123.515C110.404 119.746 110.144 115.94 110.184 112.131C110.18 111.906 110.25 111.685 110.384 111.504C110.384 111.128 110.384 110.752 110.384 110.369C107.877 110.282 103.827 110.601 100.925 112.589C97.1197 115.196 98.9125 131.495 100.436 134.178C102.555 135.087 104.391 135.137 106.078 133.664L107.789 123.891C108.84 124.449 109.948 124.894 111.093 125.22C111.051 124.656 111.007 124.087 110.961 123.515Z" fill="#124577"/>
<path d="M91.4965 134.736C91.4965 134.736 91.6093 136.654 91.0138 137.187C90.4183 137.72 87.2526 136.234 86.3687 136.761C85.4848 137.288 89.5783 141.149 91.0138 141.343C92.4493 141.538 93.772 139.519 93.772 139.519V142.409L95.3956 143.331L96.5867 142.622L96.2356 134.73L91.4965 134.736Z" fill="#060638"/>
<path d="M96.9754 136.147C95.2703 137.614 93.4335 137.57 91.3335 136.661C89.8102 133.984 88.0174 117.679 91.8225 115.071C95.9097 112.276 102.297 112.771 103.369 113.078L119.041 115.642C120.245 117.685 117.06 128.392 110.108 128.687C103.156 128.982 98.7181 126.374 98.7181 126.374L96.9754 136.147Z" fill="#124577"/>
<path d="M103.062 91.413C103.807 91.7413 104.424 92.3051 104.817 93.0178V93.0743C105.921 93.9769 106.071 95.6193 107.262 96.4343C107.262 96.4656 108.366 97.2367 108.372 97.268C108.378 97.2993 108.265 95.7635 108.272 95.7698C108.654 96.8104 109.024 97.851 109.35 98.9041C109.297 98.9374 109.24 98.9628 109.181 98.9794L109.306 99.042L109.412 99.1047C109.426 99.1576 109.452 99.2066 109.488 99.2479C109.524 99.2892 109.569 99.3217 109.619 99.3429C109.662 99.4969 109.66 99.66 109.613 99.8128C109.566 99.9656 109.476 100.102 109.354 100.205C109.232 100.308 109.082 100.373 108.924 100.394C108.765 100.415 108.604 100.389 108.46 100.321L104.918 98.5907C104.447 98.4909 103.984 98.3568 103.532 98.1895C103.532 97.8196 103.476 97.4498 103.438 97.0799C103.162 96.6478 102.995 96.1543 102.953 95.6428C102.912 95.1312 102.997 94.6173 103.2 94.1462C103.182 94.1226 103.161 94.1015 103.137 94.0835V94.0459C102.844 93.8411 102.594 93.5798 102.402 93.2774C102.211 92.975 102.081 92.6374 102.022 92.2844C101.99 91.7766 102.498 91.1498 103.062 91.413Z" fill="#F9B16F"/>
<path d="M107.563 94.7543C107.563 94.7543 103.526 97.2618 103.106 99.3493C103.106 99.3493 105.94 105.505 105.752 105.75C102.548 109.925 112.152 103.104 112.152 103.104C112.152 103.104 110.209 97.2618 107.563 94.7543Z" fill="#112E7C"/>
<path d="M98.3797 96.2904C98.0474 99.0799 101.602 102.96 103.1 103.712C105.156 104.741 105.952 96.1901 115.01 96.234C115.593 96.234 118.521 94.9802 120.063 98.8355C121.605 102.691 120.063 113.724 119.035 115.648C118.126 117.347 112.108 121.422 103.507 117.059L103.382 113.078C103.382 113.078 98.3044 112.971 95.6214 109.235C93.114 105.756 91.6283 100.528 91.8602 97.9516C93.8411 97.074 96.38 95.6322 98.3797 96.2904Z" fill="#112E7C"/>
<path d="M107.563 94.7543C107.563 94.7543 103.526 97.2618 103.106 99.3493C103.106 99.3493 105.94 105.505 105.752 105.75C102.548 109.925 112.152 103.104 112.152 103.104C112.152 103.104 110.209 97.2618 107.563 94.7543Z" fill="#8787D1"/>
<path d="M102.134 84.1791L91.4212 86.5487L93.2266 101.575L103.526 98.2398" fill="#DDEEFF"/>
<path d="M91.9605 95.6761C91.9868 95.7069 92.0187 95.7324 92.0545 95.7513C92.0295 96.5871 92.0065 97.4229 91.9856 98.2588C91.9856 98.685 92.6124 98.6286 92.6438 98.2023C92.6438 98.1647 92.6438 98.1271 92.6438 98.0895C92.7342 98.1094 92.8288 98.0947 92.9088 98.0483C92.9889 98.0019 93.0487 97.9271 93.0763 97.8388V97.7573C93.1284 97.7803 93.186 97.7884 93.2424 97.7807C93.2989 97.7729 93.3521 97.7496 93.396 97.7134C93.4882 97.6989 93.5712 97.6495 93.628 97.5755C93.662 97.6183 93.7047 97.6533 93.7534 97.6781C93.8021 97.703 93.8555 97.7172 93.9101 97.7197V98.0206C93.9101 98.3904 94.5369 98.428 94.5369 98.0582V97.7886C94.6372 98.0707 95.1638 98.0644 95.1638 97.7322V97.3686C95.2048 97.3575 95.2431 97.3383 95.2766 97.3122V97.3749C95.2953 97.4414 95.3342 97.5005 95.388 97.5439C95.4417 97.5873 95.5077 97.6128 95.5767 97.6169C95.6457 97.6211 95.7142 97.6036 95.7728 97.567C95.8314 97.5303 95.8771 97.4763 95.9035 97.4125L95.9474 97.2432C95.9846 97.2636 96.0256 97.2763 96.0679 97.2803C96.1101 97.2844 96.1528 97.2799 96.1932 97.267C96.2337 97.2541 96.2711 97.2331 96.3032 97.2053C96.3353 97.1775 96.3614 97.1435 96.3799 97.1053C96.8273 96.2293 97.1824 95.3091 97.4393 94.3596C97.5584 94.0253 97.566 93.6613 97.4609 93.3223C97.3558 92.9833 97.1437 92.6874 96.8563 92.479C96.7988 92.4249 96.7222 92.3957 96.6432 92.3975C96.6871 91.9462 96.7372 91.4886 96.7874 91.0372C96.8537 90.7187 96.8998 90.3962 96.9253 90.0719C96.9971 89.8366 96.9838 89.5836 96.8877 89.3572C96.8125 89.0313 96.6307 88.7304 96.2608 88.8181C95.6716 88.9247 95.4334 89.8023 95.2892 90.285C95.1969 90.7783 95.132 91.2764 95.0948 91.7769C95.0187 91.695 94.9271 91.6289 94.8253 91.5826C94.6541 91.5244 94.4693 91.519 94.2949 91.567C94.1205 91.6151 93.9646 91.7144 93.8474 91.8522L93.7972 91.9149C93.725 91.8349 93.6404 91.7671 93.5465 91.7143C93.3987 91.6211 93.2263 91.5748 93.0517 91.5815C92.8772 91.5882 92.7087 91.6476 92.5686 91.7519C92.3957 91.8872 92.2741 92.0773 92.2238 92.291C92.108 92.2477 91.9843 92.2299 91.861 92.2389C91.7378 92.2478 91.6179 92.2832 91.5096 92.3428C91.4013 92.4023 91.3071 92.4845 91.2334 92.5837C91.1598 92.683 91.1085 92.7969 91.0829 92.9179C90.7444 93.8519 91.3336 94.9865 91.9605 95.6761ZM94.6748 92.3035H94.468C94.4568 92.2746 94.4421 92.2472 94.4241 92.222C94.4525 92.2086 94.4836 92.2017 94.515 92.2017C94.5464 92.2017 94.5775 92.2086 94.6059 92.222L94.6748 92.3035Z" fill="#F9B16F"/>
<path d="M110.209 86.0599C110.209 86.154 109.651 91.7958 110.911 93.0432C112.171 94.2907 115.531 93.7704 116.364 92.4164C117.198 91.0623 118.245 89.282 117.33 87.1632C116.415 85.0444 110.359 84.6683 110.209 86.0599Z" fill="#F9B16F"/>
<path d="M112.02 89.7329C111.971 89.631 111.954 89.5168 111.971 89.405C111.987 89.2932 112.037 89.1891 112.114 89.106C112.501 88.6278 113.037 88.2942 113.637 88.1594C113.91 88.095 114.196 88.1328 114.442 88.2657C114.688 88.3987 114.877 88.6174 114.973 88.8803C115.361 90.1341 113.28 90.5353 112.434 90.6481C112.36 90.6481 112.286 90.6335 112.218 90.6052C112.149 90.5768 112.087 90.5353 112.035 90.4829C111.982 90.4305 111.941 90.3683 111.913 90.2998C111.884 90.2314 111.87 90.158 111.87 90.0839C111.872 89.9518 111.926 89.8259 112.02 89.7329Z" fill="#FFE8E6"/>
<path d="M98.3797 96.2904C98.0474 99.0799 101.602 102.96 103.1 103.712C105.156 104.741 105.952 96.1901 115.01 96.234C115.593 96.234 118.521 94.9802 120.063 98.8355C121.605 102.691 120.063 113.724 119.035 115.648C118.126 117.347 112.108 121.422 103.507 117.059L103.382 113.078C103.382 113.078 98.3044 112.971 95.6214 109.235C93.114 105.756 91.6283 100.528 91.8602 97.9516C93.8411 97.074 96.38 95.6322 98.3797 96.2904Z" fill="#8787D1"/>
<path d="M99.0878 112.1C101.431 112.942 103.989 112.973 106.351 112.189C108.714 111.404 110.746 109.85 112.12 107.774C112.302 107.498 112.747 107.774 112.565 108.031C111.133 110.203 109.015 111.833 106.548 112.66C104.081 113.487 101.408 113.464 98.9562 112.595C98.6427 112.463 98.7744 111.987 99.0878 112.1Z" fill="white"/>
<path d="M104.159 102.753C104.619 101.68 105.3 100.716 106.159 99.9258C107.143 99.0294 108.359 98.4589 109.387 97.6189C109.594 97.4497 109.889 97.7443 109.682 97.9136C108.71 98.7034 107.569 99.2551 106.623 100.076C105.713 100.868 104.995 101.856 104.523 102.966C104.416 103.211 104.053 102.997 104.159 102.753Z" fill="white"/>
<path d="M110.083 86.8556L111.882 87.8021C111.882 87.8021 110.491 93.0929 110.071 94.4845C109.651 95.8762 111.325 97.8257 116.753 97.9636C122.182 98.1016 121.906 89.8896 120.652 86.8305C119.399 83.7714 115.637 82.3735 112.578 83.2135C111.766 83.3687 111.048 83.8386 110.581 84.5207C110.113 85.2029 109.935 86.0421 110.083 86.8556Z" fill="#FFE600"/>
<path d="M100.379 125.885C100.434 125.749 100.523 125.629 100.636 125.537C100.75 125.445 100.885 125.383 101.029 125.358C101.173 125.332 101.321 125.343 101.46 125.391C101.598 125.438 101.723 125.519 101.821 125.627C102.977 126.893 104.448 127.829 106.084 128.342C108.961 129.201 113.142 128.799 114.653 125.834C117.393 120.462 114.841 113.748 117.693 108.514C118.184 107.57 118.926 106.781 119.837 106.232C122.414 104.747 124.125 106.37 124.953 108.351C126.206 111.291 126.131 114.952 126.075 118.086C126.072 120.616 125.885 123.143 125.517 125.646C125.517 125.646 123.755 136.153 110.039 133.332C107.668 132.909 105.388 132.077 103.301 130.874C102.235 130.27 101.299 129.461 100.549 128.492C100.302 128.108 100.156 127.666 100.127 127.21C100.097 126.754 100.184 126.298 100.379 125.885Z" fill="#112E7C"/>
<defs>
<linearGradient id="paint0_linear" x1="142.367" y1="126.235" x2="152.416" y2="119.898" gradientUnits="userSpaceOnUse">
<stop stop-color="white" stop-opacity="0"/>
<stop offset="0.99" stop-color="#0048AA"/>
</linearGradient>
<linearGradient id="paint1_linear" x1="11013.5" y1="8919.25" x2="12101.4" y2="7545.53" gradientUnits="userSpaceOnUse">
<stop stop-color="white" stop-opacity="0"/>
<stop offset="0.99" stop-color="#0048AA"/>
</linearGradient>
</defs>
</svg>
