<svg width="1720" height="721" viewBox="0 0 1720 721" fill="none" xmlns="http://www.w3.org/2000/svg">
<path d="M1651.87 9.04703L1645.14 23.0957L1617.79 19.7703L1632.69 49.139L1625.97 63.1877L1601.63 13.9907L1606.29 4.21078L1651.87 9.04703Z" fill="#F8F3EA" fill-opacity="0.75"/>
<path d="M110.861 193.722L115.841 204.158L107.02 218.811L125.079 223.492L130.059 233.928L99.9749 225.712L96.5002 218.465L110.861 193.722Z" fill="#F8F3EA" fill-opacity="0.75"/>
<path d="M1688 36.6379L1712.32 85.8429L1707.68 95.5732L1662.09 90.7764L1668.82 76.6974L1696.16 80.0212L1681.27 50.717L1688 36.6379Z" fill="#F8F3EA" fill-opacity="0.75"/>
<path d="M133.67 185.027L163.754 193.255L167.206 200.476L152.863 225.239L147.871 214.784L156.687 200.139L138.662 195.482L133.67 185.027Z" fill="#F8F3EA" fill-opacity="0.75"/>
<path d="M1681.28 17.8103L1688.78 23.6344L1635.55 84.1537L1628.1 78.2939L1681.28 17.8103Z" fill="#F8F3EA" fill-opacity="0.75"/>
<path d="M122.841 180.35L127.621 178.593L142.672 237.894L137.887 239.609L122.841 180.35Z" fill="#F8F3EA" fill-opacity="0.75"/>
<path d="M29.0864 663.047C28.6844 663.945 28.6713 664.767 29.047 665.514C29.4447 666.27 30.1583 666.879 31.1878 667.34C32.1079 667.752 32.8556 667.902 33.431 667.792C34.0064 667.681 34.5847 667.388 35.1659 666.912C35.7056 666.47 36.2164 666.356 36.6983 666.572L43.7958 669.749C43.9929 669.837 44.1229 669.987 44.1857 670.2C44.2802 670.4 44.2834 670.598 44.1951 670.795C43.597 672.132 42.5596 673.245 41.083 674.135C39.6162 675.004 37.7715 675.454 35.5491 675.484C33.3583 675.503 30.9486 674.924 28.3199 673.747C25.976 672.698 24.0408 671.411 22.5145 669.887C21.0199 668.35 20.0644 666.608 19.6479 664.659C19.2413 662.689 19.5331 660.598 20.5234 658.386L22.2589 654.508C23.2492 652.296 24.6095 650.696 26.3399 649.709C28.08 648.7 30.016 648.251 32.148 648.364C34.3116 648.465 36.5654 649.04 38.9093 650.089C41.538 651.266 43.5702 652.688 45.006 654.356C46.4735 656.012 47.3671 657.688 47.6867 659.382C48.0161 661.055 47.8818 662.559 47.2837 663.895C47.1955 664.092 47.0403 664.233 46.8184 664.318C46.6281 664.391 46.4344 664.383 46.2373 664.294L39.1398 661.118C38.6579 660.902 38.402 660.446 38.3721 659.749C38.34 658.998 38.1735 658.371 37.8727 657.868C37.5718 657.366 36.9614 656.908 36.0413 656.497C35.0118 656.036 34.0824 655.909 33.2534 656.116C32.4462 656.334 31.8416 656.891 31.4396 657.789L29.0864 663.047ZM64.7507 672.068C67.0427 673.41 68.7792 674.7 69.9602 675.938C71.1632 677.187 71.8775 678.44 72.1033 679.698C72.329 680.956 72.1184 682.308 71.4712 683.754C70.7653 685.331 69.6328 686.481 68.0737 687.203C66.5464 687.913 64.7424 688.183 62.6618 688.014C60.591 687.824 58.4055 687.214 56.1054 686.184C53.5424 685.037 51.516 683.749 50.0259 682.319C48.5359 680.89 47.5881 679.453 47.1825 678.009C46.7867 676.544 46.8732 675.176 47.4419 673.905C47.5399 673.686 47.6841 673.54 47.8744 673.468C48.0865 673.405 48.3021 673.423 48.5212 673.521L55.2572 676.536C55.7172 676.742 56.0259 677.051 56.1832 677.463C56.3987 677.98 56.7071 678.407 57.1083 678.745C57.5193 679.06 58.141 679.404 58.9734 679.777C61.0544 680.708 62.2371 680.856 62.5215 680.221C62.6391 679.958 62.5948 679.675 62.3885 679.373C62.2138 679.058 61.8055 678.678 61.1633 678.233C60.5529 677.775 59.6138 677.171 58.3462 676.42C55.502 674.726 53.5353 672.951 52.446 671.097C51.3666 669.22 51.2975 667.23 52.2388 665.127C52.9055 663.637 53.9429 662.524 55.3509 661.787C56.7589 661.05 58.4265 660.731 60.3538 660.831C62.303 660.941 64.3728 661.487 66.5634 662.467C68.8416 663.487 70.6733 664.741 72.0583 666.228C73.4532 667.694 74.3644 669.154 74.7919 670.607C75.2194 672.061 75.2076 673.291 74.7566 674.299C74.6586 674.518 74.5034 674.659 74.2913 674.722C74.101 674.794 73.8854 674.777 73.6444 674.669L66.5798 671.507C66.2074 671.34 65.9267 671.057 65.7377 670.656C65.5948 670.329 65.3885 670.027 65.1187 669.748C64.8489 669.47 64.3745 669.179 63.6954 668.875C62.2278 668.218 61.3566 668.196 61.0821 668.809C60.935 669.138 61.1021 669.528 61.5835 669.98C62.0746 670.41 63.1303 671.106 64.7507 672.068ZM92.9963 684.711C95.2883 686.053 97.0248 687.343 98.2058 688.581C99.4088 689.83 100.123 691.083 100.349 692.341C100.575 693.599 100.364 694.951 99.7168 696.396C99.0108 697.974 97.8783 699.123 96.3193 699.845C94.792 700.555 92.988 700.826 90.9074 700.657C88.8366 700.467 86.6511 699.856 84.351 698.827C81.788 697.68 79.7615 696.391 78.2715 694.962C76.7815 693.532 75.8337 692.096 75.4281 690.652C75.0323 689.187 75.1188 687.819 75.6875 686.548C75.7855 686.329 75.9297 686.183 76.1199 686.111C76.3321 686.048 76.5477 686.065 76.7668 686.163L83.5028 689.178C83.9628 689.384 84.2715 689.693 84.4288 690.106C84.6443 690.623 84.9527 691.05 85.3538 691.387C85.7648 691.703 86.3865 692.047 87.219 692.419C89.3 693.351 90.4827 693.499 90.767 692.864C90.8847 692.601 90.8404 692.318 90.634 692.015C90.4594 691.701 90.051 691.321 89.4089 690.875C88.7984 690.418 87.8594 689.814 86.5918 689.062C83.7476 687.369 81.7808 685.594 80.6916 683.739C79.6121 681.863 79.5431 679.873 80.4843 677.77C81.1511 676.28 82.1884 675.167 83.5964 674.43C85.0044 673.693 86.6721 673.374 88.5994 673.474C90.5485 673.584 92.6184 674.129 94.809 675.11C97.0872 676.13 98.9188 677.383 100.304 678.871C101.699 680.337 102.61 681.796 103.037 683.25C103.465 684.703 103.453 685.934 103.002 686.942C102.904 687.161 102.749 687.302 102.537 687.364C102.347 687.437 102.131 687.419 101.89 687.311L94.8254 684.149C94.453 683.983 94.1723 683.699 93.9833 683.299C93.8404 682.972 93.634 682.67 93.3643 682.391C93.0945 682.112 92.6201 681.821 91.941 681.517C90.4733 680.86 89.6022 680.839 89.3277 681.452C89.1806 681.781 89.3477 682.171 89.829 682.623C90.3201 683.053 91.3759 683.749 92.9963 684.711Z" fill="#FFCF25" fill-opacity="0.1"/>
</svg>
