<svg width="173" height="183" viewBox="0 0 173 183" fill="none" xmlns="http://www.w3.org/2000/svg">
<path d="M2.96808 124.77L103.84 181.682C105.196 182.447 106.728 182.845 108.285 182.837C109.842 182.828 111.37 182.415 112.718 181.636L168 149.721C168.885 149.211 169.62 148.477 170.131 147.592C170.642 146.708 170.91 145.704 170.91 144.683C170.91 143.661 170.642 142.658 170.131 141.774C169.62 140.889 168.885 140.155 168 139.644L68.0164 81.9303C66.7352 81.1906 65.2819 80.8012 63.8026 80.8012C62.3233 80.8012 60.87 81.1906 59.5888 81.9303L2.92171 114.653C2.02991 115.165 1.2897 115.904 0.776474 116.795C0.263248 117.686 -0.00465229 118.697 6.1138e-05 119.725C0.00477456 120.753 0.281935 121.762 0.803307 122.648C1.32468 123.534 2.07163 124.267 2.96808 124.77Z" fill="#7AC11F"/>
<path d="M171.598 53.1292L79.8827 0.371152C79.4731 0.136355 79.0108 0.00884074 78.5388 0.000443422C78.0667 -0.0079539 77.6002 0.103038 77.1825 0.323118C76.7649 0.543198 76.4095 0.865231 76.1496 1.25933C75.8896 1.65343 75.7334 2.10681 75.6955 2.57741L69.832 75.7086C69.5471 79.2598 74.218 81.0089 76.8085 82.44L85.9847 87.535L112.526 102.243L140.565 117.853L158.884 128.029C159.547 128.414 160.275 128.791 160.964 129.182C161.368 129.41 161.822 129.533 162.285 129.542C162.748 129.551 163.206 129.446 163.618 129.234C164.031 129.023 164.384 128.713 164.647 128.331C164.91 127.95 165.074 127.509 165.125 127.049L172.983 55.8655C173.043 55.3242 172.944 54.7771 172.698 54.2912C172.452 53.8052 172.07 53.4015 171.598 53.1292Z" fill="#172D51"/>
<path d="M23.4278 75.9602H18.6641C18.0274 75.9602 17.5113 76.4764 17.5113 77.113V121.676C17.5113 122.312 18.0274 122.828 18.6641 122.828H23.4278C24.0645 122.828 24.5806 122.312 24.5806 121.676V77.113C24.5806 76.4764 24.0645 75.9602 23.4278 75.9602Z" fill="#BC532A"/>
<path d="M38.5331 85.5472C36.9032 78.4713 29.6617 47.3054 16.8283 56.4683C10.2559 61.1591 8.39412 68.4934 5.76383 75.682C3.58407 81.6449 1.78859 87.8728 1.67595 94.2332C1.47057 107.199 14.6617 108.809 24.7522 108.736C30.5693 108.736 38.8776 105.271 40.2358 98.9571C41.0574 95.1475 39.6594 90.6554 38.8445 86.9187C38.7208 86.4638 38.617 86.0066 38.5331 85.5472Z" fill="#2C9135"/>
<path d="M39.1161 86.9186C39.0145 86.4769 38.9107 86.0176 38.8047 85.5405C37.3604 79.2861 31.5168 54.1957 21.3269 54.8119C24.3547 68.0627 28.8269 82.0158 26.4417 95.5515C25.6794 100.279 23.8311 104.765 21.042 108.657C22.3671 108.723 23.7385 108.743 25.0172 108.736C30.8344 108.736 39.1426 105.271 40.5008 98.957C41.329 95.1474 39.931 90.6554 39.1161 86.9186Z" fill="#156819"/>
<path d="M158.605 143.898L154.829 145.527L140.936 137.312L98.6985 161.7L95.101 159.911V163.774L113.069 174.401L158.605 147.754L158.572 147.734L158.605 147.747V143.898Z" fill="#112E7C"/>
<path opacity="0.47" d="M158.605 143.898L154.829 145.527L140.936 137.312L98.6985 161.7L95.101 159.911V163.774L113.069 174.401L158.605 147.754L158.572 147.734L158.605 147.747V143.898Z" fill="#2E90A0"/>
<path d="M95.101 159.911L113.069 170.545L158.605 143.897L140.936 133.456L95.101 159.911Z" fill="#112E7C"/>
<path d="M113.705 153.425L121.523 148.847L123.365 150.172L120.53 151.835L128.235 157.361L126.108 158.613L118.403 153.087L115.554 154.75L113.705 153.425Z" fill="white"/>
<path d="M103.614 159.341L105.754 158.089L109.577 160.839L113.844 158.334L110.021 155.591L112.148 154.346L121.702 161.197L119.568 162.449L115.679 159.653L111.419 162.157L115.308 164.947L113.168 166.199L103.614 159.341Z" fill="white"/>
<path d="M136.298 140.181L138.438 138.928L146.15 144.461L150.768 141.757L152.603 143.076L145.852 147.031L136.298 140.181Z" fill="white"/>
<path d="M123.087 147.925L125.008 146.799L132.574 147.786L131.852 142.784L133.747 141.678L143.301 148.528L141.167 149.781L134.8 145.209L135.509 149.893L128.433 148.979L134.774 153.531L132.634 154.783L123.087 147.925Z" fill="white"/>
<path d="M105.35 31.8288V34.2074L85.461 22.646V20.3271L105.35 31.8288Z" fill="#F7931E"/>
<path d="M107.331 32.9684L163.396 65.3799V67.9373L107.331 35.3602V32.9684Z" fill="#00A99D"/>
<path d="M154.623 68.0496L163.395 73.1181V75.6755L154.623 70.5805V68.0496Z" fill="#8CC63F"/>
<path d="M152.65 66.9098V69.4275L121.252 51.1878V48.7562L152.65 66.9098Z" fill="#F7931E"/>
<path d="M119.277 47.6169V50.0351L98.7386 38.1028V35.7441L119.277 47.6169Z" fill="#F15A24"/>
<path d="M96.7639 34.5977V36.9563L85.461 30.3906V28.065L96.7639 34.5977Z" fill="#8CC63F"/>
<path d="M106.702 48.021L162.767 80.4325V82.9899L106.702 50.4062V48.021Z" fill="#00A99D"/>
<path d="M100.56 63.1537V65.5389L80.6707 53.9775V51.6586L100.56 63.1537Z" fill="#F7931E"/>
<path d="M102.542 64.2994L158.606 96.7109V99.2683L102.542 66.6846V64.2994Z" fill="#00A99D"/>
<path d="M149.834 99.381L158.606 104.449V107.007L149.834 101.912V99.381Z" fill="#8CC63F"/>
<path d="M147.859 98.2349V100.759L116.461 82.5195V80.088L147.859 98.2349Z" fill="#F7931E"/>
<path d="M114.487 78.942V81.3669L93.9549 69.4346V67.0759L114.487 78.942Z" fill="#F15A24"/>
<path d="M91.9737 65.9297V68.2817L80.6707 61.7159V59.397L91.9737 65.9297Z" fill="#8CC63F"/>
<path d="M101.912 79.3528L157.976 111.764V114.322L101.912 81.7379V79.3528Z" fill="#00A99D"/>
<path style="mix-blend-mode:multiply" d="M54.1233 152.119C56.959 154.107 59.6953 156.227 62.4051 158.387L87.1841 141.704L67.1887 137.159L49.5054 149.085C51.069 150.039 52.6127 151.053 54.1233 152.119Z" fill="url(#paint0_linear)"/>
<path d="M78.7094 60.6293C78.006 60.9401 77.4241 61.4731 77.053 62.1465V62.1995C76.0128 63.0476 75.8472 64.6046 74.7474 65.3731C74.7474 65.3731 73.7072 66.135 73.6939 66.1615C73.6807 66.188 73.7933 64.7371 73.7867 64.7503C73.4289 65.7309 73.0778 66.738 72.7664 67.7185C72.8157 67.7502 72.8692 67.7748 72.9254 67.7914L72.8128 67.851L72.7134 67.9107C72.6999 67.961 72.6749 68.0075 72.6404 68.0466C72.6059 68.0857 72.5629 68.1162 72.5146 68.1359C72.4727 68.2821 72.474 68.4372 72.5183 68.5827C72.5626 68.7282 72.648 68.8577 72.7643 68.9557C72.8805 69.0537 73.0226 69.1161 73.1734 69.1352C73.3243 69.1543 73.4774 69.1294 73.6144 69.0635L76.9271 67.427C77.3777 67.3318 77.8206 67.2033 78.2522 67.0427C78.2522 66.6916 78.3052 66.3471 78.3384 65.9959C78.6017 65.5888 78.7602 65.1228 78.7995 64.6395C78.8388 64.1563 78.7577 63.6708 78.5636 63.2265L78.6232 63.1669V63.1271C78.9002 62.9335 79.136 62.6868 79.3169 62.4013C79.4977 62.1159 79.62 61.7973 79.6767 61.4641C79.7164 60.9871 79.2394 60.3842 78.7094 60.6293Z" fill="#F9B16F"/>
<path d="M68.7977 134.046V137.073C68.7977 137.073 75.1913 134.701 76.4236 135.748C78.2655 137.325 73.0049 140.485 67.6118 141.539C66.5745 141.839 65.478 141.871 64.425 141.632C62.8283 141.075 63.504 138.663 63.4974 137.425C63.4908 136.186 63.4312 134.821 63.4047 133.516" fill="#56403D"/>
<path d="M78.1405 138.239V141.267C78.1405 141.267 84.534 138.895 85.7663 139.942C87.6082 141.519 82.3476 144.679 76.9545 145.733C75.9172 146.033 74.8207 146.065 73.7677 145.825C72.171 145.269 72.8468 142.857 72.8401 141.618C72.8335 140.379 72.7739 139.014 72.7474 137.709" fill="#56403D"/>
<path d="M78.2861 84.8383C78.2861 84.8383 84.3351 125.611 83.6792 135.085C83.6792 135.085 82.1023 141.399 68.4408 139.293C68.4408 139.293 67.2548 134.555 67.7782 126.532C68.3016 118.509 69.7658 84.8383 69.7658 84.8383H78.2861Z" fill="#112E7C"/>
<path d="M74.9133 133.025L72.8528 84.3546L63.67 83.4999C63.67 83.4999 61.0198 96.128 61.8281 102.177C62.6364 108.226 60.9072 116.249 60.503 120.463C60.1519 124.24 60.0061 130.766 61.3113 133.714C65.7371 134.966 70.514 134.542 74.9133 133.025Z" fill="#112E7C"/>
<path d="M74.4566 63.8158C74.4566 63.8158 78.2728 66.1811 78.6637 68.1555C78.6637 68.1555 76.0136 73.9726 76.1659 74.2045C79.1938 78.1797 70.1169 71.7067 70.1169 71.7067C70.1169 71.7067 71.9588 66.1612 74.4566 63.8158Z" fill="#6DE2FC"/>
<path d="M83.1351 65.2405C83.4531 67.8907 80.0874 71.5413 78.6696 72.2502C76.7283 73.2175 75.973 65.1477 67.4064 65.1809C66.8565 65.1809 64.0937 64.0015 62.6295 67.6389C61.1652 71.2762 62.6295 81.7046 63.5968 83.5399C64.4515 85.1432 70.1427 88.9992 78.2721 84.865L78.3913 81.1084C78.3913 81.1084 83.1881 81.0023 85.7256 77.4776C88.0909 74.1649 89.5021 69.2489 89.2769 66.824C87.3952 65.9825 85.0234 64.6177 83.1351 65.2405Z" fill="#6DE2FC"/>
<path d="M74.4566 63.8158C74.4566 63.8158 78.2728 66.1811 78.6637 68.1555C78.6637 68.1555 76.0136 73.9726 76.1659 74.2045C79.1938 78.1797 70.1169 71.7067 70.1169 71.7067C70.1169 71.7067 71.9588 66.1612 74.4566 63.8158Z" fill="#8787D1"/>
<path d="M80.6711 51.6586L89.7148 56.0314L88.0054 70.2363L78.3191 66.0093" fill="#112E7C"/>
<path d="M90.0397 62.0269C90.0142 61.9135 89.9645 61.807 89.8941 61.7146C89.8237 61.6222 89.7342 61.546 89.6317 61.4913C89.5292 61.4366 89.4161 61.4046 89.3002 61.3976C89.1842 61.3905 89.0681 61.4086 88.9597 61.4504C88.913 61.2483 88.7984 61.0682 88.6351 60.9403C88.5035 60.8415 88.3452 60.7848 88.1808 60.7777C88.0164 60.7706 87.8537 60.8134 87.7142 60.9005C87.6247 60.9511 87.5441 61.016 87.4756 61.0927L87.4293 61.033C87.3177 60.9029 87.1696 60.8093 87.0042 60.7644C86.8388 60.7195 86.6637 60.7254 86.5017 60.7813C86.4064 60.826 86.3209 60.889 86.2499 60.9668C86.1561 60.5034 86.0366 60.0455 85.8922 59.5953C85.7597 59.1448 85.5344 58.31 84.9779 58.2106C84.6135 58.1444 84.4478 58.4094 84.3749 58.7208C84.2856 58.9304 84.2716 59.1645 84.3352 59.3833C84.3603 59.6884 84.4045 59.9915 84.4677 60.291C84.5141 60.7217 84.5605 61.1457 84.6002 61.5763C84.5261 61.576 84.4548 61.6045 84.4014 61.6558C84.1352 61.8521 83.9383 62.1281 83.8394 62.4438C83.7405 62.7595 83.7448 63.0985 83.8515 63.4116C84.0944 64.3074 84.4297 65.1756 84.852 66.0021C84.8687 66.0391 84.8931 66.0722 84.9234 66.0993C84.9537 66.1264 84.9894 66.1468 85.028 66.1593C85.0667 66.1718 85.1076 66.176 85.148 66.1718C85.1884 66.1675 85.2275 66.1549 85.2628 66.1346L85.3025 66.2936C85.3134 66.3676 85.3505 66.4351 85.407 66.484C85.4636 66.5328 85.5358 66.5597 85.6106 66.5597C85.6853 66.5597 85.7576 66.5328 85.8141 66.484C85.8707 66.4351 85.9078 66.3676 85.9187 66.2936V66.234C85.9501 66.2586 85.9861 66.2766 86.0247 66.287V66.6315C86.0247 66.9495 86.5348 66.9495 86.6276 66.6845V66.9363C86.6673 67.2874 87.2239 67.2543 87.2438 66.9363V66.6514C87.2954 66.6487 87.3458 66.6349 87.3915 66.6109C87.4373 66.5869 87.4773 66.5532 87.5088 66.5123C87.5631 66.5804 87.6412 66.6253 87.7274 66.6381C87.7695 66.6725 87.8203 66.6944 87.8741 66.7014C87.928 66.7085 87.9827 66.7003 88.0322 66.6779V66.7574C88.0596 66.8402 88.1169 66.9097 88.1928 66.9526C88.2688 66.9955 88.3579 67.0085 88.443 66.9893V67.0953C88.443 67.4928 89.1055 67.5458 89.0657 67.1483C89.0657 66.3488 89.0437 65.5494 88.9995 64.7499C89.0344 64.734 89.0659 64.7115 89.0922 64.6836C89.7945 64.0079 90.3511 62.9345 90.0397 62.0269ZM86.6938 61.4239C86.7208 61.4115 86.7502 61.405 86.78 61.405C86.8097 61.405 86.8391 61.4115 86.8661 61.4239C86.8495 61.4487 86.8362 61.4754 86.8263 61.5035H86.6408L86.6938 61.4239Z" fill="#F9B16F"/>
<path d="M71.9586 55.5742C71.9586 55.6603 72.4887 60.9938 71.2961 62.1996C70.1035 63.4054 66.9299 62.8621 66.1415 61.6033C65.3531 60.3445 64.3858 58.6285 65.2272 56.6342C66.0686 54.64 71.8129 54.2623 71.9586 55.5742Z" fill="#F9B16F"/>
<path d="M70.2496 59.0459C70.2908 58.9521 70.304 58.8484 70.2876 58.7473C70.2711 58.6462 70.2257 58.552 70.1568 58.4761C69.7903 58.0233 69.2812 57.708 68.7125 57.5817C68.457 57.5191 68.1875 57.5519 67.9546 57.6739C67.7216 57.7958 67.5411 57.9986 67.447 58.2442C67.0826 59.4567 69.0437 59.8078 69.8454 59.9138C69.9854 59.9121 70.1193 59.8557 70.2183 59.7567C70.3173 59.6577 70.3737 59.5238 70.3754 59.3838C70.3793 59.259 70.3341 59.1377 70.2496 59.0459Z" fill="#FFE8E6"/>
<path d="M86.4083 60.6821C86.0523 61.2676 85.9074 61.9574 85.9976 62.6366C86.0307 62.9017 86.4415 62.8222 86.4083 62.5571C86.3344 61.9884 86.4559 61.4114 86.7529 60.9207C86.8986 60.6821 86.5475 60.4503 86.4083 60.6821Z" fill="#966443"/>
<path d="M67.8247 135.443C67.1889 132.394 66.7288 129.31 66.4466 126.207C66.3412 124.69 66.3412 123.167 66.4466 121.649C66.5857 120.093 66.8068 118.545 67.1091 117.011C67.5816 114.249 67.7085 111.438 67.4868 108.643C67.2748 105.775 66.8242 102.932 66.5592 100.064C66.1539 96.8429 66.259 93.5784 66.8706 90.3904C66.9634 89.9797 66.3273 89.8008 66.2081 90.2182C64.936 95.9359 66.1617 101.727 66.6984 107.444C67.0283 110.403 66.9726 113.391 66.5327 116.336C66.2942 117.773 65.9961 119.204 65.8702 120.655C65.7144 122.209 65.679 123.773 65.7642 125.333C66.0135 128.794 66.5005 132.234 67.2218 135.629C67.2682 136.033 67.9042 135.861 67.8247 135.443Z" fill="white"/>
<path d="M83.1351 65.2405C83.4531 67.8907 80.0874 71.5413 78.6696 72.2502C76.7283 73.2175 75.973 65.1477 67.4064 65.1809C66.8565 65.1809 64.0937 64.0015 62.6295 67.6389C61.1652 71.2762 62.6295 81.7046 63.5968 83.5399C64.4515 85.1432 70.1427 88.9992 78.2721 84.865L78.3913 81.1084C78.3913 81.1084 83.1881 81.0023 85.7256 77.4776C88.0909 74.1649 89.5021 69.2489 89.2769 66.824C87.3952 65.9825 85.0234 64.6177 83.1351 65.2405Z" fill="#8787D1"/>
<path d="M82.4664 80.181C80.2521 80.9758 77.8351 81.0049 75.6022 80.2638C73.3693 79.5227 71.4495 78.0542 70.1498 76.0931C69.9775 75.8347 69.5601 76.0931 69.7324 76.3382C71.0854 78.3911 73.0872 79.9315 75.4183 80.7133C77.7493 81.4951 80.2751 81.4733 82.5923 80.6514C82.8905 80.5454 82.7646 80.075 82.4664 80.181Z" fill="white"/>
<path d="M77.6689 71.3492C77.2323 70.3432 76.589 69.4402 75.7807 68.6991C74.8531 67.851 73.7003 67.3144 72.733 66.5193C72.5408 66.3603 72.2559 66.6386 72.4547 66.7976C73.369 67.5462 74.4423 68.0697 75.35 68.8382C76.2107 69.5858 76.8904 70.5192 77.3376 71.5679C77.4304 71.7666 77.7683 71.5811 77.6689 71.3492Z" fill="white"/>
<path d="M72.0783 56.3229L70.3756 57.1908C70.3756 57.1908 71.7007 62.1864 72.0849 63.5048C72.4692 64.8233 70.899 66.6585 65.7709 66.8175C60.6428 66.9766 60.9012 59.1917 62.0872 56.2964C63.2731 53.4011 66.8244 52.0893 69.713 52.8777C70.4802 53.0273 71.1579 53.4722 71.6003 54.1165C72.0427 54.7609 72.2143 55.5532 72.0783 56.3229Z" fill="#B24D16"/>
<defs>
<linearGradient id="paint0_linear" x1="96.8904" y1="130.481" x2="53.898" y2="153.65" gradientUnits="userSpaceOnUse">
<stop stop-color="#D4A397"/>
<stop offset="1" stop-color="white"/>
</linearGradient>
</defs>
</svg>
