<svg width="68" height="68" viewBox="0 0 68 68" fill="none" xmlns="http://www.w3.org/2000/svg">
<path d="M47.005 21.4767L28.3334 40.1484L18.1617 30.005L14.1667 34L28.3334 48.1667L51 25.5L47.005 21.4767ZM34 5.66669C18.36 5.66669 5.66669 18.36 5.66669 34C5.66669 49.64 18.36 62.3334 34 62.3334C49.64 62.3334 62.3334 49.64 62.3334 34C62.3334 18.36 49.64 5.66669 34 5.66669ZM34 56.6667C21.4767 56.6667 11.3334 46.5234 11.3334 34C11.3334 21.4767 21.4767 11.3334 34 11.3334C46.5234 11.3334 56.6667 21.4767 56.6667 34C56.6667 46.5234 46.5234 56.6667 34 56.6667Z" fill="url(#paint0_linear)"/>
<defs>
<linearGradient id="paint0_linear" x1="34" y1="5.66669" x2="34" y2="62.3334" gradientUnits="userSpaceOnUse">
<stop stop-color="#DBFF00"/>
<stop offset="1" stop-color="#FFF500"/>
</linearGradient>
</defs>
</svg>
