<svg width="17" height="17" viewBox="0 0 17 17" fill="none" xmlns="http://www.w3.org/2000/svg">
<path d="M8.50523 1.53144C10.776 1.53144 11.0453 1.54058 11.9421 1.58109C12.4814 1.58749 13.0156 1.6865 13.5213 1.87379C13.8911 2.00957 14.2253 2.22711 14.4992 2.51015C14.7819 2.78419 14.9995 3.11821 15.1358 3.48755C15.3223 3.99321 15.4205 4.52713 15.426 5.06603C15.4665 5.96241 15.4757 6.23159 15.4757 8.50131C15.4757 10.771 15.4665 11.0402 15.426 11.9366C15.4196 12.4756 15.3206 13.0096 15.1332 13.5151C14.9915 13.8817 14.7746 14.2146 14.4966 14.4925C14.2185 14.7704 13.8855 14.9871 13.5187 15.1288C13.0136 15.3149 12.4804 15.413 11.9421 15.4189C11.0453 15.4594 10.776 15.4686 8.50523 15.4686C6.23447 15.4686 5.96517 15.4594 5.06836 15.4189C4.52907 15.4125 3.99489 15.3135 3.48916 15.1262C3.11965 14.9899 2.78548 14.7725 2.5113 14.4899C2.22814 14.2161 2.0105 13.882 1.87465 13.5125C1.68757 13.0078 1.58852 12.4748 1.58182 11.9366C1.5413 11.0402 1.53214 10.771 1.53214 8.50131C1.53214 6.23159 1.5413 5.96241 1.58182 5.06603C1.58822 4.52698 1.68728 3.99305 1.87465 3.48755C2.01098 3.11821 2.22855 2.78419 2.5113 2.51015C2.78548 2.22752 3.11965 2.01006 3.48916 1.87379C3.99489 1.6865 4.52907 1.58749 5.06836 1.58109C5.96517 1.54058 6.23447 1.53144 8.50523 1.53144ZM8.50523 0C6.19525 0 5.90634 0.00914681 4.99908 0.0509608C4.29337 0.0641659 3.59499 0.196708 2.93356 0.442967C2.36625 0.656324 1.85231 0.990765 1.42756 1.42298C0.995144 1.84754 0.660549 2.36124 0.447093 2.92829C0.20072 3.58942 0.0681174 4.28747 0.0549062 4.99285C0.00915103 5.90361 0 6.19239 0 8.50131C0 10.8102 0.00915103 11.1068 0.0509843 12.0071C0.0642924 12.7121 0.196895 13.4097 0.443171 14.0704C0.655983 14.6378 0.990664 15.1516 1.42364 15.5757C1.84856 16.008 2.36242 16.3429 2.92964 16.557C3.59126 16.8026 4.28952 16.9351 4.99516 16.949C5.90242 16.9909 6.19133 17 8.50131 17C10.8113 17 11.1015 16.9909 12.0088 16.949C12.714 16.935 13.4118 16.8025 14.073 16.557C14.6366 16.338 15.1485 16.0042 15.5761 15.5768C16.0037 15.1494 16.3377 14.6377 16.5568 14.0743C16.8024 13.4134 16.935 12.7159 16.949 12.0111C16.9909 11.1042 17 10.8141 17 8.50523C17 6.19631 16.9909 5.90753 16.949 5.00069C16.9351 4.29538 16.8025 3.59745 16.5568 2.93613C16.3426 2.36917 16.0076 1.85554 15.5751 1.43082C15.1508 0.998047 14.6367 0.663521 14.0691 0.450807C13.408 0.204644 12.7101 0.0721029 12.0048 0.0588009C11.112 0.00914681 10.8152 0 8.50523 0Z" fill="#573E0D"/>
<path d="M8.50523 4.13568C7.64139 4.13568 6.79695 4.39172 6.07869 4.87142C5.36043 5.35113 4.80062 6.03295 4.47004 6.83066C4.13947 7.62838 4.05297 8.50617 4.2215 9.35302C4.39003 10.1999 4.806 10.9778 5.41683 11.5883C6.02766 12.1988 6.8059 12.6146 7.65314 12.7831C8.50039 12.9515 9.37858 12.8651 10.1767 12.5347C10.9747 12.2042 11.6569 11.6447 12.1368 10.9267C12.6167 10.2088 12.8729 9.36477 12.8729 8.50132C12.8729 7.92802 12.7599 7.36033 12.5404 6.83066C12.3209 6.301 11.9992 5.81974 11.5936 5.41435C11.1881 5.00896 10.7066 4.68739 10.1767 4.468C9.64675 4.2486 9.0788 4.13568 8.50523 4.13568ZM8.50523 11.3355C7.94442 11.3355 7.3962 11.1693 6.9299 10.8579C6.46361 10.5465 6.10017 10.1038 5.88556 9.58593C5.67095 9.06804 5.61479 8.49818 5.7242 7.9484C5.83361 7.39862 6.10367 6.89361 6.50022 6.49724C6.89677 6.10087 7.40201 5.83094 7.95205 5.72158C8.50209 5.61222 9.07221 5.66835 9.59033 5.88286C10.1085 6.09737 10.5513 6.46064 10.8629 6.92672C11.1744 7.39281 11.3407 7.94077 11.3407 8.50132C11.3407 9.253 11.042 9.97389 10.5102 10.5054C9.97848 11.0369 9.25726 11.3355 8.50523 11.3355Z" fill="#573E0D"/>
<path d="M13.0455 4.9837C13.6094 4.9837 14.0665 4.5268 14.0665 3.96318C14.0665 3.39956 13.6094 2.94266 13.0455 2.94266C12.4817 2.94266 12.0245 3.39956 12.0245 3.96318C12.0245 4.5268 12.4817 4.9837 13.0455 4.9837Z" fill="#573E0D"/>
</svg>
