<svg width="400" height="300" viewBox="0 0 400 300" fill="none" xmlns="http://www.w3.org/2000/svg">
<path d="M372.76 160.48C334.19 181.18 220.76 246.66 184.99 267.33C181.681 269.253 177.922 270.266 174.095 270.266C170.268 270.266 166.509 269.253 163.2 267.33L27.2 187.91C21.79 184.75 23.52 178.78 28.97 175.69L218.75 65.37C219.727 64.8152 220.831 64.5234 221.955 64.5234C223.079 64.5234 224.183 64.8152 225.16 65.37L372.89 149.37C373.881 149.926 374.704 150.74 375.272 151.724C375.841 152.708 376.134 153.827 376.12 154.964C376.107 156.1 375.788 157.212 375.197 158.183C374.606 159.153 373.764 159.947 372.76 160.48Z" fill="#866511"/>
<path d="M209.18 72.6702C209.18 72.6702 205.95 94.7502 219.85 94.8202C233.2 94.8902 229.76 72.4002 229.76 72.4002C229.76 72.4002 220 64.0002 209.18 72.6702Z" fill="url(#paint0_linear)"/>
<path d="M219.43 76.9102C225.102 76.9102 229.7 75.0119 229.7 72.6702C229.7 70.3285 225.102 68.4302 219.43 68.4302C213.758 68.4302 209.16 70.3285 209.16 72.6702C209.16 75.0119 213.758 76.9102 219.43 76.9102Z" fill="#112E7C"/>
<path opacity="0.7" d="M219.43 76.9102C225.102 76.9102 229.7 75.0119 229.7 72.6702C229.7 70.3285 225.102 68.4302 219.43 68.4302C213.758 68.4302 209.16 70.3285 209.16 72.6702C209.16 75.0119 213.758 76.9102 219.43 76.9102Z" fill="#1F1E00"/>
<path d="M203.26 40.4398C203.26 40.4398 196.1 38.7198 198.85 32.7598C198.85 32.7598 203.77 33.7298 203.26 40.4398Z" fill="#938F05"/>
<path d="M207.61 46.44C207.61 46.44 206.61 41.35 210.61 39.29C210.6 39.3 213.79 44.63 207.61 46.44Z" fill="#938F05"/>
<path d="M212.08 54.2502C212.08 54.2502 210.89 48.1602 215.65 45.7002C215.65 45.7002 219.47 52.0802 212.08 54.2502Z" fill="#938F05"/>
<path d="M215.54 62.76C215.54 62.76 214.35 56.67 219.11 54.21C219.11 54.21 222.93 60.59 215.54 62.76Z" fill="#938F05"/>
<path d="M207.18 46.5799C207.18 46.5799 204.65 42.0499 200.29 43.0499C200.29 42.9999 201.29 49.1799 207.18 46.5799Z" fill="#938F05"/>
<path d="M211.71 54.4402C211.71 54.4402 208.48 49.1402 203.31 50.5402C203.3 50.5402 204.78 57.8302 211.71 54.4402Z" fill="#938F05"/>
<path d="M215.14 62.8299C215.14 62.8299 211.34 57.9199 206.36 59.8299C206.36 59.8799 208.63 66.9999 215.14 62.8299Z" fill="#938F05"/>
<path d="M217.82 76.9998H217.92C218.255 76.9929 218.59 77.0197 218.92 77.0798C218.923 77.0466 218.923 77.0131 218.92 76.9798C217.354 63.3585 212.006 50.4478 203.48 39.7098C203.03 39.1498 202.25 39.9398 202.69 40.4998C211.024 51.0161 216.258 63.6503 217.8 76.9798L217.82 76.9998Z" fill="#42352F"/>
<path d="M234.76 50.1598C234.76 50.1598 240.9 48.6898 238.54 43.5698C238.55 43.5698 234.32 44.4098 234.76 50.1598Z" fill="#938F05"/>
<path d="M231 55.3102C231 55.3102 231.85 50.9402 228.44 49.1802C228.47 49.1902 225.72 53.7602 231 55.3102Z" fill="#938F05"/>
<path d="M227.2 61.9999C227.2 61.9999 228.2 56.7699 224.14 54.6699C224.14 54.6799 220.85 60.1499 227.2 61.9999Z" fill="#938F05"/>
<path d="M224.23 69.31C224.23 69.31 225.23 64.08 221.17 61.98C221.17 62 217.89 67.45 224.23 69.31Z" fill="#938F05"/>
<path d="M231.4 55.4302C231.4 55.4302 233.57 51.5402 237.31 52.4302C237.31 52.4002 236.46 57.6602 231.4 55.4302Z" fill="#938F05"/>
<path d="M227.52 62.1699C227.52 62.1699 230.29 57.6299 234.73 58.8199C234.73 58.8199 233.46 65.0799 227.52 62.1699Z" fill="#938F05"/>
<path d="M224.57 69.3698C224.57 69.3698 227.83 65.1598 232.1 66.8398C232.11 66.8398 230.16 72.9098 224.57 69.3698Z" fill="#938F05"/>
<path d="M234.57 49.5101C228.229 57.483 223.916 66.8747 222 76.8801C222.32 76.8301 222.66 76.7801 223 76.7501C224.893 67.0427 229.087 57.931 235.23 50.1801C235.62 49.7101 235 49.0001 234.57 49.5101Z" fill="#42352F"/>
<path d="M325.02 111.67L325.07 163.83L213.72 230.49V174.15L325.02 111.67Z" fill="#76B52C"/>
<path d="M150.66 141.46V194.1L213.72 230.49V174.15L150.66 141.46Z" fill="#8CCE46"/>
<path d="M324.12 112.83L213.09 180.93L150.66 144.52L204.44 123.81" fill="#63A01C"/>
<path d="M143.64 140.41L205.51 176.58C224.43 173.514 242.632 167.021 259.22 157.42C286.9 141.42 325.03 111.68 325.03 111.68L268.16 78.3301L187.71 126.43C187.71 126.43 165.48 137.41 143.64 140.41Z" fill="#8ED815"/>
<path d="M150.66 141.46L206.58 174.15C206.58 174.15 232.7 168.99 257.72 154.54C282.74 140.09 317.2 113.19 317.2 113.19L265.82 83.0498L193.1 126.53C179.513 132.974 165.289 137.978 150.66 141.46V141.46Z" stroke="#736357" stroke-miterlimit="10"/>
<path d="M240.78 146.89C256.592 146.89 269.41 139.113 269.41 129.52C269.41 119.927 256.592 112.15 240.78 112.15C224.968 112.15 212.15 119.927 212.15 129.52C212.15 139.113 224.968 146.89 240.78 146.89Z" fill="#63A01C"/>
<path d="M65.27 190.09C64.624 185.562 65.0944 180.945 66.64 176.64C69.21 169.64 80.42 188.31 80.42 188.31" fill="#F2AE16"/>
<path d="M99.87 168.63C116.17 170.81 127.23 181.63 124.57 192.76C121.91 203.89 106.57 211.17 90.23 208.99C73.89 206.81 62.87 195.99 65.53 184.86C68.19 173.73 83.57 166.45 99.87 168.63Z" fill="#CCB800"/>
<path d="M100.37 162.36C116.67 164.54 127.73 175.36 125.07 186.49C122.41 197.62 107.07 204.9 90.73 202.72C74.39 200.54 63.37 189.72 66.03 178.59C68.69 167.46 84.07 160.18 100.37 162.36Z" fill="#FFE608"/>
<path d="M99.78 164.85C114.07 166.76 123.78 176.23 121.43 185.99C119.08 195.75 105.63 202.12 91.34 200.21C77.05 198.3 67.34 188.83 69.69 179.07C72.04 169.31 85.49 162.94 99.78 164.85Z" stroke="#988904" stroke-miterlimit="10"/>
<path d="M96.1 173.89C94.865 174.544 93.846 175.542 93.1662 176.763C92.4865 177.984 92.1752 179.376 92.27 180.77C89.37 181.177 86.4767 181.597 83.59 182.03C83.5713 181.441 83.6352 180.852 83.78 180.28C84.23 178.53 80.56 178.28 80.11 179.97C79.9084 180.826 79.8812 181.713 80.03 182.58L75.24 183.33C72.93 183.7 73.48 186.44 75.81 186.06L80.89 185.27C81.9191 187.431 83.674 189.162 85.8486 190.162C88.0233 191.161 90.4799 191.366 92.79 190.74C96.9 189.66 96.71 186.56 96.32 183.85C96.32 183.58 96.24 183.31 96.19 183.04C98.9433 182.667 101.703 182.307 104.47 181.96C104.402 183.197 104.204 184.424 103.88 185.62C103.41 187.37 107.08 187.62 107.55 185.93C107.944 184.49 108.139 183.003 108.13 181.51L110.99 181.16C113.34 180.89 112.77 178.16 110.42 178.43L107.77 178.75C107.379 177.21 106.544 175.82 105.37 174.75C104.084 173.704 102.516 173.063 100.866 172.91C99.2152 172.757 97.5563 173.098 96.1 173.89ZM92.87 185.53C91.87 188.11 89.34 188.69 86.73 187.09C85.7576 186.515 84.9432 185.708 84.36 184.74C87.1333 184.32 89.91 183.917 92.69 183.53C92.9097 184.173 92.9714 184.859 92.87 185.53ZM102.52 176.47C103.394 177.148 103.997 178.116 104.22 179.2C101.46 179.547 98.7033 179.907 95.95 180.28C95.954 180.029 95.974 179.779 96.01 179.53C96.37 177.39 99 174 102.52 176.47Z" fill="#F7931E"/>
<path d="M158.66 25.1401L135.66 35.4501L144.84 40.7501L120.84 90.1701L93.48 80.7601L74.52 128C78.18 130.19 81.89 132.29 85.52 134.54L100.58 96.3101L127.47 104.83L154.05 45.8301L164.48 52.1101L158.66 25.1401Z" fill="#353C7E"/>
<path d="M179.27 158.33L185.55 155.85L183.62 145.72L177.76 144.48L179.27 158.33Z" fill="#212836"/>
<path d="M271.22 65.8999C271.22 65.8999 274.55 67.0899 274.92 67.0899C275.29 67.0899 281.15 67.0199 280.77 70.4599C280.39 73.8999 271.22 72.9999 271.22 72.9999L267 68.5699" fill="#EA831C"/>
<path d="M283 70.0598L278.31 68.4998C278.31 68.4998 272.61 67.2698 272.05 68.4998C271.49 69.7298 273.05 73.7998 273.62 73.9298L277.94 74.9298L282.2 75.4198" fill="#F7931E"/>
<path d="M246 115.7C246 115.7 216.92 134.8 214.07 135.07C211.22 135.34 182.54 146.54 182.54 146.54C182.54 146.54 183.96 153.76 183.2 157.08C183.2 157.08 235.6 143.88 242.2 141.63C248.8 139.38 263.96 124.37 260.09 120.33C256.22 116.29 246 115.7 246 115.7Z" fill="#417BB1"/>
<path d="M262.82 85.5998C260.44 83.3498 256.47 73.2998 257.44 70.9798C258.41 68.6598 264.82 72.4998 264.82 72.4998L271.23 65.9098C271.23 65.9098 262.3 58.5598 258.03 57.3798C253.76 56.1998 250.46 57.5798 249.1 62.7098C247.74 67.8398 252.21 85.8898 251.64 89.7098C251.07 93.5298 246 115.71 246 115.71C250.08 122.71 266.77 126.39 269.1 125.8C271.43 125.21 283.27 98.7398 283.27 98.7398C283.27 98.7398 305.4 84.3198 302.49 77.5998C299.58 70.8798 286.75 68.9998 284.13 68.6798C281.51 68.3598 279.52 76.8398 279.52 76.8398C279.52 76.8398 287.91 79.1998 288.69 80.2798C289.47 81.3598 285.78 84.1098 278.79 85.6198C271.8 87.1298 270.25 86.2898 270.25 86.2898" fill="#1323AC"/>
<path d="M179.27 158.33C179.27 158.33 179.81 153.54 180.19 151.33C180.57 149.12 181.96 136.86 176.4 137.28C170.84 137.7 174.4 149.63 174.19 150.95C173.98 152.27 173.45 156 174.27 157.16C175.09 158.32 177.48 159.58 179.27 158.33Z" fill="#212836"/>
<path d="M172.28 148.82C172.28 148.82 170.28 150.19 168.91 148.56C167.54 146.93 166.78 133.61 165.77 130.95C164.76 128.29 164.65 123.57 167.9 123.26C171.15 122.95 171.61 124.55 172.28 126.69C172.95 128.83 175.57 135.45 178.01 136.29C180.039 136.934 182.102 137.465 184.19 137.88L183.63 145.72L172.28 148.82Z" fill="#33394F"/>
<path d="M265.25 89.1602C265.25 89.1602 259.54 115 259.3 115.7C259.06 116.4 253.88 119.41 253.88 119.41L252.73 114.76L263.66 88.6802L265.25 89.1602Z" fill="#091114"/>
<path d="M272.8 86.49C272.8 86.49 265.34 92.94 265.67 92.49C266 92.04 264.08 89.49 264.08 89.49L260.73 90.49L264.56 83.79" fill="#091114"/>
<path d="M261 74.4799C261 74.4799 258.18 84.9199 262.84 87.2099C267.5 89.4999 270.77 86.0899 272.19 82.9699C273.61 79.8499 273 72.5599 267 71.8099C261.75 71.1599 261 74.4799 261 74.4799Z" fill="#F7931E"/>
<path d="M259.72 72.6C259.525 72.8461 259.395 73.1368 259.341 73.4458C259.286 73.7549 259.31 74.0726 259.409 74.3703C259.508 74.6679 259.68 74.9362 259.909 75.1509C260.138 75.3656 260.417 75.52 260.72 75.6C261.106 75.6949 261.508 75.7028 261.897 75.6232C262.286 75.5437 262.652 75.3786 262.97 75.14C263.73 74.6 264.41 73.71 265.46 74.14C265.748 74.2592 265.991 74.4645 266.158 74.7277C266.324 74.9908 266.405 75.299 266.39 75.61C266.286 76.0151 266.236 76.4319 266.24 76.85C266.322 77.1426 266.506 77.3957 266.76 77.563C267.013 77.7302 267.319 77.8002 267.62 77.76C268.62 77.76 269.4 77.3 270.26 78.07C270.582 78.3708 270.793 78.7723 270.856 79.2086C270.92 79.6448 270.833 80.0897 270.61 80.47C270.454 80.636 270.32 80.8208 270.21 81.02C270.05 81.3 270.37 81.51 270.62 81.43C270.689 81.4167 270.752 81.3817 270.8 81.33C270.934 81.1835 271.052 81.0225 271.15 80.85C271.244 80.7599 271.359 80.6944 271.485 80.6595C271.61 80.6246 271.743 80.6214 271.87 80.65C272.54 80.83 272.26 81.53 271.87 81.89C271.595 82.1742 271.257 82.3908 270.884 82.5226C270.511 82.6545 270.113 82.6981 269.72 82.65C269.652 82.6428 269.584 82.6566 269.524 82.6897C269.465 82.7228 269.417 82.7735 269.388 82.8348C269.358 82.8962 269.348 82.9652 269.359 83.0323C269.37 83.0995 269.402 83.1616 269.45 83.21C269.414 83.2446 269.388 83.2871 269.372 83.3341C269.356 83.3811 269.352 83.4311 269.36 83.48C269.46 84.1637 269.349 84.8617 269.04 85.48C269.014 85.5192 268.997 85.5631 268.988 85.6092C268.98 85.6553 268.981 85.7026 268.991 85.7483C269.002 85.794 269.021 85.8371 269.048 85.8752C269.075 85.9133 269.11 85.9456 269.15 85.97C269.144 86.0149 269.15 86.0605 269.167 86.1026C269.184 86.1446 269.211 86.1818 269.246 86.2107C269.281 86.2396 269.322 86.2592 269.367 86.2678C269.411 86.2765 269.457 86.2738 269.5 86.26C270.717 85.9359 271.849 85.3526 272.82 84.55C275.069 82.5209 276.62 79.833 277.25 76.87C277.88 74.01 277.09 69.81 273.43 69.75C273.281 69.761 273.132 69.7441 272.99 69.7C272.886 69.65 272.791 69.5824 272.71 69.5C271.798 68.6978 270.699 68.1396 269.513 67.8773C268.327 67.615 267.095 67.6572 265.93 68C265.277 68.152 264.666 68.4456 264.14 68.86C263.699 68.458 263.154 68.1877 262.567 68.0799C261.98 67.9721 261.375 68.031 260.82 68.25C259.34 68.96 259.55 71.25 260.04 72.51C259.984 72.4943 259.924 72.4943 259.867 72.5102C259.811 72.5261 259.76 72.5571 259.72 72.6ZM265.54 73.47H265.64H265.7C265.759 73.5144 265.822 73.5513 265.89 73.58C266.095 73.662 266.268 73.8097 266.38 74C266.147 73.7651 265.863 73.5872 265.55 73.48L265.54 73.47ZM260.4 71.4C260.436 71.5159 260.48 71.6294 260.53 71.74C260.45 71.65 260.43 71.53 260.4 71.4Z" fill="#935542"/>
<path d="M269.09 125.79C269.09 125.79 264.29 140.79 254.72 143.91C245.15 147.03 237.43 141 233 142.42C228.57 143.84 192.08 148.31 182.57 146.54C182.57 146.54 180.96 136.22 183.23 134.06C185.5 131.9 225.35 123.77 229.23 123.22C233.11 122.67 250.48 120 250.48 120" fill="#7AB3D3"/>
<path d="M65.0999 175.5C64.454 170.972 64.9243 166.355 66.47 162.05C69.04 155.05 80.25 173.72 80.25 173.72" fill="#F2AE16"/>
<path d="M99.6999 154C116 156.18 127.06 167 124.4 178.13C121.74 189.26 106.4 196.54 90.0599 194.36C73.7199 192.18 62.7 181.36 65.36 170.23C68.02 159.1 83.3999 151.86 99.6999 154Z" fill="#CCB800"/>
<path d="M100.2 147.77C116.5 149.95 127.56 160.77 124.9 171.9C122.24 183.03 106.9 190.31 90.5599 188.13C74.2199 185.95 63.2 175.13 65.86 164C68.52 152.87 83.8999 145.59 100.2 147.77Z" fill="#FFE608"/>
<path d="M99.6 150.27C113.89 152.18 123.6 161.65 121.25 171.41C118.9 181.17 105.45 187.54 91.16 185.63C76.87 183.72 67.16 174.25 69.51 164.49C71.86 154.73 85.32 148.35 99.6 150.27Z" stroke="#988904" stroke-miterlimit="10"/>
<path d="M95.9199 159.3C94.6849 159.954 93.6659 160.952 92.9862 162.173C92.3064 163.394 91.9951 164.786 92.0899 166.18C89.1899 166.587 86.2966 167.007 83.41 167.44C83.3912 166.851 83.4552 166.262 83.5999 165.69C84.0499 163.94 80.3799 163.69 79.9299 165.38C79.7284 166.236 79.7012 167.124 79.8499 167.99L75.0599 168.74C72.7499 169.11 73.2999 171.85 75.6299 171.47L80.7099 170.68C81.739 172.841 83.4939 174.572 85.6686 175.572C87.8433 176.572 90.2998 176.776 92.6099 176.15C96.7199 175.07 96.5299 171.97 96.1399 169.26C96.1399 168.99 96.0599 168.72 96.01 168.45C98.7633 168.077 101.523 167.717 104.29 167.37C104.222 168.608 104.024 169.834 103.7 171.03C103.23 172.78 106.9 173.03 107.37 171.34C107.764 169.9 107.959 168.413 107.95 166.92L110.81 166.57C113.16 166.3 112.59 163.57 110.24 163.84L107.59 164.16C107.199 162.621 106.364 161.23 105.19 160.16C103.904 159.114 102.336 158.474 100.686 158.32C99.0351 158.167 97.3763 158.508 95.9199 159.3ZM92.69 170.94C91.69 173.52 89.16 174.1 86.55 172.5C85.5775 171.925 84.7631 171.118 84.1799 170.15C86.9533 169.73 89.7299 169.327 92.51 168.94C92.7296 169.583 92.7914 170.269 92.69 170.94ZM102.34 161.88C103.214 162.558 103.817 163.527 104.04 164.61C101.28 164.957 98.5233 165.317 95.7699 165.69C95.7739 165.439 95.794 165.189 95.83 164.94C96.19 162.8 98.8799 159.37 102.34 161.88Z" fill="#F7931E"/>
<path d="M63 163C62.354 158.472 62.8243 153.855 64.37 149.55C66.94 142.55 78.15 161.22 78.15 161.22" fill="#F2AE16"/>
<path d="M97.6 141.54C113.9 143.72 124.96 154.54 122.3 165.67C119.64 176.8 104.3 184.08 87.96 181.9C71.62 179.72 60.6 168.9 63.26 157.77C65.92 146.64 81.3 139.36 97.6 141.54Z" fill="#CCB800"/>
<path d="M98.1 135.28C114.4 137.46 125.46 148.28 122.8 159.41C120.14 170.54 104.8 177.82 88.46 175.64C72.12 173.46 61.1 162.64 63.76 151.51C66.42 140.38 81.8 133.09 98.1 135.28Z" fill="#FFE608"/>
<path d="M97.5 137.77C111.79 139.68 121.5 149.15 119.15 158.91C116.8 168.67 103.34 175 89.06 173.13C74.78 171.26 65.06 161.75 67.41 151.99C69.76 142.23 83.22 135.86 97.5 137.77Z" stroke="#988904" stroke-miterlimit="10"/>
<path d="M93.82 146.81C92.5868 147.465 91.5698 148.464 90.8919 149.685C90.2141 150.905 89.9043 152.297 90 153.69C87.1 154.096 84.2066 154.516 81.32 154.95C81.3012 154.36 81.3652 153.771 81.51 153.2C81.96 151.45 78.29 151.2 77.84 152.89C77.6384 153.746 77.6112 154.633 77.76 155.5L72.97 156.25C70.66 156.62 71.21 159.36 73.54 158.98L78.62 158.19C79.6491 160.351 81.4039 162.082 83.5786 163.081C85.7533 164.081 88.2099 164.286 90.52 163.66C94.63 162.58 94.44 159.48 94.05 156.77C94.05 156.5 93.97 156.23 93.92 155.96C96.6733 155.586 99.4333 155.226 102.2 154.88C102.132 156.117 101.934 157.344 101.61 158.54C101.14 160.29 104.81 160.54 105.28 158.85C105.674 157.41 105.869 155.923 105.86 154.43L108.72 154.08C111.07 153.81 110.5 151.08 108.15 151.35L105.5 151.67C105.109 150.13 104.274 148.739 103.1 147.67C101.813 146.621 100.244 145.98 98.5909 145.827C96.9383 145.674 95.2774 146.016 93.82 146.81ZM90.59 158.45C89.59 161.03 87.06 161.61 84.45 160.01C83.4775 159.435 82.6632 158.627 82.08 157.66C84.8533 157.24 87.63 156.836 90.41 156.45C90.628 157.089 90.6898 157.772 90.59 158.44V158.45ZM100.24 149.39C101.114 150.068 101.717 151.036 101.94 152.12C99.18 152.466 96.4233 152.826 93.67 153.2C93.6739 152.949 93.694 152.698 93.73 152.45C94.09 150.3 96.78 146.87 100.24 149.38V149.39Z" fill="#988904"/>
<path d="M119.15 138.42C119.15 138.42 119.64 146.02 113.73 146.49C113.73 146.49 118.73 148.57 119.57 152.55C119.57 152.55 120.19 146.99 125.27 146.42C123.471 146.021 121.87 145 120.75 143.536C119.631 142.073 119.064 140.261 119.15 138.42Z" fill="white"/>
<path d="M325 120.77C315.83 126.7 306.61 132.54 297.38 138.37L269.62 155.74L241.74 172.92L227.74 181.44L213.74 189.87L227.51 181L241.35 172.24L269.11 154.87L297 137.72C306.31 132 315.64 126.35 325 120.77Z" fill="#009245"/>
<path d="M325 126.48C315.83 132.41 306.61 138.25 297.38 144.08L269.62 161.45L241.74 178.63L227.74 187.15L213.74 195.58L227.52 186.73L241.37 178L269.13 160.63L297 143.42C306.34 137.73 315.66 132.06 325 126.48Z" fill="#009245"/>
<path d="M326.12 132.83C316.95 138.76 307.73 144.6 298.5 150.43L270.74 167.8L242.86 185L228.86 193.52L214.86 201.95L228.64 193.1L242.48 184.34L270.21 167L298.1 149.82C307.41 144.09 316.74 138.42 326.12 132.83Z" fill="#009245"/>
<path d="M326.12 140.52C316.95 146.45 307.73 152.29 298.5 158.12L270.74 175.5L242.86 192.68L228.86 201.2L214.86 209.63L228.64 200.78L242.45 192L270.21 174.63L298.1 157.45C307.41 151.78 316.74 146.11 326.12 140.52Z" fill="#009245"/>
<path d="M325 149.11C315.83 155.04 306.61 160.88 297.38 166.71L269.62 184.08L241.74 201.26L227.74 209.78L213.74 218.21L227.52 209.36L241.36 200.6L269.12 183.23L297 166.06C306.32 160.37 315.65 154.69 325 149.11Z" fill="#009245"/>
<path d="M325.06 154.82C315.89 160.75 306.67 166.59 297.44 172.42L269.68 189.79L241.79 207L227.79 215.52L213.79 223.95L227.57 215.1L241.41 206.34L269.17 188.97L297 171.77C306.35 166.08 315.68 160.4 325.06 154.82Z" fill="#009245"/>
<path d="M151.64 154.91C156.74 157.53 161.79 160.25 166.83 162.98C171.87 165.71 176.83 168.51 181.89 171.28C186.95 174.05 191.89 176.91 196.84 179.78L204.27 184.1C206.73 185.57 209.21 187.01 211.65 188.51C209.09 187.21 206.57 185.85 204.03 184.51L196.46 180.43C191.46 177.7 186.46 174.9 181.4 172.13C176.34 169.36 171.4 166.5 166.45 163.63C161.5 160.76 156.54 157.89 151.64 154.91Z" fill="#009245"/>
<path d="M151.64 161.72C156.74 164.34 161.79 167.06 166.83 169.79C171.87 172.52 176.83 175.32 181.89 178.09C186.95 180.86 191.89 183.72 196.84 186.59L204.27 190.91C206.73 192.38 209.21 193.82 211.65 195.32C209.09 194.02 206.57 192.66 204.03 191.32L196.46 187.24C191.46 184.51 186.46 181.71 181.4 178.94C176.34 176.17 171.4 173.31 166.45 170.44C161.5 167.57 156.54 164.7 151.64 161.72Z" fill="#009245"/>
<path d="M152.52 169.16C157.62 171.78 162.67 174.5 167.71 177.23C172.75 179.96 177.71 182.76 182.77 185.53C187.83 188.3 192.77 191.16 197.72 194.03L205.15 198.35C207.61 199.82 210.09 201.26 212.53 202.76C209.97 201.46 207.45 200.1 204.91 198.76L197.34 194.68C192.34 191.95 187.34 189.15 182.28 186.38C177.22 183.61 172.28 180.75 167.33 177.88C162.38 175.01 157.42 172.14 152.52 169.16Z" fill="#009245"/>
<path d="M152.52 176C157.62 178.62 162.67 181.34 167.71 184.07C172.75 186.8 177.71 189.6 182.77 192.37C187.83 195.14 192.77 198 197.72 200.87L205.15 205.19C207.61 206.66 210.09 208.1 212.53 209.6C209.97 208.3 207.45 206.94 204.91 205.6L197.34 201.52C192.34 198.79 187.34 195.99 182.28 193.22C177.22 190.45 172.28 187.59 167.33 184.72C162.38 181.85 157.42 178.95 152.52 176Z" fill="#009245"/>
<path d="M152.18 180.93C157.28 183.55 162.33 186.27 167.37 189C172.41 191.73 177.37 194.53 182.43 197.3C187.49 200.07 192.43 202.93 197.38 205.8L204.81 210.12C207.27 211.59 209.75 213.03 212.19 214.53C209.63 213.23 207.11 211.87 204.57 210.53L197 206.47C192 203.74 187 200.94 181.94 198.17C176.88 195.4 171.94 192.54 166.99 189.67C162.04 186.8 157.09 183.91 152.18 180.93Z" fill="#009245"/>
<path d="M152.18 187.74C157.28 190.36 162.33 193.08 167.37 195.81C172.41 198.54 177.37 201.34 182.43 204.11C187.49 206.88 192.43 209.74 197.38 212.61L204.81 216.93C207.27 218.4 209.75 219.84 212.19 221.34C209.63 220.04 207.11 218.68 204.57 217.34L197 213.27C192 210.54 187 207.74 181.94 204.97C176.88 202.2 171.94 199.34 166.99 196.47C162.04 193.6 157.09 190.72 152.18 187.74Z" fill="#009245"/>
<defs>
<linearGradient id="paint0_linear" x1="219.506" y1="68.7456" x2="225" y2="97.5" gradientUnits="userSpaceOnUse">
<stop stop-color="#FFF500"/>
<stop offset="1" stop-color="#707A00"/>
</linearGradient>
</defs>
</svg>
