<svg width="1603" height="1037" viewBox="0 0 1603 1037" fill="none" xmlns="http://www.w3.org/2000/svg">
<path d="M148.424 14.4059L151.122 19.5455L148.357 20.564C147.926 20.698 147.517 20.9145 147.165 21.1957C146.813 21.477 146.528 21.8152 146.332 22.1828C146.142 22.5978 146.057 23.0274 146.084 23.4387C146.111 23.8499 146.248 24.232 146.486 24.5556L150.176 31.5271C150.566 32.2315 150.821 33.003 150.934 33.8171C151.039 34.3891 150.989 34.9996 150.787 35.6039C150.626 36.0305 150.411 36.4486 150.146 36.8497C149.981 37.1282 149.752 37.3824 149.476 37.5934L149.184 37.8522L149.641 37.8238C150.016 37.8329 150.385 37.8674 150.743 37.9269C151.3 38.0084 151.828 38.157 152.312 38.3689C152.903 38.6711 153.434 39.0436 153.894 39.4782C154.542 40.0631 155.071 40.745 155.462 41.5027L159.163 48.514C159.509 49.2847 160.19 49.8658 161.083 50.1514C161.935 50.4166 162.932 50.3733 163.884 50.0299L166.694 49.0208L169.307 54.2364L165.1 55.7287C162.457 56.7625 159.65 56.9578 157.229 56.2763C154.769 55.4525 152.882 53.8434 151.887 51.7212L148.135 44.278C147.773 43.4655 147.055 42.8535 146.114 42.5545C145.174 42.2887 144.084 42.3599 143.055 42.7544L140.523 37.9952C140.996 37.8606 141.447 37.636 141.841 37.3393C142.235 37.0426 142.561 36.6818 142.792 36.2856C142.987 35.8677 143.077 35.4344 143.056 35.0182C143.036 34.6021 142.904 34.2137 142.672 33.8823L138.785 26.5334C138.182 25.6555 137.832 24.6354 137.76 23.5426C137.688 22.4499 137.895 21.3103 138.368 20.2017C138.971 19.1862 139.816 18.2641 140.835 17.5094C141.855 16.7546 143.02 16.1882 144.238 15.8554L148.424 14.4059Z" fill="#FFCF25" fill-opacity="0.11"/>
<path d="M185.282 1.25832C187.925 0.2245 190.732 0.0292295 193.154 0.710685C195.61 1.5286 197.493 3.13429 198.48 5.25348L202.216 12.7119C202.578 13.5244 203.295 14.1364 204.237 14.4354C205.178 14.6975 206.266 14.6264 207.296 14.2355L209.828 18.9948C209.36 19.13 208.913 19.3516 208.52 19.6428C208.128 19.9341 207.8 20.2875 207.561 20.6768C207.366 21.0963 207.275 21.531 207.292 21.9493C207.31 22.3676 207.437 22.759 207.664 23.0953L211.554 30.4167C212.162 31.2948 212.516 32.3165 212.59 33.4116C212.665 34.5067 212.459 35.6492 211.986 36.7607C211.382 37.7763 210.537 38.6984 209.518 39.4531C208.499 40.2079 207.333 40.7744 206.116 41.1071L201.909 42.5994L199.297 37.3837L202.091 36.3898C202.522 36.2582 202.932 36.0459 203.289 35.7695C203.645 35.493 203.938 35.1598 204.146 34.7956C204.329 34.4001 204.416 33.9905 204.402 33.5958C204.387 33.2012 204.27 32.8311 204.06 32.5118L200.359 25.5004C199.964 24.7924 199.704 24.0167 199.586 23.1981C199.482 22.6301 199.537 22.0228 199.748 21.4236C199.929 21.01 200.142 20.6028 200.386 20.2054C200.548 19.9095 200.791 19.6421 201.09 19.4312L201.348 19.2029L200.905 19.2436C200.532 19.2274 200.164 19.1929 199.803 19.1405C199.236 19.0655 198.702 18.9123 198.22 18.6862C197.63 18.3828 197.099 18.0104 196.639 17.5769C195.991 16.9912 195.463 16.3094 195.071 15.5524L191.381 8.58091C191.02 7.80547 190.331 7.21798 189.432 6.91891C188.57 6.60634 187.536 6.6234 186.545 6.96656L183.751 7.96043L181.053 2.82089L185.282 1.25832Z" fill="#FFCF25" fill-opacity="0.11"/>
<path d="M182.976 13.3653L179.736 26.8268L194.731 34.3259L186.545 37.235L177.117 32.6607L174.753 41.4311L166.598 44.3373L170.169 30.2314L155.932 22.99L164.411 19.9721L172.768 24.4403L174.515 16.368L182.976 13.3653Z" fill="#FFCF25" fill-opacity="0.11"/>
<path d="M1322.8 238.552L1320.29 247.986L1314.68 246.324C1313.84 246.033 1312.92 245.871 1312.01 245.853C1311.1 245.834 1310.22 245.959 1309.44 246.217C1308.6 246.542 1307.91 246.999 1307.42 247.551C1306.93 248.104 1306.64 248.738 1306.59 249.405L1303.23 262.234C1302.92 263.548 1302.31 264.804 1301.42 265.962C1300.84 266.803 1299.97 267.526 1298.87 268.08C1298.06 268.451 1297.19 268.753 1296.25 268.98C1295.64 269.158 1294.95 269.237 1294.25 269.21L1293.46 269.227L1294.2 269.68C1294.77 270.094 1295.3 270.532 1295.78 270.991C1296.53 271.691 1297.16 272.446 1297.63 273.234C1298.15 274.251 1298.49 275.294 1298.64 276.34C1298.88 277.779 1298.81 279.213 1298.43 280.597L1295.04 293.489C1294.57 294.84 1294.87 296.31 1295.88 297.63C1296.85 298.879 1298.45 299.892 1300.37 300.473L1306.04 302.197L1303.29 311.636L1294.84 309.033C1289.4 307.52 1284.8 304.764 1281.94 301.304C1279.2 297.621 1278.37 293.552 1279.59 289.785L1283.47 276.288C1283.97 274.866 1283.65 273.318 1282.59 271.93C1281.48 270.584 1279.7 269.509 1277.59 268.909L1279.86 260.137C1280.77 260.472 1281.76 260.67 1282.76 260.713C1283.75 260.757 1284.73 260.646 1285.6 260.39C1286.45 260.066 1287.15 259.61 1287.66 259.058C1288.17 258.506 1288.47 257.871 1288.54 257.2L1292.09 243.679C1292.3 241.915 1293.08 240.242 1294.39 238.773C1295.71 237.304 1297.51 236.074 1299.68 235.169C1301.94 234.521 1304.45 234.251 1307.01 234.381C1309.57 234.511 1312.11 235.037 1314.43 235.917L1322.8 238.552Z" fill="#FFCF25" fill-opacity="0.11"/>
<path d="M1396.99 261.265C1402.42 262.778 1407.03 265.534 1409.89 268.994C1412.63 272.665 1413.45 276.726 1412.22 280.482L1408.3 293.98C1407.8 295.402 1408.12 296.95 1409.19 298.338C1410.3 299.68 1412.08 300.754 1414.18 301.358L1411.91 310.131C1411.01 309.802 1410.03 309.606 1409.04 309.556C1408.05 309.507 1407.09 309.606 1406.21 309.846C1405.36 310.172 1404.65 310.627 1404.14 311.179C1403.62 311.731 1403.31 312.365 1403.22 313.037L1399.72 326.525C1399.52 328.295 1398.73 329.975 1397.42 331.449C1396.11 332.924 1394.31 334.158 1392.13 335.067C1389.87 335.715 1387.36 335.985 1384.8 335.855C1382.24 335.725 1379.7 335.199 1377.38 334.319L1368.93 331.717L1371.67 322.277L1377.29 324.002C1378.13 324.297 1379.04 324.465 1379.95 324.495C1380.86 324.524 1381.75 324.413 1382.55 324.172C1383.34 323.864 1384.01 323.436 1384.5 322.918C1384.99 322.399 1385.3 321.803 1385.39 321.172L1388.78 308.279C1389.09 306.955 1389.7 305.689 1390.58 304.52C1391.16 303.685 1392.03 302.971 1393.14 302.433C1393.96 302.1 1394.82 301.81 1395.71 301.565C1396.35 301.361 1397.07 301.281 1397.81 301.333L1398.51 301.318L1397.77 300.896C1397.21 300.476 1396.69 300.038 1396.2 299.585C1395.42 298.882 1394.79 298.115 1394.34 297.311C1393.82 296.293 1393.48 295.251 1393.33 294.205C1393.09 292.766 1393.16 291.332 1393.54 289.949L1396.9 277.119C1397.35 275.745 1397.05 274.26 1396.04 272.916C1395.12 271.596 1393.49 270.511 1391.51 269.886L1385.89 268.161L1388.4 258.727L1396.99 261.265Z" fill="#FFCF25" fill-opacity="0.11"/>
<path d="M1377.66 274.215L1355.12 287.892L1368.58 313.494L1352.12 308.436L1343.47 292.518L1328.39 301.157L1311.98 296.129L1335.87 281.986L1323.25 257.522L1340.31 262.755L1347.44 277.393L1360.65 268.981L1377.66 274.215Z" fill="#FFCF25" fill-opacity="0.11"/>
<path d="M9.56185 990.211L12.6002 995.797L10.2005 997.05C9.82312 997.218 9.47618 997.476 9.18789 997.804C8.8996 998.132 8.67809 998.52 8.54131 998.936C8.41591 999.405 8.38768 999.886 8.45878 1000.34C8.52987 1000.8 8.69842 1001.21 8.95149 1001.56L13.1003 1009.14C13.5349 1009.9 13.8549 1010.75 14.0502 1011.65C14.2108 1012.28 14.2344 1012.96 14.1193 1013.64C14.021 1014.12 13.8726 1014.59 13.6773 1015.05C13.5588 1015.37 13.3794 1015.66 13.1526 1015.9L12.9162 1016.2L13.3288 1016.15C13.6712 1016.15 14.0103 1016.17 14.3431 1016.22C14.8591 1016.28 15.3561 1016.43 15.8211 1016.64C16.3926 1016.95 16.918 1017.34 17.3855 1017.8C18.0423 1018.42 18.6003 1019.16 19.0419 1019.98L23.2059 1027.6C23.6078 1028.44 24.2936 1029.05 25.1386 1029.33C25.9436 1029.59 26.8463 1029.5 27.6727 1029.07L30.1154 1027.83L33.0842 1033.5L29.4268 1035.34C27.1393 1036.61 24.6079 1036.95 22.3276 1036.3C19.9959 1035.49 18.0965 1033.79 16.9509 1031.48L12.6916 1023.38C12.2701 1022.5 11.5477 1021.85 10.6572 1021.56C9.77151 1021.31 8.78854 1021.43 7.89682 1021.92L5.05237 1016.74C5.46752 1016.57 5.85275 1016.31 6.1775 1015.96C6.50225 1015.61 6.75759 1015.2 6.9233 1014.75C7.05282 1014.27 7.0857 1013.79 7.01949 1013.33C6.95327 1012.87 6.78968 1012.44 6.54094 1012.08L2.16974 1004.1C1.52102 1003.15 1.08701 1002.03 0.897399 1000.82C0.707784 999.614 0.767032 998.34 1.07107 997.089C1.50447 995.935 2.1686 994.874 3.01027 993.991C3.85194 993.108 4.84771 992.428 5.91776 992.005L9.56185 990.211Z" fill="#FFCF25" fill-opacity="0.11"/>
<path d="M41.6012 973.99C43.8888 972.726 46.4202 972.385 48.7005 973.035C51.0283 973.834 52.9236 975.533 54.0627 977.842L58.3081 985.956C58.7295 986.842 59.452 987.49 60.3425 987.78C61.2289 988.03 62.2105 987.903 63.1029 987.423L65.9473 992.594C65.5367 992.765 65.1552 993.031 64.8311 993.372C64.5071 993.712 64.2488 994.119 64.0757 994.562C63.9463 995.036 63.9121 995.523 63.9759 995.986C64.0396 996.45 64.1996 996.878 64.4442 997.242L68.8147 1005.2C69.4679 1006.14 69.9056 1007.26 70.0977 1008.48C70.2899 1009.69 70.232 1010.97 69.9279 1012.22C69.4945 1013.37 68.8303 1014.43 67.9887 1015.32C67.147 1016.2 66.1512 1016.88 65.0812 1017.3L61.4238 1019.15L58.455 1013.47L60.8837 1012.24C61.2615 1012.08 61.6103 1011.83 61.9031 1011.5C62.1958 1011.18 62.4247 1010.8 62.572 1010.38C62.694 1009.94 62.727 1009.48 62.6688 1009.04C62.6106 1008.6 62.4625 1008.2 62.2351 1007.85L58.0711 1000.23C57.6319 999.465 57.307 998.616 57.1067 997.712C56.9475 997.086 56.9289 996.41 57.0522 995.736C57.1698 995.268 57.3177 994.807 57.4948 994.355C57.6084 994.019 57.7992 993.712 58.0473 993.465L58.2559 993.2L57.8578 993.265C57.5165 993.263 57.178 993.241 56.8436 993.199C56.319 993.141 55.8157 992.994 55.3511 992.764C54.7803 992.454 54.2551 992.064 53.7867 991.603C53.1307 990.981 52.5728 990.248 52.1302 989.425L47.9814 981.849C47.5648 981.004 46.8713 980.383 46.0196 980.09C45.2 979.781 44.2616 979.846 43.3983 980.271L40.9696 981.497L37.9312 975.911L41.6012 973.99Z" fill="#FFCF25" fill-opacity="0.11"/>
<path d="M40.8783 987.531L39.4594 1002.62L53.953 1010.28L46.836 1013.87L37.7391 1009.21L36.5843 1019.05L29.4958 1022.63L31.1423 1006.82L17.3672 999.408L24.7383 995.684L32.8493 1000.28L33.5212 991.237L40.8783 987.531Z" fill="#FFCF25" fill-opacity="0.11"/>
<path d="M1567.51 973L1565.49 979.212L1552.18 979.965L1561.76 990.727L1559.74 996.94L1544 978.862L1545.39 974.54L1567.51 973Z" fill="#FFCF25" fill-opacity="0.11"/>
<path d="M1586.73 981.382L1602.44 999.477L1601.05 1003.78L1578.95 1005.34L1580.97 999.11L1594.26 998.357L1584.71 987.612L1586.73 981.382Z" fill="#FFCF25" fill-opacity="0.11"/>
<path d="M1581.87 974.347L1585.95 976.115L1565.63 1004.45L1561.57 1002.66L1581.87 974.347Z" fill="#FFCF25" fill-opacity="0.11"/>
<path d="M795.908 553L799.161 563.008L780.714 576.839L805.206 581.549L808.459 591.557L767.82 583.312L765.536 576.362L795.908 553Z" fill="#FFCF25" fill-opacity="0.11"/>
<path d="M824.142 544.442L867.438 552.491L869.724 559.774L836.82 585L833.52 574.455L853.499 559.534L827.442 554.987L824.142 544.442Z" fill="#FFCF25" fill-opacity="0.11"/>
<path d="M808.695 540.916L815.177 540.781L827.583 599.899L821.098 599.994L808.695 540.916Z" fill="#FFCF25" fill-opacity="0.11"/>
<path d="M151.357 641.731C151.51 641.784 151.623 641.885 151.695 642.034C151.768 642.183 151.778 642.334 151.726 642.486L147.099 655.924C147.047 656.077 146.946 656.189 146.797 656.262C146.648 656.335 146.497 656.345 146.344 656.292L142.059 654.817C141.906 654.765 141.794 654.664 141.721 654.515C141.648 654.366 141.638 654.215 141.691 654.062L143.216 649.631L139.056 648.199L137.53 652.63C137.478 652.782 137.377 652.895 137.228 652.968C137.079 653.04 136.928 653.051 136.775 652.998L132.49 651.523C132.338 651.47 132.223 651.376 132.145 651.241C132.072 651.092 132.065 650.934 132.122 650.768L136.749 637.33C136.801 637.177 136.902 637.065 137.051 636.992C137.2 636.919 137.351 636.909 137.504 636.962L141.789 638.437C141.941 638.489 142.054 638.59 142.127 638.739C142.199 638.889 142.21 639.039 142.157 639.192L140.689 643.456L144.849 644.889L146.317 640.624C146.37 640.472 146.471 640.359 146.62 640.286C146.769 640.214 146.92 640.204 147.072 640.256L151.357 641.731Z" fill="#FFCF25" fill-opacity="0.11"/>
<path d="M169.488 647.974C169.641 648.026 169.754 648.127 169.826 648.276C169.899 648.425 169.909 648.576 169.857 648.729L168.704 652.078C168.651 652.23 168.55 652.343 168.401 652.416C168.252 652.489 168.101 652.499 167.949 652.446L163.476 650.906L160.196 660.433C160.144 660.586 160.043 660.699 159.894 660.771C159.744 660.844 159.594 660.854 159.441 660.802L155.156 659.326C155.003 659.274 154.891 659.173 154.818 659.024C154.745 658.875 154.735 658.724 154.788 658.571L158.068 649.044L153.595 647.504C153.443 647.452 153.33 647.351 153.257 647.202C153.185 647.053 153.175 646.902 153.227 646.749L154.38 643.4C154.433 643.248 154.534 643.135 154.683 643.062C154.832 642.99 154.983 642.98 155.135 643.032L169.488 647.974Z" fill="#FFCF25" fill-opacity="0.11"/>
<path d="M182.725 653.159C183.062 652.856 183.424 652.772 183.813 652.906L187.619 654.216C187.772 654.269 187.884 654.369 187.957 654.519C188.03 654.668 188.04 654.819 187.987 654.971L183.361 668.409C183.308 668.562 183.208 668.674 183.058 668.747C182.909 668.82 182.758 668.83 182.606 668.777L178.841 667.481C178.688 667.428 178.576 667.328 178.503 667.178C178.43 667.029 178.42 666.878 178.473 666.726L180.693 660.277L178.143 662.75C178.068 662.833 177.933 662.91 177.737 662.983C177.542 663.055 177.326 663.05 177.09 662.969L175.676 662.482C175.44 662.401 175.267 662.272 175.158 662.095C175.048 661.917 174.989 661.773 174.981 661.661L174.494 658.143L172.274 664.592C172.221 664.744 172.12 664.857 171.971 664.93C171.822 665.002 171.671 665.012 171.519 664.96L167.754 663.664C167.601 663.611 167.488 663.51 167.416 663.361C167.343 663.212 167.333 663.061 167.385 662.909L172.012 649.471C172.064 649.318 172.165 649.206 172.314 649.133C172.463 649.06 172.614 649.05 172.767 649.103L176.574 650.413C176.962 650.547 177.196 650.837 177.275 651.283L178.281 657.213L182.725 653.159Z" fill="#FFCF25" fill-opacity="0.11"/>
<path d="M201.311 670.447C201.463 670.5 201.576 670.601 201.648 670.75C201.721 670.899 201.731 671.05 201.679 671.202L200.597 674.343C200.545 674.496 200.444 674.609 200.295 674.681C200.146 674.754 199.995 674.764 199.842 674.712L187.694 670.529C187.542 670.477 187.429 670.376 187.356 670.227C187.283 670.077 187.273 669.927 187.326 669.774L191.952 656.336C192.005 656.184 192.106 656.071 192.255 655.998C192.404 655.926 192.555 655.915 192.707 655.968L197.201 657.515C197.353 657.567 197.466 657.668 197.539 657.817C197.611 657.967 197.621 658.117 197.569 658.27L194.217 668.005L201.311 670.447Z" fill="#FFCF25" fill-opacity="0.11"/>
</svg>
