<svg width="21" height="17" viewBox="0 0 21 17" fill="none" xmlns="http://www.w3.org/2000/svg">
<g clip-path="url(#clip0)">
<path d="M18.7698 0.137523L0.757794 6.95815C-0.227258 7.24365 -0.195868 8.21674 0.532084 8.45291L5.04479 9.86547L6.77274 15.1599C6.98201 15.7384 7.15391 15.9581 7.51265 15.9626C7.8714 15.9671 8.03283 15.8296 8.42446 15.4843C8.88336 15.0538 9.58141 14.3767 10.6831 13.3049L15.3781 16.7728C16.2421 17.2496 16.8729 17.003 17.0807 15.9701L20.0298 1.40509C20.3393 0.140512 19.5964 -0.236169 18.7698 0.137523ZM5.75331 9.53513L16.0149 3.09716C16.5201 2.75785 16.6786 3.13603 16.4514 3.39612L7.93418 11.0613L7.4977 14.8819L5.75331 9.53513Z" fill="#573E0D"/>
</g>
<defs>
<clipPath id="clip0">
<rect width="20.0987" height="17" fill="white"/>
</clipPath>
</defs>
</svg>
