<svg width="211" height="175" viewBox="0 0 211 175" fill="none" xmlns="http://www.w3.org/2000/svg">
<path d="M126.107 51.6112L209.308 99.5624C209.822 99.8587 210.249 100.285 210.546 100.799C210.844 101.313 211 101.897 211 102.49C211 103.084 210.844 103.667 210.546 104.181C210.249 104.695 209.822 105.122 209.308 105.418L91.9319 172.798C90.5315 173.601 88.9486 174.032 87.3342 174.05C85.7199 174.067 84.1279 173.671 82.7101 172.899L1.76463 128.816C1.23725 128.529 0.795798 128.107 0.485697 127.593C0.175596 127.079 0.00804466 126.491 0.000282528 125.891C-0.00747961 125.291 0.144827 124.699 0.441532 124.178C0.738238 123.656 1.16863 123.222 1.68842 122.922L127.251 50.2648" fill="#94D640"/>
<path d="M96.1618 103.856L115.12 110.969C115.12 110.969 115.914 111.484 115.406 112.716C115.114 113.421 113.545 114.437 113.545 114.437L97.178 123.964C96.2832 124.362 95.3319 124.62 94.358 124.726C93.0497 124.802 90.8586 123.741 90.8586 123.741L75.6158 114.913L96.1618 103.856Z" fill="#34323D"/>
<path d="M96.4349 102.973L114.548 110.378C114.548 110.378 115.819 111.071 115.482 112.011C115.12 112.709 114.555 113.283 113.862 113.656L97.4511 123.087C96.5564 123.486 95.605 123.743 94.6312 123.849C93.3228 123.925 91.1317 122.865 91.1317 122.865L76.6955 114.653L96.4349 102.973Z" fill="#03206C"/>
<path d="M53.5964 127.908C53.251 128.055 52.8674 128.086 52.5024 127.998C52.1375 127.91 51.8107 127.707 51.5704 127.419C51.5704 127.419 51.2147 127.349 51.2147 125.793V53.5737C51.234 52.949 51.3848 52.3354 51.6573 51.7729C51.9298 51.2104 52.3179 50.7116 52.7961 50.3092C54.5663 49.0697 56.4117 47.9413 58.3216 46.9304L138.562 0.605131L139.464 0.147848C139.768 -0.00305441 140.116 -0.0398965 140.444 0.0440236C140.773 0.127944 141.061 0.327051 141.255 0.605131C141.49 1.00528 141.625 1.45628 141.649 1.91982C141.68 2.67561 141.649 9.97308 141.649 9.97308V74.9453C141.649 75.5691 141.519 76.1861 141.268 76.7569C141.016 77.3277 140.648 77.8398 140.188 78.2607L53.5964 127.908Z" fill="#204BBE"/>
<path d="M52.6564 116.958V54.6471C52.6564 52.5766 52.9422 51.4207 54.5617 50.557L139.216 1.53243C139.383 1.40858 139.581 1.33357 139.787 1.31581C139.994 1.29804 140.202 1.33823 140.387 1.43186C140.573 1.52548 140.728 1.66886 140.837 1.84591C140.945 2.02297 141.002 2.2267 141.001 2.43429L140.791 66.5047L52.6564 116.958Z" fill="#112E7C"/>
<path d="M82.1765 83.6719L84.4058 79.7976C84.4214 79.7717 84.4406 79.7482 84.463 79.7278C84.4806 79.7051 84.5021 79.6857 84.5265 79.6706L85.7142 79.0355V78.4321C85.7121 78.4131 85.7121 78.394 85.7142 78.375C85.708 78.3206 85.7172 78.2655 85.7408 78.2161C85.7644 78.1667 85.8014 78.1249 85.8475 78.0955L86.959 77.4604C87.1432 77.3588 87.1432 77.7017 86.959 77.8034L85.9873 78.3432V78.9783C85.9858 79.0215 85.9749 79.0639 85.9551 79.1023C85.9353 79.1407 85.9073 79.1743 85.873 79.2006C85.8513 79.248 85.8159 79.2879 85.7713 79.3149L84.5646 79.9882L82.3671 83.7989C82.2464 84.0021 82.0495 83.9005 82.1765 83.6719Z" fill="#1A1F2B"/>
<path d="M82.5577 84.0339L88.0196 81.0171C88.2038 80.9155 88.1975 81.2585 88.0196 81.3601L82.5577 84.3705C82.3735 84.4785 82.3735 84.1355 82.5577 84.0339Z" fill="#1A1F2B"/>
<path d="M82.1702 85.2722L84.3673 86.701C84.3856 86.7084 84.4061 86.7084 84.4245 86.701C84.4452 86.7069 84.4672 86.7069 84.488 86.701L85.6691 86.066V86.6692C85.6661 86.686 85.6661 86.7032 85.6691 86.72C85.6691 86.8216 85.6691 86.9041 85.8024 86.847L86.9137 86.212C87.0978 86.1104 87.0978 85.7675 86.9137 85.8691L85.9485 86.3962V85.7612C85.9485 85.6659 85.8977 85.6469 85.8405 85.6659C85.7834 85.685 85.7834 85.6659 85.7389 85.6659L84.5324 86.3009L82.3671 84.8912C82.2464 84.8595 82.0432 85.2151 82.1702 85.2722Z" fill="#1A1F2B"/>
<path d="M76.485 87.0568L74.2498 85.6661C74.2315 85.6586 74.211 85.6586 74.1927 85.6661C74.1719 85.6604 74.15 85.6604 74.1292 85.6661L72.9417 86.3011V85.7105C72.9448 85.6937 72.9448 85.6765 72.9417 85.6597C72.9417 85.5581 72.9417 85.4756 72.8084 85.5327L71.6971 86.1677C71.513 86.2693 71.513 86.6059 71.6971 86.5043L72.6687 85.9645V86.5995C72.6687 86.6884 72.7195 86.7138 72.7766 86.6948C72.8338 86.6757 72.8338 86.6948 72.8782 86.6948L74.0847 86.0217L76.2628 87.3933C76.4152 87.4886 76.6184 87.1393 76.485 87.0568Z" fill="#1A1F2B"/>
<path d="M76.1049 87.8128L70.6429 90.8233C70.4587 90.9249 70.4587 91.2615 70.6429 91.1599L76.1049 88.1494C76.2891 88.0668 76.2891 87.7302 76.1049 87.8128Z" fill="#1A1F2B"/>
<path d="M76.4859 88.6638L74.2694 92.4745C74.2539 92.5005 74.2346 92.5241 74.2122 92.5444C74.1947 92.5672 74.1732 92.5865 74.1487 92.6015L72.9674 93.2367V93.8273C72.9696 93.8463 72.9696 93.8655 72.9674 93.8845C72.9738 93.938 72.9647 93.9923 72.941 94.0408C72.9174 94.0892 72.8802 94.1298 72.834 94.1576L71.7098 94.7991C71.5256 94.9007 71.5256 94.5641 71.7098 94.4624L72.6752 93.9353V93.3002C72.6764 93.2585 72.6866 93.2176 72.7053 93.1802C72.7239 93.1429 72.7505 93.1102 72.7832 93.0842C72.8059 93.0392 72.8412 93.0017 72.8848 92.9763L74.0915 92.3412L76.2763 88.5685C76.4161 88.3145 76.613 88.4479 76.4859 88.6638Z" fill="#1A1F2B"/>
<path d="M78.1815 79.5181C78.1815 79.4038 78.1815 79.3022 78.0545 79.3657L77.4195 79.7276V78.8767C77.4195 78.6608 77.1337 78.8196 77.1337 79.0355V80.0134C77.1337 80.1277 77.2099 80.134 77.2861 80.0896C77.301 80.0999 77.3188 80.1055 77.3369 80.1055C77.3551 80.1055 77.3728 80.0999 77.3877 80.0896L77.9275 79.7848V82.3819C77.9275 82.5978 78.2132 82.4391 78.2132 82.2232V79.5562C78.2049 79.5417 78.1941 79.5289 78.1815 79.5181Z" fill="#1A1F2B"/>
<path d="M77.6607 78.286C77.6528 78.4466 77.6065 78.603 77.5259 78.7422C77.4453 78.8813 77.3326 78.9992 77.1972 79.086C76.9432 79.2257 76.74 79.086 76.74 78.8003C76.7479 78.6397 76.7941 78.4832 76.8748 78.3441C76.9554 78.2049 77.0681 78.087 77.2035 78.0002C77.4258 77.8605 77.6607 77.9875 77.6607 78.286Z" fill="#1A1F2B"/>
<path d="M81.3128 77.7713C81.3018 77.7139 81.3087 77.6545 81.3326 77.6011C81.3564 77.5478 81.3961 77.503 81.4461 77.4729L82.0812 77.1109V76.2537C82.0812 76.0378 82.3669 75.8727 82.3669 76.0949V77.0792C82.3653 77.1302 82.3505 77.1798 82.3237 77.2233C82.297 77.2667 82.2593 77.3024 82.2145 77.3268C82.1918 77.3719 82.1565 77.4094 82.1129 77.4348L81.5731 77.7396V80.3494C81.5731 80.5653 81.2874 80.724 81.2874 80.5082V77.8539C81.2912 77.8251 81.2998 77.7972 81.3128 77.7713Z" fill="#1A1F2B"/>
<path d="M81.8717 75.936C81.8717 76.2344 82.0749 76.3678 82.3289 76.2217C82.4648 76.1339 82.5777 76.0149 82.6584 75.8747C82.739 75.7344 82.785 75.5769 82.7924 75.4153C82.7924 75.1105 82.5892 74.9835 82.3352 75.1295C82.1993 75.2173 82.0864 75.3363 82.0058 75.4766C81.9251 75.6169 81.8792 75.7744 81.8717 75.936Z" fill="#1A1F2B"/>
<path d="M83.7389 83.1193C83.7389 85.7932 81.9034 88.956 79.6678 90.1755C77.4322 91.3949 75.6285 90.239 75.6348 87.5905C75.7021 86.1751 76.1066 84.7962 76.8148 83.5688C77.5229 82.3414 78.5142 81.301 79.7059 80.5344C81.9542 79.2896 83.777 80.4455 83.7389 83.1193Z" fill="#F16866"/>
<path d="M83.2118 80.998C82.5195 79.9438 81.2112 79.7278 79.7123 80.5408C78.0902 81.5615 76.8527 83.0916 76.1938 84.8913L79.6171 82.9859V90.0484C79.6171 90.2644 79.9029 90.1119 79.9029 89.896V82.8272L83.2118 80.998Z" fill="#7C2828"/>
<path d="M81.9986 82.7954C82.2589 82.9605 82.2526 83.4621 81.9986 83.913C81.7446 84.3638 81.3191 84.5988 81.0587 84.4337C80.7984 84.2686 80.8047 83.7987 81.0587 83.3161C81.3128 82.8335 81.7446 82.6303 81.9986 82.7954Z" fill="#7C2828"/>
<path d="M82.4558 85.3993C82.7162 85.5644 82.7098 86.066 82.4558 86.5233C82.2018 86.9805 81.7764 87.2027 81.516 87.0376C81.2557 86.8725 81.262 86.3709 81.516 85.92C81.77 85.4691 82.1955 85.2342 82.4558 85.3993Z" fill="#7C2828"/>
<path d="M78.4038 84.7833C78.6641 84.9484 78.6578 85.4183 78.4038 85.9009C78.1498 86.3835 77.7243 86.5867 77.464 86.4216C77.2036 86.2565 77.21 85.7866 77.464 85.3104C77.718 84.8341 78.1434 84.6373 78.4038 84.7833Z" fill="#7C2828"/>
<path d="M78.0163 87.8128C78.2767 87.9779 78.2703 88.4478 78.0163 88.9304C77.7623 89.413 77.3369 89.6098 77.0766 89.4447C76.8162 89.2796 76.8226 88.8098 77.0766 88.3335C77.3306 87.8573 77.756 87.6795 78.0163 87.8128Z" fill="#7C2828"/>
<path opacity="0.39" d="M80.0553 80.3756C81.5923 80.9091 82.5196 82.5286 82.2338 85.0691C81.9903 86.7596 81.336 88.3645 80.3284 89.7435C81.3309 88.9452 82.1522 87.9428 82.738 86.803C83.3238 85.6632 83.6607 84.4119 83.7263 83.132C83.7771 80.5915 82.1321 79.4229 80.0553 80.3756Z" fill="#6B1A1A"/>
<path d="M107.187 45.9905L112.135 37.4037C112.169 37.3449 112.212 37.2914 112.262 37.2449C112.302 37.194 112.352 37.151 112.408 37.1179L115.037 35.6571V34.317C115.032 34.2727 115.032 34.228 115.037 34.1837C115.019 34.0602 115.038 33.9341 115.091 33.8211C115.144 33.7082 115.229 33.6134 115.336 33.5486L117.806 32.1767C118.213 31.9481 118.207 32.7102 117.806 32.9325L115.653 34.1265V35.5619C115.651 35.6567 115.628 35.7499 115.585 35.8345C115.542 35.9191 115.481 35.9931 115.406 36.0509C115.356 36.1541 115.276 36.2403 115.177 36.2986L112.497 37.7848L107.626 46.2763C107.34 46.778 106.895 46.4922 107.187 45.9905Z" fill="#1A1F2B"/>
<path d="M108.026 46.7907L120.137 40.103C120.544 39.8807 120.538 40.6365 120.137 40.8651L108.019 47.5402C107.613 47.7688 107.619 47.013 108.026 46.7907Z" fill="#1A1F2B"/>
<path d="M107.168 49.5852L112.04 52.7608C112.08 52.777 112.126 52.777 112.167 52.7608C112.218 52.7632 112.269 52.7499 112.313 52.7227L114.898 51.3127V52.6528C114.892 52.6886 114.892 52.725 114.898 52.7608C114.898 52.9894 114.961 53.1736 115.19 53.0466L117.648 51.7001C118.054 51.4779 118.061 50.7221 117.648 50.9444L115.533 52.113V50.6776C115.533 50.4744 115.418 50.4172 115.291 50.4617C115.164 50.5061 115.164 50.4109 115.063 50.4617L112.389 51.9288L107.594 48.804C107.327 48.6198 106.882 49.401 107.168 49.5852Z" fill="#1A1F2B"/>
<path d="M94.574 53.5166L89.6772 50.4299C89.6364 50.4137 89.591 50.4137 89.5502 50.4299C89.4988 50.4279 89.448 50.4412 89.4041 50.468L86.7747 51.9288V50.5633C86.781 50.5276 86.781 50.491 86.7747 50.4553C86.7747 50.233 86.7112 50.0488 86.4826 50.1759L84.012 51.5477C83.6055 51.7764 83.6055 52.5195 84.012 52.2908L86.165 51.0968V52.5068C86.165 52.71 86.2793 52.7545 86.4064 52.7164C86.5334 52.6782 86.5334 52.7672 86.635 52.7164L89.3152 51.2302L94.1421 54.2724C94.4025 54.4439 94.8471 53.669 94.574 53.5166Z" fill="#1A1F2B"/>
<path d="M93.7102 55.2124L81.5986 61.8938C81.1921 62.1161 81.1921 62.8592 81.5986 62.6369L93.7102 55.9618C94.1167 55.7395 94.1167 54.9901 93.7102 55.2124Z" fill="#1A1F2B"/>
<path d="M94.574 57.0605L89.6392 65.5838C89.605 65.6428 89.5622 65.6963 89.5122 65.7426C89.4712 65.7913 89.4217 65.8322 89.3661 65.8632L86.7431 67.2986V68.6133C86.7479 68.6555 86.7479 68.6981 86.7431 68.7403C86.7555 68.8581 86.7347 68.9771 86.6831 69.0837C86.6314 69.1903 86.551 69.2804 86.4509 69.3437L83.9676 70.6647C83.5611 70.887 83.5611 70.1439 83.9676 69.9216L86.1143 68.7467V67.3367C86.1175 67.2446 86.1408 67.1542 86.1825 67.072C86.2242 66.9897 86.2832 66.9175 86.3556 66.8604C86.4052 66.7567 86.4849 66.6704 86.5843 66.6127L89.2581 65.1456L94.104 56.7747C94.3962 56.273 94.8408 56.5588 94.574 57.0605Z" fill="#1A1F2B"/>
<path d="M98.3148 36.7749C98.372 36.5272 98.2767 36.2986 98.029 36.4383L96.5873 37.2449V35.3396C96.5873 34.8569 95.9522 35.2126 95.9522 35.6952V37.8673C95.9522 38.115 96.1237 38.1404 96.2825 38.0388C96.3152 38.0612 96.354 38.0732 96.3936 38.0732C96.4333 38.0732 96.472 38.0612 96.5048 38.0388L97.7051 37.3656V43.1324C97.7051 43.6151 98.3402 43.2658 98.3402 42.7831V36.921C98.3431 36.871 98.3344 36.821 98.3148 36.7749Z" fill="#1A1F2B"/>
<path d="M97.1585 34.0311C97.1419 34.3874 97.0405 34.7347 96.8626 35.0439C96.6848 35.3531 96.4358 35.6155 96.1362 35.8091C95.571 36.1266 95.1202 35.8409 95.1202 35.1741C95.1368 34.8178 95.2383 34.4706 95.4161 34.1613C95.5939 33.8521 95.8429 33.5897 96.1425 33.3961C96.7077 33.085 97.1585 33.3644 97.1585 34.0311Z" fill="#1A1F2B"/>
<path d="M105.263 32.888C105.244 32.7652 105.262 32.6395 105.314 32.5266C105.366 32.4137 105.45 32.3186 105.555 32.2529L106.997 31.4463V29.5409C106.997 29.0583 107.632 28.7026 107.632 29.1853V31.3701C107.629 31.4859 107.594 31.5985 107.531 31.6959C107.468 31.7933 107.38 31.8717 107.276 31.9226C107.226 32.0203 107.149 32.1018 107.054 32.1576L105.854 32.8308V38.6295C105.854 39.1121 105.219 39.4678 105.219 38.9788V33.0912C105.221 33.0214 105.236 32.9525 105.263 32.888Z" fill="#1A1F2B"/>
<path d="M106.444 28.8229C106.444 29.4897 106.895 29.7755 107.454 29.458C107.754 29.2629 108.003 28.9994 108.18 28.6891C108.358 28.3789 108.46 28.0308 108.476 27.6736C108.476 27.0068 108.025 26.7147 107.467 27.0386C107.167 27.234 106.919 27.4976 106.741 27.8078C106.563 28.118 106.462 28.4659 106.444 28.8229Z" fill="#1A1F2B"/>
<path d="M110.649 44.7584C110.611 50.6904 106.571 57.702 101.617 60.4076C96.6635 63.1132 92.6623 60.5537 92.675 54.6916C92.6877 48.8295 96.7334 41.8114 101.706 39.0423C106.679 36.2732 110.687 38.82 110.649 44.7584Z" fill="#F16866"/>
<path d="M109.474 40.0458C107.937 37.7086 105.028 37.1751 101.713 39.0296C98.3974 40.8841 95.4759 44.6377 93.9071 48.6834L101.528 44.4662L101.465 60.1345C101.465 60.6172 102.1 60.2742 102.1 59.7915L102.17 44.1169L109.474 40.0458Z" fill="#7C2828"/>
<path d="M106.793 44.0343C107.365 44.4026 107.358 45.5138 106.793 46.5171C106.228 47.5204 105.282 48.0348 104.71 47.6665C104.139 47.2982 104.145 46.1869 104.71 45.1836C105.275 44.1803 106.215 43.666 106.793 44.0343Z" fill="#7C2828"/>
<path d="M107.797 49.8138C108.368 50.1821 108.362 51.2997 107.797 52.303C107.231 53.3063 106.285 53.8143 105.714 53.446C105.142 53.0777 105.149 51.9665 105.714 50.9632C106.279 49.9599 107.225 49.4455 107.797 49.8138Z" fill="#7C2828"/>
<path d="M98.8097 48.4357C99.3812 48.7976 99.3812 49.9089 98.8097 50.9122C98.2382 51.9155 97.2985 52.4298 96.727 52.0615C96.1555 51.6932 96.1555 50.5947 96.727 49.5914C97.2985 48.5881 98.2382 48.0864 98.8097 48.4357Z" fill="#7C2828"/>
<path d="M97.9524 55.2377C98.5239 55.606 98.5239 56.7109 97.9524 57.7079C97.3809 58.7048 96.4475 59.2192 95.8696 58.8509C95.2918 58.4826 95.2981 57.3777 95.8696 56.3807C96.4411 55.3838 97.3809 54.8694 97.9524 55.2377Z" fill="#7C2828"/>
<path opacity="0.39" d="M102.475 38.6676C105.885 39.8553 107.937 43.4437 107.302 49.0771C106.773 52.822 105.336 56.3806 103.116 59.4422C107.359 56.2666 110.617 50.0933 110.649 44.771C110.687 39.1439 107.086 36.559 102.475 38.6676Z" fill="#6B1A1A"/>
<path d="M130.636 118.089C130.636 118.089 126.793 116.38 125.866 116.31C124.939 116.24 123.396 116.558 124.742 118.254C124.742 118.254 128.781 120.896 129.315 120.978C129.848 121.061 131.144 120.655 131.176 120.794C131.207 120.934 131.328 121.957 131.328 121.957C131.328 121.957 134.707 123.227 134.853 120.985C134.853 120.693 134.364 116.495 134.364 116.495" fill="#E55600"/>
<path d="M135.044 108.187C134.377 103.843 133.138 99.6323 132.643 95.2373C132.325 92.4745 132.097 89.6927 131.754 86.93C131.411 84.1672 130.382 81.4934 129.721 78.756C129.704 78.6924 129.709 78.6248 129.734 78.5639C129.759 78.503 129.804 78.4522 129.861 78.4194C129.861 78.3242 129.804 78.2289 129.772 78.1336C129.429 77.8097 129.08 77.4985 128.743 77.2064L124.018 80.3819C124.018 80.3819 124.018 83.2717 124.196 87.4698C124.742 89.915 125.161 92.0935 125.784 94.4116C125.718 94.4859 125.67 94.5746 125.645 94.6706C125.619 94.7665 125.617 94.8671 125.637 94.9642C127.174 102.262 128.294 109.641 128.991 117.066C129 117.189 129.044 117.307 129.118 117.405C129.193 117.503 129.294 117.577 129.41 117.619L129.543 118.762C133.653 120.35 134.555 117.587 134.555 117.587C134.555 117.587 134.739 115.231 134.974 111.966C135.05 110.677 135.069 109.438 135.044 108.187Z" fill="#34323D"/>
<path d="M107.873 66.6063L107.772 66.6634C107.809 66.589 107.828 66.5069 107.827 66.4238C107.826 66.3408 107.805 66.259 107.767 66.1854C107.729 66.1117 107.673 66.0481 107.606 65.9998C107.538 65.9516 107.46 65.92 107.378 65.9076C107.137 65.8759 106.895 65.8632 106.654 65.8314C106.631 65.8076 106.605 65.7863 106.578 65.7679C106.489 65.7157 106.396 65.6731 106.298 65.6409C106.246 65.5869 106.18 65.5469 106.108 65.5247C106.036 65.5025 105.959 65.4988 105.885 65.5139H105.708C105.504 65.5139 105.295 65.5139 105.072 65.5139H104.336C104.302 65.4524 104.257 65.3984 104.202 65.3551C103.001 64.3795 101.872 63.3182 100.824 62.1795C100.449 61.8048 99.693 62.2176 99.9979 62.7257C100.305 63.3096 100.664 63.8644 101.071 64.3834C99.801 63.526 99.2103 63.3989 98.0354 62.4399C97.54 62.0334 96.9874 62.8654 97.4828 63.2719C97.7813 63.5133 98.8864 64.0722 99.1913 64.3071C98.6387 63.9705 97.2859 63.3164 96.7207 62.9861C96.1554 62.6559 95.6092 63.4879 96.1681 63.8181C97.0573 64.3389 97.9337 64.8788 98.8102 65.4249C98.0608 65.1455 97.324 64.8406 96.6 64.504C96.0157 64.2309 95.6981 65.1773 96.2761 65.4504C97.1081 65.8378 97.9591 66.1807 98.8165 66.4919C98.3101 66.4854 97.8048 66.4408 97.305 66.3586C96.6699 66.2442 96.6 67.2414 97.2288 67.3557C97.7495 67.451 98.2703 67.5081 98.7975 67.5653L99.585 67.6542C99.8921 67.676 100.194 67.7446 100.481 67.8574C101.555 68.2631 102.687 68.4988 103.834 68.5561L104.063 68.6386C104.133 68.6676 104.21 68.6775 104.286 68.6675C104.362 68.6575 104.434 68.6278 104.494 68.5815C105.839 68.582 107.158 68.2105 108.305 67.5081C108.851 67.1652 108.42 66.2697 107.873 66.6063Z" fill="#FCBF81"/>
<path d="M116.2 59.004C116.257 58.8007 113.265 59.004 113.024 59.004C111.433 58.9992 109.842 58.908 108.261 58.7309C108.213 58.7188 108.163 58.7188 108.115 58.7309C107.813 58.6935 107.51 58.6744 107.206 58.6737C107.133 58.6758 107.063 58.7004 107.004 58.744C106.946 58.7877 106.902 58.8484 106.879 58.9178C106.856 58.9872 106.855 59.0619 106.876 59.1319C106.897 59.2019 106.939 59.2636 106.997 59.3088C107.661 59.7826 108.449 60.05 109.264 60.0773C109.334 60.325 109.404 60.5981 109.499 60.8521C109.528 60.8412 109.559 60.8397 109.589 60.8477C109.619 60.8556 109.645 60.8728 109.664 60.8966C109.742 60.9935 109.802 61.103 109.842 61.2205C109.88 61.2942 109.906 61.3735 109.918 61.4555C109.929 61.4886 109.929 61.524 109.918 61.5571C110.038 61.6744 110.182 61.7634 110.34 61.8173C110.498 61.8711 110.667 61.8886 110.833 61.8683C111.023 62.1616 111.315 62.3742 111.652 62.4653H111.703H111.754C112.209 62.2318 112.68 62.0323 113.164 61.8683C113.189 61.8629 113.215 61.8637 113.24 61.8705C113.264 61.8773 113.287 61.89 113.306 61.9075C113.324 61.9249 113.338 61.9467 113.347 61.9708C113.356 61.9949 113.358 62.0208 113.354 62.0461C113.672 61.8529 113.977 61.6408 114.269 61.411C114.303 61.3864 114.331 61.3551 114.351 61.319C114.372 61.2829 114.385 61.2429 114.39 61.2014L114.574 61.157C114.634 61.1422 114.688 61.1126 114.734 61.0707C114.779 61.0288 114.812 60.9762 114.831 60.9177C114.85 60.8593 114.854 60.7969 114.843 60.7365C114.831 60.6762 114.804 60.6198 114.764 60.5727C114.737 60.5404 114.705 60.5126 114.669 60.4901H114.86C114.9 60.536 114.95 60.5721 115.007 60.5958C115.063 60.6196 115.124 60.6303 115.185 60.6273C115.246 60.6242 115.305 60.6075 115.359 60.5782C115.413 60.549 115.459 60.508 115.495 60.4584C115.565 60.3822 115.604 60.2824 115.604 60.1789C115.604 60.0754 115.565 59.9757 115.495 59.8995C115.456 59.8603 115.411 59.8281 115.361 59.8042H115.857C115.876 59.8053 115.896 59.8003 115.912 59.7899C115.929 59.7795 115.942 59.7643 115.95 59.7462C115.957 59.7281 115.959 59.7081 115.955 59.689C115.951 59.6698 115.941 59.6524 115.927 59.6391C115.931 59.6245 115.931 59.6092 115.927 59.5946C116.203 59.5993 116.479 59.6248 116.752 59.6708C119.896 59.5756 116.308 59.0167 116.2 59.004ZM115.298 60.2742C115.268 60.3213 115.221 60.3554 115.167 60.3695C115.113 60.3836 115.055 60.3768 115.006 60.3504C115.044 60.3138 115.074 60.2693 115.094 60.22C115.114 60.1707 115.123 60.1177 115.12 60.0646C115.134 60.0618 115.146 60.0561 115.157 60.0479C115.168 60.0398 115.178 60.0293 115.184 60.0172C115.191 60.0051 115.195 59.9917 115.196 59.978C115.197 59.9643 115.195 59.9505 115.19 59.9376C115.225 59.948 115.257 59.967 115.284 59.993C115.31 60.0189 115.329 60.051 115.34 60.0863C115.351 60.1215 115.352 60.1589 115.345 60.195C115.338 60.2312 115.321 60.2649 115.298 60.2932V60.2742Z" fill="#FCBF81"/>
<path d="M115.894 59.3723C115.438 59.5351 114.956 59.6105 114.472 59.5946C114.373 59.5877 114.273 59.6008 114.179 59.633C114.085 59.6653 113.999 59.7161 113.924 59.7824C113.85 59.8487 113.791 59.9292 113.748 60.0191C113.706 60.109 113.682 60.2065 113.678 60.3058C113.498 60.2246 113.324 60.1312 113.157 60.0264C112.306 59.5057 111.455 60.8138 112.313 61.3408C112.959 61.7917 113.728 62.0313 114.516 62.0266C115.274 61.9474 116.012 61.7323 116.694 61.3916C116.822 60.9334 116.863 60.4552 116.815 59.9819C116.772 59.7798 116.652 59.6027 116.479 59.4886C116.307 59.3746 116.097 59.3328 115.894 59.3723Z" fill="#FCBF81"/>
<path d="M114.974 61.627C114.441 61.8819 113.841 61.9577 113.262 61.8432C112.682 61.7288 112.156 61.4302 111.76 60.9919C111.752 60.9817 111.741 60.9736 111.729 60.9681C111.717 60.9626 111.704 60.9599 111.69 60.9601L110.63 60.9093C110.471 60.9093 110.312 60.9093 110.153 60.9093C109.887 60.8712 109.004 60.4711 109.709 60.1027C110.061 60.029 110.423 60.0076 110.782 60.0392C111.131 60.0392 111.481 60.0392 111.83 60.0392C111.957 60.0392 111.963 59.8423 111.83 59.8423C111.195 59.8423 110.56 59.8423 109.893 59.8995C109.594 59.8995 109.258 59.9376 109.258 60.2996C109.246 60.4306 109.275 60.562 109.341 60.6758C109.407 60.7896 109.507 60.88 109.626 60.9347C109.753 61.1634 109.772 61.4746 109.975 61.6524C110.205 61.8024 110.476 61.8778 110.75 61.8684H110.922C110.916 61.887 110.916 61.9069 110.922 61.9255C111.119 62.1796 111.284 62.5289 111.652 62.4908C111.8 62.4664 111.944 62.4193 112.078 62.3511L112.764 62.0525C112.776 62.0479 112.786 62.0407 112.795 62.0315C112.804 62.0223 112.811 62.0113 112.815 61.9992C112.819 61.9872 112.821 61.9743 112.82 61.9616C112.818 61.9489 112.814 61.9366 112.808 61.9255C113.554 62.1641 114.361 62.1189 115.076 61.7985C115.177 61.7731 115.088 61.5826 114.974 61.627ZM110.465 61.627C110.348 61.6233 110.235 61.5851 110.14 61.5173C110.045 61.4495 109.972 61.3551 109.931 61.2459C109.899 61.1697 109.874 61.0935 109.848 61.0237C110.44 61.1411 111.044 61.1859 111.646 61.157L111.69 61.2078C111.672 61.2132 111.657 61.224 111.645 61.2389C111.634 61.2537 111.627 61.2717 111.627 61.2904C111.601 61.7731 110.782 61.6969 110.452 61.6461L110.465 61.627ZM111.83 62.2304C111.755 62.2726 111.668 62.2898 111.583 62.2796C111.497 62.2693 111.417 62.232 111.354 62.1732C111.259 62.0736 111.174 61.9652 111.1 61.8493C111.443 61.8493 111.779 61.6969 111.817 61.3285C112.064 61.5569 112.35 61.7378 112.662 61.862C112.357 62.0017 112.109 62.1351 111.83 62.2494V62.2304Z" fill="#34323D"/>
<path d="M126.589 57.0193C126.041 56.8038 113.98 58.4682 113 58.2081C113 59.4501 113.329 60.6632 113.944 61.6892C114.559 62.7152 115.432 63.5062 116.448 63.9591C116.448 63.9591 125.244 65.9801 128 64.39" fill="#397CCB"/>
<path d="M122.227 124.408L119.941 125.228C119.872 125.435 119.751 125.62 119.59 125.767C119.429 125.914 119.232 126.017 119.02 126.066C118.939 126.162 118.826 126.226 118.702 126.244C117.776 126.31 116.848 126.16 115.99 125.805C114.898 125.463 110.63 123.83 111.811 126.892C112.592 127.438 113.462 127.914 114.256 128.397C114.707 128.67 115.152 128.943 115.615 129.197C115.86 129.363 116.131 129.487 116.416 129.565C117.051 129.661 118.518 129.197 118.556 129.356C118.594 129.515 118.734 130.69 118.734 130.69C118.734 130.69 122.621 132.176 122.792 129.572C122.811 129.229 122.227 124.408 122.227 124.408Z" fill="#E55600"/>
<path d="M125.434 101.049C125.911 93.3701 126.171 85.6407 127.797 78.0955C127.867 76.133 129.137 77.3842 129.067 76.6094C128.375 70.29 119.172 77.8097 119.172 77.8097C118.797 78.1146 118.753 80.0517 118.677 80.4899C118.253 82.9161 117.898 85.3507 117.61 87.7938C116.085 100.128 116.651 112.404 117.273 124.777C119.229 126.777 120.506 127.374 123.656 126.085C124.291 117.987 124.882 109.889 125.402 101.779L125.434 101.049Z" fill="#34323D"/>
<path d="M130.655 72.0047C131.01 68.2048 131.092 64.3844 130.903 60.5727C130.833 59.5755 130.56 57.124 129.562 56.546C127.371 55.2758 124.323 56.4127 122.475 57.7718C120.01 59.5882 118.588 76.4823 118.581 80.6359C121.973 81.976 126.406 82.4841 129.874 81.0488C130.179 80.9217 130.248 76.7744 130.293 76.26C130.414 74.8691 130.541 73.4401 130.655 72.0047Z" fill="#6BA7ED"/>
<path d="M123.631 66.4983C123.526 67.6937 123.057 68.8282 122.287 69.7483C121.517 70.6684 120.483 71.3297 119.324 71.6427C119.324 71.8777 119.248 73.3385 119.229 73.5481C121.998 72.913 124.037 69.4135 124.31 66.4729C124.367 66.0537 123.669 66.0537 123.631 66.4983Z" fill="#15539C"/>
<path d="M121.522 50.9761C121.306 51.0778 120.252 55.8094 121.484 58.3308C122.716 60.8521 126.73 57.2574 127.479 55.0218C128.229 52.7862 125.587 49.0708 121.522 50.9761Z" fill="#FCBF81"/>
<path d="M121.7 51.5731C121.78 51.9792 121.976 52.3533 122.264 52.6499C122.553 52.9465 122.922 53.1527 123.326 53.2435C124.678 53.4721 125.784 53.5864 125.828 54.1834C125.872 54.7805 123.529 54.5328 123.777 55.8728C123.946 56.7737 124.237 57.6475 124.64 58.4705C124.901 59.1056 128.311 56.3746 128.915 52.71C129.518 49.0454 126.215 48.7342 126.057 48.7342C125.467 48.151 124.676 47.8167 123.846 47.8006C122.246 47.7561 121.941 48.4357 121.941 48.4357C121.552 48.2927 121.127 48.2805 120.731 48.4008C120.334 48.5212 119.988 48.7675 119.744 49.1025C118.543 50.4934 119.293 52.475 121.046 53.0085L121.7 51.5731Z" fill="#E55600"/>
<path d="M123.637 60.1663C123.637 60.1663 115.692 64.72 112.84 64.72C110.068 64.5555 107.31 64.2076 104.583 63.6784C102.615 65.3488 102.487 68.264 103.707 70.4996C107.175 71.0648 117.451 72.5446 120.677 70.9442C124.577 69.0388 128.87 66.4221 128.87 66.4221C128.87 66.4221 132.725 62.6178 123.637 60.1663Z" fill="#6BA7ED"/>
<path d="M152.42 89.9277L174.046 79.804L195.316 89.9277L174.046 100.871L152.42 89.9277Z" fill="#C63C3C"/>
<path d="M174.643 88.6893L179.933 85.8439L182.83 87.2666L175.545 91.3313L174.643 88.6893Z" fill="#36353A"/>
<path d="M152.42 89.9277L174.046 100.871V116.647L152.42 105.964V89.9277Z" fill="#F16866"/>
<path d="M174.046 100.871L195.316 89.9277V105.463L174.046 116.647V100.871Z" fill="#FF8D8D"/>
<path d="M152.42 89.9277L163.23 81.7982L184.678 92.881L174.046 100.871L152.42 89.9277Z" fill="#FF8D8D"/>
<path d="M164.557 80.9027L174.046 79.804L195.316 89.9277L193.658 90.7788L186.424 91.8839L164.557 80.9027Z" fill="#F16866"/>
<path d="M117.718 152.074V147.876L120.887 146.326V150.461L117.718 152.074Z" fill="#494443"/>
<path d="M120.887 146.326L106.031 138.26L102.996 140.064L117.718 147.876L120.887 146.326Z" fill="#666666"/>
<path d="M102.996 140.064V144.649L117.718 152.074V147.876" fill="#494443"/>
<path d="M113.367 148.473C113.293 148.26 113.188 148.058 113.056 147.876C112.678 147.429 112.237 147.04 111.748 146.72C111.278 146.447 110.782 146.205 110.318 145.919C110.045 145.748 109.779 145.564 109.506 145.399C109.232 145.234 108.87 145.094 108.553 144.954C107.803 144.764 106.87 145.475 106.209 145.856L103.466 147.412L99.3247 149.756L94.4152 152.531L89.3724 155.389L84.825 157.968L81.4017 159.905L79.7187 160.851C79.6969 160.866 79.6735 160.879 79.6488 160.889C79.3344 160.97 79.0556 161.152 78.8567 161.409C78.6577 161.665 78.5498 161.981 78.5501 162.305V162.477C78.5549 162.739 78.6299 162.995 78.7673 163.219C78.9046 163.442 79.0994 163.625 79.3313 163.747L83.142 165.786C83.4042 165.925 83.7024 165.981 83.9972 165.947C84.292 165.913 84.5696 165.79 84.7933 165.595L111.278 150.391L111.627 150.187C112.103 149.705 112.897 149.603 113.367 148.67C113.424 148.631 113.38 148.549 113.367 148.473Z" fill="#112E7C"/>
<path opacity="0.5" d="M84.9838 165.57L113.208 149.368C113.313 149.302 113.395 149.206 113.446 149.093C113.497 148.98 113.513 148.855 113.494 148.733C113.424 148.438 113.297 148.16 113.119 147.914C112.853 147.587 112.546 147.297 112.205 147.05L84.4884 163.392C84.8397 163.711 85.065 164.146 85.1235 164.617C85.1716 164.899 85.1151 165.188 84.9647 165.43C84.9838 165.494 84.9901 165.532 84.9838 165.57Z" fill="black"/>
<path d="M14.9306 106.174L26.5913 100.718L38.0614 106.174L26.5913 112.074L14.9306 106.174Z" fill="#CE3E3E"/>
<path d="M26.9152 105.507L29.7663 103.97L31.3284 104.738L27.3978 106.936L26.9152 105.507Z" fill="black"/>
<path d="M14.9306 106.174L26.5913 112.074L26.9088 134.367L14.9306 127.577V106.174Z" fill="#F16866"/>
<path d="M26.5913 112.074L38.0615 106.174V127.831L26.9088 134.367L26.5913 112.074Z" fill="#FF8D8D"/>
<path d="M14.9306 106.174L20.7609 101.792L32.3264 107.768L26.5913 112.074L14.9306 106.174Z" fill="#FF8D8D"/>
<path d="M21.4723 101.309L26.5913 100.718L38.0615 106.174L37.166 106.631L33.2664 107.228L21.4723 101.309Z" fill="#F16866"/>
<path d="M52.1483 65.3487L66.8639 56.7366V59.3532L52.1483 67.9527V65.3487Z" fill="white"/>
<path d="M66.8635 56.7366V59.3528L64.4568 60.7625V58.1463L66.8635 56.7366Z" fill="#F16866"/>
<path d="M64.4564 58.1847V60.8009L62.0434 62.2106V59.5944L64.4564 58.1847Z" fill="#FFE427"/>
<path d="M68.375 69.585V72.2013L65.9684 73.611V70.9947L68.375 69.585Z" fill="#F16866"/>
<path d="M65.968 71.0331V73.6493L63.555 75.059V72.4428L65.968 71.0331Z" fill="#FFE427"/>
<path d="M70.7885 70.7536V73.3698L68.3755 74.7795V72.1633L70.7885 70.7536Z" fill="#F16866"/>
<path d="M68.375 72.2017V74.8179L65.9684 76.2276V73.6114L68.375 72.2017Z" fill="#FFE427"/>
<path d="M131.76 10.7606V13.3768L129.347 14.7865V12.1703L131.76 10.7606Z" fill="#F16866"/>
<path d="M129.346 12.2087V14.8249L126.939 16.2346V13.6184L129.346 12.2087Z" fill="#FFE427"/>
<path d="M134.173 11.9292V14.5454L131.76 15.9551V13.3389L134.173 11.9292Z" fill="#F16866"/>
<path d="M131.76 13.3773V15.9935L129.347 17.4032V14.787L131.76 13.3773Z" fill="#FFE427"/>
</svg>
