<svg width="88" height="85" viewBox="0 0 88 85" fill="none" xmlns="http://www.w3.org/2000/svg">
<g filter="url(#filter0_d)">
<path d="M62.9949 62.5912L59.4899 47.569C59.4899 47.569 71.4843 36.0288 70.1398 21.2357C68.7943 6.44248 53.8888 -2.85916 38.7591 1.17396C23.6294 5.20656 21.1235 17.3269 21.0525 19.3153C20.9811 21.3039 22.8447 26.3891 21.4993 29.8638C20.1544 33.3384 15.3364 38.7731 15.7841 40.3983C16.2333 42.0227 20.3787 42.3031 20.3787 42.3031C20.3787 42.3031 20.4276 43.8749 19.8762 44.2087C19.3247 44.542 19.636 45.8484 20.5429 46.5751C21.4499 47.3018 22.9571 47.795 22.9571 47.795C22.9571 47.795 21.2193 48.1875 21.4443 49.42C21.6688 50.6532 22.2849 51.2697 23.5735 51.3251C24.8627 51.3808 25.1993 50.7663 25.4228 51.4386C25.6467 52.1101 25.7875 52.1662 25.7875 52.1662C25.7875 52.1662 24.4997 55.5008 25.6207 57.9657C26.7425 60.4316 28.4784 60.4335 30.4965 59.928C32.5143 59.4228 36.4362 58.3022 36.4362 58.3022L37.51 63.77C38.6327 71.7282 33.2132 75.8193 33.099 75.9046C36.2846 76.6196 39.5974 76.9997 42.9991 76.9997C53.0211 76.9997 62.2762 73.7222 69.755 68.1825C69.0339 67.8348 63.2511 62.8479 62.9942 62.5911L62.9949 62.5912Z" fill="#F1B61F"/>
<path d="M25.9914 58.6569C27.1078 60.4256 28.6891 60.3804 30.497 59.9276C32.5148 59.4224 36.4367 58.3018 36.4367 58.3018L37.5105 63.7696C37.8937 66.4854 37.5142 68.7502 36.8447 70.5599L36.8452 70.559C40.5914 65.2137 37.8287 61.1282 38.3221 59.0998C38.8155 57.0711 46.6555 55.1527 48.2998 53.8916C49.9449 52.6305 51.123 49.1499 51.123 49.1499C51.123 49.1499 49.4782 51.6715 47.7245 53.2064C45.9702 54.7413 32.3468 58.743 29.7426 59.62C27.2697 60.4525 26.1028 58.8235 25.9914 58.6569Z" fill="#F5E9DA"/>
<path d="M35.0384 2.42096C44.4614 -1.03121 55.6217 0.83084 62.3907 7.75381C70.4577 16.0032 72.3375 31.0151 58.2502 46.8999L62.9945 62.5912L59.4894 47.569C59.4894 47.569 71.4839 36.0287 70.1393 21.2357C68.7939 6.44248 53.8883 -2.85916 38.7587 1.17396C37.4215 1.53045 36.1851 1.95074 35.0383 2.4206L35.0384 2.42096Z" fill="#F5E9DA"/>
<path d="M50.6983 33.936V32.2263L49.956 32.1488C49.8915 31.9273 49.8043 31.7164 49.6969 31.5176L50.1898 30.9509L48.9808 29.7424L48.4007 30.2128C48.2028 30.1041 47.9931 30.0154 47.7726 29.9494L47.7206 29.2017H46.0109L45.9334 29.944C45.7125 30.0085 45.5015 30.0957 45.3027 30.2031L44.736 29.7102L43.527 30.9192L43.9977 31.4998C43.8889 31.6978 43.8 31.9078 43.7341 32.1288L42.9852 32.1808V33.8899L43.7276 33.9673C43.7921 34.1882 43.8793 34.3997 43.9867 34.5985L43.4938 35.1647L44.7028 36.3737L45.2829 35.903C45.4808 36.0114 45.6914 36.1004 45.9118 36.1663L45.9638 36.9151H47.6735L47.751 36.1728C47.972 36.1078 48.1829 36.0206 48.3817 35.9132L48.9479 36.4061L50.1569 35.1976L49.6862 34.617C49.7946 34.419 49.8836 34.2084 49.9495 33.988L50.6983 33.936ZM46.8417 34.7224C45.9222 34.7224 45.177 33.9773 45.177 33.0578C45.177 32.1383 45.9222 31.3933 46.8417 31.3933C47.761 31.3933 48.5062 32.1384 48.5062 33.0578C48.5063 33.9771 47.7612 34.7224 46.8417 34.7224Z" fill="white"/>
<path d="M64.9497 26.3666V23.5683L62.9071 23.3644C62.7681 22.8481 62.5638 22.357 62.3028 21.9042L63.6016 20.3158L61.6235 18.3383L60.0357 19.6382C59.5822 19.3773 59.0921 19.1722 58.5755 19.0335L58.3716 16.9915H55.5733L55.3691 19.0335C54.8523 19.1722 54.362 19.3773 53.9083 19.6384L52.32 18.3385L50.3424 20.316L51.6418 21.9044C51.3815 22.3572 51.1767 22.8478 51.0375 23.3646L48.9954 23.5685V26.3667L51.0375 26.571C51.1762 27.0873 51.3813 27.5775 51.6418 28.0312L50.3424 29.6201L52.32 31.5976L53.9083 30.2983C54.3615 30.5591 54.8521 30.7636 55.3685 30.9031L55.5728 32.9452H58.3711L58.575 30.9031C59.0918 30.7636 59.582 30.5593 60.0357 30.2983L61.6235 31.5971L63.6016 29.6201L62.3028 28.0312C62.5636 27.5775 62.7679 27.0873 62.9071 26.5705L64.9497 26.3666ZM56.972 29.7968C54.3047 29.7968 52.1433 27.6348 52.1433 24.9681C52.1433 22.3009 54.3047 20.1388 56.972 20.1388C59.6393 20.1388 61.8013 22.3007 61.8013 24.9681C61.8013 27.6348 59.6393 29.7968 56.972 29.7968Z" fill="white"/>
<path d="M48.2671 23.1442L48.9947 20.3723L47.3487 19.7258C47.4044 19.1042 47.4007 18.4786 47.339 17.857L48.9787 17.194L48.223 14.4298L46.4768 14.6931C46.2172 14.1335 45.9017 13.5926 45.5315 13.0795L46.6196 11.6861L44.5821 9.66984L43.2003 10.7723C42.6829 10.4078 42.1392 10.0977 41.5767 9.84422L41.822 8.09537L39.0495 7.36816L38.4035 9.01383C37.7821 8.95863 37.156 8.96144 36.5345 9.02402L35.8718 7.38434L33.1067 8.1402L33.3704 9.88641V9.88887C32.8107 10.1485 32.2698 10.4635 31.7567 10.8342L30.3637 9.74508L28.3473 11.7826L29.4501 13.1644C29.0854 13.6813 28.7758 14.2254 28.5223 14.7879L26.773 14.5427L26.0454 17.3151L27.692 17.9606C27.6368 18.582 27.6396 19.2081 27.7021 19.8296L26.0625 20.4927L26.8187 23.2572L28.5649 22.993C28.8243 23.5527 29.1399 24.0941 29.509 24.6072L28.4209 26.0003L30.458 28.0165L31.8399 26.9136C32.3568 27.2787 32.9009 27.5876 33.4634 27.8418L33.2176 29.5906L35.9901 30.3178L36.6366 28.6721C37.2581 28.727 37.8837 28.7242 38.5053 28.662L39.1684 30.3016L41.9325 29.5449L41.6688 27.7987C42.2291 27.5385 42.7699 27.2235 43.283 26.8533L44.6765 27.9414L46.6929 25.9045L45.59 24.5221C45.9546 24.0057 46.2641 23.4611 46.5181 22.8986L48.2671 23.1442ZM37.5197 25.1987C34.0092 25.1987 31.1635 22.353 31.1635 18.8425C31.1635 15.3319 34.0092 12.4862 37.5197 12.4862C41.0304 12.4862 43.876 15.3319 43.876 18.8425C43.876 22.353 41.0302 25.1987 37.5197 25.1987Z" fill="white"/>
</g>
<defs>
<filter id="filter0_d" x="-4" y="0" width="96" height="85" filterUnits="userSpaceOnUse" color-interpolation-filters="sRGB">
<feFlood flood-opacity="0" result="BackgroundImageFix"/>
<feColorMatrix in="SourceAlpha" type="matrix" values="0 0 0 0 0 0 0 0 0 0 0 0 0 0 0 0 0 0 127 0"/>
<feOffset dy="4"/>
<feGaussianBlur stdDeviation="2"/>
<feColorMatrix type="matrix" values="0 0 0 0 0 0 0 0 0 0 0 0 0 0 0 0 0 0 0.25 0"/>
<feBlend mode="normal" in2="BackgroundImageFix" result="effect1_dropShadow"/>
<feBlend mode="normal" in="SourceGraphic" in2="effect1_dropShadow" result="shape"/>
</filter>
</defs>
</svg>
