<svg width="41" height="41" viewBox="0 0 41 41" fill="none" xmlns="http://www.w3.org/2000/svg">
<path d="M20.4734 40.7804C15.0986 40.7758 9.94568 38.6362 6.14834 34.8323C2.351 31.0284 0.220271 25.8718 0.224892 20.497C0.229513 15.1221 2.3691 9.96921 6.17298 6.17187C9.97685 2.37453 15.1334 0.2438 20.5083 0.248421C25.8832 0.253042 31.0361 2.39263 34.8334 6.19651C38.6307 10.0004 40.7615 15.1569 40.7568 20.5318C40.7522 25.9067 38.6126 31.0596 34.8088 34.8569C31.0049 38.6543 25.8483 40.785 20.4734 40.7804Z" fill="url(#paint0_radial)"/>
<path d="M20.5084 0V0.497813C24.273 0.503372 27.9598 1.57045 31.1454 3.57655C34.3311 5.58264 36.8864 8.44643 38.5181 11.8391C40.1497 15.2318 40.7916 19.0158 40.3699 22.7568C39.9483 26.4978 38.4802 30.044 36.1343 32.9884C33.7884 35.9327 30.6597 38.1559 27.1074 39.4025C23.5552 40.6492 19.7234 40.8688 16.0519 40.0363C12.3805 39.2037 9.01826 37.3527 6.35124 34.6956C3.68423 32.0386 1.82055 28.6834 0.974178 25.0151C0.381256 22.4517 0.299509 19.7966 0.733614 17.2016C1.16772 14.6065 2.10916 12.1226 3.50408 9.8917C4.89901 7.66083 6.72005 5.72686 8.86305 4.20039C11.0061 2.67391 13.429 1.5849 15.9932 0.995626C17.4746 0.659367 18.9893 0.49236 20.5084 0.497813V0ZM20.5084 0C18.9503 0.00226033 17.3973 0.179261 15.8787 0.527682C10.7785 1.7078 6.32304 4.79435 3.42582 9.15448C0.528602 13.5146 -0.590815 18.8179 0.297098 23.977C1.18501 29.1361 4.01297 33.76 8.20113 36.9007C12.3893 40.0414 17.6203 41.4608 22.8215 40.868C28.0228 40.2752 32.8002 37.715 36.1742 33.7124C39.5482 29.7098 41.263 24.568 40.9672 19.3415C40.6714 14.1149 38.3873 9.19953 34.5832 5.60321C30.7791 2.00689 25.7433 0.00213244 20.5084 0V0Z" fill="#5C960B"/>
<g style="mix-blend-mode:multiply" opacity="0.8">
<path style="mix-blend-mode:multiply" opacity="0.8" d="M30.6288 3.44055C34.9944 6.2755 38.072 10.7117 39.1987 15.7936C40.3254 20.8756 39.4111 26.1967 36.6527 30.6111C33.8942 35.0255 29.5124 38.1799 24.4509 39.395C19.3893 40.6102 14.053 39.7887 9.59122 37.1077C11.8021 38.578 14.2854 39.5901 16.8943 40.0839C19.5031 40.5778 22.1845 40.5435 24.7799 39.9829C27.3752 39.4224 29.8318 38.3471 32.0043 36.8206C34.1768 35.2941 36.0211 33.3474 37.4282 31.0957C38.8352 28.844 39.7764 26.333 40.196 23.7112C40.6157 21.0893 40.5053 18.41 39.8713 15.8316C39.2374 13.2532 38.0928 10.8281 36.5053 8.6998C34.9178 6.57147 32.9196 4.78313 30.6288 3.44055Z" fill="url(#paint1_linear)"/>
</g>
<g style="mix-blend-mode:screen">
<path style="mix-blend-mode:screen" d="M16.5407 25.1792C21.9818 17.7668 29.5088 10.2797 38.0363 12.6443C36.938 10.2001 35.3409 8.0125 33.3474 6.22184C31.354 4.43118 29.0082 3.07701 26.4607 2.24622C23.9131 1.41542 21.22 1.12635 18.5541 1.39755C15.8883 1.66874 13.3086 2.49422 10.9805 3.82101C8.65241 5.14781 6.6274 6.94661 5.03538 9.10202C3.44336 11.2574 2.31949 13.7218 1.73588 16.3371C1.15227 18.9524 1.12181 21.6608 1.64645 24.2886C2.17109 26.9163 3.23925 29.4054 4.78239 31.596C7.9435 31.6558 12.5533 30.6104 16.5407 25.1792Z" fill="url(#paint2_linear)"/>
</g>
<g style="mix-blend-mode:screen">
<path style="mix-blend-mode:screen" d="M3.29904 25.8011C2.45802 22.1713 2.69043 18.3753 3.96797 14.8752C5.24552 11.3751 7.51308 8.32194 10.4946 6.08739C13.4761 3.85283 17.043 2.53328 20.7609 2.28939C24.4789 2.0455 28.1876 2.88779 31.4354 4.71372C29.2978 3.2288 26.8808 2.19351 24.3311 1.67064C21.7814 1.14777 19.152 1.1482 16.6025 1.67192C14.0529 2.19563 11.6363 3.23172 9.49913 4.71735C7.36198 6.20297 5.54883 8.10719 4.16963 10.3145C2.79043 12.5218 1.87391 14.9863 1.47566 17.5584C1.07741 20.1306 1.20571 22.7568 1.8528 25.2779C2.49989 27.799 3.65228 30.1623 5.24008 32.2247C6.82789 34.2871 8.81802 36.0055 11.0898 37.2757C7.14799 34.561 4.36792 30.4664 3.29904 25.8011Z" fill="url(#paint3_linear)"/>
</g>
<path d="M32.6054 14.4174L28.1051 9.92212L17.3225 20.7048L12.7625 16.1398L8.2623 20.645L17.3175 29.7002L17.3225 29.6903L17.3374 29.7002L32.6054 14.4174Z" fill="white"/>
<defs>
<radialGradient id="paint0_radial" cx="0" cy="0" r="1" gradientUnits="userSpaceOnUse" gradientTransform="translate(23.74 34.6896) rotate(-13) scale(20.9155)">
<stop stop-color="#1ABA1B"/>
<stop offset="1" stop-color="#22AC00"/>
</radialGradient>
<linearGradient id="paint1_linear" x1="18.306" y1="13.6263" x2="37.8162" y2="50.9091" gradientUnits="userSpaceOnUse">
<stop stop-color="white"/>
<stop offset="1" stop-color="#FBAE17"/>
</linearGradient>
<linearGradient id="paint2_linear" x1="10.7689" y1="2.51104" x2="23.9079" y2="26.847" gradientUnits="userSpaceOnUse">
<stop stop-color="#FFFBD4"/>
<stop offset="1"/>
</linearGradient>
<linearGradient id="paint3_linear" x1="6.60954" y1="-0.192267" x2="28.7994" y2="35.2867" gradientUnits="userSpaceOnUse">
<stop stop-color="white"/>
<stop offset="1"/>
</linearGradient>
</defs>
</svg>
