<svg width="87" height="88" viewBox="0 0 87 88" fill="none" xmlns="http://www.w3.org/2000/svg">
<g filter="url(#filter0_d)">
<path d="M40.7887 0.076767C38.9225 0.286362 38.0277 0.743439 37.4755 1.80995C37.3425 2.07678 36.9612 3.86639 36.6379 5.80837C36.3138 7.75034 36.0091 9.50206 35.9527 9.71165C35.8955 9.99702 35.4198 10.226 33.9156 10.7209C32.8305 11.0635 31.0974 11.7681 30.0695 12.2824C29.0224 12.8153 28.0889 13.2345 28.0131 13.2345C27.918 13.2345 26.5088 12.2824 24.8716 11.1208C20.8917 8.284 20.4161 8.11229 18.7595 8.85474C17.6744 9.34971 13.3133 13.7101 12.8183 14.7959C12.0758 16.4525 12.2467 16.929 15.0843 20.908C16.246 22.5453 17.198 23.9544 17.198 24.0495C17.198 24.1261 16.7982 25.0209 16.2839 26.0302C15.7889 27.0201 15.0843 28.734 14.7224 29.8198C14.3798 30.9049 14.0557 31.8384 14.0178 31.8763C13.9985 31.9142 12.3419 32.2382 10.3241 32.5808C5.98309 33.3426 5.54455 33.4571 4.93511 34.1995C4.15236 35.1129 4 36.0843 4 39.7022C4 43.4346 4.24748 44.4052 5.314 45.167C6.05644 45.6998 6.19026 45.7192 10.341 46.4423C12.3403 46.7849 13.9969 47.109 14.0347 47.1468C14.0541 47.1847 14.3588 48.0795 14.7014 49.146C15.044 50.1932 15.73 51.9071 16.2629 52.9357C16.7772 53.9635 17.1956 54.897 17.1956 54.9728C17.1956 55.0679 16.5676 56.0199 15.8058 57.0865C12.416 61.7894 12.1879 62.2852 12.6071 63.675C13.0069 65.0647 17.4245 69.6162 18.986 70.2635C20.4709 70.8915 21.0425 70.644 24.8885 67.883C26.5072 66.7407 27.9163 65.7887 27.9921 65.7887C28.0872 65.7887 29.0208 66.2078 30.0679 66.7214C31.0965 67.2357 32.8289 67.9588 33.914 68.3022C35.4182 68.7786 35.8946 69.0253 35.9511 69.3115C36.0083 69.5211 36.313 71.2728 36.6363 73.2147C37.2836 77.0423 37.5311 77.6702 38.6548 78.3748C39.5303 78.927 42.6533 79.1745 45.5666 78.9463C49.1467 78.661 49.4514 78.2797 50.3083 73.2147C50.6324 71.2728 50.9371 69.5202 50.9935 69.3115C51.0508 69.0261 51.5264 68.7786 53.0314 68.3022C54.1165 67.9402 55.8303 67.2357 56.8589 66.7214C57.9061 66.207 58.8203 65.7887 58.9154 65.7887C58.992 65.7887 60.21 66.6077 61.6006 67.5976C65.9037 70.6633 66.3802 70.8729 67.9417 70.2635C69.0461 69.8443 73.5967 65.3888 74.1489 64.1893C74.8728 62.5706 74.6825 62.0563 71.8635 58.0957C70.7019 56.4585 69.7498 55.0494 69.7498 54.9542C69.7498 54.8591 70.169 53.945 70.6833 52.8978C71.1976 51.8692 71.9022 50.1553 72.2633 49.0703C72.7398 47.566 72.9872 47.0896 73.2726 47.0332C73.4822 46.9759 75.2339 46.6712 77.1759 46.3472C82.2602 45.4902 82.6028 45.2049 82.9075 41.5676C83.155 38.7687 82.8882 35.5692 82.3174 34.6744C81.6507 33.57 80.9841 33.3225 77.1759 32.6752C75.2339 32.3511 73.4822 32.0464 73.2726 31.9899C72.9872 31.9327 72.7398 31.4571 72.2633 29.9528C71.9207 28.8863 71.2162 27.1725 70.6833 26.1253C70.169 25.0782 69.7498 24.1447 69.7498 24.0495C69.7498 23.9544 70.7019 22.5453 71.8441 20.9266C74.6051 17.0805 74.8526 16.509 74.2247 15.0233C73.5773 13.4811 69.0452 9.06353 67.6934 8.64434C66.2464 8.22515 65.7893 8.43475 61.0476 11.8431C59.9811 12.6049 59.029 13.2328 58.9339 13.2328C58.8573 13.2328 57.9246 12.8137 56.896 12.3002C55.8674 11.7673 54.1536 11.0813 53.1072 10.7387C52.0407 10.3961 51.1459 10.0913 51.108 10.0535C51.0701 10.0341 50.746 8.32108 50.4034 6.28318C50.0415 4.22673 49.6231 2.24607 49.4514 1.88492C49.0709 1.06589 48.4042 0.533035 47.4901 0.304901C46.5009 0.0388794 42.4638 -0.0949402 40.7887 0.076767ZM47.0153 24.6598C49.7956 25.3264 51.8327 26.4308 54.0036 28.4679C57.0887 31.3434 58.7066 35.1516 58.7066 39.512C58.7066 48.0618 52.0229 54.7454 43.4731 54.7454C39.1127 54.7454 35.3046 53.1267 32.4291 50.0425C29.5536 46.9767 28.2396 43.6635 28.2396 39.5128C28.2396 32.372 32.9426 26.3551 39.8358 24.6606C41.8358 24.164 44.9773 24.164 47.0153 24.6598Z" fill="url(#paint0_linear)"/>
</g>
<defs>
<filter id="filter0_d" x="0" y="0" width="87" height="87.031" filterUnits="userSpaceOnUse" color-interpolation-filters="sRGB">
<feFlood flood-opacity="0" result="BackgroundImageFix"/>
<feColorMatrix in="SourceAlpha" type="matrix" values="0 0 0 0 0 0 0 0 0 0 0 0 0 0 0 0 0 0 127 0"/>
<feOffset dy="4"/>
<feGaussianBlur stdDeviation="2"/>
<feColorMatrix type="matrix" values="0 0 0 0 0 0 0 0 0 0 0 0 0 0 0 0 0 0 0.25 0"/>
<feBlend mode="normal" in2="BackgroundImageFix" result="effect1_dropShadow"/>
<feBlend mode="normal" in="SourceGraphic" in2="effect1_dropShadow" result="shape"/>
</filter>
<linearGradient id="paint0_linear" x1="43.5" y1="79.0309" x2="43.5" y2="-7.62939e-06" gradientUnits="userSpaceOnUse">
<stop stop-color="#E0E0E0"/>
<stop offset="1" stop-color="white"/>
</linearGradient>
</defs>
</svg>
