<svg width="726" height="574" viewBox="0 0 726 574" fill="none" xmlns="http://www.w3.org/2000/svg">
<g clip-path="url(#clip0)" filter="url(#filter0_d)">
<path d="M92.2214 289.108L322.419 148.719C324.074 147.718 325.95 147.19 327.86 147.19C329.77 147.19 331.646 147.718 333.3 148.719L677.536 355.288C679.198 356.287 680.578 357.729 681.538 359.466C682.497 361.204 683.003 363.177 683.003 365.185C683.003 367.193 682.497 369.166 681.538 370.903C680.578 372.641 679.198 374.082 677.536 375.082L457.439 508.35C452.037 511.62 445.911 513.341 439.674 513.341C433.438 513.341 427.311 511.62 421.91 508.35L92.2553 308.848C90.6044 307.848 89.233 306.411 88.2784 304.681C87.3238 302.95 86.8196 300.987 86.8161 298.988C86.8127 296.989 87.3102 295.024 88.2588 293.29C89.2075 291.556 90.5739 290.114 92.2214 289.108Z" fill="#1323AC"/>
<path d="M214.866 312.123V317.979L217.684 321.61" fill="#ADCEE1"/>
<path d="M327.088 240.816L218.057 311.678C217.068 312.333 216.256 313.245 215.702 314.325C215.147 315.406 214.868 316.618 214.892 317.845C214.916 319.072 215.242 320.271 215.838 321.327C216.434 322.383 217.281 323.259 218.295 323.871L383.767 422.02C386.08 423.393 388.696 424.104 391.354 424.082C394.011 424.06 396.617 423.306 398.909 421.895L507.464 354.985C515.357 348.186 514.763 335.405 507.464 334.853L342.942 240.514C340.522 239.049 337.768 238.304 334.975 238.357C332.181 238.41 329.455 239.26 327.088 240.816Z" fill="#88D3D8"/>
<path d="M327.088 235.939L218.04 306.801C217.051 307.456 216.239 308.368 215.685 309.448C215.13 310.529 214.851 311.741 214.875 312.968C214.899 314.195 215.225 315.394 215.821 316.45C216.417 317.506 217.264 318.382 218.278 318.994L383.75 417.143C386.063 418.516 388.679 419.227 391.337 419.205C393.995 419.184 396.6 418.429 398.892 417.019L507.447 350.108C508.698 349.316 509.733 348.198 510.451 346.864C511.169 345.529 511.547 344.022 511.547 342.49C511.547 340.957 511.169 339.451 510.451 338.116C509.733 336.781 508.698 335.664 507.447 334.872L342.874 235.654C340.464 234.201 337.723 233.46 334.944 233.51C332.164 233.56 329.449 234.4 327.088 235.939Z" fill="white"/>
<path d="M331.552 226.256C331.552 226.256 376.841 72.98 376.553 72.98C376.264 72.98 377.962 66.1626 386.059 70.0252L559.849 177.288C559.849 177.288 568.336 180.848 566.639 189.089C564.941 197.331 522.3 339.072 522.3 339.072C521.41 340.419 520.133 341.434 518.656 341.968C517.179 342.503 515.577 342.53 514.084 342.045C508.788 340.265 335.558 234.8 335.558 234.8C333.983 234.172 332.693 232.941 331.949 231.356C331.206 229.77 331.064 227.947 331.552 226.256Z" fill="#112E7C"/>
<path d="M379.438 84.1228L557.404 192.916L520.501 322.874L340.243 217.302L379.438 84.1228Z" fill="#172D51"/>
<path d="M320.416 252.173L280.542 278.214C279.832 278.673 279.248 279.319 278.848 280.087C278.448 280.855 278.246 281.719 278.262 282.594C278.277 283.469 278.51 284.324 278.936 285.076C279.363 285.828 279.969 286.451 280.695 286.883L423.845 372.429C425.984 373.725 428.411 374.406 430.881 374.406C433.351 374.406 435.778 373.725 437.917 372.429C447.118 366.805 462.955 356.676 472.648 350.446C473.51 349.89 474.221 349.11 474.71 348.18C475.198 347.25 475.449 346.204 475.437 345.142C475.425 344.081 475.151 343.041 474.641 342.123C474.132 341.206 473.404 340.443 472.529 339.909C443.553 322.18 349.155 264.615 328.446 252.03C327.221 251.287 325.827 250.908 324.412 250.933C322.998 250.958 321.616 251.387 320.416 252.173Z" fill="#112E7C"/>
<path d="M322.555 322.874L372.547 352.351C373.308 352.809 373.941 353.47 374.381 354.267C374.822 355.064 375.053 355.969 375.053 356.89C375.053 357.811 374.822 358.716 374.381 359.512C373.941 360.309 373.308 360.971 372.547 361.429L343.146 379.478C342.137 380.089 340.992 380.41 339.827 380.41C338.662 380.41 337.518 380.089 336.509 379.478L285.431 348.88C284.792 348.497 284.262 347.943 283.893 347.276C283.524 346.609 283.329 345.851 283.329 345.08C283.329 344.308 283.524 343.551 283.893 342.883C284.262 342.216 284.792 341.663 285.431 341.279L315.986 322.856C316.988 322.261 318.121 321.95 319.273 321.953C320.425 321.956 321.556 322.274 322.555 322.874Z" fill="#112E7C"/>
<path opacity="0.1" d="M320.416 252.173L280.542 278.214C279.832 278.673 279.248 279.319 278.848 280.087C278.448 280.855 278.246 281.719 278.262 282.594C278.277 283.469 278.51 284.324 278.936 285.076C279.363 285.828 279.969 286.451 280.695 286.883L423.845 372.429C425.984 373.725 428.411 374.406 430.881 374.406C433.351 374.406 435.778 373.725 437.917 372.429C447.118 366.805 462.955 356.676 472.648 350.446C473.51 349.89 474.221 349.11 474.71 348.18C475.198 347.25 475.449 346.204 475.437 345.142C475.425 344.081 475.151 343.041 474.641 342.123C474.132 341.206 473.404 340.443 472.529 339.909C443.553 322.18 349.155 264.615 328.446 252.03C327.221 251.287 325.827 250.908 324.412 250.933C322.998 250.958 321.616 251.387 320.416 252.173Z" fill="#053855"/>
<path opacity="0.1" d="M322.555 322.874L372.547 352.351C373.308 352.809 373.941 353.47 374.381 354.267C374.822 355.064 375.053 355.969 375.053 356.89C375.053 357.811 374.822 358.716 374.381 359.512C373.941 360.309 373.308 360.971 372.547 361.429L343.146 379.478C342.137 380.089 340.992 380.41 339.827 380.41C338.662 380.41 337.518 380.089 336.509 379.478L285.431 348.88C284.792 348.497 284.262 347.943 283.893 347.276C283.524 346.609 283.329 345.851 283.329 345.08C283.329 344.308 283.524 343.551 283.893 342.883C284.262 342.216 284.792 341.663 285.431 341.279L315.986 322.856C316.988 322.261 318.121 321.95 319.273 321.953C320.425 321.956 321.556 322.274 322.555 322.874Z" fill="#053855"/>
<path d="M285.346 328.677C281.788 318.242 279.862 307.272 279.642 296.192C279.082 282.076 284.022 260.343 303.73 261.731C331.416 263.689 341.245 295.302 356.081 303.953C370.917 312.604 404.442 298.292 406.649 311.5C408.856 324.708 402.881 340.3 394.173 349.895C373.225 373.035 331.671 371.255 306.989 356.16C296.934 349.932 289.276 340.208 285.346 328.677Z" fill="#FA6D90"/>
<path d="M383.105 352.333C337.884 358.723 282.952 327.929 280.746 280.92C279.772 285.781 279.35 290.746 279.49 295.711C279.709 306.791 281.635 317.761 285.193 328.196C289.124 339.737 296.789 349.468 306.853 355.697C331.297 370.596 372.292 372.5 393.426 350.055C390.044 351.079 386.594 351.841 383.105 352.333Z" fill="#D64770"/>
<path d="M401.404 248.755C401.407 247.954 401.218 247.166 400.853 246.462C400.488 245.759 399.959 245.164 399.316 244.732C399.253 244.066 399.024 243.429 398.651 242.885C398.279 242.341 397.776 241.91 397.194 241.635C397.113 241.596 397.027 241.566 396.94 241.546C397.947 239.521 398.766 237.399 399.384 235.209C399.362 234.841 399.225 234.49 398.995 234.211C398.765 233.931 398.454 233.739 398.11 233.662C397.765 233.585 397.406 233.629 397.088 233.786C396.769 233.943 396.509 234.206 396.345 234.533C395.4 237.287 394.182 239.929 392.713 242.418C392.59 242.35 392.459 242.302 392.322 242.276C390.472 242.009 388.927 241.528 388.198 243.789C387.468 246.049 387.094 248.132 386.5 250.304C386.452 250.484 386.442 250.673 386.47 250.859C386.497 251.044 386.562 251.22 386.66 251.377C386.758 251.534 386.887 251.667 387.038 251.767C387.189 251.867 387.359 251.933 387.535 251.959C387.659 252.336 387.919 252.647 388.258 252.826C388.597 253.006 388.989 253.039 389.352 252.92C389.434 253.219 389.572 253.498 389.759 253.739L389.657 253.864C389.497 254.088 389.399 254.356 389.375 254.636C389.351 254.915 389.401 255.197 389.521 255.448C389.641 255.699 389.825 255.911 390.053 256.059C390.281 256.206 390.544 256.284 390.812 256.284C389.674 257.103 390.353 259.311 391.83 258.759C394.699 257.673 398.739 256.979 400.963 254.576C401.745 253.857 402.23 252.847 402.312 251.759C402.395 250.672 402.069 249.594 401.404 248.755Z" fill="#FFB5A9"/>
<path d="M392.73 253.312C392.839 253.092 392.904 252.85 392.92 252.603C392.935 252.355 392.901 252.107 392.819 251.874C392.738 251.641 392.611 251.428 392.446 251.25C392.282 251.071 392.083 250.931 391.864 250.838L392.136 250.375C392.305 250.061 392.379 249.701 392.349 249.342C392.319 248.983 392.186 248.642 391.967 248.364C391.748 248.086 391.454 247.885 391.123 247.786C390.793 247.688 390.441 247.696 390.116 247.812C389.949 247.59 389.735 247.414 389.491 247.297C389.246 247.179 388.979 247.124 388.71 247.137C388.442 247.149 388.18 247.228 387.946 247.367C387.712 247.506 387.514 247.701 387.366 247.936C385.557 251.285 383.526 254.497 381.289 257.548C381.078 257.826 380.946 258.161 380.91 258.514C380.874 258.867 380.935 259.223 381.085 259.542L380.644 260.236C380.507 260.438 380.418 260.672 380.383 260.917C380.348 261.163 380.368 261.413 380.443 261.649C380.517 261.884 380.643 262.098 380.811 262.273C380.978 262.448 381.183 262.58 381.408 262.657C381.673 263.049 382.065 263.327 382.511 263.44C382.036 264.633 383.173 265.665 384.293 265.629C384.427 265.835 384.603 266.006 384.808 266.131C385.013 266.255 385.243 266.33 385.479 266.349C385.715 266.367 385.953 266.33 386.174 266.24C386.395 266.149 386.593 266.007 386.755 265.825C389.505 262.865 391.724 259.41 393.307 255.626C393.481 255.23 393.518 254.782 393.413 254.361C393.308 253.939 393.066 253.568 392.73 253.312Z" fill="#FFB5A9"/>
<path d="M379.184 311.785C386.177 305.021 393.969 295.302 389.046 287.577C380.898 274.832 358.984 289.695 355.385 290.496C339.581 294.056 306.938 333.216 336.407 331.81C349.803 331.175 362.658 326.081 373.107 317.267C374.719 315.879 376.909 313.992 379.184 311.785Z" fill="#3E2928"/>
<path d="M378.963 311.5C379.166 310.811 379.608 310.226 380.202 309.862C382.987 308.215 386.027 307.095 389.182 306.551C389.664 306.431 390.167 306.442 390.643 306.586C391.119 306.729 391.551 307 391.898 307.37C393.137 295.106 389.012 287.523 389.012 287.523L378.046 312.443C378.369 312.141 378.64 311.82 378.963 311.5Z" fill="#3E2928"/>
<path d="M384.073 252.404C383.693 252.276 383.341 252.071 383.037 251.799L366.47 267C362.874 261.024 360.783 254.189 360.392 247.135C359.781 235.476 338.461 233.5 338.461 233.5L347.593 273.159C347.593 273.159 353.687 289.179 364.008 290.496C372.071 291.564 388.741 273.96 395.514 263.921C392.747 258.972 389.471 254.255 384.073 252.404Z" fill="#00A99D"/>
<path d="M328.429 220.097C320.843 226.981 315.113 235.832 311.81 245.765C305.954 262.746 320.603 290.514 320.603 290.514L343.418 271.61" fill="#006D62"/>
<path d="M310.486 312.693C310.327 316.064 311.124 319.409 312.778 322.305C314.893 325.813 318.093 328.452 321.842 329.781C326.514 331.442 331.449 332.137 336.373 331.828C346.558 331.134 355.334 326.185 362.752 319.368C361.343 300.589 356.285 287.488 351.973 281.08L324.371 267.107C324.541 267.107 318.99 278.748 318.736 279.371C315.892 286.329 313.697 293.56 312.183 300.963C311.264 304.807 310.695 308.735 310.486 312.693Z" fill="#3E2928"/>
<path d="M351.48 248.559L322.283 247.153L314.984 287.595C323.692 293.896 350.156 291.475 355.368 290.514C353.755 278.285 352.72 260.823 351.48 248.559Z" fill="#00A99D"/>
<path d="M351.769 231.008C354.037 227.745 355.657 224.037 356.531 220.105C357.406 216.173 357.519 212.096 356.862 208.118C355.758 200.036 351.497 193.326 343.282 191.866C330.55 189.623 321.299 200.891 321.503 213.493C321.605 220.524 322.335 225.277 317.395 228.214C312.455 231.151 308.907 238.894 313.592 245.088C318.278 251.283 314.068 249.058 310.927 254.576C307.787 260.094 308.602 267.036 315.052 269.528C321.503 272.02 351.464 267.338 354.213 264.401C355.192 263.229 355.697 261.703 355.622 260.147C354.919 256.231 352.887 252.716 349.902 250.25C347.474 248.105 345.473 245.48 344.012 242.525C341.618 237.345 348.951 234.8 351.769 231.008Z" fill="url(#paint0_linear)"/>
<path d="M605.817 386.438L614.593 381.881L608.143 378.037L605.817 386.438Z" fill="#C46200"/>
<path d="M560.528 267.036L571.171 261.411L569.915 269.385L563.295 271.45" fill="#C46200"/>
<path d="M618.786 376.666L638.935 305.715C639.458 303.871 639.372 301.896 638.691 300.11C638.01 298.323 636.775 296.83 635.184 295.872L578.538 261.785C577.448 261.143 576.232 260.774 574.984 260.704C573.736 260.634 572.49 260.866 571.341 261.383C570.193 261.899 569.173 262.685 568.36 263.681C567.548 264.676 566.964 265.855 566.656 267.125L548.679 340.265C548.234 342.091 548.377 344.02 549.086 345.753C549.795 347.485 551.031 348.922 552.6 349.841L607.073 381.739C608.14 382.349 609.323 382.701 610.536 382.769C611.749 382.838 612.962 382.621 614.084 382.135C615.207 381.648 616.212 380.905 617.026 379.958C617.839 379.012 618.441 377.887 618.786 376.666Z" fill="#C46200"/>
<path d="M609.314 381.632L629.463 310.681C629.986 308.837 629.9 306.862 629.219 305.076C628.539 303.289 627.303 301.796 625.712 300.838L569.066 266.751C567.976 266.11 566.76 265.74 565.512 265.67C564.264 265.6 563.018 265.833 561.869 266.349C560.72 266.865 559.7 267.651 558.888 268.647C558.075 269.643 557.492 270.821 557.183 272.091L539.207 345.231C538.761 347.057 538.904 348.987 539.614 350.719C540.323 352.451 541.558 353.888 543.128 354.807L597.601 386.705C598.668 387.315 599.851 387.667 601.064 387.735C602.277 387.804 603.49 387.587 604.612 387.101C605.735 386.614 606.74 385.871 607.554 384.925C608.367 383.978 608.969 382.853 609.314 381.632Z" fill="#FF8000"/>
<path d="M578.64 312.817L576.62 319.136L563.312 319.902L572.885 330.849L570.865 337.167L555.13 318.78L556.522 314.384L578.64 312.817Z" fill="white"/>
<path d="M597.856 321.343L613.575 339.749L612.183 344.127L590.081 345.712L592.101 339.375L605.393 338.609L595.836 327.68L597.856 321.343Z" fill="white"/>
<path d="M593.001 314.188L597.075 315.985L576.756 344.804L572.699 342.988L593.001 314.188Z" fill="white"/>
<path d="M433.674 140.211V144.999L395.514 121.734V117.071L433.674 140.211Z" fill="#F7931E"/>
<path d="M543.519 206.8L437.425 142.507V147.313L542.67 211.393C542.959 209.88 543.23 208.26 543.519 206.8Z" fill="#00A99D"/>
<path d="M540.972 220.862L528.122 213.066V218.157L540.175 225.508C540.491 223.966 540.757 222.417 540.972 220.862Z" fill="#8CC63F"/>
<path d="M524.405 210.77V215.861L464.178 179.157V174.262L524.405 210.77Z" fill="#F7931E"/>
<path d="M460.375 171.966V176.843L420.976 152.831V148.078L460.375 171.966Z" fill="#F15A24"/>
<path d="M417.191 145.782V150.517L395.514 137.309V132.646L417.191 145.782Z" fill="#8CC63F"/>
<path d="M538.511 234.764L436.254 172.785V177.591L537.577 239.321C537.883 237.808 538.206 236.295 538.511 234.764Z" fill="#00A99D"/>
<path d="M421.129 181.293V186.081L382.969 162.834V158.171L421.129 181.293Z" fill="#F7931E"/>
<path d="M530.991 247.901L424.931 183.607V188.413L530.177 252.493C530.431 250.98 530.703 249.431 530.991 247.901Z" fill="#00A99D"/>
<path d="M528.513 261.963L515.663 254.166V259.257L527.715 266.609C527.987 265.066 528.253 263.517 528.513 261.963Z" fill="#8CC63F"/>
<path d="M511.86 251.87V256.943L451.633 220.239V215.362L511.86 251.87Z" fill="#F7931E"/>
<path d="M447.848 213.066V217.925L408.449 193.931V189.178L447.848 213.066Z" fill="#F15A24"/>
<path d="M404.646 186.882V191.617L382.969 178.409V173.746L404.646 186.882Z" fill="#8CC63F"/>
<path d="M525.967 275.9L423.709 213.92V218.726L525.016 280.457C525.356 278.908 525.695 277.395 525.967 275.9Z" fill="#00A99D"/>
<path d="M367.064 151.14L374.346 147.366L368.999 144.162L367.064 151.14Z" fill="#066D0A"/>
<path d="M329.413 51.887L338.257 47.2056L337.222 53.8272L331.705 55.5538" fill="#066D0A"/>
<path d="M377.843 143.023L394.597 84.0338C395.029 82.4995 394.956 80.8572 394.39 79.3717C393.823 77.8862 392.796 76.6442 391.474 75.8458L344.385 47.526C343.48 46.9852 342.469 46.6699 341.43 46.6044C340.39 46.5389 339.35 46.725 338.39 47.1483C337.43 47.5716 336.576 48.2207 335.894 49.0455C335.211 49.8703 334.719 50.8486 334.455 51.9048L319.517 112.71C319.146 114.23 319.265 115.835 319.854 117.277C320.443 118.719 321.471 119.917 322.776 120.684L368.065 147.206C368.952 147.718 369.936 148.016 370.947 148.078C371.958 148.139 372.969 147.963 373.906 147.562C374.843 147.161 375.683 146.545 376.365 145.76C377.046 144.975 377.551 144.039 377.843 143.023Z" fill="#066D0A"/>
<path d="M369.966 147.153L386.721 88.1634C387.153 86.6291 387.08 84.9868 386.514 83.5013C385.947 82.0158 384.92 80.7738 383.597 79.9754L336.509 51.62C335.604 51.0792 334.593 50.7639 333.553 50.6984C332.514 50.6329 331.474 50.819 330.514 51.2423C329.554 51.6655 328.7 52.3147 328.017 53.1395C327.335 53.9643 326.843 54.9426 326.578 55.9988L311.64 116.804C311.27 118.324 311.388 119.929 311.978 121.371C312.567 122.813 313.594 124.011 314.9 124.778L360.189 151.3C361.073 151.813 362.056 152.112 363.065 152.176C364.073 152.24 365.083 152.066 366.02 151.669C366.957 151.272 367.797 150.66 368.48 149.879C369.163 149.097 369.671 148.166 369.966 147.153Z" fill="#139E20"/>
<path d="M344.198 74.671L342.586 80.011L340.667 78.9964C340.382 78.8204 340.061 78.7173 339.731 78.6957C339.401 78.674 339.07 78.7344 338.766 78.8718C338.439 79.047 338.153 79.2985 337.933 79.607C337.712 79.9155 337.562 80.2729 337.493 80.6518L335.32 87.9142C335.109 88.6585 334.794 89.3662 334.387 90.0146C334.113 90.4862 333.741 90.8876 333.3 91.1894C332.98 91.3906 332.638 91.5518 332.282 91.67C332.044 91.7638 331.788 91.8003 331.535 91.7768H331.246L331.484 92.0438C331.661 92.286 331.819 92.5418 331.959 92.8092C332.183 93.2169 332.354 93.6538 332.468 94.1086C332.583 94.6939 332.629 95.2916 332.604 95.8886C332.586 96.711 332.455 97.5265 332.214 98.3094L330.024 105.607C329.754 106.371 329.754 107.211 330.024 107.975C330.286 108.698 330.794 109.294 331.45 109.648L333.385 110.698L331.688 116.038L328.802 114.454C326.934 113.526 325.463 111.902 324.677 109.897C323.953 107.767 323.953 105.441 324.677 103.311L327.087 95.675C327.374 94.8714 327.374 93.9865 327.087 93.183C326.783 92.4038 326.215 91.7699 325.492 91.403L326.969 86.4368C327.274 86.6386 327.621 86.7629 327.98 86.8C328.339 86.8371 328.702 86.7859 329.04 86.6504C329.371 86.4762 329.661 86.2256 329.887 85.9173C330.114 85.6091 330.271 85.2512 330.347 84.8704L332.638 77.2164C332.845 76.2147 333.255 75.2715 333.841 74.4513C334.427 73.631 335.175 72.9531 336.033 72.4638C336.902 72.1225 337.836 71.9995 338.758 72.1046C339.681 72.2097 340.567 72.54 341.346 73.069L344.198 74.671Z" fill="white"/>
<path d="M369.525 88.5016C371.393 89.4291 372.864 91.054 373.65 93.0584C374.376 95.1817 374.376 97.5033 373.65 99.6266L371.223 107.263C370.936 108.066 370.936 108.951 371.223 109.755C371.53 110.532 372.097 111.165 372.818 111.535L371.341 116.501C371.038 116.303 370.695 116.179 370.34 116.139C369.984 116.099 369.624 116.144 369.287 116.27C368.955 116.445 368.663 116.696 368.434 117.003C368.205 117.311 368.045 117.669 367.963 118.05L365.689 125.686C365.485 126.691 365.075 127.637 364.489 128.461C363.903 129.284 363.154 129.965 362.294 130.456C361.425 130.797 360.491 130.921 359.569 130.815C358.646 130.71 357.759 130.38 356.98 129.851L354.095 128.267L355.792 122.927L357.71 123.977C357.994 124.155 358.314 124.262 358.643 124.29C358.973 124.317 359.304 124.265 359.612 124.137C359.925 123.972 360.2 123.736 360.417 123.447C360.634 123.158 360.788 122.822 360.868 122.464L363.058 115.166C363.269 114.416 363.583 113.702 363.991 113.048C364.264 112.58 364.635 112.184 365.078 111.891C365.4 111.711 365.735 111.556 366.079 111.428C366.326 111.32 366.595 111.283 366.86 111.321H367.115L366.877 111.072C366.705 110.826 366.547 110.571 366.402 110.307C366.169 109.897 365.998 109.453 365.892 108.989C365.779 108.404 365.734 107.806 365.757 107.209C365.775 106.387 365.907 105.572 366.147 104.789L368.32 97.5262C368.585 96.7494 368.585 95.9 368.32 95.1232C368.08 94.3601 367.569 93.7228 366.894 93.3432L364.976 92.293L366.588 86.953L369.525 88.5016Z" fill="white"/>
<path d="M361.53 95.6394L352.312 103.151L355.317 117.889L349.698 114.81L347.729 105.643L341.601 110.378L335.999 107.316L345.743 99.5554L342.959 85.4756L348.782 88.6618L350.292 97.0812L355.724 92.4532L361.53 95.6394Z" fill="white"/>
</g>
<defs>
<filter id="filter0_d" x="0" y="0" width="726" height="630" filterUnits="userSpaceOnUse" color-interpolation-filters="sRGB">
<feFlood flood-opacity="0" result="BackgroundImageFix"/>
<feColorMatrix in="SourceAlpha" type="matrix" values="0 0 0 0 0 0 0 0 0 0 0 0 0 0 0 0 0 0 127 0"/>
<feOffset dx="-27" dy="40"/>
<feGaussianBlur stdDeviation="10"/>
<feColorMatrix type="matrix" values="0 0 0 0 0 0 0 0 0 0 0 0 0 0 0 0 0 0 0.25 0"/>
<feBlend mode="normal" in2="BackgroundImageFix" result="effect1_dropShadow"/>
<feBlend mode="normal" in="SourceGraphic" in2="effect1_dropShadow" result="shape"/>
</filter>
<linearGradient id="paint0_linear" x1="333.217" y1="191.579" x2="323.686" y2="270.522" gradientUnits="userSpaceOnUse">
<stop stop-color="#FF8A00"/>
<stop offset="1" stop-color="#ED7600"/>
</linearGradient>
<clipPath id="clip0">
<rect width="679" height="570" fill="white" transform="translate(47)"/>
</clipPath>
</defs>
</svg>
