<svg width="1881" height="670" viewBox="0 0 1881 670" fill="none" xmlns="http://www.w3.org/2000/svg">
<g filter="url(#filter0_f)">
<path d="M1392.74 4L1321 177.922L1392.74 218L1526 150.7L1392.74 4Z" fill="url(#paint0_linear)"/>
</g>
<g filter="url(#filter1_f)">
<path d="M552.019 193.29L478.427 173.361L469.644 209.73L507.891 266.394L552.019 193.29Z" fill="url(#paint1_linear)"/>
</g>
<g filter="url(#filter2_f)">
<path d="M208.25 204.876L95.3397 69.9053L30.5416 119.948L27.8871 269.153L208.25 204.876Z" fill="url(#paint2_linear)"/>
</g>
<g filter="url(#filter3_f)">
<path d="M386.122 505.867L473.84 349.766L330.353 419.495L100.771 606.221L386.122 505.867Z" fill="url(#paint3_linear)"/>
</g>
<g filter="url(#filter4_f)">
<path d="M575.873 544.86L629.151 486.185L617.665 460.844L568.649 469.422L575.873 544.86Z" fill="url(#paint4_linear)"/>
</g>
<g filter="url(#filter5_f)">
<path d="M1035.77 85.5126L1055.51 54.5426L1044.97 44.0565L1019.31 52.0374L1035.77 85.5126Z" fill="url(#paint5_linear)"/>
</g>
<g filter="url(#filter6_f)">
<path d="M935.228 365.225L982.492 367.385L979.984 342.029L945.681 310.295L935.228 365.225Z" fill="url(#paint6_linear)"/>
</g>
<g filter="url(#filter7_f)">
<path d="M1582.75 470.015L1666.14 549.857L1696.12 553.672L1676.71 505.348L1582.75 470.015Z" fill="url(#paint7_linear)"/>
</g>
<path d="M76.6301 378.637L83.4826 385.84L75.6277 400.941L96.1904 399.179L103.043 406.382L68.7338 408.964L63.9569 403.968L76.6301 378.637Z" fill="#FBF1DD" fill-opacity="0.5"/>
<path d="M100.714 364.133L135.025 361.56L139.774 366.541L127.123 391.884L120.254 384.669L128.105 369.577L107.582 371.347L100.714 364.133Z" fill="#FBF1DD" fill-opacity="0.5"/>
<path d="M88.1419 363.616L93.197 360.632L117.495 405.737L112.428 408.689L88.1419 363.616Z" fill="#FBF1DD" fill-opacity="0.5"/>
<path d="M1123.59 502.318L1121.1 508.995L1106.69 510.209L1116.49 521.37L1113.99 528.046L1097.91 509.289L1099.63 504.644L1123.59 502.318Z" fill="#FDECCA" fill-opacity="0.25"/>
<path d="M1140.55 507.44L1157.98 527.017L1156.13 531.847L1130.2 534.32L1132.89 527.33L1148.47 526.047L1137.86 514.43L1140.55 507.44Z" fill="#FDECCA" fill-opacity="0.25"/>
<path d="M1134.59 500.094L1137.75 502.283L1119.76 539.342L1116.62 537.13L1134.59 500.094Z" fill="#FDECCA" fill-opacity="0.25"/>
<path d="M1802 392.732C1802.18 392.762 1802.32 392.851 1802.42 392.999C1802.52 393.147 1802.56 393.307 1802.53 393.481L1799.89 408.759C1799.86 408.932 1799.78 409.071 1799.63 409.175C1799.48 409.28 1799.32 409.317 1799.15 409.287L1794.27 408.446C1794.1 408.416 1793.96 408.327 1793.86 408.179C1793.75 408.031 1793.72 407.871 1793.75 407.697L1794.61 402.66L1789.88 401.843L1789.02 406.881C1788.99 407.054 1788.9 407.193 1788.75 407.297C1788.6 407.402 1788.44 407.439 1788.27 407.409L1783.39 406.568C1783.22 406.538 1783.08 406.457 1782.97 406.325C1782.87 406.177 1782.83 406.008 1782.87 405.819L1785.5 390.541C1785.53 390.368 1785.62 390.229 1785.77 390.125C1785.92 390.02 1786.08 389.983 1786.25 390.013L1791.12 390.854C1791.3 390.884 1791.44 390.973 1791.54 391.121C1791.65 391.269 1791.68 391.429 1791.65 391.603L1790.82 396.451L1795.55 397.268L1796.38 392.419C1796.41 392.246 1796.5 392.107 1796.65 392.003C1796.8 391.898 1796.96 391.861 1797.13 391.891L1802 392.732ZM1822.62 396.291C1822.79 396.32 1822.93 396.409 1823.03 396.557C1823.14 396.705 1823.18 396.866 1823.15 397.039L1822.49 400.847C1822.46 401.02 1822.37 401.159 1822.22 401.264C1822.07 401.368 1821.91 401.405 1821.74 401.375L1816.65 400.498L1814.78 411.329C1814.75 411.503 1814.67 411.642 1814.52 411.746C1814.37 411.85 1814.21 411.888 1814.04 411.858L1809.16 411.017C1808.99 410.987 1808.85 410.898 1808.75 410.75C1808.64 410.602 1808.61 410.441 1808.64 410.268L1810.51 399.436L1805.42 398.558C1805.25 398.528 1805.11 398.439 1805 398.291C1804.9 398.144 1804.86 397.983 1804.89 397.809L1805.55 394.002C1805.58 393.828 1805.67 393.689 1805.82 393.585C1805.96 393.481 1806.13 393.443 1806.3 393.473L1822.62 396.291ZM1837.78 399.565C1838.09 399.18 1838.46 399.026 1838.9 399.102L1843.23 399.849C1843.4 399.879 1843.54 399.968 1843.65 400.116C1843.75 400.264 1843.79 400.424 1843.76 400.598L1841.12 415.876C1841.09 416.049 1841 416.188 1840.86 416.293C1840.71 416.397 1840.55 416.434 1840.37 416.404L1836.09 415.665C1835.92 415.635 1835.78 415.546 1835.68 415.398C1835.57 415.251 1835.53 415.09 1835.56 414.916L1836.83 407.585L1834.52 410.692C1834.45 410.795 1834.32 410.902 1834.12 411.014C1833.92 411.126 1833.69 411.158 1833.42 411.112L1831.81 410.835C1831.54 410.788 1831.34 410.679 1831.19 410.507C1831.04 410.336 1830.95 410.19 1830.92 410.072L1829.78 406.368L1828.52 413.7C1828.49 413.873 1828.4 414.012 1828.25 414.116C1828.1 414.221 1827.94 414.258 1827.77 414.228L1823.49 413.489C1823.31 413.459 1823.17 413.37 1823.07 413.222C1822.97 413.074 1822.93 412.914 1822.96 412.74L1825.6 397.462C1825.63 397.289 1825.71 397.15 1825.86 397.046C1826.01 396.941 1826.17 396.904 1826.34 396.934L1830.67 397.681C1831.11 397.757 1831.42 398.029 1831.58 398.495L1833.7 404.706L1837.78 399.565ZM1860.81 414.939C1860.98 414.969 1861.12 415.058 1861.22 415.206C1861.33 415.354 1861.37 415.514 1861.34 415.688L1860.72 419.259C1860.69 419.432 1860.6 419.571 1860.45 419.675C1860.3 419.78 1860.14 419.817 1859.97 419.787L1846.16 417.403C1845.98 417.373 1845.85 417.284 1845.74 417.136C1845.64 416.988 1845.6 416.827 1845.63 416.654L1848.27 401.376C1848.3 401.203 1848.39 401.064 1848.53 400.959C1848.68 400.855 1848.84 400.818 1849.02 400.848L1854.12 401.73C1854.3 401.759 1854.44 401.848 1854.54 401.996C1854.65 402.144 1854.68 402.305 1854.65 402.478L1852.74 413.547L1860.81 414.939Z" fill="#AEBEFA" fill-opacity="0.09"/>
<path d="M1696.6 38.7391L1698.38 43.6228L1696.15 44.3431C1695.8 44.4328 1695.47 44.5993 1695.18 44.8291C1694.88 45.0589 1694.64 45.3454 1694.46 45.6656C1694.29 46.0293 1694.19 46.4143 1694.19 46.7909C1694.18 47.1675 1694.26 47.5259 1694.43 47.8385L1696.87 54.4652C1697.13 55.136 1697.28 55.858 1697.31 56.6079C1697.36 57.1368 1697.28 57.6891 1697.08 58.2244C1696.93 58.6009 1696.73 58.9655 1696.5 59.311C1696.35 59.5523 1696.16 59.7667 1695.93 59.9382L1695.68 60.152L1696.04 60.1604C1696.34 60.1968 1696.62 60.2559 1696.9 60.337C1697.33 60.453 1697.73 60.6279 1698.1 60.8573C1698.54 61.1769 1698.93 61.556 1699.27 61.9863C1699.74 62.5677 1700.11 63.2285 1700.36 63.9479L1702.81 70.6119C1703.03 71.3398 1703.53 71.9202 1704.21 72.2473C1704.86 72.5528 1705.64 72.5882 1706.41 72.3467L1708.67 71.6385L1710.38 76.5851L1706.99 77.6287C1704.86 78.3721 1702.65 78.3393 1700.79 77.537C1698.92 76.6021 1697.55 74.9949 1696.91 72.9873L1694.45 65.9262C1694.22 65.159 1693.69 64.5476 1692.98 64.2047C1692.26 63.892 1691.4 63.8752 1690.57 64.1572L1688.89 59.6324C1689.27 59.5453 1689.64 59.3746 1689.97 59.1339C1690.3 58.8932 1690.57 58.5891 1690.78 58.2456C1690.96 57.8794 1691.06 57.4916 1691.07 57.1109C1691.08 56.7303 1691 56.3668 1690.84 56.0475L1688.27 49.0622C1687.86 48.2173 1687.65 47.2618 1687.66 46.2611C1687.68 45.2604 1687.91 44.2379 1688.35 43.2637C1688.89 42.3839 1689.61 41.6075 1690.46 40.9965C1691.31 40.3855 1692.25 39.957 1693.23 39.7453L1696.6 38.7391Z" fill="#FFF2C4" fill-opacity="0.27"/>
<path d="M1726.31 29.5291C1728.44 28.7858 1730.65 28.8185 1732.5 29.6209C1734.37 30.5501 1735.74 32.1539 1736.38 34.1583L1738.82 41.2319C1739.06 41.9992 1739.58 42.6105 1740.3 42.9534C1741.02 43.2628 1741.87 43.2797 1742.7 43.0009L1744.38 47.5258C1744 47.6139 1743.64 47.7821 1743.31 48.0179C1742.99 48.2537 1742.71 48.5511 1742.5 48.8877C1742.32 49.2553 1742.22 49.6443 1742.2 50.0266C1742.19 50.409 1742.26 50.775 1742.42 51.0983L1744.99 58.0588C1745.41 58.9043 1745.62 59.8614 1745.61 60.8644C1745.6 61.8675 1745.36 62.8927 1744.92 63.8696C1744.38 64.7494 1743.66 65.5259 1742.82 66.1369C1741.97 66.7479 1741.02 67.1764 1740.05 67.3881L1736.66 68.4318L1734.95 63.4851L1737.2 62.7895C1737.55 62.7019 1737.88 62.5393 1738.18 62.3143C1738.47 62.0892 1738.73 61.8077 1738.91 61.4915C1739.08 61.145 1739.17 60.7785 1739.19 60.4179C1739.2 60.0574 1739.14 59.7115 1738.99 59.405L1736.55 52.741C1736.28 52.0664 1736.13 51.3404 1736.09 50.586C1736.04 50.0608 1736.13 49.5117 1736.33 48.9818C1736.5 48.6186 1736.69 48.2638 1736.91 47.9201C1737.05 47.6627 1737.26 47.4375 1737.51 47.2678L1737.73 47.0791L1737.38 47.083C1737.09 47.0402 1736.8 46.9813 1736.52 46.9064C1736.08 46.7955 1735.67 46.616 1735.31 46.3738C1734.87 46.0533 1734.48 45.6742 1734.14 45.2448C1733.67 44.6627 1733.31 44.0021 1733.05 43.2832L1730.61 36.6564C1730.37 35.923 1729.87 35.3362 1729.19 34.9964C1728.53 34.647 1727.72 34.585 1726.93 34.8232L1724.67 35.5188L1722.89 30.6351L1726.31 29.5291Z" fill="#FFF2C4" fill-opacity="0.27"/>
<path d="M1723.72 40.3836L1720.31 52.402L1731.57 60.3574L1724.97 62.393L1717.89 57.5192L1715.47 65.3303L1708.9 67.3656L1712.6 54.7853L1701.93 47.1213L1708.76 45.0086L1715.01 49.7055L1716.9 42.4838L1723.72 40.3836Z" fill="#FFF2C4" fill-opacity="0.27"/>
<defs>
<filter id="filter0_f" x="1317" y="0" width="213" height="222" filterUnits="userSpaceOnUse" color-interpolation-filters="sRGB">
<feFlood flood-opacity="0" result="BackgroundImageFix"/>
<feBlend mode="normal" in="SourceGraphic" in2="BackgroundImageFix" result="shape"/>
<feGaussianBlur stdDeviation="2" result="effect1_foregroundBlur"/>
</filter>
<filter id="filter1_f" x="459" y="156" width="109.36" height="119.564" filterUnits="userSpaceOnUse" color-interpolation-filters="sRGB">
<feFlood flood-opacity="0" result="BackgroundImageFix"/>
<feBlend mode="normal" in="SourceGraphic" in2="BackgroundImageFix" result="shape"/>
<feGaussianBlur stdDeviation="2" result="effect1_foregroundBlur"/>
</filter>
<filter id="filter2_f" x="-32" y="50.0001" width="275.767" height="281.372" filterUnits="userSpaceOnUse" color-interpolation-filters="sRGB">
<feFlood flood-opacity="0" result="BackgroundImageFix"/>
<feBlend mode="normal" in="SourceGraphic" in2="BackgroundImageFix" result="shape"/>
<feGaussianBlur stdDeviation="2" result="effect1_foregroundBlur"/>
</filter>
<filter id="filter3_f" x="79.2321" y="329.591" width="443.933" height="339.84" filterUnits="userSpaceOnUse" color-interpolation-filters="sRGB">
<feFlood flood-opacity="0" result="BackgroundImageFix"/>
<feBlend mode="normal" in="SourceGraphic" in2="BackgroundImageFix" result="shape"/>
<feGaussianBlur stdDeviation="2" result="effect1_foregroundBlur"/>
</filter>
<filter id="filter4_f" x="536" y="439" width="104.978" height="119.467" filterUnits="userSpaceOnUse" color-interpolation-filters="sRGB">
<feFlood flood-opacity="0" result="BackgroundImageFix"/>
<feBlend mode="normal" in="SourceGraphic" in2="BackgroundImageFix" result="shape"/>
<feGaussianBlur stdDeviation="2" result="effect1_foregroundBlur"/>
</filter>
<filter id="filter5_f" x="1009" y="35" width="52.2299" height="57.2348" filterUnits="userSpaceOnUse" color-interpolation-filters="sRGB">
<feFlood flood-opacity="0" result="BackgroundImageFix"/>
<feBlend mode="normal" in="SourceGraphic" in2="BackgroundImageFix" result="shape"/>
<feGaussianBlur stdDeviation="2" result="effect1_foregroundBlur"/>
</filter>
<filter id="filter6_f" x="911" y="299" width="83.8743" height="91.2373" filterUnits="userSpaceOnUse" color-interpolation-filters="sRGB">
<feFlood flood-opacity="0" result="BackgroundImageFix"/>
<feBlend mode="normal" in="SourceGraphic" in2="BackgroundImageFix" result="shape"/>
<feGaussianBlur stdDeviation="2" result="effect1_foregroundBlur"/>
</filter>
<filter id="filter7_f" x="1570" y="444" width="146.365" height="125.524" filterUnits="userSpaceOnUse" color-interpolation-filters="sRGB">
<feFlood flood-opacity="0" result="BackgroundImageFix"/>
<feBlend mode="normal" in="SourceGraphic" in2="BackgroundImageFix" result="shape"/>
<feGaussianBlur stdDeviation="2" result="effect1_foregroundBlur"/>
</filter>
<linearGradient id="paint0_linear" x1="1403.6" y1="153.724" x2="1470.83" y2="154.117" gradientUnits="userSpaceOnUse">
<stop stop-color="#1D53A4"/>
<stop offset="1" stop-color="#1D368F" stop-opacity="0"/>
</linearGradient>
<linearGradient id="paint1_linear" x1="495.391" y1="209.83" x2="501.397" y2="241.069" gradientUnits="userSpaceOnUse">
<stop stop-color="#4975B6" stop-opacity="0.42"/>
<stop offset="1" stop-color="#1D368F" stop-opacity="0"/>
</linearGradient>
<linearGradient id="paint2_linear" x1="79.1478" y1="155.436" x2="49.2131" y2="217.045" gradientUnits="userSpaceOnUse">
<stop stop-color="#1254B7" stop-opacity="0.42"/>
<stop offset="1" stop-color="#8B9CD8" stop-opacity="0"/>
</linearGradient>
<linearGradient id="paint3_linear" x1="326.972" y1="458.436" x2="200.221" y2="535.535" gradientUnits="userSpaceOnUse">
<stop stop-color="#4B86DF" stop-opacity="0.42"/>
<stop offset="1" stop-color="#8B9CD8" stop-opacity="0"/>
</linearGradient>
<linearGradient id="paint4_linear" x1="602.19" y1="484.625" x2="584.128" y2="475.55" gradientUnits="userSpaceOnUse">
<stop stop-color="#4B86DF" stop-opacity="0.42"/>
<stop offset="1" stop-color="#8B9CD8" stop-opacity="0"/>
</linearGradient>
<linearGradient id="paint5_linear" x1="1040.35" y1="56.0961" x2="1028.88" y2="53.4858" gradientUnits="userSpaceOnUse">
<stop stop-color="#4B86DF" stop-opacity="0.42"/>
<stop offset="1" stop-color="#8B9CD8" stop-opacity="0"/>
</linearGradient>
<linearGradient id="paint6_linear" x1="964.894" y1="345.817" x2="954.85" y2="326.043" gradientUnits="userSpaceOnUse">
<stop stop-color="#4B86DF" stop-opacity="0.42"/>
<stop offset="1" stop-color="#8B9CD8" stop-opacity="0"/>
</linearGradient>
<linearGradient id="paint7_linear" x1="1663.39" y1="526.752" x2="1671.61" y2="515.66" gradientUnits="userSpaceOnUse">
<stop stop-color="#4B86DF" stop-opacity="0.42"/>
<stop offset="1" stop-color="#8B9CD8" stop-opacity="0"/>
</linearGradient>
</defs>
</svg>
