<svg width="40" height="40" viewBox="0 0 40 40" fill="none" xmlns="http://www.w3.org/2000/svg">
<path d="M15 18.3333H11.6667V21.6667H15V18.3333ZM21.6667 18.3333H18.3333V21.6667H21.6667V18.3333ZM28.3333 18.3333H25V21.6667H28.3333V18.3333ZM31.6667 6.66667H30V3.33333H26.6667V6.66667H13.3333V3.33333H10V6.66667H8.33333C6.48333 6.66667 5.01667 8.16667 5.01667 10L5 33.3333C5 35.1667 6.48333 36.6667 8.33333 36.6667H31.6667C33.5 36.6667 35 35.1667 35 33.3333V10C35 8.16667 33.5 6.66667 31.6667 6.66667ZM31.6667 33.3333H8.33333V15H31.6667V33.3333Z" fill="#544700"/>
</svg>
