<svg width="329" height="262" viewBox="0 0 329 262" fill="none" xmlns="http://www.w3.org/2000/svg">
<g filter="url(#filter0_d)">
<path d="M6.00933 155.022L10.0966 157.546L184.51 54.0125L316.934 136.477L322.979 134.607V142.019C323.057 142.785 322.918 143.558 322.579 144.244C322.24 144.929 321.715 145.497 321.069 145.878L154.066 245.245C151.701 246.652 149.023 247.398 146.297 247.41C143.57 247.422 140.886 246.7 138.51 245.315L9.45673 170.104C8.22385 169.391 7.23805 168.295 6.63838 166.971C6.03871 165.646 5.85543 164.16 6.11438 162.722L6.00933 155.022Z" fill="#112E7C"/>
<path d="M6.00933 155.022L10.0966 157.546L184.51 54.0125L316.934 136.477L322.979 134.607V142.019C323.057 142.785 322.918 143.558 322.579 144.244C322.24 144.929 321.715 145.497 321.069 145.878L154.066 245.245C151.701 246.652 149.023 247.398 146.297 247.41C143.57 247.422 140.886 246.7 138.51 245.315L9.45673 170.104C8.22385 169.391 7.23805 168.295 6.63838 166.971C6.03871 165.646 5.85543 164.16 6.11438 162.722L6.00933 155.022Z" fill="#112E7C"/>
<path opacity="0.39" d="M6.00933 155.022L10.0966 157.546L184.51 54.0125L316.934 136.477L322.979 134.607V142.019C323.057 142.785 322.918 143.558 322.579 144.244C322.24 144.929 321.715 145.497 321.069 145.878L154.066 245.245C151.701 246.652 149.023 247.398 146.297 247.41C143.57 247.422 140.886 246.7 138.51 245.315L9.45673 170.104C8.22385 169.391 7.23805 168.295 6.63838 166.971C6.03871 165.646 5.85543 164.16 6.11438 162.722L6.00933 155.022Z" fill="#124577"/>
<path d="M321.078 136.725L154.066 236.093C151.701 237.499 149.024 238.245 146.297 238.257C143.57 238.269 140.887 237.547 138.51 236.162L9.45682 160.951C8.41406 160.339 7.54663 159.452 6.94311 158.379C6.33959 157.306 6.02159 156.087 6.02159 154.845C6.02159 153.604 6.33959 152.384 6.94311 151.311C7.54663 150.239 8.41406 149.351 9.45682 148.739L184.548 44.8298L321.183 129.937C321.744 130.298 322.204 130.803 322.52 131.403C322.836 132.003 322.997 132.678 322.986 133.362C322.975 134.045 322.794 134.715 322.46 135.304C322.126 135.894 321.65 136.383 321.078 136.725Z" fill="#112E7C"/>
<path d="M301.272 132.589L157.656 217.973L30.3512 143.811L175.953 55.2009L301.272 132.589Z" fill="white"/>
<path opacity="0.39" d="M78.3664 188.649C81.8737 188.649 84.7169 187.04 84.7169 185.056C84.7169 183.072 81.8737 181.464 78.3664 181.464C74.8591 181.464 72.0159 183.072 72.0159 185.056C72.0159 187.04 74.8591 188.649 78.3664 188.649Z" fill="#124577"/>
<path d="M163.243 187.778C164.391 187.029 165.332 185.985 165.975 184.747C166.618 183.509 166.94 182.12 166.91 180.714C166.88 179.309 166.499 177.935 165.805 176.728C165.11 175.52 164.126 174.52 162.947 173.824L98.9648 136.041C96.613 134.651 93.9494 133.927 91.242 133.943C88.5346 133.958 85.8789 134.713 83.5422 136.13C82.3648 136.856 81.3914 137.89 80.7189 139.127C80.0463 140.364 79.698 141.762 79.7087 143.182C79.7193 144.603 80.0884 145.995 80.7794 147.221C81.4704 148.448 82.4591 149.465 83.6473 150.173L147.381 188.075C149.802 189.521 152.558 190.258 155.352 190.205C158.146 190.153 160.874 189.314 163.243 187.778Z" fill="#9EE8E1"/>
<path d="M194.718 150.717C227.787 150.717 254.594 138.005 254.594 122.325C254.594 106.644 227.787 93.9329 194.718 93.9329C161.65 93.9329 134.842 106.644 134.842 122.325C134.842 138.005 161.65 150.717 194.718 150.717Z" stroke="#29ABE2" stroke-miterlimit="10"/>
<path d="M60.2413 33.2684L61.7597 89.0035C61.8125 89.599 62.0023 90.1726 62.3132 90.6764C62.6241 91.1802 63.0469 91.5995 63.5464 91.899C64.0459 92.1985 64.6073 92.3695 65.1837 92.3978C65.7601 92.426 66.3347 92.3107 66.8592 92.0614L110.023 67.2616C110.754 66.8843 111.367 66.3003 111.792 65.577C112.216 64.8537 112.434 64.0208 112.42 63.1745L111.465 9.34938C111.455 8.72847 111.292 8.12058 110.992 7.5829C110.692 7.04521 110.265 6.59539 109.751 6.27573C109.237 5.95608 108.654 5.77709 108.055 5.75561C107.456 5.73413 106.861 5.87085 106.328 6.15293L62.6096 29.1912C61.8854 29.5719 61.2792 30.1562 60.8603 30.8772C60.4415 31.5983 60.227 32.4269 60.2413 33.2684Z" fill="#F3DC0A"/>
<path d="M82.9502 63.8701C80.8047 60.0106 78.777 56.1214 76.8671 52.2026C76.5687 51.6023 76.1246 51.093 75.5786 50.7246C75.0325 50.3562 74.4034 50.1415 73.7529 50.1015C73.1025 50.0616 72.4533 50.1978 71.8691 50.4968C71.2849 50.7958 70.7859 51.2472 70.4211 51.8067L70.3734 51.8859C70.0026 52.4665 69.7862 53.1382 69.746 53.8332C69.7057 54.5282 69.8431 55.2219 70.1442 55.8443C72.1592 59.882 74.2314 63.8998 76.3992 67.8583C78.777 72.262 85.3758 68.2937 82.9502 63.8701Z" fill="white"/>
<path d="M76.657 63.9663C84.4659 51.3716 91.6068 38.3455 98.0481 24.9457C100.235 20.4034 106.795 24.3916 104.618 28.9042C98.1769 42.3039 91.0359 55.3301 83.2271 67.9247C80.5819 72.1999 74.0023 68.2513 76.657 63.9663Z" fill="white"/>
<path style="mix-blend-mode:multiply" opacity="0.46" d="M162.555 121.019L114.722 148.154L162.555 174.854L233.27 134.329" fill="url(#paint0_linear)"/>
<path d="M233.27 134.339C233.27 134.339 232.21 116.843 231.818 112.508C231.465 108.55 230.205 91.3999 219.824 85.9669C206.703 79.099 191.586 70.1924 177.615 74.3389C166.289 77.7036 162.431 118.317 162.555 121.029C162.813 125.888 197.908 151.608 233.27 134.339Z" fill="#9FE30F"/>
<path d="M206.445 88.0447C206.445 88.8364 197.182 99.7716 194.986 98.3564C192.789 96.9413 191.729 87.1639 190.354 88.0447C188.979 88.9254 183.927 95.2491 183.202 94.7543C182.476 94.2594 184.29 77.4954 185.78 74.6849C187.27 71.8744 206.445 81.8299 206.445 88.0447Z" fill="#2B415D"/>
<path d="M183.163 47.3521C183.163 47.3521 183.221 58.7227 183.163 62.9484C183.106 67.4016 184.921 79.4353 191.987 79.0494C199.054 78.6634 206.312 70.1429 206.312 68.1636C206.312 68.1636 213.455 63.5619 209.415 60.0191C205.376 56.4763 205.07 62.4734 205.07 62.4734C205.07 62.4734 202.883 59.1779 202.73 50.3308C202.721 50.3506 192.637 52.0032 183.163 47.3521Z" fill="#FFAC73"/>
<path d="M205.968 79.9913C202.368 83.4351 196.504 84.0784 191.08 83.2669C190.674 83.2361 190.29 83.0606 189.994 82.7703C189.698 82.4799 189.508 82.0925 189.457 81.6736C189.371 79.9517 189.266 78.2298 189.122 76.5177L207.754 67.0471L206.312 79.348C206.312 79.348 206.197 79.6251 205.968 79.9913Z" fill="#FFAC73"/>
<path d="M193.19 83.4935C192.465 83.4341 191.739 83.355 191.023 83.256C190.631 83.2273 190.261 83.0587 189.975 82.7791C189.69 82.4994 189.506 82.1259 189.456 81.7221C189.456 80.8215 189.371 79.9309 189.313 79.0402C193.257 79.0402 200.276 78.0506 203.981 70.5098C203.502 73.4901 202.242 76.2769 200.339 78.5664C198.436 80.8558 195.963 82.5601 193.19 83.4935Z" fill="#E5894A"/>
<path d="M183.192 53.825C183.192 53.825 178.713 50.8561 179.248 43.9783C179.783 37.1005 187.155 33.1519 197.192 33.7358C207.228 34.3197 218.802 39.4459 220.426 56.4969C222.049 73.548 225.621 83.454 219.786 85.9479C213.951 88.4417 204.631 91.2621 194.957 90.0647C194.957 90.0647 204.421 70.688 203.437 57.6449C202.453 44.6018 202.224 54.5573 201.126 56.7147C200.028 58.872 183.192 53.825 183.192 53.825Z" fill="#4B1B13"/>
<path d="M212.223 140.128C211.869 140.128 211.526 140.128 211.172 140.187C211.274 132.871 211.293 125.558 211.23 118.248C211.256 117.947 211.389 117.668 211.604 117.465C211.819 117.262 212.099 117.149 212.39 117.149C212.681 117.149 212.961 117.262 213.175 117.465C213.39 117.668 213.524 117.947 213.55 118.248C213.614 125.505 213.595 132.762 213.493 140.019L212.223 140.128Z" fill="#5F8B00"/>
<path d="M173.948 130.953C173.872 130.906 173.792 130.867 173.709 130.834L173.079 130.478L172.344 130.063L171.733 129.716C171.733 121.021 171.981 112.335 172.477 103.66C172.563 102.116 174.884 102.106 174.798 103.66C174.314 112.606 174.063 121.555 174.044 130.508C174.039 130.661 174.007 130.812 173.948 130.953Z" fill="#5F8B00"/>
<path d="M211.65 29.3005L228.266 38.8503C228.882 39.2052 229.396 39.7245 229.754 40.3544C230.112 40.9843 230.3 41.7019 230.3 42.4327V68.8455" stroke="#29ABE2" stroke-width="4" stroke-miterlimit="10"/>
<path d="M230.3 111.726V135.1C230.301 135.637 230.165 136.165 229.908 136.631C229.65 137.096 229.279 137.484 228.831 137.754C228.383 138.025 227.875 138.169 227.357 138.172C226.839 138.175 226.329 138.037 225.879 137.772L211.764 129.479" stroke="#29ABE2" stroke-width="4" stroke-miterlimit="10"/>
<path d="M183.431 12.7056L165.974 2.26521C165.683 2.09073 165.352 1.99923 165.015 2C164.678 2.00078 164.348 2.09379 164.057 2.26961C163.766 2.44543 163.525 2.69782 163.359 3.00118C163.192 3.30455 163.106 3.64811 163.109 3.99704V28.0743" stroke="#29ABE2" stroke-width="4" stroke-miterlimit="10"/>
<path d="M176.803 113.557L164.628 106.877C163.699 106.368 162.922 105.606 162.38 104.673C161.838 103.74 161.552 102.672 161.553 101.583V79.7026" stroke="#29ABE2" stroke-width="4" stroke-miterlimit="10"/>
<path d="M93.2829 149.104L92.9295 147.234L97.0645 147.006L95.1546 145.145L98.3919 144.314L100.025 146.293L102.89 144.542L105.449 145.888L102.126 147.382L105.946 148.243L104.351 149.935L100.808 148.946L100.388 151.113L96.8162 150.935L97.647 148.688L93.2829 149.104Z" fill="black"/>
<path d="M107.426 157.931L107.072 156.061L111.207 155.833L109.297 153.973L112.535 153.142L114.168 155.121L117.033 153.369L119.592 154.715L116.269 156.209L120.088 157.07L118.494 158.763L114.951 157.773L114.531 159.94L110.959 159.762L111.79 157.516L107.426 157.931Z" fill="black"/>
<path d="M124.94 167.986L124.586 166.115L128.721 165.888L126.811 164.027L130.049 163.196L131.682 165.175L134.546 163.423L137.106 164.769L133.783 166.264L137.602 167.125L136.008 168.817L132.465 167.827L131.968 169.965L128.397 169.787L129.227 167.54L124.94 167.986Z" fill="black"/>
<path d="M141.26 177.802L140.907 175.932L145.042 175.704L143.132 173.844L146.369 173.012L148.002 174.992L150.867 173.24L153.426 174.586L150.103 176.08L153.923 176.941L152.328 178.633L148.785 177.644L148.365 179.811L144.793 179.633L145.624 177.387L141.26 177.802Z" fill="black"/>
</g>
<defs>
<filter id="filter0_d" x="0" y="0" width="329" height="261.41" filterUnits="userSpaceOnUse" color-interpolation-filters="sRGB">
<feFlood flood-opacity="0" result="BackgroundImageFix"/>
<feColorMatrix in="SourceAlpha" type="matrix" values="0 0 0 0 0 0 0 0 0 0 0 0 0 0 0 0 0 0 127 0"/>
<feOffset dy="8"/>
<feGaussianBlur stdDeviation="3"/>
<feColorMatrix type="matrix" values="0 0 0 0 0.0610937 0 0 0 0 0.0546875 0 0 0 0 0.375 0 0 0 0.25 0"/>
<feBlend mode="normal" in2="BackgroundImageFix" result="effect1_dropShadow"/>
<feBlend mode="normal" in="SourceGraphic" in2="effect1_dropShadow" result="shape"/>
</filter>
<linearGradient id="paint0_linear" x1="157.122" y1="165.116" x2="176.357" y2="139.773" gradientUnits="userSpaceOnUse">
<stop offset="0.01" stop-color="white" stop-opacity="0"/>
<stop offset="1" stop-color="#B3B3B3" stop-opacity="0.97"/>
</linearGradient>
</defs>
</svg>
