<svg width="539" height="390" viewBox="0 0 539 390" fill="none" xmlns="http://www.w3.org/2000/svg">
<path d="M280.105 367.263L461.842 268.866C463.161 268.154 464.265 267.122 465.044 265.872C465.822 264.623 466.249 263.198 466.282 261.74C466.315 260.282 465.952 258.841 465.23 257.56C464.508 256.279 463.452 255.202 462.166 254.436L285.993 149.136C284.656 148.335 283.119 147.899 281.545 147.876C279.971 147.854 278.421 148.244 277.059 149.006L84.8251 256.646C83.5073 257.381 82.4131 258.438 81.6525 259.71C80.8918 260.982 80.4913 262.425 80.4913 263.893C80.4913 265.362 80.8918 266.805 81.6525 268.077C82.4131 269.349 83.5073 270.406 84.8251 271.141L256.241 367.107C259.861 369.131 263.967 370.21 268.151 370.238C272.336 370.265 276.456 369.24 280.105 367.263Z" fill="#F8997C"/>
<path d="M418.763 251.797V256.737L416.175 259.792" fill="#ADCEE1"/>
<path d="M315.841 191.633L415.825 251.433C416.739 251.98 417.489 252.748 418.002 253.66C418.515 254.571 418.773 255.596 418.752 256.634C418.73 257.671 418.429 258.685 417.878 259.576C417.327 260.467 416.545 261.205 415.609 261.716L263.894 344.5C261.773 345.656 259.375 346.254 256.939 346.233C254.502 346.213 252.115 345.575 250.015 344.383L150.475 287.95C143.239 282.217 143.738 271.427 150.475 270.972L301.328 191.412C303.541 190.177 306.06 189.545 308.616 189.584C311.172 189.623 313.669 190.331 315.841 191.633Z" fill="#88D3D8"/>
<path d="M315.841 187.512L415.825 247.312C416.739 247.86 417.489 248.627 418.002 249.539C418.515 250.451 418.773 251.475 418.752 252.513C418.73 253.55 418.429 254.564 417.878 255.455C417.327 256.346 416.545 257.084 415.609 257.595L263.881 340.392C261.76 341.548 259.361 342.146 256.925 342.126C254.489 342.105 252.101 341.467 250.002 340.275L150.462 283.829C149.296 283.175 148.328 282.237 147.655 281.109C146.982 279.981 146.628 278.702 146.628 277.401C146.628 276.099 146.982 274.82 147.655 273.692C148.328 272.564 149.296 271.626 150.462 270.972L301.314 187.291C303.529 186.053 306.05 185.42 308.609 185.459C311.168 185.498 313.668 186.208 315.841 187.512Z" fill="white"/>
<path d="M322.053 201.214L358.61 223.184C359.259 223.573 359.792 224.118 360.156 224.766C360.521 225.413 360.705 226.141 360.69 226.878C360.675 227.614 360.462 228.335 360.071 228.968C359.68 229.601 359.126 230.126 358.462 230.49L227.242 302.653C225.282 303.744 223.058 304.318 220.795 304.318C218.531 304.318 216.308 303.744 214.347 302.653C205.911 297.908 191.439 289.367 182.505 284.115C181.719 283.643 181.072 282.983 180.627 282.199C180.182 281.415 179.954 280.533 179.964 279.64C179.975 278.746 180.225 277.87 180.689 277.096C181.153 276.323 181.815 275.678 182.613 275.223C209.159 260.338 295.803 211.757 314.668 201.123C315.791 200.488 317.072 200.16 318.373 200.176C319.675 200.192 320.947 200.551 322.053 201.214Z" fill="#112E7C"/>
<path d="M320.018 260.858L274.203 285.727C273.499 286.108 272.913 286.662 272.502 287.332C272.092 288.002 271.872 288.765 271.865 289.543C271.858 290.321 272.065 291.088 272.463 291.764C272.862 292.441 273.439 293.004 274.135 293.397L301.085 308.62C302.011 309.136 303.062 309.407 304.131 309.407C305.2 309.407 306.25 309.136 307.176 308.62L354.083 282.815C354.671 282.493 355.16 282.026 355.501 281.462C355.841 280.898 356.021 280.257 356.021 279.604C356.021 278.951 355.841 278.31 355.501 277.746C355.16 277.182 354.671 276.715 354.083 276.393L326.041 260.793C325.117 260.299 324.077 260.045 323.021 260.057C321.965 260.068 320.93 260.344 320.018 260.858Z" fill="#112E7C"/>
<path opacity="0.1" d="M322.053 201.214L358.61 223.184C359.259 223.573 359.792 224.118 360.156 224.766C360.521 225.413 360.705 226.141 360.69 226.878C360.675 227.614 360.462 228.335 360.071 228.968C359.68 229.601 359.126 230.126 358.462 230.49L227.242 302.653C225.282 303.744 223.058 304.318 220.795 304.318C218.531 304.318 216.308 303.744 214.347 302.653C205.911 297.908 191.439 289.367 182.505 284.115C181.719 283.643 181.072 282.983 180.627 282.199C180.182 281.415 179.954 280.533 179.964 279.64C179.975 278.746 180.225 277.87 180.689 277.096C181.153 276.323 181.815 275.678 182.613 275.223C209.159 260.338 295.803 211.757 314.668 201.123C315.791 200.488 317.072 200.16 318.373 200.176C319.675 200.192 320.947 200.551 322.053 201.214Z" fill="#053855"/>
<path opacity="0.1" d="M320.018 260.858L274.203 285.727C273.499 286.108 272.913 286.662 272.502 287.332C272.092 288.002 271.872 288.765 271.865 289.543C271.858 290.321 272.065 291.088 272.463 291.764C272.862 292.441 273.439 293.004 274.135 293.397L301.085 308.62C302.011 309.136 303.062 309.407 304.131 309.407C305.2 309.407 306.25 309.136 307.176 308.62L354.083 282.815C354.671 282.493 355.16 282.026 355.501 281.462C355.841 280.898 356.021 280.257 356.021 279.604C356.021 278.951 355.841 278.31 355.501 277.746C355.16 277.182 354.671 276.715 354.083 276.393L326.041 260.793C325.117 260.299 324.077 260.045 323.021 260.057C321.965 260.068 320.93 260.344 320.018 260.858Z" fill="#053855"/>
<path opacity="0.32" d="M394.252 250.562L324.842 291.395L257.399 252.538L323.346 213.382" fill="url(#paint0_linear)"/>
<path d="M367.18 229.411V259.701H369.498L369.997 228.631" fill="#808080"/>
<path d="M380.399 217.763L385.048 250.692H382.717L377.852 218.985" fill="#808080"/>
<path d="M333.452 240.786C333.452 240.786 331.283 247.637 330.757 248.339C330.232 249.041 323.171 253.539 323.292 254.956C323.413 256.373 326.095 256.932 327.766 256.815C329.437 256.698 339.058 252.824 339.664 251.68C340.271 250.536 340.271 240.786 340.271 240.786H333.452Z" fill="#5C2D1D"/>
<path d="M344.866 248.807C344.866 248.807 342.696 255.658 342.171 256.36C341.645 257.062 334.584 261.56 334.706 262.977C334.827 264.394 337.508 264.953 339.179 264.836C340.85 264.719 350.471 260.845 351.078 259.701C351.684 258.557 351.684 248.807 351.684 248.807H344.866Z" fill="#5C2D1D"/>
<path d="M381.652 186.446C381.033 188.11 377.61 213.369 377.61 213.369L374.106 212.238L378.647 186.316" fill="#808080"/>
<path d="M380.399 217.763L380.453 213.694L376.721 214.929L377.852 218.985" fill="#A9CBF8"/>
<path d="M371.91 211.458C371.91 211.458 381.343 214.929 380.345 218.348C379.348 221.767 371.923 230.139 367.126 229.411C362.329 228.683 356.481 224.666 356.481 224.666" fill="#4A42A4"/>
<path d="M371.91 207.298C371.91 207.298 381.343 210.769 380.345 214.188C379.348 217.607 371.923 225.979 367.126 225.251C362.329 224.523 356.481 220.506 356.481 220.506" fill="#A6ACED"/>
<path d="M375.67 175.578C375.67 175.578 384.725 177.762 385.641 182.793C386.557 187.824 386.827 197.093 373.958 193.492C361.09 189.891 367.221 180.57 367.221 180.57" fill="#A6ACED"/>
<path d="M363.583 186.316C363.583 186.316 366.776 199.316 364.404 206.219C362.033 213.122 348.558 218.725 348.558 218.725L342.871 246.636C340.531 247.283 338.08 247.474 335.663 247.197C333.245 246.92 330.908 246.182 328.79 245.024C328.79 245.024 330.367 220.402 332.752 214.149C335.137 207.896 353.678 195.624 353.678 195.624" fill="#895851"/>
<path d="M364.121 202.8C364.121 202.8 345.58 215.072 343.195 221.325C340.81 227.578 339.233 252.2 339.233 252.2C341.345 253.348 343.673 254.081 346.081 254.356C348.489 254.63 350.929 254.441 353.261 253.799L358.947 225.888C358.947 225.888 368.595 223.288 370.953 216.294C373.311 209.3 372.301 198.809 372.301 198.809" fill="#895851"/>
<path d="M371.492 203.06C374.659 195.637 376.02 176.345 374.066 174.018C370.024 169.195 361.453 169.793 361.453 169.793C361.453 169.793 356.481 166.92 352.317 170.313C349.218 172.848 351.428 188.37 352.317 198.237C357.721 203.06 363.717 204.412 371.492 203.06Z" fill="#8CC63F"/>
<path d="M358.206 205.283C354.864 208.494 351.293 211.588 348.194 215.02C345.499 217.997 344.434 221.767 343.383 225.511C341.17 234.273 339.63 243.18 338.775 252.161C338.775 252.707 339.597 252.694 339.651 252.161C340.489 243.524 341.948 234.954 344.017 226.512C345.135 222.391 346.24 218.296 349.299 215.098C352.358 211.9 355.646 208.949 358.826 205.881C358.886 205.798 358.915 205.698 358.906 205.597C358.897 205.496 358.851 205.401 358.777 205.33C358.703 205.258 358.605 205.214 358.5 205.206C358.396 205.197 358.292 205.225 358.206 205.283Z" fill="#5C2D1D"/>
<path d="M394.818 226.564L396.542 225.654L317.404 181.922L265.929 210.093L266.616 210.483V247.663C266.633 247.749 266.681 247.827 266.751 247.883C266.821 247.94 266.909 247.97 267 247.97C267.092 247.97 267.18 247.94 267.25 247.883C267.32 247.827 267.368 247.749 267.384 247.663V210.912L343.518 253.812L343.707 253.708V280.475C343.724 280.561 343.771 280.639 343.841 280.695C343.912 280.752 344 280.782 344.091 280.782C344.182 280.782 344.27 280.752 344.34 280.695C344.41 280.639 344.458 280.561 344.475 280.475V253.318L394.332 226.863V250.562C394.349 250.648 394.397 250.726 394.467 250.782C394.537 250.839 394.625 250.869 394.716 250.869C394.808 250.869 394.896 250.839 394.966 250.782C395.036 250.726 395.084 250.648 395.1 250.562V226.902C395.102 226.823 395.074 226.745 395.023 226.683C394.971 226.622 394.898 226.579 394.818 226.564Z" fill="#DD654A"/>
<path d="M394.818 226.564L396.542 225.654L317.404 181.922L265.929 210.093L266.616 210.483V247.663C266.633 247.749 266.681 247.827 266.751 247.883C266.821 247.94 266.909 247.97 267 247.97C267.092 247.97 267.18 247.94 267.25 247.883C267.32 247.827 267.368 247.749 267.384 247.663V210.912L343.518 253.812L343.707 253.708V280.475C343.724 280.561 343.771 280.639 343.841 280.695C343.912 280.752 344 280.782 344.091 280.782C344.182 280.782 344.27 280.752 344.34 280.695C344.41 280.639 344.458 280.561 344.475 280.475V253.318L394.332 226.863V250.562C394.349 250.648 394.397 250.726 394.467 250.782C394.537 250.839 394.625 250.869 394.716 250.869C394.808 250.869 394.896 250.839 394.966 250.782C395.036 250.726 395.084 250.648 395.1 250.562V226.902C395.102 226.823 395.074 226.745 395.023 226.683C394.971 226.622 394.898 226.579 394.818 226.564Z" fill="#DD654A"/>
<path opacity="0.32" d="M315.396 208.715L290.534 222.079C294.698 224.614 311.407 233.285 315.423 236.015L341.12 220.155L336.875 210.223L315.396 208.715Z" fill="url(#paint1_linear)"/>
<path d="M335.932 223.067L354.042 212.888L330.447 199.81L311.946 208.988" fill="#B3B3B3"/>
<path d="M331.256 202.995C331.256 202.995 336.013 223.327 335.945 223.067C335.878 222.807 312.499 210.691 312.337 210.262C312.175 209.833 306.152 189.202 306.152 189.202L331.256 202.995Z" fill="white"/>
<path d="M324.411 199.238L329.289 196.404L335.096 201.071L330.73 202.839L324.411 199.238Z" fill="#FFE0CE"/>
<path d="M327.106 196.014C327.106 196.014 333.56 198.211 333.021 203.983C333.021 203.983 343.087 199.94 345.324 197.366C347.561 194.792 352.304 189.215 352.304 189.215V170.3C352.304 170.3 340.176 188.5 337.481 190.749C335.379 192.53 327.106 196.014 327.106 196.014Z" fill="#8CC63F"/>
<path d="M360.429 167.206C360.429 168.792 360.429 170.378 360.429 171.964C360.726 172.692 361.143 173.199 361.777 173.134C363.744 172.926 366.075 170.105 366.075 170.105L366.426 165.685L360.429 167.206Z" fill="#F9C7AF"/>
<path d="M369.983 156.234C368.757 153.634 366.345 153.205 363.852 153.634C363.284 153.243 362.644 152.961 361.965 152.802C360.888 152.548 359.758 152.591 358.705 152.927C357.652 153.262 356.718 153.877 356.01 154.7C355.329 154.617 354.638 154.702 354.002 154.947C352.129 155.714 351.9 157.638 352.331 159.328C352.331 159.393 352.331 159.458 352.331 159.523C352.443 160.439 352.798 161.312 353.362 162.057C353.926 162.801 354.681 163.393 355.551 163.774L365.28 168.454C366.335 167.899 367.225 167.093 367.868 166.114C368.078 165.729 368.215 165.311 368.272 164.879L368.46 164.684C369.486 163.542 370.169 162.152 370.437 160.663C370.706 159.174 370.549 157.643 369.983 156.234Z" fill="#895851"/>
<path d="M355.39 161.395C355.632 162.396 357.384 171.912 361.831 171.106C366.277 170.3 366.56 163.969 366.56 163.969C366.56 163.969 362.518 162.916 362.208 161.46C361.898 160.004 362.046 159.367 360.079 158.977C358.112 158.587 354.972 159.731 355.39 161.395Z" fill="#FFE0CE"/>
<path d="M351.509 190.151L350.862 180.856L347.965 194.311L351.509 190.151Z" fill="#6D9928"/>
<path d="M351.832 205.998C351.442 206.04 351.063 206.15 350.714 206.323C349.663 206.817 348.49 207.142 347.453 207.623C345.732 208.616 344.332 210.052 343.41 211.77C343.195 212.212 342.305 213.85 342.764 214.305C343.222 214.76 344.286 214.305 344.286 214.305C344.286 214.305 344.286 215.241 344.569 215.449C344.852 215.657 345.917 214.903 345.917 214.903C345.917 214.903 346.375 216.047 347.022 215.774C347.668 215.501 348.8 213.876 348.8 213.876C348.8 213.876 348.679 215.176 349.245 215.176C349.811 215.176 352.196 211.991 352.196 211.991L357.263 209.391C357.263 209.391 355.767 207.831 355.619 207.688C354.936 207.033 354.131 206.509 353.247 206.141C352.795 205.983 352.309 205.934 351.832 205.998Z" fill="#FFE0CE"/>
<path d="M350.97 210.119C349.825 211.311 348.965 212.731 348.45 214.279C348.45 214.474 348.693 214.552 348.76 214.357C349.259 212.862 350.091 211.491 351.199 210.34C351.334 210.197 351.118 209.976 350.97 210.119Z" fill="#5C2D1D"/>
<path d="M349.488 209.17C347.653 210.77 346.353 212.861 345.755 215.176C345.75 215.213 345.76 215.251 345.782 215.282C345.804 215.313 345.837 215.336 345.875 215.345C345.913 215.355 345.953 215.351 345.988 215.334C346.022 215.317 346.05 215.289 346.065 215.254C346.65 212.992 347.921 210.951 349.717 209.391C349.865 209.3 349.636 209.027 349.488 209.17Z" fill="#5C2D1D"/>
<path d="M347.978 208.832C346.178 210.32 344.832 212.252 344.084 214.422C344.084 214.617 344.327 214.695 344.394 214.5C345.127 212.38 346.446 210.492 348.207 209.04C348.369 208.923 348.14 208.702 347.978 208.832Z" fill="#5C2D1D"/>
<path d="M374.362 189.904C374.362 189.904 372.503 201.344 370.01 203.983C367.517 206.622 356.535 211.315 356.535 211.315C356.535 211.315 353.84 206.648 350.876 205.556C350.876 205.556 362.06 199.485 362.343 198.341" fill="#8CC63F"/>
<path d="M365.173 182.234C364.984 184.704 364.728 187.161 364.351 189.605C364.148 191.804 363.733 193.98 363.111 196.105C362.289 198.354 359.176 199.693 357.195 200.928C355.214 202.163 352.991 203.528 350.876 204.828C350.39 205.114 350.876 205.842 351.32 205.556C353.8 204.1 356.257 202.601 358.691 201.058C360.335 200.018 362.841 198.939 363.717 197.158C364.501 194.953 364.982 192.659 365.146 190.333C365.563 187.733 365.86 185.016 366.062 182.338C366.075 181.688 365.173 181.701 365.173 182.234Z" fill="#6D9928"/>
<path d="M134.373 131.898C133.554 132.343 132.872 132.991 132.399 133.775C131.925 134.559 131.676 135.45 131.678 136.357V261.95C131.489 264.55 134.494 266.877 136.933 265.538L190.24 236.262C192.383 235.079 289.955 182.117 289.955 179.738L295.332 48.1C295.349 47.6609 295.245 47.2253 295.03 46.8379C294.815 46.4506 294.497 46.1256 294.109 45.8964C293.72 45.6672 293.275 45.5422 292.82 45.5342C292.364 45.5262 291.915 45.6356 291.518 45.851C267.721 58.877 145.193 125.84 134.373 131.898Z" fill="#112E7C"/>
<path opacity="0.6" d="M144.951 143.533V248.963L156.714 241.735V136.981L144.951 143.533Z" fill="white"/>
<path d="M160.932 120.757L136.569 134.537C136.334 134.669 136.139 134.859 136.004 135.088C135.87 135.316 135.799 135.574 135.801 135.837V261.3C135.802 261.477 135.852 261.651 135.945 261.805C136.037 261.958 136.17 262.085 136.33 262.173C136.489 262.261 136.67 262.307 136.854 262.307C137.038 262.307 137.218 262.26 137.378 262.171L290.157 176.371C290.147 177.422 289.883 178.456 289.384 179.391C288.886 180.325 288.168 181.134 287.287 181.753C284.363 183.547 136.987 265.421 136.987 265.421C136.987 265.421 132.944 267.202 131.732 262.509V136.357C131.734 135.541 131.935 134.737 132.319 134.01C132.703 133.282 133.259 132.653 133.941 132.171C136.3 130.52 288.028 45.253 288.028 45.253C288.028 45.253 293.553 43.303 295.385 46.553L176.522 112.086" fill="#124577"/>
<path d="M299.954 19.786C291.437 24.648 270.309 36.686 264.07 40.209C263.532 40.5098 263.087 40.9425 262.779 41.4631C262.472 41.9837 262.312 42.5737 262.318 43.173V126.633C262.29 127.046 262.372 127.458 262.557 127.832C262.742 128.205 263.022 128.526 263.373 128.765C263.723 129.004 264.13 129.152 264.557 129.195C264.983 129.238 265.414 129.175 265.808 129.012L301.234 109.512C301.922 109.202 302.507 108.71 302.919 108.094C303.331 107.477 303.555 106.761 303.565 106.028V21.775C303.563 21.3681 303.451 20.9688 303.239 20.6173C303.026 20.2658 302.722 19.9745 302.355 19.7728C301.989 19.5711 301.574 19.4661 301.153 19.4684C300.731 19.4707 300.317 19.5803 299.954 19.786Z" fill="#FFA513"/>
<path d="M268.786 48.1261L296.976 32.6171" stroke="#F2F2F2" stroke-miterlimit="10"/>
<path d="M268.786 54.3269L296.976 38.8049" stroke="#F2F2F2" stroke-miterlimit="10"/>
<path d="M268.099 62.088L296.288 46.566" stroke="#F2F2F2" stroke-miterlimit="10"/>
<path d="M268.099 68.276L296.288 52.754" stroke="#F2F2F2" stroke-miterlimit="10"/>
<path d="M270.794 94.9L298.983 79.391" stroke="#F2F2F2" stroke-miterlimit="10"/>
<path d="M270.794 101.101L298.983 85.579" stroke="#F2F2F2" stroke-miterlimit="10"/>
<path d="M270.106 108.849L298.296 93.34" stroke="#F2F2F2" stroke-miterlimit="10"/>
<path d="M270.106 115.05L298.296 99.528" stroke="#F2F2F2" stroke-miterlimit="10"/>
<path opacity="0.6" d="M162.899 134.628V220.753L172.507 214.851V129.272L162.899 134.628Z" fill="white"/>
<path d="M143.01 192.972L171.2 177.45" stroke="white" stroke-miterlimit="10"/>
<path d="M143.01 199.16L171.2 183.651" stroke="white" stroke-miterlimit="10"/>
<path d="M142.323 206.921L170.513 191.399" stroke="white" stroke-miterlimit="10"/>
<path d="M142.323 213.122L170.513 197.6" stroke="white" stroke-miterlimit="10"/>
<path d="M120.669 218.725V232.466L124.401 230.178V216.723C123.121 217.347 121.868 217.997 120.669 218.725Z" fill="white"/>
<path d="M128.134 209.937V228.501L131.866 226.2V208.182L128.134 209.937Z" fill="white"/>
<path d="M135.612 200.356V224.679L139.345 222.391V198.9C138.119 199.407 136.879 199.901 135.612 200.356Z" fill="white"/>
<path opacity="0.32" d="M228.509 272.883L199.659 291.395L185.16 283.114L214.226 266.825" fill="url(#paint2_linear)"/>
<path d="M183.327 176.085L219.063 193.089C219.063 193.089 220.505 197.6 217.392 198.744C214.279 199.888 177.87 180.947 177.87 180.947" fill="#112E7C"/>
<path d="M202.826 186.069C200.706 185.029 198.617 183.933 196.56 182.78C196.196 182.019 195.791 181.277 195.347 180.557C195.05 179.98 194.573 179.507 193.984 179.204C193.394 178.901 192.721 178.783 192.059 178.867C191.8 178.915 191.567 179.051 191.402 179.25C191.238 179.449 191.153 179.699 191.163 179.953C191.172 180.208 191.276 180.451 191.456 180.638C191.635 180.825 191.878 180.944 192.14 180.973L192.315 181.168C189.768 181.285 185.16 181.649 186.198 184.067C186.105 184.137 186.019 184.216 185.942 184.301C185.68 184.608 185.55 184.999 185.578 185.395C185.605 185.791 185.788 186.163 186.09 186.433C186.317 186.644 186.595 186.796 186.898 186.875C187.202 186.955 187.522 186.959 187.828 186.888C188.026 187.274 188.369 187.572 188.788 187.721C189.206 187.871 189.667 187.861 190.078 187.694L190.712 187.512C190.687 187.666 190.703 187.823 190.756 187.969C190.809 188.116 190.899 188.247 191.018 188.353C191.136 188.458 191.279 188.533 191.435 188.573C191.591 188.612 191.754 188.614 191.911 188.578L194.013 188.188C198.797 189.657 201.182 190.19 202.974 191.373C203.715 191.867 202.974 192.049 202.974 191.373C203.058 191.269 203.12 191.149 203.154 191.021C203.188 190.893 203.195 190.76 203.173 190.629C203.152 190.499 203.103 190.374 203.029 190.263C202.955 190.151 202.859 190.056 202.745 189.982L202.543 189.839C202.655 189.759 202.749 189.657 202.82 189.541C202.89 189.424 202.934 189.295 202.951 189.161C202.967 189.027 202.955 188.891 202.915 188.762C202.875 188.632 202.808 188.512 202.718 188.409L202.462 188.123C202.695 188.084 202.911 187.977 203.078 187.815C203.245 187.653 203.357 187.445 203.397 187.22C203.437 186.995 203.403 186.763 203.301 186.557C203.199 186.351 203.033 186.18 202.826 186.069Z" fill="#FF7D09"/>
<path d="M227.337 257.01L228.496 272.896L226.38 274.612L224.089 274.04C224.089 274.04 224.386 269.841 223.577 268.918C222.769 267.995 221.408 272.558 220.626 272.532C219.845 272.506 210.52 270.101 210.385 268.996C210.21 267.527 212.299 265.85 216.26 266.773C220.545 267.774 221.286 263.12 221.974 258.661" fill="#F8997C"/>
<path d="M220.64 260.182C220.64 260.182 224.682 261.846 231.689 257.582C231.689 257.582 229.277 236.522 229.479 232.882C229.681 229.242 233.886 203.06 228.698 197.288C223.51 191.516 214.252 247 214.657 247.325" fill="#A1C3FC"/>
<path d="M224.035 269.529L223.645 268.918C223.349 268.645 222.984 268.453 222.586 268.362C222.188 268.271 221.772 268.283 221.381 268.398C220.262 268.905 220.424 272.675 220.424 272.675L224.305 271.271C224.347 270.678 224.255 270.084 224.035 269.529Z" fill="#9E005D"/>
<path d="M214.657 264.797L214.253 280.709L212.029 282.23L209.806 281.45C209.806 281.45 210.506 277.29 209.806 276.25C209.105 275.21 207.286 279.682 206.504 279.578C205.723 279.474 196.681 276.237 196.654 275.119C196.654 273.637 198.878 272.168 202.718 273.455C206.882 274.846 208.108 270.283 209.199 265.902" fill="#F8997C"/>
<path d="M210.143 276.9L209.819 276.25C209.552 275.95 209.205 275.724 208.817 275.596C208.428 275.468 208.012 275.442 207.609 275.522C206.437 275.925 206.262 279.682 206.262 279.682L210.304 278.642C210.381 278.057 210.326 277.463 210.143 276.9Z" fill="#9E005D"/>
<path d="M213.309 203.463C213.309 203.463 206.397 221.429 204.833 229.216C203.27 237.003 203.203 266.175 203.769 266.916C204.335 267.657 211.045 269.1 215.6 269.1C220.155 269.1 219.508 234.611 219.508 234.611C219.508 234.611 231.837 204.464 228.536 201.162C225.235 197.86 213.309 203.463 213.309 203.463Z" fill="#A1C3FC"/>
<path d="M213.026 203.801C219.292 205.712 227.256 203.424 231.083 198.224C230.355 189.722 228.846 175.669 226.582 173.524C223.308 170.482 216.22 174.824 213.66 179.062C212.169 182.317 210.895 185.66 209.846 189.072L200.198 183.768L197.274 190.385C197.274 190.385 203.89 202.41 212.824 199.667L213.026 203.801Z" fill="#F8997C"/>
<path d="M219.063 188.214C219.063 188.119 219.024 188.028 218.955 187.961C218.885 187.894 218.791 187.857 218.693 187.857C218.594 187.857 218.5 187.894 218.43 187.961C218.361 188.028 218.322 188.119 218.322 188.214C218.536 190.962 218.041 193.717 216.88 196.235C216.367 197.268 215.589 198.158 214.62 198.82C213.65 199.482 212.522 199.894 211.342 200.018C210.87 200.018 210.87 200.746 211.342 200.733C212.602 200.615 213.813 200.197 214.864 199.517C215.915 198.836 216.775 197.914 217.365 196.833C218.942 194.259 219.077 191.1 219.063 188.214Z" fill="white"/>
<path d="M215.681 158.119C215.169 158.223 214.333 159.003 213.134 161.785C211.935 164.567 214.845 168.103 216.112 168.844C217.346 169.892 218.401 171.12 219.238 172.484C219.238 172.484 223.914 173.576 227.067 168.051C230.22 162.526 223.281 156.52 215.681 158.119Z" fill="#FFB468"/>
<path d="M214.36 161.2C214.36 161.2 212.002 170.443 215.479 172.549C218.955 174.655 223.645 169.052 224.089 166.816C224.534 164.58 222.001 159.731 214.36 161.2Z" fill="#FF7D09"/>
<path d="M214.36 161.2C214.36 161.2 213.781 167.232 217.055 168.558C220.33 169.884 220.357 171.782 220.357 171.782C220.357 171.782 226.286 168.727 226.905 166.023C227.525 163.319 218.901 158.782 214.36 161.2Z" fill="#FFB468"/>
<path d="M225.248 168.454C224.062 177.554 226.434 189.098 222.553 197.587C222.311 198.107 221.799 200.46 221.394 200.46L230.827 195.481C234.627 193.219 237.376 191.75 236.028 186.004C234.681 180.258 227.04 168.012 227.04 168.012L225.248 168.454Z" fill="#FFB468"/>
<path d="M210.816 184.6C210.234 187.002 209.784 189.432 209.469 191.88C209.469 192.335 210.143 192.335 210.21 191.88C210.529 189.497 210.979 187.132 211.558 184.795C211.652 184.327 210.938 184.132 210.816 184.6Z" fill="white"/>
<path d="M224.143 172.549L223.254 170.716C221.513 171.582 219.712 172.329 217.864 172.952C215.64 173.602 216.26 176.085 216.26 176.085C216.26 176.085 221.408 176.098 224.143 172.549Z" fill="#5FAD00"/>
<defs>
<linearGradient id="paint0_linear" x1="314.816" y1="270.01" x2="342.215" y2="220.605" gradientUnits="userSpaceOnUse">
<stop stop-opacity="0"/>
<stop offset="0.99" stop-color="#006837"/>
</linearGradient>
<linearGradient id="paint1_linear" x1="311.259" y1="226.395" x2="329.191" y2="204.169" gradientUnits="userSpaceOnUse">
<stop stop-opacity="0"/>
<stop offset="0.99" stop-color="#1A1A1A"/>
</linearGradient>
<linearGradient id="paint2_linear" x1="6687.95" y1="5670.02" x2="6844.42" y2="5190.02" gradientUnits="userSpaceOnUse">
<stop stop-opacity="0"/>
<stop offset="0.99" stop-color="#006837"/>
</linearGradient>
</defs>
</svg>
