<svg width="351" height="205" viewBox="0 0 351 205" fill="none" xmlns="http://www.w3.org/2000/svg">
<g clip-path="url(#clip0)">
<path d="M3.11 79.51L138.71 0.65004C139.684 0.0874447 140.79 -0.20874 141.915 -0.20874C143.04 -0.20874 144.146 0.0874447 145.12 0.65004L347.91 116.7C348.889 117.261 349.702 118.071 350.267 119.047C350.832 120.024 351.13 121.132 351.13 122.26C351.13 123.388 350.832 124.496 350.267 125.473C349.702 126.449 348.889 127.259 347.91 127.82L218.25 202.69C215.068 204.527 211.459 205.494 207.785 205.494C204.111 205.494 200.502 204.527 197.32 202.69L3.12 90.61C2.14562 90.0482 1.33625 89.2398 0.773165 88.2661C0.210085 87.2924 -0.0868747 86.1877 -0.087888 85.0629C-0.0889013 83.9381 0.206067 82.8329 0.767392 81.8582C1.32872 80.8835 2.13663 80.0737 3.11 79.51Z" fill="#FFB3A6"/>
<path style="mix-blend-mode:multiply" opacity="0.63" d="M198 201.42C233.88 177.72 254.62 175.42 288 150.87C266.85 139.87 230.92 118.4 217.87 110.24L128.92 162.19L196.31 201.44L198 201.42Z" fill="url(#paint0_linear)"/>
<path d="M67.43 128.34L145.4 172.45L236.45 119.43V83.78L145.4 136.8L67.43 92.23V128.34Z" fill="#0A297C"/>
<path opacity="0.15" d="M67.43 128.34L145.4 172.45L236.45 119.43V83.78L145.4 136.8L67.43 92.23V128.34Z" fill="black"/>
<path d="M67.43 92.23L160.22 38.99L236.45 83.78L145.4 136.8L67.43 92.23Z" fill="#0A297C"/>
<path opacity="0.15" d="M145.4 136.8V172.45L236.45 119.43V83.78L145.4 136.8Z" fill="black"/>
<path d="M145.51 58.56C146.115 58.8776 146.679 59.2671 147.19 59.72C147.578 60.0483 147.915 60.4325 148.19 60.86C148.373 61.1564 148.524 61.4716 148.64 61.8C148.716 62.0186 148.753 62.2486 148.75 62.48V62.73L144.65 63C144.667 62.8538 144.667 62.7062 144.65 62.56C144.572 62.2248 144.422 61.9107 144.21 61.64C143.902 61.1782 143.478 60.8057 142.98 60.56C142.349 60.2128 141.64 60.0305 140.92 60.03C140.311 60.0007 139.708 60.1576 139.19 60.48C139.079 60.5328 138.98 60.6078 138.899 60.7004C138.818 60.793 138.757 60.9012 138.719 61.0184C138.682 61.1355 138.669 61.2591 138.681 61.3815C138.693 61.5039 138.73 61.6225 138.79 61.73C139.098 62.3175 139.504 62.8483 139.99 63.3C140.55 63.8483 141.081 64.4257 141.58 65.03C141.82 65.2995 141.999 65.6179 142.104 65.9631C142.209 66.3084 142.239 66.6723 142.19 67.03C142.077 67.4692 141.873 67.88 141.593 68.2364C141.312 68.5928 140.96 68.8869 140.56 69.1C139.072 70.0597 137.331 70.5541 135.56 70.52C133.541 70.5207 131.556 70.008 129.79 69.03C129.101 68.6713 128.459 68.2279 127.88 67.71C127.439 67.3308 127.064 66.8814 126.77 66.38C126.576 66.0222 126.415 65.6473 126.29 65.26C126.209 64.9978 126.172 64.7242 126.18 64.45V64.14L130.18 63.95C130.18 64.08 130.18 64.25 130.18 64.47C130.28 64.8911 130.467 65.2864 130.73 65.63C131.137 66.2277 131.692 66.71 132.34 67.03C133.099 67.4541 133.951 67.6842 134.82 67.7C135.553 67.7329 136.279 67.541 136.9 67.15C137.01 67.096 137.108 67.0204 137.188 66.9277C137.268 66.8349 137.329 66.7269 137.366 66.6102C137.404 66.4934 137.417 66.3703 137.406 66.2483C137.394 66.1263 137.358 66.0078 137.3 65.9C136.993 65.3093 136.583 64.7778 136.09 64.33C135.525 63.7836 134.991 63.206 134.49 62.6C134.252 62.3298 134.076 62.0108 133.974 61.6653C133.872 61.3198 133.847 60.9562 133.9 60.6C134.009 60.1602 134.209 59.7483 134.488 59.3916C134.768 59.0348 135.119 58.7411 135.52 58.53C136.917 57.6649 138.538 57.2302 140.18 57.28C142.037 57.2443 143.872 57.685 145.51 58.56Z" fill="white"/>
<path d="M163.09 79.8399L161.8 80.57L153.68 76.2299C153.47 76.4097 153.315 76.6446 153.232 76.9079C153.149 77.1712 153.142 77.4525 153.21 77.7199C153.328 78.0508 153.514 78.353 153.757 78.6064C154 78.8598 154.294 79.0587 154.62 79.1899C155.225 79.5065 155.877 79.7259 156.55 79.8399C157.107 79.9473 157.674 79.9875 158.24 79.96H158.89L158.56 82.1H158.16C157.98 82.1 157.63 82.1 157.16 82.1C156.648 82.0791 156.137 82.0324 155.63 81.96C155.027 81.866 154.432 81.7256 153.85 81.5399C153.201 81.3426 152.571 81.0848 151.97 80.7699C150.32 79.8899 149.46 78.7699 149.37 77.4399C149.28 76.1099 149.98 74.9299 151.48 73.9199C153.128 72.8514 155.037 72.2564 157 72.1999C158.976 72.0427 160.958 72.4301 162.73 73.32C164.33 74.17 165.17 75.22 165.23 76.46C165.29 77.7 164.59 78.8299 163.09 79.8399ZM155.71 74.8399L160.86 77.5899C161.06 77.4231 161.214 77.2076 161.307 76.9642C161.399 76.7208 161.428 76.4576 161.39 76.1999C161.313 75.9204 161.173 75.6623 160.981 75.4455C160.788 75.2288 160.548 75.0592 160.28 74.9499C159.601 74.5944 158.846 74.4091 158.08 74.4099C157.274 74.4022 156.474 74.5446 155.72 74.8299" fill="white"/>
<path d="M156.26 66.3699L152.94 68.5999L155.22 69.8199L152.65 71.5499L150.37 70.3299L146.2 73.1299C146.058 73.2002 145.939 73.3106 145.859 73.4474C145.779 73.5843 145.741 73.7416 145.75 73.8999C145.75 74.1899 145.98 74.4399 146.38 74.6599C146.589 74.7674 146.806 74.8577 147.03 74.9299C147.206 74.9918 147.387 75.042 147.57 75.0799H147.75L145.28 76.7399C144.47 76.5638 143.689 76.2743 142.96 75.8799H142.9C140.54 74.6199 140.58 73.1699 143.01 71.5399L147.29 68.6699L145.34 67.6699L147.91 65.9399L148.91 66.4899C149.306 66.6864 149.751 66.7628 150.19 66.7099C150.684 66.6735 151.16 66.508 151.57 66.2299L153.49 64.9399L156.26 66.3699Z" fill="white"/>
<path d="M179.23 84.0001C179.23 85.2801 178.473 86.4334 176.96 87.4601C175.323 88.5236 173.43 89.128 171.48 89.2101C169.632 89.388 167.77 89.0415 166.11 88.2101C165.543 87.931 165.055 87.5152 164.69 87.0001C164.43 86.678 164.276 86.2832 164.25 85.8701V85.4301L158.47 89.3201L155.38 87.6701L170.38 77.5901L173.47 79.2401L172.19 80.1001H172.48H173.23C173.603 80.0792 173.977 80.0792 174.35 80.1001C174.789 80.1502 175.224 80.2338 175.65 80.3501C176.124 80.5134 176.577 80.7316 177 81.0001C177.616 81.2403 178.152 81.6491 178.546 82.1796C178.941 82.7102 179.178 83.3411 179.23 84.0001ZM170.87 86.7201C171.901 86.6458 172.895 86.3008 173.75 85.7201C174.078 85.5512 174.363 85.3076 174.58 85.0088C174.797 84.7101 174.941 84.3646 175 84.0001C174.983 83.6548 174.866 83.3218 174.664 83.0414C174.461 82.761 174.182 82.5452 173.86 82.4201C173.007 81.9935 172.049 81.82 171.1 81.9201C170.068 81.9902 169.073 82.3355 168.22 82.9201C167.872 83.0957 167.573 83.3548 167.35 83.6741C167.126 83.9934 166.986 84.3631 166.94 84.7501C166.954 85.096 167.069 85.4303 167.269 85.7125C167.47 85.9947 167.748 86.2127 168.07 86.3401C168.924 86.7632 169.882 86.9333 170.83 86.8301" fill="white"/>
<path d="M199.38 87.7101L184.38 97.7901L181 96.0001L191.92 88.6601L189.17 87.1901L191.17 85.8201C191.712 86.0422 192.275 86.2097 192.85 86.3201C193.341 86.4199 193.839 86.4735 194.34 86.4801C194.75 86.4801 195.14 86.4801 195.47 86.4201C195.739 86.4014 196.007 86.3613 196.27 86.3001L196.54 86.2301L199.38 87.7101Z" fill="white"/>
<path d="M80.78 45.74L75.95 71.53L90.12 55.31" fill="#F9CE9B"/>
<path d="M116 111.34C114.83 110.98 109.8 111.26 109.8 111.26C109.8 111.26 109.52 107.15 109.64 106.96L104.45 106.78C104.45 106.78 103.02 114.21 102.91 115.2C102.72 117.02 104.91 117.82 105.41 117.8C105.776 117.716 106.137 117.609 106.49 117.48C106.398 116.526 106.398 115.564 106.49 114.61C106.56 114.18 106.68 113.88 107.12 113.76C107.91 113.55 109.28 114.11 110.04 114.34C110.8 114.57 111.83 114.92 112.73 115.18C114.87 114.32 116.73 113.47 116.88 113.07C117.39 112.09 117.84 111.89 116 111.34Z" fill="#F9CE9B"/>
<path d="M117.73 111.84L117.62 111.69C117.27 111.27 116.23 111.19 115.74 111.13C113.772 110.937 111.787 110.984 109.83 111.27C109.83 111.27 114.57 111.12 114.66 111.98C114.701 112.325 114.661 112.674 114.542 113C114.424 113.327 114.232 113.621 113.98 113.86C111.84 115.39 108.98 113.16 107.19 112.14L103.82 110.25L103.29 113.1C103.031 114.401 102.894 115.723 102.88 117.05C103.08 117.48 105.06 118.8 105.52 118.62C105.98 118.44 107.45 117.76 107.45 117.76L107.54 114.26C107.54 114.26 110.33 115.83 111.74 115.61C112.81 115.45 118.77 113.59 117.73 111.84Z" fill="#56403D"/>
<path d="M75.91 135.93C75.14 135.57 73.99 135.23 73.5 134.46C73.139 133.576 73.0553 132.603 73.26 131.67C73.3267 130.783 73.4167 129.9 73.53 129.02C73.4853 128.976 73.4506 128.923 73.4282 128.864C73.4058 128.805 73.3962 128.743 73.4 128.68C73.4314 127.959 73.5116 127.24 73.64 126.53L70.05 125.8C70.05 125.8 67.79 131.8 67.82 132.54C67.85 133.28 70.82 138.32 72.52 138.82C74.22 139.32 79.27 138.3 79.74 137.68V137.62C78.48 137.09 77.19 136.53 75.91 135.93Z" fill="#F9CE9B"/>
<path d="M71.18 133C71.18 133 72.45 139.12 73.1 139.58C73.75 140.04 81.27 138.48 80.33 136.98C79.73 135.98 75.33 135.57 74.96 135.42C74.96 135.42 77.19 136.42 77.15 136.79C77.11 137.16 74.06 138.2 73.94 137.91C73.82 137.62 71.19 132.1 71.19 132.1L68.32 130.74L65.32 135.93L67.32 137.04C67.32 137.04 67.78 138.76 68 138.78C68.8138 137.884 69.5592 136.928 70.23 135.92C70.2861 136.686 70.4511 137.44 70.72 138.16C70.99 138.4 73.2 140.65 74.47 139.24L72.67 136.74" fill="#56403D"/>
<path d="M91.94 75.8901C94.26 68.3001 94.32 69.6501 95.84 63.3901L80.66 59.3901C72.92 71.0001 65.72 127 65.72 127C65.72 127 73.21 133 79.72 131.18C79.72 131.18 88.49 84.9701 88.51 84.9201C89.76 81.7901 89.81 81.2001 91.94 75.8901Z" fill="#999A1C"/>
<path d="M114.26 78.79C112.06 71.61 93.64 62.79 93.64 62.79L87.22 82.23C87.54 81.23 99.05 84.23 100.14 85.39C102.77 88.18 101.54 93.85 101.14 97.29C101.14 97.29 100.04 102.84 99.34 106.77C103.8 110.21 112.28 106.77 112.28 106.77C112.28 106.77 116.46 86 114.26 78.79Z" fill="#999A1C"/>
<path d="M89.53 82.22C89.53 82.22 85.44 81.57 83.17 79.71L82.34 114.43L89.53 82.22Z" fill="#7A770E"/>
<path d="M107.94 55.3201L110.36 72.1201C110.36 72.1201 115 76.1201 115.62 78.2701C115.786 78.9296 115.799 79.6183 115.659 80.2838C115.519 80.9492 115.228 81.5738 114.81 82.1101L105.87 73.6801L99.87 54.6201" fill="#F9CE9B"/>
<path d="M100.84 37.3601C101.19 38.1401 104.84 41.2601 105.84 45.7501C106.84 50.2401 107.91 55.3201 107.91 55.3201L96.69 59.4001" fill="#B05800"/>
<path d="M88.43 35.1999C85.81 34.8699 78.29 44.7899 78.43 46.2599C78.57 47.7299 83.43 51.8499 83.43 51.8499" fill="#B05800"/>
<path d="M102.3 39.55L101.72 39.46C98.72 39.05 95.93 34.46 95.93 34.46C95.93 34.46 96.16 24.9 89.74 31.72C84.94 36.82 81.65 52.72 80.28 60.42C82.2 62.31 84.93 63.23 87.51 63.89C89.2132 64.3645 90.9523 64.6989 92.71 64.89C93.7934 64.9938 94.8865 64.8712 95.92 64.53L99.92 52.32C100.497 48.0259 101.291 43.7637 102.3 39.55Z" fill="#B05800"/>
<path d="M104.85 28.0001C104.85 28.0001 105.47 36.9301 100.85 37.3301C96.23 37.7301 94.75 33.0701 94.85 32.0601C94.95 31.0501 97.88 24.3601 104.85 28.0001Z" fill="#F9CE9B"/>
<path d="M105.61 27.07C104.922 26.0383 104.019 25.1679 102.962 24.5188C101.906 23.8697 100.721 23.4573 99.49 23.31C97.4257 22.8251 95.2626 22.9821 93.29 23.76C92.9506 23.2183 92.4701 22.7793 91.9 22.49C91.2155 22.13 90.4345 21.9961 89.6692 22.1075C88.9039 22.2189 88.1935 22.5698 87.64 23.11C87.1509 23.6277 86.8504 24.295 86.7869 25.0043C86.7234 25.7137 86.9007 26.4237 87.29 27.02C87.9529 27.8395 88.9124 28.3641 89.96 28.48L89.9 28.66C89.43 30.09 87.83 30.22 86.82 31.16C86.3418 31.5859 86.0124 32.1536 85.88 32.78C85.76 33.41 86.09 34.29 85.82 34.86C85.55 35.43 85.06 35.56 84.68 35.86C84.2384 36.1442 83.8322 36.4799 83.47 36.86C85.56 39.51 88.97 40.99 92.2 41.67C95.7032 42.5182 99.3868 42.2095 102.7 40.79C102.694 40.4443 102.616 40.1036 102.47 39.79C102.111 39.2263 101.692 38.7032 101.22 38.23C100.61 37.41 102.07 36.37 102.37 35.59C102.89 34.26 102.17 33.3 101.29 32.38C100.65 31.72 100.82 31.22 101.16 30.38C101.366 29.7205 101.776 29.143 102.33 28.73C102.552 28.865 102.813 28.918 103.07 28.88C103.581 28.8149 104.099 28.8149 104.61 28.88C104.871 28.8967 105.127 28.8109 105.325 28.6408C105.523 28.4708 105.647 28.2301 105.67 27.97C105.748 27.8302 105.784 27.6708 105.773 27.5112C105.762 27.3515 105.706 27.1983 105.61 27.07Z" fill="#56403D"/>
<path d="M101.46 28.7201C102.809 28.9926 104.187 29.0901 105.56 29.0101C105.56 28.8801 107.95 24.5201 99.22 22.5901C90.49 20.6601 90.12 31.9401 90.12 31.9401" fill="#56403D"/>
<path style="mix-blend-mode:multiply" opacity="0.63" d="M308.4 137.55C317.73 131.39 316.7 134.55 325.4 128.18C319.9 125.32 303.4 115.02 300.03 112.9L280.55 120.47L298 130.67C298.19 130.67 308.26 137.55 308.4 137.55Z" fill="url(#paint1_linear)"/>
<path d="M281.06 103.36V118.24H305.13V103.36" fill="#0A297C"/>
<path d="M293.09 109.28C299.74 109.28 305.13 106.629 305.13 103.36C305.13 100.09 299.74 97.4399 293.09 97.4399C286.44 97.4399 281.05 100.09 281.05 103.36C281.05 106.629 286.44 109.28 293.09 109.28Z" fill="#0A297C"/>
<path opacity="0.73" d="M293.09 109.28C299.74 109.28 305.13 106.629 305.13 103.36C305.13 100.09 299.74 97.4399 293.09 97.4399C286.44 97.4399 281.05 100.09 281.05 103.36C281.05 106.629 286.44 109.28 293.09 109.28Z" fill="black"/>
<path d="M293.09 124.74C299.74 124.74 305.13 122.09 305.13 118.82C305.13 115.551 299.74 112.9 293.09 112.9C286.44 112.9 281.05 115.551 281.05 118.82C281.05 122.09 286.44 124.74 293.09 124.74Z" fill="#0A297C"/>
<path d="M306.57 68.76C304.03 67.76 300.51 64.26 297.44 64.37C296.427 67.3199 295.802 70.3889 295.58 73.5C294.995 78.5617 294.878 83.6667 295.23 88.75C295.303 89.8833 295.397 91.0133 295.51 92.14C295.535 92.4876 295.626 92.8272 295.78 93.14C295.78 97.0666 295.78 100.993 295.78 104.92C295.78 105.019 295.82 105.115 295.89 105.185C295.96 105.255 296.056 105.295 296.155 105.295C296.254 105.295 296.35 105.255 296.42 105.185C296.491 105.115 296.53 105.019 296.53 104.92C296.53 101.14 296.53 97.3633 296.53 93.59C297.737 93.1929 298.894 92.6595 299.98 92C302.243 90.5813 303.954 88.4329 304.83 85.91C306.77 80.5 305.55 74.46 307.39 69.11C307.11 69 306.84 68.87 306.57 68.76Z" fill="#297600"/>
<path d="M301.37 59.9001C299.932 60.7482 298.745 61.9629 297.93 63.4201C297.718 63.7353 297.537 64.0702 297.39 64.4201L297.29 64.6501C297.058 65.2608 296.864 65.8853 296.71 66.5201C297.003 66.044 297.457 65.6891 297.99 65.5201C298.62 65.2457 299.321 65.1825 299.99 65.3401C300.643 65.5956 301.261 65.9315 301.83 66.3401C302.69 66.8601 303.52 67.4401 304.36 67.9801C308.36 70.5101 313.66 70.7701 316.74 67.0801C316.74 66.9301 316.82 66.7901 316.84 66.6401C317.31 64.1101 310.19 54.7701 301.37 59.9001Z" fill="#5FAD00"/>
<path d="M315 68.6501L315.5 68.3201C315.507 68.2673 315.502 68.2136 315.485 68.1632C315.467 68.1128 315.438 68.0672 315.4 68.0301C312.99 65.5501 310.4 63.1301 307.1 61.9101C304.739 61.0125 302.181 60.7605 299.69 61.1801C299.42 61.4901 299.18 61.8201 298.94 62.1801C301.778 61.439 304.784 61.6895 307.46 62.8901C310.37 64.1301 312.69 66.3601 314.87 68.6001C314.91 68.6251 314.954 68.6421 315 68.6501Z" fill="#297600"/>
<path d="M274.57 74C272.83 74.9064 271.394 76.3022 270.438 78.0152C269.482 79.7281 269.048 81.6834 269.19 83.64C269.47 90.74 281.19 83.81 284.29 77.81C287.39 71.81 287.88 80.37 287.88 80.37" fill="#297600"/>
<path d="M285.1 71.5601C282.903 71.5218 280.714 71.8254 278.61 72.4601C277.211 72.8015 275.865 73.3331 274.61 74.0401C275.346 74.532 276.13 74.9475 276.95 75.2801C278.478 75.7341 279.809 76.6885 280.73 77.9901C280.918 78.3296 281.069 78.6883 281.18 79.0601C281.89 81.4001 281.28 84.2301 282.24 86.5801C283.2 88.9301 285.16 91.0001 287.93 91.1701C291.23 91.3701 292.74 88.1701 293.39 85.4601C294.04 82.7501 294.93 78.9801 293.89 76.1601C292.64 72.9001 288.22 71.7101 285.1 71.5601Z" fill="#5FAD00"/>
<path d="M289.45 82.6499C288.07 78.1599 285.13 73.93 280.84 71.95H280.68L280.48 72.0099L279.7 72.21C284.7 74.07 287.84 78.9999 289.13 84.0399C290.77 90.4899 290.22 97.4699 290.23 104.04C290.244 104.121 290.286 104.195 290.349 104.249C290.412 104.302 290.492 104.331 290.575 104.331C290.658 104.331 290.738 104.302 290.801 104.249C290.864 104.195 290.906 104.121 290.92 104.04C290.9 96.9999 291.55 89.4699 289.45 82.6499Z" fill="#297600"/>
</g>
<defs>
<linearGradient id="paint0_linear" x1="222.51" y1="180.67" x2="205.95" y2="152.28" gradientUnits="userSpaceOnUse">
<stop stop-color="white" stop-opacity="0"/>
<stop offset="0.99" stop-color="#FFA86A"/>
</linearGradient>
<linearGradient id="paint1_linear" x1="15158.2" y1="5195.98" x2="15045.8" y2="4844.98" gradientUnits="userSpaceOnUse">
<stop stop-color="white" stop-opacity="0"/>
<stop offset="0.99" stop-color="#FFA86A"/>
</linearGradient>
<clipPath id="clip0">
<rect width="351" height="205" fill="white"/>
</clipPath>
</defs>
</svg>
