<svg width="282" height="266" viewBox="0 0 282 266" fill="none" xmlns="http://www.w3.org/2000/svg">
<g clip-path="url(#clip0)">
<path d="M174.965 90.8511L281.766 156.957L106.704 266.499L0.234406 201.897L174.965 90.8511Z" fill="#FFCF25"/>
<path opacity="0.32" d="M45.235 229.202L50.426 214.574L42.55 208.25L25.6703 216.282C32.9109 221.956 37.5201 224.313 45.235 229.202Z" fill="url(#paint0_linear)"/>
<path opacity="0.32" d="M79.3524 228.794L101.62 210.423L86.235 200.364L60.0204 215.709C67.2699 221.345 71.6285 223.896 79.3524 228.794Z" fill="url(#paint1_linear)"/>
<path opacity="0.32" d="M149.878 187.191L187.397 164.076L176.657 154.628L135.048 178.675C142.342 184.31 142.163 182.293 149.878 187.191Z" fill="url(#paint2_linear)"/>
<path d="M195.864 80.7726L190.198 69.637L186.931 63.914L199.56 57.2695L207.678 75.2921L195.864 80.7726Z" fill="#007F68"/>
<path d="M182.68 78.7259L186.26 74.3997C186.552 74.1085 186.813 73.7832 187.039 73.4297C187.243 72.8488 187.326 72.2258 187.28 71.6061C187.345 70.7131 187.505 69.8311 187.755 68.9774C187.824 68.7364 187.969 68.5298 188.166 68.3941C188.362 68.2584 188.596 68.2024 188.827 68.2361C189.057 68.2699 189.27 68.3911 189.426 68.5783C189.582 68.7655 189.671 69.0065 189.679 69.2587C189.679 69.8116 189.679 70.3645 189.625 70.9174L190.52 70.0735C191.702 72.4015 192.919 74.7101 194.208 76.9605C193.501 77.009 192.785 77.0187 192.069 76.9605C189.502 78.6189 187.224 80.753 185.338 83.2655C185.235 83.4012 185.1 83.5039 184.947 83.5628C184.794 83.6216 184.629 83.6342 184.47 83.5993C184.311 83.5645 184.164 83.4834 184.044 83.3648C183.924 83.2462 183.836 83.0945 183.79 82.926C183.688 82.9029 183.589 82.8671 183.495 82.8193H183.45C183.23 82.6723 183.071 82.4389 183.006 82.1678C182.941 81.8966 182.975 81.6088 183.101 81.3643V81.3158C183.144 81.1993 183.209 81.0941 183.292 81.0071C183.376 80.9201 183.475 80.8534 183.584 80.8114C183.781 80.5689 183.978 80.307 184.157 80.0451L184.041 80.1906C183.217 81.2382 181.839 79.7347 182.68 78.7259Z" fill="#FBC76F"/>
<path d="M190.019 75.3601C190.404 74.7855 190.658 74.121 190.762 73.4201C190.721 72.7053 190.467 72.0243 190.037 71.4801C189.876 71.2182 190.261 70.9757 190.422 71.2376C190.894 71.8543 191.17 72.6197 191.21 73.4201C191.118 74.2372 190.841 75.017 190.404 75.6899C190.384 75.7173 190.359 75.7402 190.331 75.7572C190.303 75.7742 190.272 75.7851 190.24 75.7891C190.208 75.7932 190.176 75.7903 190.145 75.7808C190.114 75.7713 190.085 75.7552 190.059 75.7336C190.034 75.7119 190.013 75.6851 189.997 75.6546C189.982 75.6241 189.972 75.5906 189.968 75.5559C189.964 75.5212 189.967 75.4861 189.976 75.4525C189.984 75.4189 189.999 75.3875 190.019 75.3601Z" fill="#007058"/>
<path d="M151.695 7.39215V92.1896C151.691 93.5316 151.357 94.8482 150.728 96.004C150.099 97.1599 149.197 98.1133 148.115 98.7662L20.8194 176.803C19.7589 177.452 18.56 177.788 17.3421 177.779C16.1242 177.769 14.9298 177.414 13.8779 176.749C12.8259 176.084 11.9531 175.132 11.3464 173.987C10.7396 172.843 10.42 171.546 10.4195 170.226V89.7743C10.4196 88.4661 10.7331 87.1803 11.3292 86.0428C11.9254 84.9053 12.7838 83.955 13.8205 83.285L141.152 0.902853C142.21 0.218858 143.417 -0.148961 144.649 -0.163148C145.881 -0.177335 147.095 0.162617 148.166 0.822089C149.238 1.48156 150.129 2.437 150.749 3.5911C151.369 4.7452 151.695 6.05674 151.695 7.39215Z" fill="#112E7C"/>
<path d="M126.447 72.8284C127.002 72.9739 127.557 73.1388 128.103 73.3037C127.724 72.9929 127.465 72.5397 127.378 72.033C127.338 71.8603 127.345 71.6787 127.4 71.5106C127.454 71.3424 127.552 71.1951 127.682 71.0868C127.813 70.9785 127.969 70.9139 128.133 70.9011C128.297 70.8882 128.461 70.9276 128.604 71.0145C130.09 71.8293 131.582 72.6311 133.079 73.4201C133.079 73.294 133.026 73.1776 132.999 73.0515C132.764 72.3002 132.675 71.5041 132.739 70.7138C133.061 69.3558 134.198 70.1027 134.663 71.1794C135.29 72.6247 135.433 74.167 136.623 75.3019C137.328 75.7989 138.121 76.1294 138.95 76.2719C139.792 76.5338 140.633 76.7763 141.474 77.0091C141.644 77.0681 141.792 77.184 141.897 77.34C142.002 77.496 142.058 77.6841 142.058 77.8772C142.058 78.0703 142.002 78.2584 141.897 78.4145C141.792 78.5705 141.644 78.6863 141.474 78.7454C141.596 78.8292 141.694 78.9464 141.76 79.0849C141.826 79.2235 141.857 79.3785 141.85 79.5342C141.843 79.69 141.797 79.8408 141.719 79.9714C141.64 80.1021 141.531 80.2078 141.403 80.278C141.779 80.9279 141.34 81.9949 140.508 81.6457C138.537 80.7835 136.492 80.1337 134.404 79.7057C132.351 79.5828 130.302 79.3985 128.255 79.1528C127.208 79.0267 127.172 77.2128 128.255 77.3486H128.47L126.626 77.0091C125.731 76.8442 125.91 75.0691 126.85 75.234H127.074L127.682 75.331L126.787 75.0206C126.25 74.8169 125.749 74.6811 125.472 74.0506C125.415 73.8957 125.399 73.727 125.425 73.5628C125.451 73.3986 125.518 73.2453 125.618 73.1193C125.719 72.9934 125.849 72.8997 125.995 72.8484C126.141 72.7971 126.298 72.7902 126.447 72.8284Z" fill="#FBC76F"/>
<path d="M133.07 74.3902C133.089 74.346 133.121 74.3104 133.162 74.2898C133.202 74.2692 133.248 74.2649 133.291 74.2778C133.335 74.2907 133.372 74.3198 133.397 74.36C133.422 74.4001 133.433 74.4487 133.428 74.4969C133.283 75.0676 133.29 75.6711 133.449 76.2377C133.607 76.8042 133.91 77.3105 134.323 77.6979C134.502 77.8725 134.243 78.1538 134.064 77.9792C133.605 77.5416 133.269 76.9733 133.093 76.3388C132.917 75.7044 132.91 75.0293 133.07 74.3902Z" fill="#007058"/>
<path d="M127.987 72.9935C129.335 73.3815 130.666 73.8277 131.978 74.3321C132.202 74.4194 132.104 74.8073 131.88 74.72C130.567 74.2156 129.237 73.7695 127.888 73.3815C127.847 73.3614 127.815 73.3263 127.796 73.2824C127.777 73.2385 127.773 73.1887 127.785 73.1419C127.796 73.0951 127.823 73.0545 127.86 73.0272C127.897 73 127.942 72.9881 127.987 72.9935Z" fill="#007058"/>
<path d="M127.056 75.04L131.307 75.7481C131.54 75.7481 131.441 76.1749 131.209 76.1361L126.957 75.428C126.68 75.3601 126.823 75.0012 127.056 75.04Z" fill="#007058"/>
<path d="M127.817 77.0964C128.962 77.174 130.108 77.2289 131.253 77.2613C131.495 77.2613 131.495 77.6687 131.253 77.659C130.108 77.6202 128.962 77.5652 127.817 77.4941C127.575 77.4844 127.575 77.077 127.817 77.0964Z" fill="#007058"/>
<path d="M180.273 150.128C180.273 150.128 180.38 156.015 181.015 156.918C181.651 157.82 187.352 161.118 187.674 162.621C187.996 164.125 186.985 166.268 184.264 165.463C181.543 164.658 175.01 160.089 175.01 160.089V147.334" fill="#363942"/>
<path d="M158.452 156.84L157.754 163.232C157.754 163.232 160.251 173.088 159.249 174.281C158.247 175.474 154.649 176.774 153.253 174.281C151.856 171.788 153.852 162.582 153.852 162.582L153.951 155.647" fill="#363942"/>
<path d="M171.555 89.202C171.555 89.202 178.617 120.242 178.939 125.092C179.261 129.942 181.373 153.047 181.373 153.047C181.373 153.047 174.661 156.277 170.132 154.648L166.552 125.422L162.632 94.7601C162.632 94.7601 169.873 87.0001 171.555 89.202Z" fill="#8CC63F"/>
<path d="M158.005 96.5446C153.02 119.475 152.429 136.79 149.887 156.84C149.887 156.84 160.699 161.118 163.08 156.976C164.691 136.547 165.997 116.061 166.597 95.5552L158.005 96.5446Z" fill="#8CC63F"/>
<path d="M138.181 72.2462C142.727 74.1183 148.115 75.8158 151.821 75.292C156.471 74.6109 161.039 73.3814 165.442 71.6254C166.042 71.412 172.504 68.7154 174.894 71.0434C177.283 73.3714 176.684 80.8695 176.684 80.8695L185.41 72.6826C188.65 73.9436 189.885 77.5327 190.234 81.1605C190.091 81.3157 189.965 81.4515 189.903 81.5291C189.306 82.3309 188.674 83.1231 188.005 83.9055C185.141 87.3878 181.866 91.4134 177.659 92.9266C175.997 93.4472 174.219 93.3272 172.629 92.5871C171.385 92.0827 169.55 90.4337 168.154 90.9769C167.805 91.1127 167.474 91.394 167.098 91.3455C166.096 91.2097 164.744 89.4734 163.805 88.9399C161.191 87.4655 158.121 87.2423 155.23 87.0871C152.083 86.9714 148.947 86.5985 145.851 85.9717C144.956 85.768 135.29 83.0617 135.111 83.537C136.955 79.3563 137.42 76.844 138.181 72.2462Z" fill="#FF7F5C"/>
<path d="M172.173 65.2236C172.808 68.5022 172.28 73.0418 169.04 73.5559C164.87 74.2252 163.831 71.1503 164.055 67.3673C164.234 64.3603 165.675 59.6655 169.425 61.0235C170.344 61.4066 171.094 62.1562 171.519 63.1187C171.822 63.7859 172.042 64.4938 172.173 65.2236Z" fill="#FBC76F"/>
<path d="M172.406 65.9511C173.248 65.4843 173.944 64.7585 174.407 63.8647C174.871 62.9709 175.08 61.9488 175.01 60.9265C174.831 58.9186 173.032 56.3481 170.947 57.3084C169.533 57.9583 169.917 58.0068 169.917 58.0068C169.586 57.5839 169.157 57.2628 168.675 57.0755C168.193 56.8883 167.674 56.8415 167.17 56.9398C165.192 57.1241 164.852 58.4336 164.852 58.4336C164.852 58.4336 162.605 59.2484 162.015 60.7907C161.334 62.5561 162.91 67.8426 163.608 69.3267C164.306 70.8108 164.771 67.7941 165.022 66.5913C165.109 66.1048 165.306 65.6492 165.595 65.2651C165.884 64.8809 166.256 64.5801 166.678 64.3894C167.895 64.0305 168.468 65.2042 169.461 65.6989C169.905 65.9729 170.398 66.1376 170.907 66.1812C171.416 66.2248 171.928 66.1462 172.406 65.9511Z" fill="#081641"/>
<path d="M164.539 97.835C162.305 97.8588 160.087 97.421 158.005 96.5449L157.566 81.5293L174.267 90.0168C174.267 90.0168 173.641 93.6543 172.925 96.9717C170.198 97.7952 167.359 98.0875 164.539 97.835Z" fill="#FF7F5C"/>
<path d="M105.952 99.2994C105.952 99.2994 107.214 95.0799 107.106 93.2563C106.999 91.4327 106.068 88.7846 107.106 88.2317C108.145 87.6788 109.415 91.5297 109.415 91.5297C109.415 91.5297 112.575 84.3711 113.515 84.827C113.809 85.022 114.054 85.2935 114.228 85.617C114.401 85.9405 114.498 86.3058 114.508 86.6797C114.508 86.6797 115.519 84.8852 115.904 85.6321C116.106 86.3598 116.106 87.1355 115.904 87.8631C115.904 87.8631 116.799 88.0377 116.951 88.6973C117.104 89.3569 115.627 92.0535 115.627 92.0535C115.846 92.0869 116.049 92.2018 116.199 92.3787C116.349 92.5556 116.438 92.7835 116.45 93.0235C116.504 93.8577 110.507 100.337 110.507 100.337" fill="#FBC76F"/>
<path d="M90.173 98.2132C90.173 98.2132 95.4445 102.937 97.4851 106.555C99.5257 110.173 106.202 97.0298 106.202 97.0298C106.202 97.0298 110.847 98.6885 112.324 99.3675C113.801 100.046 104.815 122.347 98.6128 121.58C92.4105 120.814 92.6342 119.495 92.6342 119.495" fill="#0096DF"/>
<path d="M93.1891 190.305C93.0817 190.809 91.8913 196.629 93.1891 198.531C94.4868 200.432 96.8138 201.664 98.5591 203.293C99.4541 204.147 102.98 209.239 100.286 209.792C98.4159 210.171 92.8132 208.269 89.3137 205.485C85.8143 202.702 83.3799 202.168 83.2367 200.703C83.0935 199.239 85.3847 187.453 85.3847 187.453" fill="#363942"/>
<path d="M90.6563 199.142C90.8263 196.523 90.9516 193.603 90.9605 192.08C90.52 194.402 90.4174 196.785 90.6563 199.142Z" fill="#363942"/>
<path d="M74.3404 201.46C74.3404 201.46 76.0588 206.601 77.1507 207.804C78.2426 209.006 82.7355 213.953 81.751 216.398C80.7665 218.842 73.0248 216.825 71.1095 213.401C69.1942 209.976 68.2007 209.938 67.5295 208.551C66.8582 207.163 66.0616 198.695 66.0616 198.695" fill="#363942"/>
<path d="M92.2941 129.68C92.2941 129.68 94.4958 191.974 92.7148 193.4C90.9337 194.825 84.4987 196.93 81.3035 194.37L83.9885 167.404L76.56 205.282C76.56 205.282 67.61 206.853 64.8355 203.167C64.2985 202.45 65.0324 199.404 65.1219 198.608C65.5068 195.01 65.9632 191.411 66.4196 187.822C67.6547 178.219 68.9793 168.626 70.3218 159.042C70.7932 155.66 71.2705 152.281 71.7538 148.906C72.4788 143.803 73.3827 138.236 75.8529 133.715C77.5534 130.573 79.9252 125.257 83.2814 123.841" fill="#FF7F5C"/>
<path d="M75.9783 133.628C81.6526 134.666 87.3985 133.948 92.3747 130.66C93.1444 121.125 93.7351 111.59 92.7864 102.016C92.7784 101.942 92.7784 101.867 92.7864 101.793C92.2256 100.365 91.3196 99.1288 90.164 98.2134C87.2821 96.1085 82.5744 97.1367 79.782 98.7275C79.1121 99.1232 78.4848 99.5981 77.9115 100.144C74.8416 111.047 76.0857 122.376 75.9783 133.628Z" fill="#0096DF"/>
<path d="M86.9241 93.7124L81.8047 92.5581L81.3751 98.6788C81.3751 98.6788 85.2326 102.957 89.0363 102.365L87.9533 97.2626C87.4873 96.1253 87.142 94.9342 86.9241 93.7124Z" fill="#FCBB5B"/>
<path d="M87.0405 94.2846C85.3674 93.4757 83.609 92.8926 81.8047 92.5483L81.6705 95.8948C81.6705 95.8948 85.5011 98.9406 87.7744 96.7775C87.4686 95.9692 87.2232 95.1355 87.0405 94.2846Z" fill="#DB9231"/>
<path d="M90.6204 87.0579C90.6204 87.0579 94.0304 84.8172 93.3054 82.7608C92.5805 80.7044 89.985 80.1515 89.985 80.1515C89.985 80.1515 89.5643 77.5325 87.6043 77.2415C85.6442 76.9505 82.2343 78.6771 82.2343 78.6771C82.2343 78.6771 79.2897 78.3764 78.2426 80.1709C77.1954 81.9654 77.5803 85.1664 77.5803 85.1664C77.5803 85.1664 80.0415 93.2368 81.1603 93.4405C82.279 93.6442 84.973 90.676 84.973 90.676" fill="#0D2F35"/>
<path d="M90.6652 84.517C90.6652 84.517 91.4707 95.187 87.2731 95.9145C83.0756 96.642 81.2945 90.4146 81.2945 90.4146C81.2945 90.4146 78.7527 87.8538 80.3458 87.2718C81.9389 86.6898 82.1358 87.6598 82.1358 87.6598C82.1358 87.6598 80.5696 83.7798 82.2164 83.7798C83.8632 83.7798 88.6067 86.7092 90.6652 84.517Z" fill="#FBC76F"/>
<path d="M86.405 141.621C84.0435 161.169 80.7213 180.568 76.4526 199.733C76.3183 200.335 77.1597 200.703 77.2939 200.063C81.5848 180.812 84.925 161.326 87.3 141.688C87.3984 141.068 86.5034 141 86.405 141.621Z" fill="#363942"/>
<path d="M81.3841 96.9521C81.3841 96.9521 83.3889 98.9891 84.7045 99.1249L86.7361 100.328L88.4188 102.268V99.6099C88.4188 99.6099 87.9175 97.2431 87.9981 97.2528C88.0786 97.2625 89.7881 100.299 89.7881 100.299L91.4707 103.335L89.0273 103.073L87.9713 105.013C87.9713 105.013 81.9031 102.103 79.773 98.7369L81.3841 96.9521Z" fill="white"/>
<path d="M114.231 86.263C113.133 88.2741 112.092 90.3144 111.107 92.3837C110.982 92.6456 111.349 92.8881 111.474 92.6165C112.464 90.5407 113.506 88.5005 114.598 86.4958C114.617 86.4439 114.619 86.3862 114.602 86.3332C114.585 86.2802 114.552 86.2355 114.507 86.2072C114.462 86.1789 114.41 86.169 114.359 86.1792C114.308 86.1895 114.263 86.2192 114.231 86.263Z" fill="#204A51"/>
<path d="M115.609 87.6695L112.754 93.3246C112.62 93.5865 112.995 93.8193 113.121 93.5574L115.976 87.9023C116.11 87.6404 115.743 87.4076 115.609 87.6695Z" fill="#204A51"/>
<path d="M115.403 91.9761C114.836 92.6868 114.335 93.4569 113.908 94.275C113.889 94.3269 113.887 94.3846 113.904 94.4376C113.921 94.4906 113.954 94.5354 113.999 94.5637C114.043 94.5919 114.096 94.6019 114.147 94.5916C114.197 94.5814 114.243 94.5516 114.275 94.5078C114.681 93.7213 115.157 92.9805 115.698 92.2962C115.886 92.0731 115.591 91.7433 115.403 91.9761Z" fill="#204A51"/>
<path d="M109.836 92.1994C109.594 92.0539 109.371 92.4613 109.621 92.5971C110.286 93.0494 110.822 93.6918 111.171 94.4535C111.52 95.2151 111.668 96.0665 111.599 96.9136C111.599 96.9754 111.622 97.0346 111.662 97.0782C111.702 97.1219 111.757 97.1464 111.814 97.1464C111.871 97.1464 111.926 97.1219 111.966 97.0782C112.006 97.0346 112.029 96.9754 112.029 96.9136C112.1 95.9851 111.933 95.0534 111.546 94.2215C111.159 93.3896 110.567 92.6898 109.836 92.1994Z" fill="#204A51"/>
<path d="M77.9204 100.134C75.7946 101.612 74.0707 103.678 72.9263 106.119C71.1363 109.999 66.2944 127.759 72.0313 130.291C77.7683 132.823 87.7117 127.071 87.7117 127.071L87.112 117.633L78.5201 118.971" fill="#0096DF"/>
<path d="M88.9826 110.173C88.911 110.474 86.3513 127.779 86.3513 127.779L96.4648 124.869L98.6128 107.176L88.9826 110.173Z" fill="#FF7F5C"/>
<path d="M84.9998 118.671C84.9998 118.671 86.7898 113.714 87.6848 114.015C88.5798 114.315 88.3292 116.847 88.3292 116.847C88.3292 116.847 92.9027 114.422 94.1199 115.528C95.3371 116.634 92.3299 119.476 91.4349 120.077C90.5399 120.679 85.3399 122.813 85.3399 122.813L84.9998 118.671Z" fill="#FBC76F"/>
<path d="M75.9783 130.931C78.9552 130.203 81.8949 129.306 84.7851 128.244C84.7851 128.244 85.5816 123.288 85.6174 123.394C85.6532 123.501 85.51 129.757 85.152 130.184C84.794 130.611 75.9872 133.57 75.9872 133.57L75.9783 130.931Z" fill="#363942"/>
<path d="M230.76 31.4676C233.445 39.7805 230.616 48.7045 224.369 51.3817C218.122 54.0589 210.855 49.5096 208.125 41.1967C205.395 32.8838 208.268 23.9598 214.515 21.2826C220.762 18.6054 228.039 23.1547 230.76 31.4676Z" fill="#007F68"/>
<path d="M228.853 32.292C231.538 40.6049 228.71 49.5289 222.463 52.2061C216.216 54.8833 208.948 50.3243 206.228 42.0114C203.507 33.6985 206.335 24.7745 212.6 22.0973C218.865 19.4201 226.132 23.95 228.853 32.292Z" fill="#007F68"/>
<path d="M226.92 33.1261C229.175 40.0034 226.804 47.3851 221.631 49.6161C216.457 51.8471 210.443 48.0641 208.206 41.1771C205.968 34.2901 208.322 26.9181 213.495 24.6871C218.668 22.4561 224.656 26.2488 226.92 33.1261Z" fill="white"/>
<path d="M217.245 36.8123L213.746 42.2831C213.459 42.739 214.068 43.2531 214.354 42.8263L217.854 37.3555C218.14 36.8996 217.531 36.3564 217.245 36.8123Z" fill="#007F68"/>
<path d="M217.075 28.2472V36.6765C217.075 36.8051 217.122 36.9285 217.206 37.0195C217.29 37.1104 217.404 37.1615 217.522 37.1615C217.641 37.1615 217.755 37.1104 217.839 37.0195C217.923 36.9285 217.97 36.8051 217.97 36.6765V28.2472C217.97 28.1186 217.923 27.9952 217.839 27.9043C217.755 27.8133 217.641 27.7622 217.522 27.7622C217.404 27.7622 217.29 27.8133 217.206 27.9043C217.122 27.9952 217.075 28.1186 217.075 28.2472Z" fill="#007F68"/>
<path d="M256.276 34.8916V121.949L278.606 136.412V49.0536L256.276 34.8916Z" fill="#112E7C"/>
<path d="M39.5249 187.473C36.0367 192.319 34.3335 198.396 34.7456 204.525C35.3811 214.478 40.5542 217.368 40.5542 217.368L46.7118 217.737C46.7118 217.737 54.0329 215.147 53.0752 202.217C52.1802 190.063 48.5286 187.211 48.5286 187.211" fill="#112E7C"/>
<path d="M44.0626 189.209C46.5637 189.209 48.5913 188.432 48.5913 187.473C48.5913 186.514 46.5637 185.736 44.0626 185.736C41.5614 185.736 39.5339 186.514 39.5339 187.473C39.5339 188.432 41.5614 189.209 44.0626 189.209Z" fill="#003B94"/>
<path d="M44.0626 218.047C46.5637 218.047 48.5913 217.269 48.5913 216.311C48.5913 215.352 46.5637 214.574 44.0626 214.574C41.5614 214.574 39.5339 215.352 39.5339 216.311C39.5339 217.269 41.5614 218.047 44.0626 218.047Z" fill="#112E7C"/>
<path d="M42.201 187.997L36.7146 153.93C36.5983 153.183 35.5511 153.503 35.6674 154.241L41.1538 188.346C41.2791 189.054 42.3173 188.734 42.201 187.997Z" fill="#007F68"/>
<path d="M43.1944 188.113C43.3599 188.078 43.5301 188.078 43.6956 188.113C43.913 188.173 44.1092 188.301 44.2595 188.481C44.695 178.956 44.7726 169.424 44.4922 159.886C44.4922 159.129 43.3913 159.129 43.4092 159.886C43.6896 169.301 43.618 178.71 43.1944 188.113Z" fill="#007F68"/>
<path d="M55.5275 155.016C51.4396 165.718 47.9019 176.657 44.9307 187.783C44.9093 187.927 44.9378 188.074 45.0107 188.197C45.0836 188.32 45.1958 188.409 45.3257 188.448C45.4556 188.486 45.594 188.471 45.7144 188.406C45.8348 188.34 45.9286 188.229 45.9778 188.093C48.9491 176.967 52.4867 166.028 56.5746 155.327C56.87 154.638 55.787 154.327 55.5275 155.016Z" fill="#007F68"/>
<path d="M37.8871 167.956C37.8871 167.956 37.2963 167.878 34.7098 164.93C32.1232 161.981 35.39 159.76 33.8953 156.442C32.4007 153.125 34.5129 148.76 34.9873 145.442C35.2783 147.768 36.0558 149.991 37.2605 151.941C39.2117 154.968 40.3036 157.703 40.0977 161.544C39.9584 163.964 39.5804 166.361 38.97 168.693" fill="#007F68"/>
<path d="M43.445 173.223C43.445 173.223 42.8901 172.991 41.0374 169.44C39.1848 165.89 42.8274 164.59 42.1472 160.992C41.467 157.393 44.4653 153.707 45.6735 150.603C45.4351 152.937 45.6923 155.299 46.4254 157.509C47.6426 160.963 48.0811 163.892 47.025 167.568C46.3515 169.881 45.4514 172.108 44.34 174.213" fill="#007F68"/>
<path d="M51.1689 167.083C51.1689 167.083 50.6677 166.734 49.531 162.854C48.3944 158.974 52.216 158.528 52.216 154.822C52.216 151.117 55.8587 148.207 57.586 145.442C56.9105 147.673 56.7146 150.042 57.0132 152.368C57.5502 156.015 57.4338 158.984 55.6976 162.349C54.5893 164.462 53.2751 166.439 51.7775 168.247" fill="#007F68"/>
<path d="M174.41 79.822C174.346 85.5842 173.837 91.3305 172.889 97.0007C172.826 97.3984 173.381 97.573 173.453 97.1656C174.417 91.4416 174.938 85.6402 175.01 79.822C175.01 79.7358 174.978 79.6532 174.922 79.5922C174.866 79.5313 174.79 79.4971 174.71 79.4971C174.631 79.4971 174.554 79.5313 174.498 79.5922C174.442 79.6532 174.41 79.7358 174.41 79.822Z" fill="#363942"/>
</g>
<defs>
<linearGradient id="paint0_linear" x1="35.5064" y1="222.703" x2="45.7477" y2="215.43" gradientUnits="userSpaceOnUse">
<stop stop-opacity="0"/>
<stop offset="1" stop-color="#3F1E00"/>
</linearGradient>
<linearGradient id="paint1_linear" x1="5092.74" y1="6993.59" x2="5664.05" y2="6377.39" gradientUnits="userSpaceOnUse">
<stop stop-opacity="0"/>
<stop offset="1" stop-color="#3F1E00"/>
</linearGradient>
<linearGradient id="paint2_linear" x1="10834.6" y1="6600.46" x2="12115.9" y2="5360.63" gradientUnits="userSpaceOnUse">
<stop stop-opacity="0"/>
<stop offset="1" stop-color="#3F1E00"/>
</linearGradient>
<clipPath id="clip0">
<rect width="282" height="266" fill="white"/>
</clipPath>
</defs>
</svg>
