<svg width="30" height="34" viewBox="0 0 30 34" fill="none" xmlns="http://www.w3.org/2000/svg">
<path d="M10 15.3333H6.66667V18.6667H10V15.3333ZM16.6667 15.3333H13.3333V18.6667H16.6667V15.3333ZM23.3333 15.3333H20V18.6667H23.3333V15.3333ZM26.6667 3.66667H25V0.333334H21.6667V3.66667H8.33333V0.333334H5V3.66667H3.33333C1.48333 3.66667 0.0166667 5.16667 0.0166667 7L0 30.3333C0 32.1667 1.48333 33.6667 3.33333 33.6667H26.6667C28.5 33.6667 30 32.1667 30 30.3333V7C30 5.16667 28.5 3.66667 26.6667 3.66667ZM26.6667 30.3333H3.33333V12H26.6667V30.3333Z" fill="#544700"/>
</svg>
