<svg width="88" height="73" viewBox="0 0 88 73" fill="none" xmlns="http://www.w3.org/2000/svg">
<g clip-path="url(#clip0)" filter="url(#filter0_d)">
<path d="M44 64.6434C61.6963 64.6434 76.0421 63.5126 76.0421 62.1176C76.0421 60.7226 61.6963 59.5918 44 59.5918C26.3037 59.5918 11.9579 60.7226 11.9579 62.1176C11.9579 63.5126 26.3037 64.6434 44 64.6434Z" fill="#714C05"/>
<path d="M10.5981 -0.183838H77.4016C79.5964 -0.183838 81.3922 1.61213 81.3922 3.80676V44.9584H6.60767V3.80659C6.60767 1.61177 8.40328 -0.183838 10.5981 -0.183838Z" fill="#666666"/>
<path d="M9.31752 42.2492H78.6825V3.80729C78.6825 3.10821 78.1006 2.52637 77.4019 2.52637H10.5984C9.89936 2.52637 9.31787 3.10821 9.31787 3.80729V42.2494H9.31752V42.2492Z" fill="#DCE3DB"/>
<path d="M81.392 44.959V49.3229C81.392 51.5183 79.4127 53.3135 76.993 53.3135H11.0066C8.58697 53.3135 6.60767 51.5183 6.60767 49.3229V44.959H81.392Z" fill="white"/>
<path d="M23.8271 8.30762H64.1734H70.1792C70.9071 8.30762 71.5023 8.90317 71.5023 9.63073V17.5049V42.2492H16.498L16.4977 17.5051V9.6309C16.4977 8.90299 17.0929 8.30779 17.8208 8.30779H23.8266H23.8271V8.30762Z" fill="white"/>
<path d="M17.8211 8.30762H70.179C70.9069 8.30762 71.5021 8.90282 71.5021 9.63073V12.2768H16.498V9.63073C16.498 8.90299 17.0934 8.30762 17.8211 8.30762Z" fill="#828282"/>
<path d="M32.2755 9.67847H61.0373C61.2331 9.67847 61.3927 9.83896 61.3927 10.0339V10.6936C61.3927 10.8889 61.2328 11.049 61.0373 11.049H32.2755C32.0806 11.049 31.9204 10.8894 31.9204 10.6936V10.0339C31.9202 9.83808 32.08 9.67847 32.2755 9.67847Z" fill="white"/>
<path d="M19.625 9.44238C20.0455 9.44238 20.3867 9.78305 20.3867 10.2044C20.3867 10.6252 20.0453 10.9661 19.625 10.9661C19.2038 10.9661 18.8627 10.6254 18.8627 10.2044C18.8627 9.78305 19.204 9.44238 19.625 9.44238Z" fill="#88C607"/>
<path d="M22.6323 9.44238C23.0535 9.44238 23.3943 9.78305 23.3943 10.2044C23.3943 10.6252 23.0536 10.9661 22.6323 10.9661C22.2118 10.9661 21.8706 10.6254 21.8706 10.2044C21.8706 9.78305 22.2118 9.44238 22.6323 9.44238Z" fill="#FAD24D"/>
<path d="M25.6401 9.44238C26.0606 9.44238 26.4018 9.78305 26.4018 10.2044C26.4018 10.6252 26.0604 10.9661 25.6401 10.9661C25.2189 10.9661 24.8777 10.6254 24.8777 10.2044C24.8777 9.78305 25.2193 9.44238 25.6401 9.44238Z" fill="#FF5B62"/>
<path d="M68.458 15.679H64.6896V16.285H68.458V15.679Z" fill="white"/>
<path d="M22.0717 14.7886H60.996V25.2221H22.0717V14.7886ZM24.6302 27.2283H58.4378V28.0309H24.6302V27.2283ZM24.6302 37.6615H40.0723V38.4641H24.6302V37.6615ZM24.6302 35.0531H58.4378V35.8557H24.6302V35.0531ZM24.6302 32.4446H52.7725V33.2473H24.6302V32.4446ZM24.6302 29.8364H58.4378V30.639H24.6302V29.8364Z" fill="#ECF0F1"/>
<path d="M52.6249 59.591L58.9698 61.6241H29.0299L34.1494 59.591V53.3135H52.6249V59.591Z" fill="#C2C2C4"/>
<path d="M52.6249 59.591L34.1494 53.3135H52.6249V59.591Z" fill="#B6B6B8"/>
<path d="M34.1494 59.5911H52.6249L58.9698 61.6242V62.4997H44.0002H29.0299V61.6242L34.1494 59.5911Z" fill="#ECF0F1"/>
<path d="M44 50.5108C44.7588 50.5108 45.3739 49.8956 45.3739 49.1369C45.3739 48.3781 44.7588 47.7629 44 47.7629C43.2412 47.7629 42.6261 48.3781 42.6261 49.1369C42.6261 49.8956 43.2412 50.5108 44 50.5108Z" fill="#B6B6B8"/>
</g>
<defs>
<filter id="filter0_d" x="-4" y="0" width="96" height="73" filterUnits="userSpaceOnUse" color-interpolation-filters="sRGB">
<feFlood flood-opacity="0" result="BackgroundImageFix"/>
<feColorMatrix in="SourceAlpha" type="matrix" values="0 0 0 0 0 0 0 0 0 0 0 0 0 0 0 0 0 0 127 0"/>
<feOffset dy="4"/>
<feGaussianBlur stdDeviation="2"/>
<feColorMatrix type="matrix" values="0 0 0 0 0 0 0 0 0 0 0 0 0 0 0 0 0 0 0.25 0"/>
<feBlend mode="normal" in2="BackgroundImageFix" result="effect1_dropShadow"/>
<feBlend mode="normal" in="SourceGraphic" in2="effect1_dropShadow" result="shape"/>
</filter>
<clipPath id="clip0">
<rect width="88" height="65" fill="white"/>
</clipPath>
</defs>
</svg>
