<svg width="1820" height="1497" viewBox="0 0 1820 1497" fill="none" xmlns="http://www.w3.org/2000/svg">
<path d="M438.253 1448.9L439.674 1454.47L437.596 1454.76C437.274 1454.78 436.96 1454.88 436.681 1455.07C436.401 1455.25 436.163 1455.5 435.986 1455.8C435.81 1456.15 435.707 1456.54 435.685 1456.94C435.664 1457.34 435.724 1457.73 435.862 1458.1L437.812 1465.67C438.021 1466.44 438.127 1467.24 438.128 1468.04C438.146 1468.61 438.05 1469.18 437.846 1469.71C437.688 1470.08 437.493 1470.42 437.264 1470.74C437.118 1470.96 436.929 1471.15 436.711 1471.28L436.476 1471.46L436.806 1471.54C437.074 1471.64 437.334 1471.77 437.584 1471.91C437.975 1472.13 438.337 1472.4 438.663 1472.72C439.056 1473.16 439.398 1473.65 439.684 1474.18C440.09 1474.89 440.401 1475.68 440.605 1476.5L442.559 1484.1C442.73 1484.92 443.16 1485.65 443.771 1486.14C444.354 1486.61 445.072 1486.81 445.786 1486.72L447.896 1486.46L449.249 1492.08L446.092 1492.46C444.099 1492.79 442.072 1492.28 440.408 1491.03C438.729 1489.63 437.539 1487.63 437.038 1485.36L435.09 1477.32C434.912 1476.46 434.459 1475.7 433.815 1475.18C433.169 1474.69 432.383 1474.49 431.607 1474.61L430.267 1469.44C430.619 1469.43 430.964 1469.33 431.275 1469.14C431.586 1468.96 431.855 1468.7 432.06 1468.37C432.24 1468.02 432.348 1467.63 432.374 1467.23C432.4 1466.83 432.345 1466.43 432.211 1466.05L430.158 1458.08C429.813 1457.09 429.664 1456.03 429.721 1454.97C429.777 1453.91 430.038 1452.87 430.486 1451.93C431.018 1451.12 431.714 1450.45 432.518 1449.98C433.321 1449.51 434.211 1449.26 435.115 1449.25L438.253 1448.9Z" fill="#E3DBBE" fill-opacity="0.47"/>
<path d="M1520.75 755.875L1516.98 763.639L1513.15 761.812C1512.58 761.502 1511.93 761.297 1511.26 761.212C1510.59 761.127 1509.91 761.165 1509.27 761.323C1508.59 761.535 1507.98 761.867 1507.5 762.296C1507.02 762.724 1506.68 763.237 1506.51 763.795L1501.42 774.358C1500.93 775.443 1500.22 776.456 1499.33 777.365C1498.73 778.03 1497.93 778.574 1497 778.957C1496.33 779.209 1495.62 779.397 1494.88 779.518C1494.38 779.621 1493.86 779.635 1493.34 779.56L1492.75 779.514L1493.21 779.953C1493.55 780.345 1493.86 780.754 1494.12 781.178C1494.54 781.825 1494.85 782.509 1495.04 783.21C1495.23 784.107 1495.27 785.012 1495.16 785.905C1495.06 787.137 1494.71 788.341 1494.15 789.478L1489.03 800.092C1488.41 801.196 1488.33 802.458 1488.82 803.648C1489.29 804.775 1490.28 805.751 1491.59 806.386L1495.45 808.27L1491.51 816.021L1485.74 813.185C1482.01 811.496 1479.14 808.823 1477.71 805.688C1476.42 802.375 1476.63 798.881 1478.3 795.797L1483.9 784.71C1484.56 783.549 1484.64 782.22 1484.12 780.968C1483.57 779.749 1482.46 778.707 1481.02 778.042L1484.48 770.817C1485.08 771.169 1485.78 771.41 1486.51 771.523C1487.25 771.635 1487.99 771.616 1488.69 771.466C1489.39 771.257 1490 770.926 1490.49 770.499C1490.98 770.072 1491.34 769.559 1491.52 768.999L1496.89 757.867C1497.4 756.395 1498.32 755.044 1499.59 753.905C1500.86 752.765 1502.45 751.866 1504.25 751.267C1506.06 750.892 1507.98 750.855 1509.86 751.159C1511.73 751.463 1513.52 752.099 1515.06 753.017L1520.75 755.875Z" fill="#FFF2C4" fill-opacity="0.47"/>
<path d="M465.918 1445.51C467.911 1445.18 469.938 1445.69 471.602 1446.94C473.278 1448.33 474.466 1450.33 474.963 1452.59L476.897 1460.64C477.075 1461.5 477.528 1462.26 478.172 1462.78C478.819 1463.27 479.604 1463.47 480.38 1463.35L481.72 1468.52C481.372 1468.53 481.03 1468.63 480.721 1468.81C480.411 1468.99 480.141 1469.25 479.932 1469.56C479.751 1469.91 479.643 1470.3 479.614 1470.71C479.585 1471.11 479.637 1471.52 479.766 1471.89L481.824 1479.84C482.173 1480.83 482.325 1481.89 482.269 1482.96C482.214 1484.02 481.954 1485.06 481.505 1486C480.974 1486.82 480.278 1487.49 479.474 1487.96C478.67 1488.42 477.781 1488.68 476.877 1488.69L473.72 1489.07L472.368 1483.45L474.465 1483.19C474.786 1483.17 475.101 1483.07 475.383 1482.9C475.665 1482.72 475.908 1482.48 476.092 1482.18C476.262 1481.85 476.365 1481.48 476.394 1481.1C476.422 1480.72 476.376 1480.34 476.257 1479.98L474.303 1472.37C474.091 1471.6 473.982 1470.8 473.978 1469.99C473.96 1469.42 474.06 1468.85 474.269 1468.33C474.44 1467.98 474.633 1467.65 474.847 1467.33C474.992 1467.09 475.192 1466.89 475.427 1466.77L475.634 1466.61L475.313 1466.54C475.048 1466.43 474.788 1466.31 474.535 1466.17C474.137 1465.96 473.77 1465.68 473.447 1465.34C473.056 1464.91 472.713 1464.42 472.426 1463.89C472.021 1463.17 471.71 1462.39 471.505 1461.57L469.555 1454.01C469.374 1453.18 468.939 1452.45 468.326 1451.94C467.74 1451.43 466.999 1451.19 466.256 1451.27L464.159 1451.52L462.738 1445.95L465.918 1445.51Z" fill="#E3DBBE" fill-opacity="0.47"/>
<path d="M1571.32 780.657C1575.05 782.345 1577.92 785.019 1579.35 788.153C1580.64 791.457 1580.44 794.944 1578.76 798.018L1573.12 809.102C1572.47 810.263 1572.39 811.593 1572.9 812.845C1573.46 814.061 1574.57 815.101 1576.01 815.771L1572.55 822.995C1571.95 822.65 1571.26 822.41 1570.53 822.293C1569.81 822.177 1569.07 822.187 1568.37 822.323C1567.67 822.533 1567.06 822.863 1566.56 823.289C1566.06 823.716 1565.7 824.227 1565.5 824.786L1560.18 835.895C1559.67 837.371 1558.75 838.728 1557.48 839.872C1556.21 841.016 1554.62 841.92 1552.81 842.521C1551 842.896 1549.08 842.933 1547.21 842.629C1545.33 842.325 1543.55 841.689 1542 840.771L1536.24 837.935L1540.18 830.184L1544.01 832.065C1544.58 832.377 1545.22 832.588 1545.89 832.682C1546.56 832.776 1547.25 832.75 1547.89 832.607C1548.54 832.408 1549.13 832.098 1549.6 831.698C1550.07 831.298 1550.41 830.818 1550.6 830.293L1555.73 819.679C1556.23 818.586 1556.93 817.564 1557.82 816.645C1558.42 815.985 1559.22 815.449 1560.15 815.08C1560.82 814.861 1561.52 814.682 1562.24 814.543C1562.75 814.42 1563.31 814.407 1563.84 814.506L1564.36 814.547L1563.9 814.135C1563.57 813.738 1563.27 813.329 1563 812.91C1562.56 812.258 1562.25 811.564 1562.07 810.851C1561.89 809.954 1561.85 809.049 1561.95 808.156C1562.06 806.924 1562.4 805.721 1562.96 804.582L1568.05 794.019C1568.66 792.895 1568.74 791.619 1568.26 790.411C1567.84 789.226 1566.85 788.188 1565.51 787.511L1561.68 785.63L1565.45 777.866L1571.32 780.657Z" fill="#FFF2C4" fill-opacity="0.47"/>
<path d="M463.07 1456.49L459.421 1468.52L469.404 1479.4L463.261 1480.14L456.97 1473.44L454.411 1481.22L448.291 1481.97L452.241 1469.4L442.774 1458.95L449.137 1458.18L454.673 1464.52L456.721 1457.25L463.07 1456.49Z" fill="#E3DBBE" fill-opacity="0.47"/>
<path d="M1554.33 790.111L1534.82 799.933L1539.66 822.544L1528.44 817.029L1525.23 802.95L1512.28 809.091L1501.09 803.606L1521.7 793.493L1517.26 771.906L1528.88 777.613L1531.23 790.497L1542.74 784.407L1554.33 790.111Z" fill="#FFF2C4" fill-opacity="0.47"/>
<path d="M1703.96 1411.79C1704.67 1414.54 1704.3 1416.82 1702.85 1418.65C1701.39 1420.45 1699.15 1421.75 1696.13 1422.53C1693.96 1423.1 1692.02 1423.23 1690.31 1422.95C1688.61 1422.64 1687.23 1422.05 1686.18 1421.18C1685.14 1420.32 1684.48 1419.34 1684.2 1418.26C1684.16 1418.09 1684.18 1417.94 1684.26 1417.81C1684.35 1417.65 1684.48 1417.55 1684.64 1417.5L1690.77 1415.91C1690.93 1415.87 1691.08 1415.89 1691.22 1415.97C1691.37 1416.05 1691.5 1416.17 1691.6 1416.33C1692.22 1417.33 1693.23 1417.64 1694.62 1417.28C1695.47 1417.06 1696.09 1416.69 1696.47 1416.16C1696.88 1415.64 1696.98 1415 1696.79 1414.26L1695.2 1408.16L1685.31 1410.73C1685.11 1410.79 1684.92 1410.76 1684.74 1410.65C1684.56 1410.54 1684.44 1410.39 1684.39 1410.19L1683.33 1406.1C1683.27 1405.9 1683.3 1405.71 1683.41 1405.53C1683.52 1405.35 1683.67 1405.23 1683.87 1405.18L1700.34 1400.9C1700.54 1400.84 1700.73 1400.87 1700.92 1400.98C1701.1 1401.09 1701.21 1401.24 1701.27 1401.44L1703.96 1411.79ZM1715.87 1416.13C1715.79 1416.8 1715.46 1417.22 1714.89 1417.37L1709.76 1418.7C1709.6 1418.74 1709.44 1418.72 1709.29 1418.65C1709.15 1418.55 1709.05 1418.42 1709.01 1418.26L1709 1418.09L1710.4 1399.24C1710.41 1398.98 1710.5 1398.74 1710.65 1398.51C1710.8 1398.27 1711.05 1398.11 1711.39 1398.02L1718.92 1396.07C1719.27 1395.98 1719.56 1396 1719.81 1396.13C1720.05 1396.25 1720.24 1396.43 1720.38 1396.64L1730.79 1412.42L1730.85 1412.58C1730.9 1412.74 1730.87 1412.9 1730.78 1413.06C1730.7 1413.2 1730.58 1413.29 1730.41 1413.33L1725.29 1414.66C1724.71 1414.81 1724.23 1414.61 1723.83 1414.06L1722.66 1412.34L1716.05 1414.06L1715.87 1416.13ZM1716.52 1402.28L1716.06 1408.41L1719.91 1407.41L1716.52 1402.28ZM1748.42 1388.4C1748.59 1388.35 1748.74 1388.38 1748.88 1388.48C1749.03 1388.56 1749.13 1388.68 1749.18 1388.84L1749.2 1389.03L1747.46 1407.94C1747.43 1408.22 1747.35 1408.48 1747.2 1408.71C1747.04 1408.92 1746.8 1409.07 1746.47 1409.16L1740.16 1410.8C1739.83 1410.88 1739.55 1410.87 1739.31 1410.76C1739.06 1410.63 1738.88 1410.47 1738.75 1410.29L1727.95 1394.56L1727.88 1394.38C1727.83 1394.21 1727.85 1394.06 1727.93 1393.93C1728.03 1393.77 1728.15 1393.67 1728.32 1393.62L1734.03 1392.14C1734.36 1392.05 1734.65 1392.08 1734.9 1392.23C1735.16 1392.36 1735.36 1392.52 1735.49 1392.72L1741.3 1402.28L1741.72 1391.09C1741.73 1390.84 1741.81 1390.6 1741.96 1390.37C1742.12 1390.13 1742.36 1389.97 1742.71 1389.88L1748.42 1388.4ZM1762.45 1404.02C1762.38 1404.69 1762.05 1405.11 1761.48 1405.26L1756.35 1406.59C1756.19 1406.63 1756.03 1406.61 1755.88 1406.54C1755.74 1406.44 1755.64 1406.31 1755.6 1406.15L1755.59 1405.98L1756.99 1387.12C1757 1386.87 1757.09 1386.63 1757.24 1386.4C1757.39 1386.16 1757.64 1386 1757.98 1385.91L1765.51 1383.95C1765.86 1383.87 1766.15 1383.89 1766.4 1384.01C1766.64 1384.14 1766.83 1384.32 1766.97 1384.53L1777.37 1400.31L1777.44 1400.47C1777.49 1400.63 1777.46 1400.79 1777.37 1400.95C1777.29 1401.09 1777.17 1401.18 1777 1401.22L1771.88 1402.55C1771.3 1402.7 1770.82 1402.5 1770.42 1401.95L1769.25 1400.23L1762.64 1401.94L1762.45 1404.02ZM1763.11 1390.16L1762.65 1396.3L1766.5 1395.3L1763.11 1390.16Z" fill="#988E35" fill-opacity="0.12"/>
<path d="M573.714 969.709C574.022 970.557 574.537 971.107 575.261 971.36C576.005 971.605 576.863 971.551 577.835 971.198C578.704 970.883 579.292 970.506 579.601 970.066C579.91 969.627 580.104 969.065 580.183 968.381C580.257 967.746 580.521 967.346 580.976 967.181L587.677 964.75C587.863 964.683 588.045 964.699 588.221 964.799C588.411 964.87 588.54 964.999 588.607 965.185C589.065 966.447 589.091 967.841 588.686 969.369C588.273 970.876 587.344 972.348 585.899 973.785C584.468 975.193 582.511 976.348 580.029 977.248C577.816 978.05 575.721 978.436 573.744 978.404C571.78 978.344 570.04 977.805 568.524 976.787C567 975.748 565.86 974.185 565.102 972.096L563.774 968.435C563.017 966.346 562.893 964.425 563.404 962.672C563.907 960.898 564.897 959.369 566.374 958.085C567.863 956.772 569.715 955.714 571.928 954.912C574.41 954.011 576.655 953.653 578.664 953.837C580.686 953.993 582.343 954.527 583.633 955.44C584.916 956.332 585.787 957.409 586.244 958.67C586.312 958.857 586.299 959.048 586.207 959.245C586.128 959.415 585.995 959.533 585.809 959.6L579.108 962.031C578.653 962.196 578.194 962.058 577.73 961.618C577.231 961.144 576.721 960.837 576.203 960.698C575.684 960.558 574.991 960.646 574.122 960.961C573.15 961.314 572.457 961.822 572.043 962.487C571.649 963.145 571.606 963.898 571.914 964.746L573.714 969.709ZM602.961 952.923C605.326 952.346 607.293 952.089 608.86 952.152C610.448 952.208 611.718 952.579 612.668 953.264C613.619 953.948 614.342 954.973 614.837 956.338C615.377 957.828 615.363 959.307 614.796 960.776C614.243 962.217 613.227 963.545 611.748 964.76C610.262 965.954 608.434 966.945 606.262 967.733C603.842 968.611 601.686 969.053 599.793 969.061C597.901 969.069 596.361 968.727 595.173 968.034C593.978 967.321 593.163 966.364 592.728 965.165C592.653 964.958 592.655 964.77 592.734 964.601C592.834 964.424 592.987 964.298 593.194 964.223L599.554 961.917C599.988 961.759 600.389 961.766 600.755 961.937C601.227 962.141 601.702 962.226 602.181 962.192C602.653 962.138 603.282 961.969 604.068 961.684C606.033 960.971 606.906 960.315 606.689 959.715C606.599 959.467 606.389 959.309 606.06 959.241C605.745 959.145 605.233 959.155 604.527 959.271C603.833 959.358 602.829 959.559 601.515 959.871C598.562 960.568 596.135 960.653 594.235 960.125C592.328 959.576 591.014 958.309 590.294 956.324C589.784 954.918 589.758 953.523 590.216 952.14C590.674 950.757 591.569 949.484 592.903 948.322C594.257 947.152 595.968 946.192 598.037 945.442C600.187 944.662 602.193 944.32 604.054 944.418C605.907 944.494 607.438 944.875 608.646 945.56C609.854 946.246 610.63 947.064 610.975 948.015C611.05 948.222 611.038 948.414 610.938 948.59C610.859 948.759 610.706 948.885 610.478 948.968L603.809 951.387C603.457 951.515 603.091 951.507 602.712 951.364C602.409 951.239 602.08 951.171 601.725 951.16C601.37 951.148 600.872 951.259 600.231 951.491C598.845 951.994 598.257 952.535 598.467 953.114C598.58 953.424 598.939 953.575 599.544 953.566C600.142 953.536 601.281 953.322 602.961 952.923ZM629.629 943.251C631.994 942.674 633.96 942.417 635.527 942.48C637.116 942.536 638.385 942.906 639.335 943.591C640.286 944.276 641.009 945.301 641.504 946.666C642.044 948.155 642.031 949.634 641.464 951.104C640.91 952.545 639.894 953.873 638.415 955.088C636.93 956.282 635.101 957.273 632.929 958.061C630.51 958.938 628.353 959.381 626.461 959.389C624.568 959.397 623.028 959.054 621.84 958.362C620.646 957.648 619.831 956.692 619.396 955.492C619.32 955.286 619.323 955.098 619.402 954.928C619.501 954.752 619.655 954.626 619.861 954.551L626.221 952.244C626.655 952.087 627.056 952.094 627.422 952.265C627.894 952.468 628.369 952.553 628.849 952.52C629.32 952.466 629.949 952.296 630.735 952.011C632.7 951.299 633.573 950.642 633.356 950.043C633.266 949.794 633.056 949.636 632.728 949.568C632.412 949.472 631.901 949.482 631.194 949.598C630.5 949.686 629.496 949.886 628.182 950.199C625.229 950.896 622.802 950.98 620.902 950.453C618.995 949.904 617.681 948.637 616.961 946.652C616.451 945.245 616.425 943.851 616.883 942.468C617.341 941.085 618.236 939.812 619.57 938.649C620.924 937.48 622.636 936.52 624.704 935.769C626.855 934.989 628.86 934.648 630.721 934.745C632.574 934.822 634.105 935.203 635.313 935.888C636.521 936.573 637.297 937.392 637.643 938.343C637.718 938.55 637.705 938.741 637.605 938.918C637.526 939.087 637.373 939.213 637.146 939.295L630.476 941.715C630.124 941.842 629.759 941.834 629.379 941.691C629.076 941.567 628.748 941.499 628.392 941.487C628.037 941.476 627.539 941.586 626.898 941.819C625.512 942.321 624.924 942.862 625.134 943.441C625.247 943.752 625.606 943.902 626.211 943.893C626.809 943.864 627.948 943.649 629.629 943.251Z" fill="#FFCF25" fill-opacity="0.1"/>
<path opacity="0.99" d="M56.6545 1296.67L60.1245 1305.55L49.6236 1317.52L66.5642 1322L70.0342 1330.88L41.8681 1323.06L39.4424 1316.9L56.6545 1296.67Z" fill="#F8F3EA" fill-opacity="0.57"/>
<path opacity="0.99" d="M79.9705 1290.12L108.135 1297.94L110.543 1304.09L93.3455 1324.33L89.866 1315.44L100.361 1303.47L83.45 1299.01L79.9705 1290.12Z" fill="#F8F3EA" fill-opacity="0.57"/>
<path opacity="0.99" d="M70.0584 1285.87L74.9356 1284.55L81.7752 1334.59L76.8975 1335.87L70.0584 1285.87Z" fill="#F8F3EA" fill-opacity="0.57"/>
<path d="M13.8629 23.9241L15.2586 28.0672L13.5982 28.4494C13.34 28.4907 13.0923 28.5958 12.8754 28.7561C12.6584 28.9164 12.4783 29.1274 12.3497 29.3719C12.2231 29.6523 12.1577 29.9573 12.1584 30.2637C12.1591 30.5701 12.2258 30.8698 12.3536 31.1397L14.2645 36.7636C14.4674 37.334 14.5892 37.9361 14.6257 38.5506C14.6664 38.9857 14.6146 39.4286 14.4739 39.8467C14.3636 40.1393 14.2219 40.4185 14.0517 40.6787C13.9447 40.8618 13.801 41.0185 13.6315 41.1372L13.4505 41.2889L13.7199 41.3288C13.9398 41.3854 14.1548 41.4598 14.363 41.5512C14.687 41.6853 14.9913 41.8649 15.2681 42.0854C15.6037 42.3864 15.9017 42.7314 16.1556 43.1125C16.5152 43.6294 16.8003 44.2018 17.002 44.8116L18.9183 50.4665C19.0929 51.0799 19.4715 51.5983 19.9854 51.9274C20.4757 52.236 21.0629 52.3368 21.6339 52.2104L23.321 51.8412L24.6634 56.0289L22.1395 56.5683C20.5498 56.978 18.8949 56.7484 17.4984 55.9246C16.0844 54.9909 15.0356 53.5552 14.5297 51.8603L12.5993 45.8808C12.4167 45.2344 12.0178 44.6883 11.476 44.3429C10.9337 44.0222 10.2916 43.9297 9.67289 44.0833L8.36053 40.2422C8.6432 40.2061 8.91645 40.1008 9.15861 39.9347C9.40077 39.7686 9.60518 39.5463 9.75566 39.2854C9.88516 39.0035 9.954 38.6965 9.95702 38.3873C9.96003 38.0781 9.89715 37.7747 9.77306 37.4998L7.76018 31.5718C7.43807 30.8451 7.27014 30.0474 7.26789 29.2332C7.26564 28.4191 7.42911 27.6075 7.74713 26.8542C8.1384 26.1866 8.66828 25.6201 9.29433 25.1999C9.92038 24.7797 10.6252 24.5176 11.3522 24.4346L13.8629 23.9241Z" fill="#FFF2C4" fill-opacity="0.47"/>
<path d="M1222.16 429.299L1220.93 431.716L1219.8 431.244C1219.63 431.162 1219.44 431.113 1219.24 431.102C1219.04 431.09 1218.83 431.115 1218.64 431.176C1218.43 431.254 1218.25 431.366 1218.1 431.505C1217.95 431.644 1217.84 431.806 1217.78 431.978L1216.12 435.265C1215.96 435.602 1215.73 435.922 1215.46 436.214C1215.27 436.427 1215.02 436.607 1214.74 436.741C1214.53 436.831 1214.31 436.902 1214.09 436.954C1213.94 436.995 1213.78 437.01 1213.63 436.998L1213.45 436.996L1213.58 437.119C1213.68 437.23 1213.77 437.347 1213.84 437.47C1213.96 437.656 1214.05 437.856 1214.1 438.063C1214.14 438.33 1214.14 438.601 1214.1 438.873C1214.05 439.246 1213.93 439.616 1213.75 439.97L1212.08 443.274C1211.88 443.619 1211.84 444.001 1211.97 444.349C1212.1 444.679 1212.39 444.953 1212.77 445.118L1213.91 445.606L1212.63 448.023L1210.93 447.286C1209.83 446.854 1209 446.107 1208.61 445.192C1208.26 444.22 1208.37 443.163 1208.9 442.199L1210.73 438.744C1210.94 438.38 1210.98 437.978 1210.84 437.611C1210.69 437.255 1210.37 436.964 1209.94 436.793L1211.07 434.545C1211.25 434.639 1211.45 434.697 1211.67 434.716C1211.89 434.735 1212.12 434.714 1212.33 434.654C1212.54 434.577 1212.73 434.465 1212.88 434.326C1213.03 434.187 1213.15 434.026 1213.21 433.853L1214.96 430.388C1215.13 429.935 1215.42 429.508 1215.82 429.139C1216.22 428.77 1216.71 428.466 1217.25 428.249C1217.8 428.099 1218.38 428.048 1218.94 428.101C1219.5 428.154 1220.03 428.31 1220.48 428.554L1222.16 429.299Z" fill="#FFF2C4" fill-opacity="0.47"/>
<path d="M35.9817 19.1454C37.5714 18.7357 39.2263 18.9653 40.6228 19.789C42.035 20.718 43.0814 22.1507 43.5835 23.8424L45.5032 29.8308C45.6859 30.4772 46.0847 31.0233 46.6265 31.3687C47.1697 31.6869 47.8109 31.7792 48.4296 31.6283L49.742 35.4694C49.4622 35.5067 49.1917 35.6104 48.9505 35.7726C48.7094 35.9349 48.504 36.1515 48.3495 36.4064C48.2198 36.6894 48.15 36.9973 48.1452 37.3076C48.1403 37.618 48.2005 37.9231 48.3214 38.2009L50.3369 44.109C50.6619 44.8365 50.832 45.6358 50.8356 46.452C50.8393 47.2682 50.6763 48.0821 50.358 48.8376C49.9667 49.5051 49.4368 50.0717 48.8107 50.4919C48.1847 50.9121 47.4799 51.1742 46.7528 51.2572L44.2289 51.7966L42.8864 47.6088L44.5629 47.2486C44.8211 47.2091 45.0695 47.1073 45.2888 46.9511C45.5081 46.7949 45.6924 46.5886 45.8275 46.348C45.9496 46.0812 46.0159 45.7912 46.0218 45.4987C46.0276 45.2061 45.9727 44.9181 45.8611 44.6551L43.9448 39.0003C43.7392 38.4264 43.6148 37.8207 43.5755 37.2023C43.5352 36.7702 43.5899 36.3304 43.7354 35.9172C43.8567 35.6367 43.9969 35.3653 44.1549 35.1051C44.2607 34.9087 44.4132 34.7442 44.5965 34.6287L44.7562 34.4948L44.4948 34.466C44.2764 34.4044 44.0617 34.3301 43.8517 34.2435C43.5214 34.1128 43.2135 33.929 42.9385 33.6984C42.6036 33.3966 42.3056 33.0518 42.051 32.6713C41.6921 32.1539 41.4071 31.5817 41.2047 30.9721L39.2938 25.3482C39.1102 24.7292 38.7273 24.205 38.2106 23.8653C37.7161 23.5205 37.1087 23.3956 36.5139 23.5164L34.8375 23.8766L33.4418 19.7335L35.9817 19.1454Z" fill="#FFF2C4" fill-opacity="0.47"/>
<path d="M1237.07 435.73C1238.17 436.162 1239 436.909 1239.39 437.824C1239.74 438.793 1239.64 439.848 1239.1 440.809L1237.27 444.264C1237.05 444.628 1237.01 445.03 1237.15 445.397C1237.31 445.752 1237.63 446.043 1238.05 446.215L1236.92 448.463C1236.75 448.371 1236.54 448.313 1236.32 448.293C1236.11 448.272 1235.89 448.29 1235.67 448.346C1235.46 448.423 1235.27 448.536 1235.12 448.674C1234.96 448.813 1234.85 448.974 1234.78 449.147L1233.04 452.603C1232.87 453.059 1232.58 453.487 1232.18 453.857C1231.79 454.228 1231.3 454.533 1230.75 454.751C1230.2 454.901 1229.62 454.952 1229.06 454.899C1228.5 454.846 1227.97 454.69 1227.52 454.446L1225.82 453.709L1227.1 451.293L1228.23 451.781C1228.4 451.863 1228.59 451.914 1228.79 451.928C1228.99 451.943 1229.19 451.921 1229.39 451.865C1229.59 451.791 1229.77 451.686 1229.91 451.556C1230.06 451.426 1230.17 451.274 1230.23 451.112L1231.9 447.808C1232.07 447.469 1232.29 447.146 1232.57 446.851C1232.76 446.64 1233.01 446.462 1233.29 446.332C1233.5 446.252 1233.71 446.184 1233.92 446.127C1234.08 446.08 1234.25 446.064 1234.41 446.083L1234.56 446.085L1234.43 445.97C1234.34 445.857 1234.25 445.74 1234.17 445.62C1234.05 445.432 1233.96 445.229 1233.92 445.018C1233.88 444.751 1233.88 444.48 1233.92 444.209C1233.96 443.835 1234.08 443.465 1234.26 443.111L1235.92 439.824C1236.12 439.472 1236.16 439.086 1236.03 438.732C1235.92 438.384 1235.63 438.091 1235.24 437.915L1234.11 437.426L1235.34 435.009L1237.07 435.73Z" fill="#FFF2C4" fill-opacity="0.47"/>
<path d="M34.1848 27.754L31.7897 37.235L40.3177 44.7508L35.4057 45.8042L30.0385 41.1822L28.3295 47.3256L23.4361 48.381L26.0488 38.4695L17.9562 31.2442L23.0441 30.1496L27.7868 34.5512L29.1075 28.8396L34.1848 27.754Z" fill="#FFF2C4" fill-opacity="0.47"/>
<path d="M1231.84 438.927L1225.86 442.287L1227.03 449.001L1223.73 447.569L1222.93 443.393L1218.96 445.509L1215.67 444.085L1221.99 440.615L1220.92 434.201L1224.34 435.683L1224.89 439.517L1228.43 437.446L1231.84 438.927Z" fill="#FFF2C4" fill-opacity="0.47"/>
<path d="M293.306 543.26L299.892 557.376L279.961 576.402L312.115 583.526L318.701 597.641L265.24 585.218L260.636 575.415L293.306 543.26Z" fill="#F8F3EA" fill-opacity="0.15"/>
<path d="M1787.31 4.24453L1785.97 11.8415L1774.53 16.7203L1783.5 25.9198L1782.17 33.5169L1767.39 17.96L1768.3 12.6783L1787.31 4.24453Z" fill="#F8F3EA" fill-opacity="0.22"/>
<path d="M337.561 532.851L391.02 545.289L395.59 555.056L362.948 587.239L356.343 573.098L376.264 554.082L344.165 546.992L337.561 532.851Z" fill="#F8F3EA" fill-opacity="0.15"/>
<path d="M1804.74 7.78209L1819.51 23.3454L1818.59 28.6042L1799.59 37.0561L1800.93 29.4441L1812.37 24.5682L1803.4 15.3941L1804.74 7.78209Z" fill="#F8F3EA" fill-opacity="0.22"/>
<path d="M318.747 526.094L328.005 523.999L340.987 603.543L331.728 605.582L318.747 526.094Z" fill="#F8F3EA" fill-opacity="0.15"/>
<path d="M1800.13 1.23058L1803.76 2.00798L1788.15 40.3278L1784.53 39.5254L1800.13 1.23058Z" fill="#F8F3EA" fill-opacity="0.22"/>
<path d="M473.693 93.9173C473.867 93.9448 474.007 94.0318 474.114 94.1782C474.22 94.3247 474.259 94.4848 474.232 94.6587L471.806 109.972C471.778 110.146 471.691 110.286 471.545 110.392C471.398 110.498 471.238 110.538 471.064 110.51L466.181 109.737C466.007 109.709 465.867 109.622 465.761 109.476C465.655 109.329 465.615 109.169 465.643 108.995L466.443 103.946L461.702 103.195L460.902 108.244C460.874 108.418 460.787 108.558 460.641 108.665C460.494 108.771 460.334 108.81 460.16 108.783L455.277 108.009C455.103 107.982 454.962 107.903 454.853 107.772C454.747 107.626 454.709 107.457 454.739 107.268L457.165 91.9548C457.192 91.781 457.279 91.6409 457.426 91.5345C457.572 91.4281 457.732 91.3886 457.906 91.4162L462.789 92.1898C462.963 92.2173 463.103 92.3043 463.209 92.4508C463.316 92.5972 463.355 92.7574 463.328 92.9312L462.558 97.7906L467.299 98.5417L468.069 93.6823C468.096 93.5084 468.183 93.3683 468.33 93.2619C468.476 93.1555 468.636 93.1161 468.81 93.1436L473.693 93.9173ZM494.354 97.1905C494.528 97.218 494.668 97.305 494.774 97.4514C494.881 97.5979 494.92 97.758 494.893 97.9319L494.288 101.748C494.261 101.922 494.174 102.062 494.027 102.169C493.881 102.275 493.721 102.314 493.547 102.287L488.45 101.479L486.73 112.336C486.703 112.51 486.616 112.65 486.469 112.756C486.323 112.863 486.163 112.902 485.989 112.875L481.106 112.101C480.932 112.074 480.792 111.987 480.685 111.84C480.579 111.694 480.54 111.534 480.567 111.36L482.287 100.503L477.191 99.6957C477.017 99.6682 476.877 99.5812 476.77 99.4347C476.664 99.2883 476.625 99.1281 476.652 98.9543L477.257 95.1379C477.284 94.9641 477.371 94.8239 477.518 94.7175C477.664 94.6111 477.824 94.5717 477.998 94.5993L494.354 97.1905ZM509.556 100.255C509.861 99.8658 510.235 99.7063 510.677 99.7764L515.015 100.464C515.189 100.491 515.329 100.578 515.435 100.725C515.542 100.871 515.581 101.031 515.554 101.205L513.128 116.518C513.1 116.692 513.013 116.832 512.867 116.938C512.72 117.045 512.56 117.084 512.386 117.057L508.096 116.377C507.922 116.349 507.782 116.262 507.675 116.116C507.569 115.97 507.53 115.809 507.557 115.636L508.721 108.287L506.45 111.427C506.385 111.53 506.255 111.639 506.058 111.753C505.862 111.868 505.629 111.904 505.361 111.861L503.749 111.606C503.48 111.563 503.27 111.457 503.119 111.288C502.968 111.118 502.877 110.974 502.847 110.856L501.657 107.168L500.493 114.516C500.466 114.69 500.379 114.83 500.232 114.937C500.086 115.043 499.926 115.083 499.752 115.055L495.461 114.375C495.288 114.348 495.147 114.261 495.041 114.114C494.935 113.968 494.895 113.808 494.923 113.634L497.349 98.321C497.376 98.1471 497.463 98.007 497.61 97.9006C497.756 97.7942 497.916 97.7548 498.09 97.7823L502.428 98.4696C502.871 98.5397 503.176 98.8068 503.346 99.2711L505.55 105.452L509.556 100.255ZM532.798 115.309C532.972 115.337 533.112 115.424 533.218 115.57C533.325 115.716 533.364 115.877 533.336 116.05L532.769 119.63C532.742 119.804 532.655 119.944 532.508 120.05C532.362 120.157 532.202 120.196 532.028 120.168L518.185 117.975C518.011 117.948 517.871 117.861 517.764 117.714C517.658 117.568 517.618 117.408 517.646 117.234L520.072 101.921C520.1 101.747 520.187 101.607 520.333 101.501C520.479 101.394 520.64 101.355 520.813 101.382L525.934 102.193C526.107 102.221 526.247 102.308 526.354 102.454C526.46 102.601 526.5 102.761 526.472 102.935L524.715 114.028L532.798 115.309Z" fill="#FFCF25" fill-opacity="0.22"/>
</svg>
