<svg width="1773" height="1345" viewBox="0 0 1773 1345" fill="none" xmlns="http://www.w3.org/2000/svg">
<path d="M1296.21 3.99253L1293.55 12.2597L1289.09 10.7945C1288.43 10.538 1287.69 10.3951 1286.95 10.3776C1286.21 10.3601 1285.48 10.4683 1284.83 10.6935C1284.13 10.9778 1283.54 11.377 1283.1 11.8607C1282.66 12.3444 1282.39 12.8997 1282.31 13.4841L1278.74 24.7265C1278.4 25.8783 1277.82 26.9787 1277.03 27.9925C1276.5 28.729 1275.74 29.3623 1274.81 29.846C1274.13 30.1698 1273.4 30.4334 1272.62 30.6315C1272.11 30.7867 1271.55 30.8548 1270.98 30.8307L1270.33 30.8444L1270.91 31.2426C1271.35 31.6058 1271.75 31.9907 1272.11 32.3941C1272.68 33.0089 1273.13 33.6709 1273.47 34.363C1273.83 35.2554 1274.04 36.1701 1274.09 37.0868C1274.19 38.3492 1274.04 39.6062 1273.64 40.8185L1270.04 52.1163C1269.57 53.3005 1269.72 54.5891 1270.46 55.7475C1271.17 56.8444 1272.41 57.7345 1273.94 58.2463L1278.44 59.7654L1275.59 68.0367L1268.88 65.7436C1264.55 64.4096 1260.98 61.9871 1258.87 58.9498C1256.88 55.7175 1256.47 52.1489 1257.71 48.8479L1261.74 37.0208C1262.24 35.7748 1262.09 34.4174 1261.31 33.1985C1260.49 32.0177 1259.11 31.0724 1257.43 30.5439L1259.85 22.8565C1260.57 23.1516 1261.36 23.3259 1262.17 23.3657C1262.98 23.4055 1263.78 23.3097 1264.51 23.0859C1265.22 22.803 1265.82 22.4049 1266.27 21.9213C1266.72 21.4378 1267.01 20.8814 1267.11 20.2937L1270.87 8.44499C1271.16 6.89873 1271.91 5.43256 1273.07 4.14667C1274.23 2.86078 1275.78 1.78548 1277.61 0.994236C1279.49 0.429525 1281.55 0.196556 1283.62 0.314002C1285.7 0.431449 1287.73 0.896044 1289.56 1.67055L1296.21 3.99253Z" fill="#FFF2C4" fill-opacity="0.29"/>
<path d="M230.867 956.711L232.38 964.668L228.288 965.32C227.659 965.387 227.028 965.576 226.445 965.871C225.863 966.167 225.346 966.56 224.936 967.02C224.515 967.549 224.229 968.127 224.098 968.711C223.967 969.295 223.996 969.868 224.182 970.388L226.274 981.19C226.508 982.286 226.536 983.439 226.357 984.611C226.266 985.442 225.952 986.283 225.439 987.073C225.051 987.626 224.596 988.151 224.081 988.639C223.748 988.983 223.341 989.275 222.889 989.493L222.395 989.774L223.015 989.862C223.511 989.98 223.987 990.132 224.44 990.316C225.149 990.586 225.791 990.942 226.351 991.375C227.015 991.964 227.571 992.634 228.007 993.372C228.635 994.373 229.062 995.477 229.276 996.648L231.368 1007.51C231.516 1008.69 232.188 1009.69 233.261 1010.34C234.288 1010.95 235.634 1011.17 237.039 1010.96L241.19 1010.33L242.557 1018.37L236.354 1019.28C232.416 1019.99 228.6 1019.48 225.652 1017.84C222.71 1016 220.849 1013.22 220.384 1009.96L218.399 998.483C218.246 997.244 217.538 996.185 216.406 995.502C215.261 994.866 213.782 994.661 212.252 994.925L210.806 987.547C211.49 987.491 212.182 987.303 212.827 986.998C213.471 986.693 214.051 986.278 214.519 985.788C214.947 985.257 215.243 984.675 215.383 984.086C215.524 983.498 215.506 982.917 215.331 982.387L213.129 971.002C212.681 969.602 212.628 968.075 212.974 966.524C213.32 964.973 214.057 963.434 215.135 962.013C216.348 960.759 217.847 959.704 219.509 958.933C221.171 958.161 222.952 957.694 224.708 957.569L230.867 956.711Z" fill="#C6AD56" fill-opacity="0.19"/>
<path d="M1355.13 24.0073C1359.46 25.3413 1363.02 27.7639 1365.13 30.8011C1367.12 34.0235 1367.53 37.5845 1366.29 40.8757L1362.22 52.7036C1361.72 53.9497 1361.88 55.307 1362.66 56.5259C1363.48 57.7037 1364.85 58.6477 1366.53 59.1805L1364.11 66.8679C1363.4 66.5783 1362.61 66.4048 1361.81 66.3602C1361.01 66.3156 1360.22 66.4011 1359.49 66.6104C1358.78 66.895 1358.17 67.2932 1357.71 67.7763C1357.26 68.2593 1356.96 68.8151 1356.85 69.4034L1353.12 81.224C1352.84 82.7751 1352.1 84.2466 1350.93 85.5374C1349.77 86.8283 1348.22 87.9079 1346.39 88.7021C1344.51 89.2668 1342.45 89.4998 1340.37 89.3823C1338.3 89.2649 1336.26 88.8003 1334.43 88.0258L1327.72 85.7327L1330.56 77.4615L1335.03 78.9814C1335.69 79.2407 1336.42 79.3896 1337.16 79.4166C1337.9 79.4435 1338.63 79.3478 1339.29 79.1369C1339.96 78.8685 1340.54 78.4942 1340.97 78.0404C1341.4 77.5866 1341.69 77.0644 1341.8 76.5109L1345.4 65.2131C1345.74 64.0527 1346.31 62.9432 1347.11 61.9198C1347.63 61.1886 1348.39 60.5637 1349.33 60.0936C1350.01 59.8027 1350.73 59.5496 1351.48 59.3363C1352.01 59.1586 1352.6 59.0893 1353.2 59.1354L1353.77 59.1233L1353.2 58.7524C1352.77 58.3833 1352.37 57.9989 1352 57.6009C1351.41 56.9837 1350.95 56.3107 1350.63 55.6047C1350.28 54.712 1350.07 53.7975 1350.02 52.8809C1349.91 51.6186 1350.06 50.3618 1350.46 49.1492L1354.03 37.9068C1354.48 36.7027 1354.33 35.3999 1353.6 34.221C1352.93 33.0618 1351.68 32.1086 1350.11 31.5584L1345.65 30.0385L1348.3 21.7713L1355.13 24.0073Z" fill="#FFF2C4" fill-opacity="0.29"/>
<path d="M285.256 948.619C289.194 947.912 293.01 948.425 295.958 950.058C298.897 951.892 300.754 954.67 301.212 957.915L303.168 969.412C303.321 970.652 304.029 971.71 305.161 972.393C306.309 973.024 307.786 973.229 309.315 972.97L310.761 980.348C310.083 980.406 309.398 980.592 308.758 980.89C308.117 981.188 307.538 981.591 307.062 982.069C306.633 982.603 306.335 983.186 306.19 983.777C306.045 984.368 306.055 984.952 306.221 985.487L308.439 996.835C308.893 998.236 308.951 999.766 308.607 1001.32C308.263 1002.88 307.526 1004.42 306.447 1005.84C305.233 1007.1 303.735 1008.15 302.073 1008.93C300.41 1009.7 298.63 1010.16 296.874 1010.29L290.67 1011.2L289.302 1003.16L293.424 1002.55C294.052 1002.49 294.683 1002.31 295.269 1002.02C295.856 1001.73 296.381 1001.35 296.804 1000.89C297.208 1000.39 297.49 999.842 297.63 999.285C297.77 998.728 297.765 998.177 297.615 997.671L295.523 986.81C295.284 985.707 295.251 984.547 295.425 983.367C295.516 982.542 295.836 981.707 296.358 980.926C296.766 980.398 297.215 979.887 297.701 979.398C298.036 979.029 298.468 978.723 298.952 978.511L299.387 978.263L298.781 978.196C298.291 978.069 297.815 977.918 297.356 977.743C296.631 977.479 295.982 977.115 295.431 976.663C294.769 976.073 294.213 975.402 293.775 974.666C293.149 973.663 292.722 972.56 292.506 971.39L290.414 960.588C290.247 959.4 289.567 958.384 288.492 957.713C287.471 957.034 286.088 956.768 284.628 956.971L280.507 957.581L278.994 949.624L285.256 948.619Z" fill="#C6AD56" fill-opacity="0.19"/>
<path d="M1338.55 35.3345L1319.32 47.2933L1328.61 69.7572L1315.54 65.3004L1309.53 51.333L1296.7 58.886L1283.67 54.4557L1304.03 42.0897L1295.34 20.6255L1308.89 25.2365L1313.74 38.0789L1325.04 30.7227L1338.55 35.3345Z" fill="#FFF2C4" fill-opacity="0.29"/>
<path d="M277.288 964.936L267.529 982.889L284.459 997.597L272.384 999.379L261.682 990.328L254.987 1001.95L242.955 1003.74L253.415 984.978L237.39 970.843L249.899 968.99L259.218 977.592L264.808 966.772L277.288 964.936Z" fill="#C6AD56" fill-opacity="0.19"/>
<path d="M82.8065 412.65L88.8789 421.676L78.6088 438.194L100.142 438.394L106.215 447.42L70.3362 446.677L66.0998 440.413L82.8065 412.65Z" fill="#F8F3EA"/>
<path d="M109.79 398.574L145.669 399.328L149.879 405.571L133.194 433.351L127.106 424.309L137.371 407.8L115.877 407.615L109.79 398.574Z" fill="#F8F3EA"/>
<path d="M96.8507 396.619L102.506 393.733L121.266 448.243L115.603 451.089L96.8507 396.619Z" fill="#F8F3EA"/>
<path d="M1594.41 877.646L1599.87 876.293C1600.35 878.712 1600.04 880.777 1598.95 882.489C1597.87 884.199 1596.25 885.39 1594.1 886.063C1591.51 886.873 1589.15 886.67 1587.02 885.453C1584.89 884.236 1583.35 882.118 1582.41 879.098C1581.47 876.106 1581.47 873.456 1582.41 871.148C1583.34 868.84 1585.16 867.263 1587.86 866.418C1590.39 865.628 1592.55 865.721 1594.34 866.697C1596.13 867.669 1597.48 869.284 1598.38 871.54L1593.01 873.543C1592.61 872.266 1592.07 871.42 1591.4 871.006C1590.74 870.589 1590.08 870.484 1589.42 870.691C1587.57 871.268 1587.23 873.411 1588.39 877.121C1589.04 879.199 1589.72 880.537 1590.42 881.134C1591.14 881.728 1591.93 881.89 1592.8 881.619C1594.35 881.135 1594.89 879.811 1594.41 877.646ZM1600.5 877.677L1605.63 874.998C1606.57 876.393 1607.99 876.794 1609.88 876.203C1611.35 875.742 1611.96 875.121 1611.72 874.338C1611.59 873.928 1611.32 873.665 1610.91 873.549C1610.5 873.421 1609.83 873.405 1608.9 873.502C1605.35 873.905 1602.94 873.738 1601.66 873C1600.39 872.263 1599.53 871.195 1599.1 869.797C1598.53 867.998 1598.75 866.29 1599.73 864.671C1600.73 863.05 1602.51 861.838 1605.07 861.037C1608.96 859.822 1612.02 860.58 1614.24 863.312L1609.85 866.297C1608.95 865.177 1607.73 864.858 1606.19 865.339C1604.91 865.738 1604.4 866.334 1604.65 867.126C1604.76 867.48 1604.99 867.71 1605.34 867.815C1605.69 867.921 1606.3 867.932 1607.19 867.85C1609.62 867.621 1611.38 867.542 1612.46 867.615C1613.53 867.688 1614.54 868.076 1615.46 868.779C1616.38 869.472 1617.04 870.43 1617.42 871.651C1618.02 873.58 1617.73 875.391 1616.54 877.083C1615.34 878.765 1613.48 880.005 1610.93 880.8C1606.28 882.254 1602.8 881.213 1600.5 877.677ZM1617.89 872.239L1623.03 869.56C1623.96 870.955 1625.38 871.357 1627.27 870.765C1628.74 870.305 1629.36 869.683 1629.11 868.9C1628.98 868.49 1628.71 868.227 1628.3 868.111C1627.89 867.983 1627.22 867.967 1626.29 868.064C1622.74 868.467 1620.33 868.3 1619.06 867.563C1617.78 866.825 1616.93 865.758 1616.49 864.36C1615.93 862.561 1616.14 860.852 1617.13 859.233C1618.12 857.612 1619.9 856.401 1622.47 855.599C1626.35 854.384 1629.41 855.142 1631.64 857.874L1627.24 860.859C1626.34 859.74 1625.12 859.42 1623.58 859.901C1622.31 860.3 1621.79 860.896 1622.04 861.688C1622.15 862.042 1622.38 862.272 1622.73 862.378C1623.08 862.483 1623.7 862.495 1624.58 862.412C1627.02 862.183 1628.77 862.105 1629.85 862.177C1630.93 862.25 1631.93 862.638 1632.85 863.341C1633.78 864.035 1634.43 864.992 1634.81 866.213C1635.41 868.142 1635.12 869.953 1633.93 871.645C1632.74 873.328 1630.87 874.567 1628.32 875.362C1623.67 876.816 1620.2 875.775 1617.89 872.239Z" fill="#EDE9C4" fill-opacity="0.84"/>
<path d="M94.5396 1243.13L93.0921 1235.87C93.0921 1235.87 81.0065 1234.84 80.9715 1235.36L78.0129 1231.2L81.4688 1219.45L74.5914 1216.04C74.5914 1216.04 64.9075 1223.6 65.1614 1224.02C62.1105 1223.51 58.9936 1223.24 55.8437 1223.21L49.5594 1213.47L41.6093 1215.79C41.6093 1215.79 39.8754 1227.16 40.4259 1227.13C40.4259 1227.13 36.0645 1230.83 34.1088 1232.82L22.6433 1231.44L18.6401 1238.32C18.6401 1238.32 24.8601 1244.66 26.4995 1245.81C25.7814 1248.4 24.7667 1251.45 24.7667 1251.45L14.4346 1259.49L17.212 1266.29C17.212 1266.29 27.4071 1265.52 29.1801 1265.02C30.4254 1267.03 31.9865 1268.83 33.8178 1270.39L32.6289 1282.19L40.1612 1284.36C40.1612 1284.36 45.1829 1278.95 47.2413 1276.39C50.9275 1276.95 55.8947 1277.28 55.8947 1277.28L64.5471 1285.35L71.906 1281.5C71.906 1281.5 71.1404 1272.46 70.575 1270.7C72.7556 1269.15 75.0752 1267.79 77.5007 1266.64L90.4056 1265.51L92.7749 1258.11C89.5979 1256.08 86.2931 1254.22 82.8739 1252.53C83.1065 1251.48 83.2529 1250.42 83.312 1249.37L94.5396 1243.13ZM61.0938 1262.54C58.2646 1264.16 55.0575 1265.01 51.8784 1264.98C48.6993 1264.95 45.691 1264.04 43.2341 1262.37C40.7771 1260.7 38.982 1258.35 38.0757 1255.6C37.1694 1252.86 37.1927 1249.85 38.1427 1246.95C39.0927 1244.05 40.9266 1241.4 43.4126 1239.33C45.8985 1237.26 48.9246 1235.86 52.1082 1235.32C55.2917 1234.77 58.4897 1235.1 61.2974 1236.26C64.1051 1237.42 66.3964 1239.37 67.8814 1241.84C69.8664 1245.17 70.2665 1249.21 68.9942 1253.09C67.7219 1256.97 64.8809 1260.37 61.0938 1262.54Z" fill="url(#paint0_linear)" fill-opacity="0.49"/>
<path d="M931.5 854.34L932.891 849.186C932.891 849.186 926.012 844.415 925.831 844.736L925.359 841.06L931.063 834.692L928.027 830.161C928.027 830.161 919.915 831.717 919.935 832.076C918.278 830.707 916.506 829.473 914.638 828.385L913.919 819.992L908.465 818.776C908.465 818.776 903.904 825.486 904.241 825.654C904.241 825.654 900.496 826.545 898.715 827.155L892.315 822.368L887.799 825.418C887.799 825.418 889.533 831.61 890.154 832.902C888.921 834.325 887.37 835.937 887.37 835.937L878.725 837.579L878.267 842.892C878.267 842.892 884.579 845.864 885.789 846.148C885.908 847.86 886.277 849.551 886.885 851.172L882.514 858.347L886.326 862.302C886.326 862.302 890.995 860.538 893.016 859.593C895.037 861.208 897.893 863.108 897.893 863.108L900.542 871.233L906.118 871.267C906.118 871.267 908.466 865.205 908.675 863.884C910.454 863.632 912.257 863.548 914.059 863.633L922.095 867.298L925.801 863.356C924.538 860.973 923.148 858.653 921.636 856.405C922.101 855.81 922.516 855.18 922.879 854.522L931.5 854.34ZM905.562 855.416C903.375 855.493 901.202 854.947 899.318 853.846C897.434 852.745 895.924 851.139 894.979 849.232C894.034 847.324 893.696 845.201 894.008 843.13C894.32 841.059 895.269 839.134 896.733 837.598C898.197 836.062 900.112 834.984 902.235 834.501C904.357 834.018 906.593 834.151 908.658 834.884C910.723 835.617 912.525 836.916 913.837 838.617C915.148 840.319 915.91 842.346 916.025 844.442C916.176 847.25 915.16 849.982 913.199 852.039C911.238 854.096 908.491 855.31 905.562 855.416Z" fill="#EDE9C4" fill-opacity="0.29"/>
<path d="M1766.75 1306.64L1769.62 1295.77C1769.62 1295.77 1755.36 1285.7 1754.99 1286.38L1754 1278.63L1765.8 1265.2L1759.5 1255.64C1759.5 1255.64 1742.71 1258.91 1742.75 1259.67C1739.32 1256.78 1735.64 1254.18 1731.77 1251.88L1730.27 1234.18L1718.97 1231.61C1718.97 1231.61 1709.54 1245.75 1710.24 1246.11C1710.24 1246.11 1702.48 1247.98 1698.79 1249.27L1685.53 1239.16L1676.18 1245.59C1676.18 1245.59 1679.79 1258.65 1681.08 1261.37C1678.53 1264.37 1675.32 1267.77 1675.32 1267.77L1657.42 1271.22L1656.48 1282.43C1656.48 1282.43 1669.56 1288.7 1672.07 1289.31C1672.32 1292.91 1673.08 1296.48 1674.35 1299.9L1665.31 1315.03L1673.21 1323.37C1673.21 1323.37 1682.88 1319.66 1687.06 1317.67C1691.25 1321.08 1697.17 1325.09 1697.17 1325.09L1702.67 1342.23L1714.22 1342.31C1714.22 1342.31 1719.07 1329.52 1719.5 1326.74C1723.18 1326.21 1726.92 1326.04 1730.65 1326.22L1747.3 1333.96L1754.96 1325.65C1752.34 1320.62 1749.46 1315.73 1746.33 1310.98C1747.29 1309.73 1748.15 1308.4 1748.9 1307.01L1766.75 1306.64ZM1713.03 1308.88C1708.5 1309.04 1704 1307.88 1700.1 1305.56C1696.2 1303.23 1693.07 1299.84 1691.1 1295.82C1689.14 1291.8 1688.44 1287.32 1689.08 1282.95C1689.72 1278.58 1691.68 1274.52 1694.71 1271.29C1697.74 1268.05 1701.7 1265.78 1706.1 1264.76C1710.49 1263.75 1715.12 1264.03 1719.4 1265.58C1723.68 1267.13 1727.42 1269.87 1730.13 1273.46C1732.85 1277.05 1734.44 1281.33 1734.68 1285.75C1735 1291.67 1732.9 1297.43 1728.84 1301.76C1724.78 1306.1 1719.1 1308.66 1713.03 1308.88Z" fill="#807B54" fill-opacity="0.15"/>
<defs>
<linearGradient id="paint0_linear" x1="15637.7" y1="3317.24" x2="16369.8" y2="7727.49" gradientUnits="userSpaceOnUse">
<stop offset="0.02" stop-color="#EDE9C4"/>
<stop offset="0.58" stop-color="white" stop-opacity="0.39"/>
<stop offset="0.68" stop-color="white" stop-opacity="0.68"/>
<stop offset="1" stop-color="white"/>
</linearGradient>
</defs>
</svg>
