<svg width="242" height="269" viewBox="0 0 242 269" fill="none" xmlns="http://www.w3.org/2000/svg">
<path d="M0 187.82L139.14 268.51L241.54 209.38L103.71 128.51L0 187.82Z" fill="#E8C300"/>
<path style="mix-blend-mode:multiply" d="M94.49 185.14L82.01 175.39L33.42 204.19C35.07 205.32 38.12 208.19 50.17 214.89C65.99 203.74 78.9 196.63 94.49 185.14Z" fill="url(#paint0_linear)"/>
<path style="mix-blend-mode:multiply" d="M155 180.31C139.7 190.44 94.75 222.26 79.62 232.63C105.36 246.84 131.85 261.32 134.69 263.37L207.91 213.12L155 180.31Z" fill="url(#paint1_linear)"/>
<path d="M155.62 188.16L179.84 200.9L180.56 206.89L154.93 192.43" fill="#11265F"/>
<path d="M154.64 178.39L144.64 214.39L146.47 215.45C146.946 215.203 147.404 214.922 147.84 214.61C148.38 214.2 160.79 176.8 160.79 176.8" fill="#E27623"/>
<path d="M177.65 171.37L184.46 192.62L183.87 235.12L182.34 236.12L180.24 234.81L178.67 192.6L172.52 171.37" fill="#11265F"/>
<path d="M150.91 168.83C150.91 168.83 150.16 173.54 151.78 176.15C153.4 178.76 157.7 172.26 157.7 172.26" fill="#FFB469"/>
<path d="M173.48 143.15L172.52 160.35L177.03 162.69L177.87 144.25" fill="#CA6B00"/>
<path d="M201.81 155.82L204.84 179.08L207.9 213.3L205.94 214.46L203.98 213.24L199.62 179.61L196.69 155.82" fill="#11265F"/>
<path d="M198.75 158.72C200.02 159.11 202.75 157.11 203.57 155.82C208.04 148.82 206.75 139.24 198.7 134.82C195.14 132.82 191.45 130.89 187.91 128.82C184.76 127.02 181.42 125.49 178.37 123.53C177.972 123.257 177.546 123.026 177.1 122.84C176.268 122.616 175.388 122.645 174.572 122.923C173.757 123.2 173.042 123.715 172.52 124.4" fill="#EAED47"/>
<path d="M199.08 158.42C201.23 158.35 202.47 155.49 203.08 153.81C204.83 149.2 205.17 140.42 199.91 137.81C199.81 137.766 199.724 137.696 199.659 137.609C199.594 137.521 199.553 137.418 199.54 137.31L189.45 131.48L181.67 126.97C180.31 126.18 179.01 125.29 177.67 124.49C176.33 123.69 174.96 122.78 173.46 123.68C171.81 124.68 171.58 126.54 171.33 128.28C170.652 132.3 170.864 136.42 171.95 140.35C172.77 142.97 174.84 144.75 177.14 146.09L184.39 150.29L197.83 158.04C198.045 158.177 198.277 158.285 198.52 158.36C198.703 158.406 198.891 158.427 199.08 158.42Z" fill="#FCBD4C"/>
<path d="M200.55 177.05L200.96 177.29C202.093 177.852 203.111 178.622 203.96 179.56C205.96 182.12 204.03 185.04 201.96 186.83C196.49 191.69 188.21 195.67 180.79 193.83C174.377 192.095 168.264 189.398 162.66 185.83C158.08 183.1 152.27 179.73 151.08 173.97C150.86 172.686 150.944 171.368 151.326 170.123C151.708 168.878 152.378 167.739 153.28 166.8C164.92 153.31 181.28 165.97 192.8 172.58L200.55 177.05Z" fill="#91940F"/>
<path d="M204.59 177.57C204.68 177.66 205.2 181.39 204.83 182.5C204.067 184.312 202.929 185.941 201.49 187.28C200.13 188.37 200.95 180.76 200.95 180.76" fill="#91940F"/>
<path d="M200.55 173.8L200.96 174.04C202.093 174.602 203.111 175.372 203.96 176.31C205.96 178.87 204.03 181.79 201.96 183.58C196.49 188.44 188.21 192.42 180.79 190.58C174.377 188.845 168.264 186.148 162.66 182.58C158.02 179.79 152.22 176.43 151.01 170.67C150.79 169.386 150.874 168.068 151.256 166.823C151.638 165.578 152.308 164.439 153.21 163.5C164.85 150.01 181.21 162.67 192.73 169.28L200.55 173.8Z" fill="#EAED47"/>
<path d="M109.46 0.91L113.39 0L156.76 24.98L156.04 110.41L154.42 111.31" fill="#3D53A3"/>
<path d="M109.46 0.91L108.96 85.21L154.42 111.31V26.33L109.46 0.91Z" fill="#5872D2"/>
<path d="M111.06 5.48V84.01L152.35 106.88V28.82L111.06 5.48Z" fill="#A6B4F5"/>
<path d="M74.81 146.66C74.81 146.66 75.71 186.3 89.26 187.24C102.81 188.18 103.71 146.66 103.71 146.66" fill="#6DE2FC"/>
<path d="M74.81 146.66C74.81 146.66 75.71 186.3 89.26 187.24C102.81 188.18 103.71 146.66 103.71 146.66" fill="#021E6A"/>
<path d="M89.26 154.16C97.2405 154.16 103.71 150.802 103.71 146.66C103.71 142.518 97.2405 139.16 89.26 139.16C81.2795 139.16 74.81 142.518 74.81 146.66C74.81 150.802 81.2795 154.16 89.26 154.16Z" fill="#0E0036"/>
<path d="M85.33 151.78C82.7632 136.03 78.2138 120.668 71.79 106.06C71.27 104.87 69.53 105.9 70.05 107.06C76.3859 121.517 80.8681 136.718 83.39 152.3C83.59 153.59 85.53 153.05 85.33 151.78Z" fill="#311E69"/>
<path d="M93.59 154.29C92.5967 135.103 90.8767 115.977 88.43 96.91C88.27 95.64 86.25 95.62 86.43 96.91C88.87 115.93 90.5867 135.023 91.58 154.19C92.24 154.2 92.92 154.24 93.59 154.29Z" fill="#311E69"/>
<path d="M67.32 102.33C64.9482 101.698 62.4313 101.899 60.19 102.9C58.57 103.62 55.19 105.67 55.86 107.9C56.53 110.13 60.6 109.76 62.22 109.26C63.4678 108.843 64.6121 108.165 65.5762 107.269C66.5403 106.374 67.3019 105.283 67.81 104.07C67.8421 103.993 67.8656 103.912 67.88 103.83C67.964 103.699 68.0163 103.551 68.0329 103.396C68.0495 103.242 68.0298 103.085 67.9755 102.94C67.9211 102.794 67.8336 102.663 67.7198 102.557C67.606 102.452 67.4691 102.374 67.32 102.33Z" fill="#C3EA75"/>
<path d="M71.08 99.97C70.66 97.36 70.48 94.32 68.68 92.23C67.33 90.67 64.91 89.72 63.01 90.89C61.11 92.06 61.49 94.89 62.58 96.51C64.14 98.89 66.9 99.92 69.11 101.51C69.2195 101.596 69.3481 101.653 69.4848 101.678C69.6215 101.703 69.7623 101.695 69.895 101.654C70.0277 101.612 70.1484 101.539 70.2468 101.441C70.3452 101.343 70.4184 101.223 70.46 101.09C70.6713 100.996 70.8463 100.836 70.9582 100.634C71.0701 100.432 71.1129 100.199 71.08 99.97ZM68 94.97C67.5562 94.2137 66.9883 93.5376 66.32 92.97V92.71C67.1059 93.3056 67.7144 94.1042 68.08 95.02L68 94.97Z" fill="#C3EA75"/>
<path d="M76.37 95.82C73.11 94.35 72.55 99.95 72.47 101.82C72.45 102.03 72.507 102.24 72.6302 102.411C72.7534 102.582 72.9346 102.702 73.14 102.75C73.3269 102.933 73.5782 103.036 73.84 103.036C74.1018 103.036 74.3531 102.933 74.54 102.75C75.64 101.75 77.03 100.83 77.37 99.31C77.63 98.18 77.63 96.38 76.37 95.82Z" fill="#C3EA75"/>
<path d="M89.38 83.87C88.69 81.62 86.38 79.58 83.96 80.65C81.54 81.72 81.96 85.1 82.38 87.29C82.8 89.48 84.11 93.4 86.63 93.78C87.3589 93.7504 88.0709 93.5518 88.71 93.2C89.74 90.35 90.3 86.84 89.38 83.87ZM87.22 89.87V89.82C87.2641 89.455 87.2875 89.0877 87.29 88.72C87.3558 89.2547 87.3558 89.7954 87.29 90.33C87.3 90.21 87.26 90.06 87.22 89.9V89.87Z" fill="#C3EA75"/>
<path d="M97.02 91.59C94.59 92.25 92.11 93.32 91.02 95.78C90.9375 95.9649 90.9096 96.1696 90.9397 96.3699C90.9698 96.5701 91.0567 96.7576 91.19 96.91C91.28 99.23 95.99 98.06 97.31 97.8C99.44 97.39 102 96.33 101.91 93.8C101.86 90.97 99.08 91.05 97.02 91.59ZM99.85 94.51C99.8388 94.3494 99.7945 94.1928 99.72 94.05C99.8173 93.9168 99.9042 93.7764 99.98 93.63C100.054 93.7733 100.082 93.9363 100.058 94.096C100.035 94.2557 99.9622 94.404 99.85 94.52V94.51Z" fill="#C3EA75"/>
<path d="M84.31 94.37C83.38 93.1 79.8 89.16 78.24 91.5C77.9585 92.0318 77.8627 92.6423 77.9678 93.2347C78.0728 93.8271 78.3728 94.3675 78.82 94.77C79.9083 95.6871 81.2382 96.2705 82.65 96.45C82.9003 96.5087 83.1636 96.4687 83.3852 96.3383C83.6068 96.208 83.7696 95.9973 83.84 95.75C83.9803 95.7143 84.1095 95.6441 84.2158 95.5459C84.3221 95.4476 84.4023 95.3244 84.4489 95.1874C84.4956 95.0503 84.5074 94.9038 84.4831 94.7611C84.4588 94.6183 84.3993 94.4839 84.31 94.37ZM80.16 93.23L81.16 93.92L80.99 93.85C80.6708 93.7074 80.3873 93.4956 80.16 93.23Z" fill="#C3EA75"/>
<path d="M131.35 241.76L127.43 238.76C127.43 238.76 127.84 234.88 129.49 234.41C131.14 233.94 131.35 241.76 131.35 241.76Z" fill="#196132"/>
<path d="M128.67 217.62C128.67 217.62 122.4 234.02 121.57 234.84C120.74 235.66 111.18 241.98 110.17 243.49C109.16 245 117.93 245.65 121.37 245.49C124.81 245.33 128.18 244.29 128.54 243.08C128.9 241.87 128.82 235.33 130 235.71C131.18 236.09 131.35 241.77 131.35 241.77L134.57 240.63L139.57 217.7" fill="#7FAE1A"/>
<path d="M146.8 249.18L142.88 246.18C142.88 246.18 143.29 242.3 144.94 241.83C146.59 241.36 146.8 249.18 146.8 249.18Z" fill="#196132"/>
<path d="M144.08 225.04C144.08 225.04 137.81 241.44 136.98 242.26C136.15 243.08 126.59 249.4 125.58 250.91C124.57 252.42 133.34 253.07 136.78 252.91C140.22 252.75 143.59 251.71 143.95 250.5C144.31 249.29 144.23 242.75 145.41 243.13C146.59 243.51 146.76 249.19 146.76 249.19L149.98 248.05L154.98 225.12" fill="#7FAE1A"/>
<path d="M186.51 149.91C188.06 151.4 178.51 168.12 176.11 178.1C173.71 188.08 149.45 192.24 149.45 192.24L140.27 233.06C134.366 232.447 128.54 231.238 122.88 229.45C122.88 229.45 132.67 181.86 135.49 176.77C138.31 171.68 175.36 153.43 175.36 153.43" fill="#FFF0D7"/>
<path d="M192.47 153.43C194.02 154.92 198.47 166.6 192.47 180.95C188.47 190.42 166.86 197.09 166.86 197.09L154.15 236.09C154.15 236.09 147.51 239.03 138.81 235.7C138.81 235.7 145.26 190.87 148.09 185.78C150.92 180.69 179.09 162.78 179.09 162.78" fill="#FFF0D7"/>
<path d="M194.08 124.31C189.884 122.256 185.236 121.299 180.57 121.53C178.291 121.619 176.094 122.408 174.28 123.79C171.95 125.7 170.86 128.79 169.5 131.34C167.441 135.073 165.181 138.692 162.73 142.18C160.51 145.49 158.48 148.97 155.79 151.93L162.51 157.67L173.95 145.9L189.32 155.1L174.73 161.43C173.41 163.53 183.3 170.79 183.3 170.79C183.3 170.79 199.24 170.16 203.52 154.42C209.63 132.11 194.14 124.33 194.08 124.31Z" fill="#E55600"/>
<path d="M166.86 161.84L169.09 178.18L164.04 180.95L160.07 166.02" fill="#FFE8BC"/>
<path d="M173.89 140.12C173.89 140.12 172.48 154.47 173.22 156.12C173.96 157.77 188.7 165.29 188.7 165.29L198.96 154.11L173.89 140.12Z" fill="#E55600"/>
<path d="M180.8 115.33C180.8 115.33 178.45 121.33 179.61 123.33C180.77 125.33 186.32 123.61 186.32 123.61" fill="#700FBC"/>
<path d="M180.15 112.37C180.15 112.37 180.66 124.24 185.61 125.24C190.56 126.24 192.79 120.07 192.79 120.07C192.79 120.07 193.32 112.01 191.64 110.42C189.96 108.83 182.53 108.86 180.15 112.37Z" fill="#FCBF81"/>
<path d="M178.19 111.16C178.19 111.16 181.74 115.61 183.75 116.68C185.76 117.75 187.92 116.95 188.68 118.51C189.44 120.07 187.57 129.75 189.9 131.4C192.23 133.05 196.28 127.65 198.35 130.07C200.42 132.49 199.65 137.19 202.71 138.07C205.77 138.95 209.05 134.07 205.97 130.51C202.89 126.95 202.51 125.16 204.08 123.85C206.43 121.85 203.51 115.32 200.57 114.22C197.63 113.12 196.48 106.66 191.24 105.35C186 104.04 179.08 107.42 178.19 111.16Z" fill="#700FBC"/>
<path d="M175.36 135.64C174.88 142.307 174.547 148.95 174.36 155.57C174.36 156.33 173.16 156.24 173.19 155.49C173.39 148.823 173.723 142.18 174.19 135.56C174.216 135.417 174.294 135.289 174.408 135.2C174.523 135.111 174.666 135.067 174.811 135.077C174.956 135.087 175.092 135.149 175.193 135.253C175.294 135.357 175.354 135.495 175.36 135.64Z" fill="#913904"/>
<path d="M175.01 161.04C178.916 159.592 182.431 157.253 185.275 154.208C188.118 151.163 190.212 147.496 191.39 143.5C191.61 142.77 192.71 143.17 192.5 143.89C191.272 148.034 189.096 151.836 186.146 154.995C183.196 158.153 179.551 160.582 175.5 162.09C174.83 162.36 174.3 161.31 175.01 161.04Z" fill="#913904"/>
<path d="M182.18 106.81C182.18 106.81 190.8 109.54 190.7 117.39C190.7 117.39 192.41 112.65 190.7 108.85C190.175 107.747 189.358 106.81 188.337 106.14C187.316 105.47 186.13 105.093 184.91 105.05C184.91 105.05 182.34 105.42 182.18 106.81Z" fill="#2E2401"/>
<path d="M171.79 167.41C171.673 167.401 171.559 167.374 171.45 167.33C171.233 167.696 171.042 168.077 170.88 168.47C170.64 169.06 169.68 168.8 169.88 168.2L169.94 168.07C166.361 171.312 162.616 174.366 158.72 177.22C153.95 180.69 149.38 183.65 147.49 189.54C146.548 192.969 145.817 196.452 145.3 199.97L143.08 211.72L138.59 235.26C138.47 235.89 139.43 236.16 139.59 235.53L143.89 212.98C145.26 205.8 146.28 198.45 148.1 191.37C148.836 188.095 150.544 185.118 153 182.83C155.61 180.46 158.69 178.6 161.5 176.48C165.27 173.62 168.88 170.57 172.35 167.35C172.17 167.412 171.979 167.433 171.79 167.41Z" fill="#196132"/>
<path d="M161.62 186.89L182.18 174.91L150.61 156.76L134.37 170.32" fill="#021E6A"/>
<path opacity="0.38" d="M161.62 186.89L182.18 174.91L150.61 156.76L134.37 170.32" fill="black"/>
<path d="M156.29 163.26C156.29 163.26 161.69 187.19 161.61 186.9C161.53 186.61 134.98 172.34 134.8 171.83C134.62 171.32 127.8 147.04 127.8 147.04L156.29 163.26Z" fill="#021E6A"/>
<path d="M175.73 163.66L168.27 167.97C168.27 167.97 163.06 172.11 162.87 172.84C162.68 173.57 160.41 178.33 160.87 179.28C161.33 180.23 162.87 178.67 162.87 178.67C162.87 178.67 162.24 180.34 162.87 180.24C163.5 180.14 164.49 180.38 165.23 179.24C165.23 179.24 165.48 180.54 166.3 180.24C167.12 179.94 168.56 177.52 168.56 177.52C168.56 177.52 168.56 178.83 169.43 178.67C170.3 178.51 172.1 173.74 172.1 173.74C173.945 173.258 175.614 172.259 176.91 170.86L181.07 168.71L175.73 163.66Z" fill="#FCBF81"/>
<path d="M155.94 152.04C155.94 152.04 149.21 159.22 149.37 159.32L155.37 162.69L160.76 156.42L155.94 152.04Z" fill="#FCBF81"/>
<defs>
<linearGradient id="paint0_linear" x1="86.52" y1="163.7" x2="64.37" y2="194.1" gradientUnits="userSpaceOnUse">
<stop stop-color="#7F47DD"/>
<stop offset="1" stop-color="white"/>
</linearGradient>
<linearGradient id="paint1_linear" x1="204.5" y1="214.5" x2="99.5" y2="280.5" gradientUnits="userSpaceOnUse">
<stop stop-color="#CDAE08"/>
<stop offset="1" stop-color="#CDAE08" stop-opacity="0"/>
</linearGradient>
</defs>
</svg>
