<svg width="40" height="40" viewBox="0 0 40 40" fill="none" xmlns="http://www.w3.org/2000/svg">
<path d="M36.6667 9.53334L29 3.1L26.85 5.65L34.5167 12.0833L36.6667 9.53334ZM13.1333 5.65L11 3.1L3.33331 9.51667L5.48331 12.0667L13.1333 5.65ZM20.8333 13.3333H18.3333V23.3333L26.25 28.0833L27.5 26.0333L20.8333 22.0833V13.3333ZM20 6.66667C11.7166 6.66667 4.99998 13.3833 4.99998 21.6667C4.99998 29.95 11.7 36.6667 20 36.6667C28.2833 36.6667 35 29.95 35 21.6667C35 13.3833 28.2833 6.66667 20 6.66667ZM20 33.3333C13.55 33.3333 8.33331 28.1167 8.33331 21.6667C8.33331 15.2167 13.55 10 20 10C26.45 10 31.6667 15.2167 31.6667 21.6667C31.6667 28.1167 26.45 33.3333 20 33.3333Z" fill="#544700"/>
</svg>
