<svg width="40" height="40" viewBox="0 0 40 40" fill="none" xmlns="http://www.w3.org/2000/svg">
<path d="M25.8333 18.3333C27.214 18.3333 28.3333 17.214 28.3333 15.8333C28.3333 14.4526 27.214 13.3333 25.8333 13.3333C24.4526 13.3333 23.3333 14.4526 23.3333 15.8333C23.3333 17.214 24.4526 18.3333 25.8333 18.3333Z" fill="#544700"/>
<path d="M14.1667 18.3333C15.5474 18.3333 16.6667 17.214 16.6667 15.8333C16.6667 14.4526 15.5474 13.3333 14.1667 13.3333C12.786 13.3333 11.6667 14.4526 11.6667 15.8333C11.6667 17.214 12.786 18.3333 14.1667 18.3333Z" fill="#544700"/>
<path d="M19.9833 3.33333C10.7833 3.33333 3.33333 10.8 3.33333 20C3.33333 29.2 10.7833 36.6667 19.9833 36.6667C29.2 36.6667 36.6667 29.2 36.6667 20C36.6667 10.8 29.2 3.33333 19.9833 3.33333ZM20 33.3333C12.6333 33.3333 6.66666 27.3667 6.66666 20C6.66666 12.6333 12.6333 6.66667 20 6.66667C27.3667 6.66667 33.3333 12.6333 33.3333 20C33.3333 27.3667 27.3667 33.3333 20 33.3333ZM11.6667 23.3333C12.9667 27.2333 16.2 30 20 30C23.8 30 27.0333 27.2333 28.3333 23.3333H11.6667Z" fill="#544700"/>
</svg>
