<svg width="60" height="60" viewBox="0 0 60 60" fill="none" xmlns="http://www.w3.org/2000/svg">
<path d="M29.9395 59.636C22.0796 59.6293 14.5442 56.5005 8.99116 50.9378C3.43811 45.3752 0.322233 37.8345 0.32899 29.9746C0.335748 22.1146 3.46459 14.5792 9.02719 9.02619C14.5898 3.47314 22.1305 0.357267 29.9905 0.364025C37.8504 0.370782 45.3858 3.49962 50.9388 9.06223C56.4919 14.6248 59.6078 22.1656 59.601 30.0255C59.5943 37.8855 56.4654 45.4208 50.9028 50.9739C45.3402 56.5269 37.7995 59.6428 29.9395 59.636Z" fill="url(#paint0_radial)"/>
<path d="M29.9905 0V0.727979C35.4957 0.736107 40.8871 2.29656 45.5456 5.23018C50.2041 8.1638 53.9409 12.3517 56.327 17.313C58.7131 22.2743 59.6517 27.8079 59.0351 33.2785C58.4185 38.7491 56.2717 43.935 52.8411 48.2407C49.4105 52.5464 44.8353 55.7974 39.6406 57.6204C34.446 59.4435 28.8425 59.7647 23.4736 58.5472C18.1047 57.3297 13.1879 54.6228 9.28776 50.7373C5.38764 46.8518 2.66229 41.9453 1.42459 36.5809C0.55753 32.8323 0.437988 28.9496 1.0728 25.1547C1.70762 21.3599 3.08433 17.7275 5.12421 14.4652C7.16408 11.2028 9.82708 8.37469 12.9609 6.14245C16.0947 3.91021 19.6379 2.31768 23.3877 1.45596C25.554 0.964228 27.7691 0.720005 29.9905 0.727979V0ZM29.9905 0C27.712 0.00330539 25.4411 0.262142 23.2203 0.771657C15.762 2.4974 9.24651 7.01104 5.00976 13.3871C0.773003 19.7631 -0.86398 27.5184 0.434462 35.0628C1.7329 42.6072 5.86838 49.3691 11.9929 53.9619C18.1175 58.5547 25.7671 60.6304 33.3731 59.7635C40.9792 58.8965 47.9655 55.1526 52.8994 49.2994C57.8334 43.4462 60.3411 35.9272 59.9085 28.2841C59.4759 20.641 56.1357 13.453 50.5728 8.19387C45.0099 2.93478 37.6458 0.00311838 29.9905 0V0Z" fill="#5C960B"/>
<g style="mix-blend-mode:multiply" opacity="0.8">
<path style="mix-blend-mode:multiply" opacity="0.8" d="M44.7903 5.03027C51.1743 9.17597 55.6748 15.6632 57.3224 23.0948C58.9701 30.5264 57.633 38.3078 53.5992 44.7632C49.5654 51.2186 43.1577 55.8315 35.7559 57.6084C28.3542 59.3853 20.5506 58.1841 14.0259 54.2635C17.259 56.4137 20.8905 57.8936 24.7055 58.6158C28.5206 59.338 32.4417 59.2878 36.237 58.4681C40.0323 57.6484 43.6247 56.076 46.8017 53.8437C49.9787 51.6114 52.6757 48.7647 54.7333 45.4719C56.7909 42.1791 58.1672 38.5071 58.7809 34.673C59.3946 30.839 59.2331 26.9209 58.3061 23.1504C57.379 19.3798 55.7053 15.8335 53.3837 12.7211C51.0622 9.60879 48.1401 6.9936 44.7903 5.03027Z" fill="url(#paint1_linear)"/>
</g>
<g style="mix-blend-mode:screen">
<path style="mix-blend-mode:screen" d="M24.1885 36.8212C32.1453 25.9816 43.1523 15.0328 55.6226 18.4907C54.0165 14.9165 51.6809 11.7174 48.7658 9.09884C45.8507 6.48026 42.4203 4.49999 38.6949 3.28508C34.9695 2.07016 31.0312 1.64743 27.1328 2.04402C23.2344 2.44061 19.4619 3.64774 16.0574 5.58798C12.653 7.52822 9.69169 10.1587 7.36359 13.3107C5.0355 16.4626 3.392 20.0665 2.53856 23.8909C1.68512 27.7154 1.64057 31.6761 2.40778 35.5187C3.17499 39.3614 4.73702 43.0013 6.99363 46.2049C11.6163 46.2922 18.3574 44.7635 24.1885 36.8212Z" fill="url(#paint2_linear)"/>
</g>
<g style="mix-blend-mode:screen">
<path style="mix-blend-mode:screen" d="M4.82425 37.7311C3.59438 32.423 3.93425 26.8719 5.80246 21.7536C7.67068 16.6352 10.9867 12.1704 15.3467 8.90268C19.7067 5.63497 24.9227 3.70533 30.3597 3.34868C35.7967 2.99203 41.2201 4.22375 45.9696 6.8939C42.8436 4.72242 39.3092 3.20847 35.5806 2.44385C31.8519 1.67922 28.0069 1.67986 24.2785 2.44571C20.5502 3.21157 17.0162 4.72669 13.891 6.8992C10.7657 9.07171 8.11423 11.8563 6.09735 15.0842C4.08047 18.3121 2.7402 21.916 2.15782 25.6774C1.57543 29.4388 1.76306 33.2793 2.70934 36.966C3.65561 40.6526 5.3408 44.1087 7.66273 47.1247C9.98466 50.1406 12.8949 52.6535 16.2171 54.511C10.4528 50.5412 6.38732 44.5534 4.82425 37.7311Z" fill="url(#paint3_linear)"/>
</g>
<path style="mix-blend-mode:multiply" opacity="0.8" d="M48.7941 22.2032L42.2132 15.6223L26.4525 31.3903L19.7769 24.7148L13.196 31.2957L26.4379 44.5449L26.4525 44.5303L26.467 44.5449L48.7941 22.2032Z" fill="url(#paint4_linear)"/>
<path d="M47.6804 21.0822L41.0994 14.5085L25.3314 30.2766L18.6631 23.601L12.0822 30.1892L25.3241 43.4311L25.3314 43.4166L25.3533 43.4311L47.6804 21.0822Z" fill="white"/>
<defs>
<radialGradient id="paint0_radial" cx="0" cy="0" r="1" gradientUnits="userSpaceOnUse" gradientTransform="translate(34.7163 50.7292) rotate(-13) scale(30.5858)">
<stop stop-color="#88C607"/>
<stop offset="1" stop-color="#22AC00"/>
</radialGradient>
<linearGradient id="paint1_linear" x1="26.7699" y1="19.9254" x2="55.3007" y2="74.4461" gradientUnits="userSpaceOnUse">
<stop stop-color="white"/>
<stop offset="1" stop-color="#FBAE17"/>
</linearGradient>
<linearGradient id="paint2_linear" x1="15.748" y1="3.67234" x2="34.9618" y2="39.2601" gradientUnits="userSpaceOnUse">
<stop stop-color="#FFFBD4"/>
<stop offset="1"/>
</linearGradient>
<linearGradient id="paint3_linear" x1="9.66537" y1="-0.280381" x2="42.1147" y2="51.6023" gradientUnits="userSpaceOnUse">
<stop stop-color="white"/>
<stop offset="1"/>
</linearGradient>
<linearGradient id="paint4_linear" x1="660.014" y1="1210.99" x2="2400.76" y2="1210.99" gradientUnits="userSpaceOnUse">
<stop stop-color="white"/>
<stop offset="1" stop-color="#FBAE17"/>
</linearGradient>
</defs>
</svg>
