<svg width="351" height="216" viewBox="0 0 351 216" fill="none" xmlns="http://www.w3.org/2000/svg">
<g clip-path="url(#clip0)">
<path d="M3 90.2398L138.62 11.3798C139.594 10.8172 140.7 10.521 141.825 10.521C142.95 10.521 144.056 10.8172 145.03 11.3798L347.82 127.43C348.799 127.991 349.612 128.801 350.177 129.777C350.742 130.753 351.04 131.862 351.04 132.99C351.04 134.118 350.742 135.226 350.177 136.202C349.612 137.179 348.799 137.988 347.82 138.55L218.16 213.42C214.978 215.257 211.369 216.224 207.695 216.224C204.021 216.224 200.412 215.257 197.23 213.42L3 101.34C2.02613 100.777 1.21749 99.9679 0.655285 98.9937C0.0930829 98.0195 -0.202881 96.9145 -0.202881 95.7898C-0.202881 94.665 0.0930829 93.56 0.655285 92.5858C1.21749 91.6116 2.02613 90.8025 3 90.2398Z" fill="#FFB3A6"/>
<path style="mix-blend-mode:multiply" opacity="0.63" d="M211.45 220.82C247.33 197.12 268.07 194.82 301.45 170.27C280.3 159.27 244.37 137.8 231.32 129.64L142.37 181.59L209.76 220.84L211.45 220.82Z" fill="url(#paint0_linear)"/>
<path d="M77.08 145.01L155.05 189.12L246.1 136.1V100.45L155.05 153.47L77.08 108.9V145.01Z" fill="#001F6F"/>
<path d="M77.08 108.9L169.87 55.6699L246.1 100.45L155.05 153.47L77.08 108.9Z" fill="#0A297C"/>
<path d="M155.05 153.47V189.12L246.1 136.1V100.45L155.05 153.47Z" fill="#021955"/>
<path d="M98.11 61.2998V96.9098L176.23 141.36L210.76 121.42V85.3698" fill="#A0D700"/>
<path d="M175.43 106.24L176.23 141.36L246.1 100.45L246.61 64.2L175.43 106.24Z" fill="#93BC00"/>
<path d="M175.43 106.24L246.61 64.1998L171.18 19.7798L98.11 61.2998L175.43 106.24Z" fill="#CBED4F"/>
<path d="M182 47.1798L178.64 48.7698L180.71 49.7698L178.09 50.9998L176 49.9998L171.78 51.9998C171.45 52.1598 171.28 52.3498 171.28 52.5598C171.28 52.7698 171.46 52.9698 171.83 53.1398C172.021 53.2282 172.218 53.3017 172.42 53.3598C172.587 53.4143 172.757 53.4577 172.93 53.4898H173.1L170.6 54.6698C169.862 54.5268 169.143 54.2951 168.46 53.9798H168.4C166.26 52.9865 166.417 51.9098 168.87 50.7498L173.2 48.7498L171.44 47.9298L174.05 46.6998L174.98 47.1298C175.362 47.2894 175.777 47.3545 176.19 47.3198C176.657 47.306 177.116 47.1971 177.54 46.9998L179.49 46.0798L182 47.1798Z" fill="white"/>
<path d="M187.33 57.38L186.04 57.89L178.67 54.46C178.47 54.5597 178.306 54.7191 178.2 54.9161C178.094 55.1132 178.052 55.3381 178.08 55.56C178.16 55.97 178.56 56.35 179.3 56.69C179.87 56.9477 180.472 57.1261 181.09 57.22C181.618 57.3165 182.153 57.3634 182.69 57.36H183.31L182.81 58.95H182.43H181.43C180.94 58.95 180.43 58.87 179.98 58.81C179.423 58.7252 178.872 58.605 178.33 58.45C177.737 58.2929 177.158 58.0855 176.6 57.83C175.11 57.14 174.38 56.29 174.4 55.29C174.42 54.29 175.2 53.43 176.73 52.71C178.452 51.9497 180.318 51.5678 182.2 51.59C184.042 51.517 185.877 51.8587 187.57 52.59C189.02 53.26 189.73 54.07 189.68 54.99C189.63 55.91 188.84 56.66 187.33 57.38ZM180.72 53.5L185.39 55.67C185.85 55.35 186.06 55.01 186.02 54.67C185.98 54.33 185.65 53.99 185.02 53.67C184.372 53.3798 183.67 53.2266 182.96 53.22C182.188 53.1947 181.417 53.2823 180.67 53.48" fill="white"/>
<path d="M172.4 41.0998C172.936 41.3404 173.443 41.6424 173.91 41.9998C174.243 42.2405 174.533 42.5345 174.77 42.8698C174.915 43.0936 175.029 43.3358 175.11 43.5898C175.174 43.7519 175.191 43.9285 175.16 44.0998V44.2898L171.23 44.3998C171.23 44.3098 171.23 44.1998 171.23 44.0698C171.168 43.8129 171.048 43.5735 170.88 43.3698C170.605 42.9988 170.236 42.7086 169.81 42.5298C169.207 42.252 168.554 42.1022 167.89 42.0898C167.312 42.0539 166.733 42.1532 166.2 42.3798C165.69 42.6198 165.53 42.9298 165.71 43.2998C165.964 43.7568 166.304 44.1607 166.71 44.4898C167.189 44.9064 167.643 45.3504 168.07 45.8198C168.27 46.0078 168.414 46.2474 168.486 46.5121C168.559 46.7768 168.556 47.0563 168.48 47.3198C168.32 47.8598 167.75 48.3198 166.74 48.8298C165.202 49.5185 163.524 49.8403 161.84 49.7698C159.979 49.7366 158.145 49.3106 156.46 48.5198C155.855 48.2563 155.284 47.9205 154.76 47.5198C154.39 47.245 154.071 46.9063 153.82 46.5198C153.663 46.2549 153.545 45.9686 153.47 45.6698C153.423 45.4726 153.423 45.267 153.47 45.0698V44.8298H157.3C157.292 44.9597 157.292 45.0899 157.3 45.2198C157.364 45.5457 157.512 45.8491 157.73 46.0998C158.092 46.581 158.575 46.9572 159.13 47.1898C159.854 47.5315 160.64 47.7221 161.44 47.7498C162.126 47.7857 162.81 47.6625 163.44 47.3898C163.95 47.1498 164.11 46.8398 163.94 46.4698C163.688 46.0087 163.348 45.6011 162.94 45.2698C162.454 44.8576 161.996 44.4133 161.57 43.9398C161.375 43.7512 161.235 43.5124 161.166 43.2495C161.097 42.9867 161.102 42.71 161.18 42.4498C161.34 41.9098 161.91 41.4498 162.91 40.9398C164.348 40.3227 165.907 40.0422 167.47 40.1198C169.164 40.0969 170.844 40.4308 172.4 41.0998Z" fill="white"/>
<path d="M221 63.6698C222.48 64.3365 223.23 65.1232 223.25 66.0298C223.27 66.9365 222.603 67.7032 221.25 68.3298C220.435 68.7082 219.569 68.9675 218.68 69.0998C217.735 69.251 216.777 69.3112 215.82 69.2798C214.82 69.2798 213.93 69.1998 213.02 69.1198C212.11 69.0398 211.14 68.9898 210.11 68.9498C209.213 68.9057 208.314 68.9291 207.42 69.0198L213.65 71.9098L210.65 73.3398L200.48 68.6098C201.611 68.079 202.798 67.6797 204.02 67.4198C205.147 67.1714 206.296 67.0341 207.45 67.0098C208.45 67.0098 209.55 67.0098 210.63 67.0798C211.71 67.1498 212.63 67.1998 213.51 67.2798C214.329 67.343 215.151 67.343 215.97 67.2798C216.659 67.2616 217.337 67.1123 217.97 66.8398C218.57 66.5498 218.87 66.2398 218.86 65.9098C218.85 65.5798 218.52 65.2598 217.86 64.9098C217.283 64.6539 216.661 64.5146 216.03 64.4998C215.469 64.4614 214.905 64.4883 214.35 64.5798L213.73 64.7198L212.31 62.9998L212.84 62.8698C213.06 62.8698 213.51 62.7598 214.2 62.6898C214.864 62.6183 215.532 62.5882 216.2 62.5998C216.98 62.6289 217.756 62.7226 218.52 62.8798C219.376 63.0392 220.209 63.3046 221 63.6698Z" fill="white"/>
<path d="M202.37 60.8899C202.27 61.8499 201.447 62.6933 199.9 63.4199C198.208 64.1835 196.376 64.5854 194.52 64.5999C192.811 64.704 191.101 64.4167 189.52 63.7599C189.029 63.5594 188.599 63.2356 188.27 62.8199C188.061 62.5862 187.947 62.2832 187.95 61.9699L188.03 61.6399L182.17 64.3999L179.37 63.0999L194.56 55.9299L197.36 57.2299L196.05 57.8499H196.33H197C197.36 57.8499 197.72 57.8499 198.07 57.9099C198.478 57.9567 198.882 58.0302 199.28 58.1299C199.707 58.2275 200.122 58.3682 200.52 58.5499C201.853 59.1566 202.47 59.9366 202.37 60.8899ZM194.16 62.7199C195.139 62.6971 196.102 62.4724 196.99 62.0599C197.85 61.6599 198.3 61.2099 198.37 60.7299C198.44 60.2499 198.12 59.8499 197.42 59.5199C196.602 59.1774 195.715 59.0301 194.83 59.0899C193.851 59.1128 192.888 59.3375 192 59.7499C191.15 60.1499 190.68 60.5999 190.62 61.0799C190.56 61.5599 190.87 61.9699 191.56 62.2899C192.378 62.6343 193.265 62.7816 194.15 62.7199" fill="white"/>
<path style="mix-blend-mode:multiply" opacity="0.63" d="M120.49 130.66C126.37 126.78 125.72 128.77 131.19 124.75C127.73 122.94 117.34 116.45 115.19 115.12L102.91 119.89L113.91 126.32C114.06 126.33 120.4 130.67 120.49 130.66Z" fill="url(#paint1_linear)"/>
<path d="M118.11 25.0798L113.28 50.8798L127.45 34.6598" fill="#F9CE9B"/>
<path d="M153.37 90.6899C152.2 90.3299 147.17 90.6099 147.17 90.6099C147.17 90.6099 146.89 86.4999 147.01 86.3099L141.82 86.1299C141.82 86.1299 140.39 93.5599 140.28 94.5499C140.09 96.3699 142.28 97.1699 142.78 97.1499C143.146 97.0661 143.507 96.9592 143.86 96.8299C143.768 95.8754 143.768 94.9144 143.86 93.9599C143.93 93.5299 144.05 93.2299 144.49 93.1099C145.28 92.8999 146.65 93.4599 147.41 93.6899C148.17 93.9199 149.2 94.2699 150.1 94.5299C152.24 93.6699 154.1 92.8199 154.25 92.4199C154.72 91.4299 155.16 91.2399 153.37 90.6899Z" fill="#F9CE9B"/>
<path d="M155.06 91.1798L155 90.9998C154.65 90.5798 153.61 90.4998 153.12 90.4398C151.152 90.2473 149.167 90.2943 147.21 90.5798C147.21 90.5798 151.95 90.4298 152.04 91.2898C152.081 91.6345 152.041 91.9839 151.923 92.3103C151.804 92.6367 151.612 92.931 151.36 93.1698C149.22 94.6998 146.36 92.4698 144.57 91.4498L141.2 89.5598L140.67 92.4098C140.411 93.711 140.274 95.0333 140.26 96.3598C140.46 96.7898 142.44 98.1098 142.9 97.9298C143.36 97.7498 144.83 97.0698 144.83 97.0698L144.92 93.5698C144.92 93.5698 147.71 95.1398 149.12 94.9198C150.14 94.7998 156.1 92.9398 155.06 91.1798Z" fill="#56403D"/>
<path d="M113.24 115.28C112.47 114.92 111.32 114.58 110.83 113.81C110.469 112.926 110.385 111.953 110.59 111.02C110.657 110.133 110.747 109.25 110.86 108.37C110.815 108.326 110.781 108.273 110.758 108.214C110.736 108.155 110.726 108.093 110.73 108.03C110.761 107.309 110.842 106.59 110.97 105.88L107.38 105.15C107.38 105.15 105.12 111.15 105.15 111.89C105.18 112.63 108.15 117.67 109.85 118.17C111.55 118.67 116.6 117.65 117.07 117.03V116.97C115.81 116.43 114.52 115.88 113.24 115.28Z" fill="#F9CE9B"/>
<path d="M108.5 112.33C108.5 112.33 109.77 118.45 110.42 118.91C111.07 119.37 118.59 117.81 117.65 116.31C117.05 115.31 112.65 114.9 112.28 114.75C112.28 114.75 114.51 115.75 114.47 116.12C114.43 116.49 111.38 117.53 111.26 117.24C111.14 116.95 108.51 111.43 108.51 111.43L105.64 110.07L102.64 115.26L104.64 116.37C104.64 116.37 105.1 118.09 105.32 118.11C106.134 117.214 106.879 116.258 107.55 115.25C107.606 116.016 107.771 116.77 108.04 117.49C108.31 117.73 110.52 119.98 111.79 118.57L109.99 116.07" fill="#56403D"/>
<path d="M129.27 55.23C131.59 47.64 131.65 48.99 133.17 42.73L117.99 38.73C110.25 50.33 103.06 106.35 103.06 106.35C103.06 106.35 110.55 112.35 117.06 110.53C117.06 110.53 125.83 64.32 125.85 64.27C127.09 61.14 127.14 60.54 129.27 55.23Z" fill="#999A1C"/>
<path d="M151.59 58.1399C149.39 50.9599 130.97 42.1399 130.97 42.1399L124.55 61.5799C124.87 60.5799 136.38 63.5799 137.47 64.7399C140.1 67.5299 138.87 73.1999 138.47 76.6399C138.47 76.6399 137.37 82.1899 136.67 86.1199C141.13 89.5599 149.61 86.1199 149.61 86.1199C149.61 86.1199 153.79 65.3199 151.59 58.1399Z" fill="#999A1C"/>
<path d="M126.86 61.5698C126.86 61.5698 122.77 60.9198 120.5 59.0598L119.67 93.7798L126.86 61.5698Z" fill="#7A770E"/>
<path d="M142.61 30.7199L144.61 47.3499C144.61 47.3499 151.73 52.0199 152.25 55.6599L151.51 57.2099L139.24 47.3799L135.41 29.3799" fill="#F9CE9B"/>
<path d="M142.61 30.7198C141.85 25.0698 140.33 19.8598 136.27 15.5098C135.405 14.6593 134.438 13.9203 133.39 13.3098L131.13 31.9998L142.61 30.7198Z" fill="#B05800"/>
<path d="M121.63 14.0598C118.99 14.0598 112.92 24.9598 113.3 26.3998C113.68 27.8398 119.01 31.2398 119.01 31.2398" fill="#B05800"/>
<path d="M136 16.44H135.41C132.36 16.44 128.99 12.3 128.99 12.3C128.99 12.3 127.89 2.79996 122.48 10.45C118.48 16.17 117.38 32.35 117.1 40.18C119.27 41.78 122.1 42.32 124.74 42.62C126.493 42.8507 128.263 42.9376 130.03 42.88C131.118 42.8332 132.183 42.5608 133.16 42.08L135.43 29.43C135.4 25.0931 135.59 20.7575 136 16.44Z" fill="#B05800"/>
<path d="M135.8 3.43994C135.8 3.43994 139.13 11.7499 134.85 13.5399C130.57 15.3299 127.74 11.3599 127.49 10.3799C127.24 9.39993 128 2.08994 135.8 3.43994Z" fill="#F9CE9B"/>
<path d="M136.23 2.2898C135.256 1.51598 134.126 0.963144 132.917 0.669602C131.708 0.37606 130.45 0.348824 129.23 0.589791C127.118 0.761994 125.108 1.57488 123.47 2.91979C122.978 2.50797 122.384 2.23826 121.75 2.13979C120.987 2.00613 120.201 2.11807 119.506 2.45951C118.81 2.80095 118.241 3.35426 117.88 4.0398C117.573 4.68307 117.493 5.41087 117.65 6.10576C117.808 6.80065 118.196 7.42209 118.75 7.8698C119.635 8.44905 120.714 8.654 121.75 8.4398C121.75 8.4998 121.75 8.55979 121.75 8.62979C121.75 10.1298 120.25 10.7498 119.58 11.9498C119.255 12.5015 119.115 13.1427 119.18 13.7798C119.26 14.4198 119.84 15.1498 119.76 15.7798C119.609 16.242 119.348 16.6607 119 16.9998C118.666 17.4014 118.381 17.8411 118.15 18.3098C120.95 20.1998 124.65 20.5598 127.93 20.2098C131.523 19.9412 134.933 18.5169 137.65 16.1498C137.539 15.8075 137.355 15.4935 137.11 15.2298C136.595 14.8037 136.035 14.4349 135.44 14.1298C134.61 13.5398 135.67 12.1298 135.72 11.2598C135.81 9.8298 134.83 9.1398 133.72 8.53979C132.91 8.1098 132.92 7.53979 133 6.70979C132.995 6.01824 133.208 5.34273 133.61 4.77979C133.862 4.84149 134.127 4.81318 134.36 4.69979C134.828 4.47798 135.322 4.31668 135.83 4.2198C136.083 4.1558 136.301 3.99557 136.437 3.77326C136.573 3.55096 136.618 3.28417 136.56 3.02979C136.573 2.88853 136.549 2.74634 136.491 2.61679C136.434 2.48724 136.344 2.37466 136.23 2.2898Z" fill="#56403D"/>
<path d="M132.79 5.12989C134.161 4.97046 135.505 4.63434 136.79 4.12989C136.79 3.99989 137.68 -0.870113 128.79 -0.0401131C119.9 0.789887 123 11.6799 123 11.6799" fill="#56403D"/>
<path style="mix-blend-mode:multiply" opacity="0.63" d="M307.27 145.82C316.6 139.66 315.57 142.82 324.27 136.45C318.77 133.59 302.27 123.29 298.9 121.17L279.42 128.74L296.94 138.94C297.06 138.94 307.12 145.82 307.27 145.82Z" fill="url(#paint2_linear)"/>
<path d="M279.92 111.63V126.51H304V111.63" fill="#0A297C"/>
<path d="M291.96 117.55C298.61 117.55 304 114.899 304 111.63C304 108.36 298.61 105.71 291.96 105.71C285.311 105.71 279.92 108.36 279.92 111.63C279.92 114.899 285.311 117.55 291.96 117.55Z" fill="#0A297C"/>
<path opacity="0.73" d="M291.96 117.55C298.61 117.55 304 114.899 304 111.63C304 108.36 298.61 105.71 291.96 105.71C285.311 105.71 279.92 108.36 279.92 111.63C279.92 114.899 285.311 117.55 291.96 117.55Z" fill="black"/>
<path d="M291.96 133.01C298.61 133.01 304 130.359 304 127.09C304 123.82 298.61 121.17 291.96 121.17C285.311 121.17 279.92 123.82 279.92 127.09C279.92 130.359 285.311 133.01 291.96 133.01Z" fill="#0A297C"/>
<path d="M305.44 77C302.9 76 299.38 72.5 296.31 72.61C295.297 75.5599 294.672 78.6289 294.45 81.74C293.865 86.8017 293.748 91.9067 294.1 96.99C294.173 98.1233 294.267 99.2533 294.38 100.38C294.405 100.728 294.496 101.067 294.65 101.38C294.65 105.307 294.65 109.233 294.65 113.16C294.65 113.259 294.689 113.355 294.76 113.425C294.83 113.495 294.926 113.535 295.025 113.535C295.124 113.535 295.22 113.495 295.29 113.425C295.36 113.355 295.4 113.259 295.4 113.16C295.4 109.38 295.4 105.603 295.4 101.83C296.607 101.433 297.764 100.899 298.85 100.24C301.113 98.8213 302.824 96.6729 303.7 94.15C305.64 88.74 304.42 82.7 306.26 77.35C306 77.24 305.71 77.14 305.44 77Z" fill="#297600"/>
<path d="M300.23 68.1699C298.792 69.018 297.605 70.2327 296.79 71.6899C296.578 72.0051 296.397 72.34 296.25 72.6899L296.15 72.9199C295.918 73.5306 295.724 74.1551 295.57 74.7899C295.863 74.3138 296.317 73.9589 296.85 73.7899C297.48 73.5155 298.181 73.4523 298.85 73.6099C299.503 73.8654 300.121 74.2013 300.69 74.6099C301.55 75.1299 302.38 75.7099 303.22 76.2499C307.22 78.7799 312.52 79.0399 315.6 75.3499C315.6 75.1999 315.68 75.0599 315.7 74.9099C316.17 72.3899 309.05 62.9999 300.23 68.1699Z" fill="#5FAD00"/>
<path d="M313.85 76.9299L314.35 76.5999C314.357 76.5471 314.352 76.4933 314.335 76.443C314.317 76.3926 314.288 76.347 314.25 76.3099C311.84 73.8299 309.25 71.4099 305.95 70.1899C303.589 69.2922 301.031 69.0403 298.54 69.4599C298.27 69.7699 298.03 70.0999 297.79 70.4599C300.628 69.7188 303.634 69.9693 306.31 71.1699C309.22 72.4099 311.54 74.6399 313.72 76.8799C313.76 76.9049 313.804 76.9218 313.85 76.9299Z" fill="#297600"/>
<path d="M273.44 82.3198C271.7 83.2262 270.264 84.622 269.308 86.335C268.352 88.0479 267.918 90.0033 268.06 91.9598C268.34 99.0598 280.06 92.1298 283.16 86.1298C286.26 80.1298 286.75 88.6898 286.75 88.6898" fill="#297600"/>
<path d="M284 79.8299C281.803 79.7916 279.614 80.0952 277.51 80.7299C276.111 81.0713 274.765 81.6029 273.51 82.3099C274.246 82.8018 275.03 83.2173 275.85 83.5499C277.378 84.0039 278.709 84.9583 279.63 86.2599C279.818 86.5993 279.969 86.9581 280.08 87.3299C280.79 89.6699 280.18 92.4999 281.14 94.8499C282.1 97.1999 284.06 99.2699 286.83 99.4399C290.13 99.6399 291.64 96.4399 292.29 93.7299C292.94 91.0199 293.83 87.2499 292.79 84.4299C291.5 81.1699 287.09 79.9999 284 79.8299Z" fill="#5FAD00"/>
<path d="M288.31 90.92C286.93 86.43 283.99 82.2 279.7 80.22H279.54L279.34 80.28L278.56 80.48C283.56 82.34 286.7 87.27 287.99 92.31C289.63 98.76 289.08 105.74 289.09 112.31C289.104 112.391 289.146 112.465 289.209 112.519C289.272 112.572 289.352 112.601 289.435 112.601C289.518 112.601 289.598 112.572 289.661 112.519C289.724 112.465 289.766 112.391 289.78 112.31C289.76 105.3 290.42 97.74 288.31 90.92Z" fill="#297600"/>
</g>
<defs>
<linearGradient id="paint0_linear" x1="233.08" y1="194.65" x2="217.68" y2="168.84" gradientUnits="userSpaceOnUse">
<stop stop-color="white" stop-opacity="0"/>
<stop offset="0.99" stop-color="#FFA86A"/>
</linearGradient>
<linearGradient id="paint1_linear" x1="120.69" y1="128.56" x2="116.39" y2="121.18" gradientUnits="userSpaceOnUse">
<stop stop-color="white" stop-opacity="0"/>
<stop offset="0.99" stop-color="#7DAA63"/>
</linearGradient>
<linearGradient id="paint2_linear" x1="15151.2" y1="5482.05" x2="15038.8" y2="5131.25" gradientUnits="userSpaceOnUse">
<stop stop-color="white" stop-opacity="0"/>
<stop offset="0.99" stop-color="#FFA86A"/>
</linearGradient>
<clipPath id="clip0">
<rect width="351" height="216" fill="white"/>
</clipPath>
</defs>
</svg>
