<svg width="351" height="276" viewBox="0 0 351 276" fill="none" xmlns="http://www.w3.org/2000/svg">
<g clip-path="url(#clip0)">
<path d="M3.10001 150L138.71 71.11C139.684 70.5474 140.79 70.2512 141.915 70.2512C143.04 70.2512 144.146 70.5474 145.12 71.11L347.9 187.16C348.879 187.721 349.692 188.531 350.257 189.507C350.823 190.484 351.12 191.592 351.12 192.72C351.12 193.848 350.823 194.956 350.257 195.933C349.692 196.909 348.879 197.719 347.9 198.28L218.24 273.15C215.058 274.987 211.449 275.954 207.775 275.954C204.101 275.954 200.492 274.987 197.31 273.15L3.12001 161.07C2.15212 160.507 1.34859 159.7 0.789418 158.73C0.230251 157.76 -0.0650442 156.66 -0.0670672 155.541C-0.0690901 154.421 0.22223 153.32 0.777888 152.348C1.33355 151.376 2.13416 150.566 3.10001 150Z" fill="#FFB3A6"/>
<path style="mix-blend-mode:multiply" opacity="0.63" d="M211.47 280.06C247.35 256.36 268.09 254.06 301.47 229.51C280.32 218.51 244.39 197.04 231.34 188.88L142.39 240.83L209.78 280.08L211.47 280.06Z" fill="url(#paint0_linear)"/>
<path d="M77 204.57L154.97 248.68L246.02 195.65V160L154.97 213.02L77 168.46V204.57Z" fill="#0C2462"/>
<path d="M77.17 168.63L169.96 115.39L246.19 160.17L155.14 213.19L77.17 168.63Z" fill="#0A297C"/>
<path d="M155.14 213.19V248.85L246.19 195.82V160.17L155.14 213.19Z" fill="#021545"/>
<path d="M133.53 64.0801V124.68L211.65 160.17L246.19 124.2V88.1501" fill="#E6B91C"/>
<path d="M211 108.098V178L246 157.391V88L211 108.098Z" fill="#C59D0F"/>
<path d="M210.85 109.01L246.19 88.1499L169.12 43.8499L133.53 64.0799L210.85 109.01Z" fill="#FFCF25"/>
<path d="M98.2 121.03V156.64L176.32 201.09L210.85 181.15V145.1" fill="#A0D700"/>
<path d="M175.52 165.96L210.85 145.1L133.79 100.81L98.2 121.03L175.52 165.96Z" fill="#CBED4F"/>
<path d="M175.52 165.96V201.09L246.19 160.17V124.2L175.52 165.96Z" fill="#93BC00"/>
<path d="M199.53 28.1199C200.079 28.3896 200.593 28.7255 201.06 29.1199C201.504 29.4951 201.912 29.9102 202.28 30.3599C202.6 30.7699 202.88 31.1499 203.11 31.5199C203.303 31.8064 203.473 32.1073 203.62 32.4199L203.78 32.7599L202.11 34.4599C202.04 34.2999 201.94 34.0899 201.81 33.8599C201.57 33.4601 201.296 33.082 200.99 32.7299C200.643 32.2823 200.207 31.9112 199.71 31.6399C199.524 31.5107 199.306 31.4356 199.08 31.4233C198.854 31.4109 198.629 31.4617 198.43 31.5699C198.259 31.7119 198.126 31.8939 198.042 32.0998C197.958 32.3056 197.927 32.5289 197.95 32.7499C197.962 33.4174 198.19 34.0629 198.6 34.5899C199.072 35.2297 199.604 35.8225 200.19 36.3599C200.817 36.9399 201.443 37.5599 202.07 38.2199C202.749 38.9676 203.294 39.8269 203.68 40.7599C204.129 41.8297 204.353 42.98 204.34 44.1399C204.34 45.8699 203.9 47.0699 203.03 47.7199C202.16 48.3699 200.95 48.3199 199.43 47.5399C198.797 47.2131 198.209 46.8064 197.68 46.3299C197.17 45.8864 196.704 45.3941 196.29 44.8599C195.93 44.3799 195.6 43.9099 195.29 43.4699C195.067 43.1266 194.867 42.7692 194.69 42.3999L194.49 41.9699L196.16 40.4199C196.247 40.5999 196.367 40.8399 196.52 41.1399C196.808 41.6403 197.143 42.1124 197.52 42.5499C197.978 43.1475 198.558 43.6416 199.22 43.9999C199.445 44.1635 199.711 44.2613 199.988 44.2825C200.265 44.3037 200.543 44.2474 200.79 44.1199C200.997 43.9481 201.157 43.7273 201.257 43.4775C201.357 43.2277 201.392 42.9569 201.36 42.6899C201.344 42.0201 201.117 41.3724 200.71 40.8399C200.235 40.1995 199.699 39.6067 199.11 39.0699C198.477 38.4966 197.85 37.8766 197.23 37.2099C196.558 36.4645 196.02 35.6086 195.64 34.6799C195.198 33.6087 194.98 32.4585 195 31.2999C194.941 30.698 195.025 30.0905 195.246 29.5274C195.466 28.9642 195.817 28.4613 196.27 28.0599C197.09 27.4199 198.18 27.4399 199.53 28.1199Z" fill="#0A297C"/>
<path d="M209.61 35.38V39.52L211.46 40.46V43.67L209.61 42.73V47.94C209.611 48.3629 209.717 48.7789 209.92 49.15C210.089 49.5033 210.366 49.7939 210.71 49.98C210.862 50.0588 211.023 50.1192 211.19 50.16C211.306 50.1806 211.424 50.1806 211.54 50.16H211.65V53.24C211.082 53.229 210.526 53.0778 210.03 52.8H209.97C208.06 51.8 207.11 49.8 207.11 46.8V41.46L205.54 40.66V37.45L206.37 37.87C206.484 37.9433 206.621 37.9726 206.756 37.9523C206.89 37.9321 207.012 37.8637 207.1 37.76C207.329 37.4414 207.436 37.0508 207.4 36.66V34.26L209.61 35.38Z" fill="#0A297C"/>
<path d="M221.72 51.69L221.63 53.11L215 49.77C215.106 50.5506 215.375 51.3001 215.79 51.97C216.17 52.6342 216.732 53.1756 217.41 53.53C217.808 53.755 218.266 53.8495 218.72 53.8C219.037 53.7745 219.336 53.6443 219.57 53.43L219.83 53.15L221.12 56.21L220.95 56.37C220.801 56.4869 220.64 56.5875 220.47 56.67C219.907 57.0025 219.239 57.1097 218.6 56.97C218.121 56.8865 217.659 56.7279 217.23 56.5C215.729 55.6467 214.536 54.3413 213.82 52.77C212.909 51.0685 212.429 49.1699 212.42 47.24C212.355 46.4968 212.445 45.748 212.686 45.0419C212.928 44.3359 213.314 43.688 213.82 43.14C214.26 42.7193 214.83 42.4597 215.436 42.4034C216.042 42.3471 216.65 42.4975 217.16 42.83C218.587 43.6242 219.722 44.8542 220.4 46.34C221.266 47.9904 221.719 49.8262 221.72 51.69ZM215.06 47.23L219.23 49.35C219.141 48.6208 218.906 47.9169 218.54 47.28C218.237 46.7045 217.771 46.2314 217.2 45.92C216.998 45.7919 216.764 45.7239 216.525 45.7239C216.286 45.7239 216.052 45.7919 215.85 45.92C215.432 46.2556 215.151 46.732 215.06 47.26" fill="#0A297C"/>
<path d="M231.82 52.2398C232.673 53.9443 233.118 55.8238 233.12 57.7298C233.249 59.2411 232.778 60.7424 231.81 61.9098C231.431 62.3288 230.916 62.6007 230.357 62.6775C229.797 62.7543 229.228 62.6312 228.75 62.3298C228.191 62.0312 227.698 61.6231 227.3 61.1298C226.91 60.7065 226.574 60.2362 226.3 59.7298L226.02 59.0998V66.3198L223.53 65.0498V46.3398L226.02 47.6098V49.2098L226.13 49.0698L226.45 48.7998C226.614 48.6733 226.796 48.5721 226.99 48.4998C227.232 48.4222 227.487 48.395 227.74 48.4198C228.09 48.4475 228.43 48.5462 228.74 48.7098C230.122 49.5219 231.203 50.7607 231.82 52.2398ZM229.82 58.6798C230.313 58.031 230.545 57.2212 230.47 56.4098C230.482 55.4037 230.263 54.4081 229.83 53.4998C229.522 52.7362 228.97 52.0961 228.26 51.6798C228.015 51.5196 227.721 51.4526 227.431 51.4912C227.141 51.5297 226.874 51.6712 226.68 51.8898C226.188 52.5312 225.956 53.3347 226.03 54.1398C226.017 55.1525 226.236 56.1547 226.67 57.0698C226.983 57.833 227.538 58.4724 228.25 58.8898C228.494 59.0482 228.788 59.1132 229.076 59.0728C229.364 59.0324 229.629 58.8893 229.82 58.6698" fill="#0A297C"/>
<path d="M242.73 50.0499C244.071 50.7423 245.172 51.8226 245.89 53.1499C246.66 54.4565 247.07 55.9434 247.08 57.4599C247.092 57.9469 247.028 58.4327 246.89 58.8999C246.797 59.2333 246.641 59.5457 246.43 59.8199C246.274 60.0016 246.096 60.1629 245.9 60.2999C245.756 60.3982 245.592 60.4631 245.42 60.4899H245.24L245.49 60.7599C245.69 61.0031 245.877 61.2568 246.05 61.5199C246.317 61.9027 246.551 62.3075 246.75 62.7299C246.987 63.2511 247.175 63.7935 247.31 64.3499C247.477 65.0034 247.561 65.6754 247.56 66.3499C247.618 66.9648 247.528 67.5847 247.297 68.1573C247.065 68.7299 246.699 69.2384 246.23 69.6399C245.34 70.2899 244.18 70.2599 242.73 69.5199C242.093 69.1906 241.498 68.7842 240.96 68.3099C240.445 67.8756 239.976 67.3897 239.56 66.8599C239.2 66.3899 238.88 65.9499 238.56 65.5199C238.338 65.2023 238.141 64.8679 237.97 64.5199L237.78 64.1199L239.46 62.4399C239.46 62.5099 239.52 62.5899 239.57 62.7199C239.62 62.8499 239.75 63.0599 239.94 63.3899C240.125 63.7085 240.328 64.0157 240.55 64.3099C240.796 64.6311 241.07 64.929 241.37 65.1999C241.669 65.4903 242.005 65.7392 242.37 65.9399C243.09 66.2999 243.64 66.3499 244.02 66.0999C244.23 65.9304 244.394 65.7102 244.495 65.46C244.597 65.2098 244.633 64.9379 244.6 64.6699C244.593 63.9641 244.396 63.2733 244.03 62.6699C243.665 62.0378 243.123 61.5267 242.47 61.1999L241.07 60.4899V57.1399L242.37 57.7999C242.559 57.9315 242.784 58.0021 243.015 58.0021C243.246 58.0021 243.471 57.9315 243.66 57.7999C243.838 57.6165 243.973 57.3955 244.054 57.1533C244.135 56.911 244.161 56.6536 244.13 56.3999C244.135 55.7766 243.976 55.1629 243.67 54.6199C243.379 54.0776 242.929 53.6377 242.38 53.3599C241.98 53.1337 241.513 53.0525 241.06 53.1299C240.73 53.1763 240.42 53.3188 240.17 53.5399L239.89 53.8299L238.23 50.5899C238.281 50.5156 238.338 50.4454 238.4 50.3799C238.787 49.9872 239.27 49.7013 239.8 49.5499C240.214 49.4798 240.636 49.4798 241.05 49.5499C241.636 49.6116 242.206 49.7811 242.73 50.0499Z" fill="#0A297C"/>
<g opacity="0.25">
<path opacity="0.25" d="M199.53 28.1199C200.079 28.3896 200.593 28.7255 201.06 29.1199C201.504 29.4951 201.912 29.9102 202.28 30.3599C202.6 30.7699 202.88 31.1499 203.11 31.5199C203.303 31.8064 203.473 32.1073 203.62 32.4199L203.78 32.7599L202.11 34.4599C202.04 34.2999 201.94 34.0899 201.81 33.8599C201.57 33.4601 201.296 33.082 200.99 32.7299C200.643 32.2823 200.207 31.9112 199.71 31.6399C199.524 31.5107 199.306 31.4356 199.08 31.4233C198.854 31.4109 198.629 31.4617 198.43 31.5699C198.259 31.7119 198.126 31.8939 198.042 32.0998C197.958 32.3056 197.927 32.5289 197.95 32.7499C197.962 33.4174 198.19 34.0629 198.6 34.5899C199.072 35.2297 199.604 35.8225 200.19 36.3599C200.817 36.9399 201.443 37.5599 202.07 38.2199C202.749 38.9676 203.294 39.8269 203.68 40.7599C204.129 41.8297 204.353 42.98 204.34 44.1399C204.34 45.8699 203.9 47.0699 203.03 47.7199C202.16 48.3699 200.95 48.3199 199.43 47.5399C198.797 47.2131 198.209 46.8064 197.68 46.3299C197.17 45.8864 196.704 45.3941 196.29 44.8599C195.93 44.3799 195.6 43.9099 195.29 43.4699C195.067 43.1266 194.867 42.7692 194.69 42.3999L194.49 41.9699L196.16 40.4199C196.247 40.5999 196.367 40.8399 196.52 41.1399C196.808 41.6403 197.143 42.1124 197.52 42.5499C197.978 43.1475 198.558 43.6416 199.22 43.9999C199.445 44.1635 199.711 44.2613 199.988 44.2825C200.265 44.3037 200.543 44.2474 200.79 44.1199C200.997 43.9481 201.157 43.7273 201.257 43.4775C201.357 43.2277 201.392 42.9569 201.36 42.6899C201.344 42.0201 201.117 41.3724 200.71 40.8399C200.235 40.1995 199.699 39.6067 199.11 39.0699C198.477 38.4966 197.85 37.8766 197.23 37.2099C196.558 36.4645 196.02 35.6086 195.64 34.6799C195.198 33.6087 194.98 32.4585 195 31.2999C194.941 30.698 195.025 30.0905 195.246 29.5274C195.466 28.9642 195.817 28.4613 196.27 28.0599C197.09 27.4199 198.18 27.4399 199.53 28.1199Z" fill="black"/>
<path opacity="0.25" d="M209.61 35.38V39.52L211.46 40.46V43.67L209.61 42.73V47.94C209.611 48.3629 209.717 48.7789 209.92 49.15C210.089 49.5033 210.366 49.7939 210.71 49.98C210.862 50.0588 211.023 50.1192 211.19 50.16C211.306 50.1806 211.424 50.1806 211.54 50.16H211.65V53.24C211.082 53.229 210.526 53.0778 210.03 52.8H209.97C208.06 51.8 207.11 49.8 207.11 46.8V41.46L205.54 40.66V37.45L206.37 37.87C206.484 37.9433 206.621 37.9726 206.756 37.9523C206.89 37.9321 207.012 37.8637 207.1 37.76C207.329 37.4414 207.436 37.0508 207.4 36.66V34.26L209.61 35.38Z" fill="black"/>
<path opacity="0.25" d="M221.72 51.69L221.63 53.11L215 49.77C215.106 50.5506 215.375 51.3001 215.79 51.97C216.17 52.6342 216.732 53.1756 217.41 53.53C217.808 53.755 218.266 53.8495 218.72 53.8C219.037 53.7745 219.336 53.6443 219.57 53.43L219.83 53.15L221.12 56.21L220.95 56.37C220.801 56.4869 220.64 56.5875 220.47 56.67C219.907 57.0025 219.239 57.1097 218.6 56.97C218.121 56.8865 217.659 56.7279 217.23 56.5C215.729 55.6467 214.536 54.3413 213.82 52.77C212.909 51.0685 212.429 49.1699 212.42 47.24C212.355 46.4968 212.445 45.748 212.686 45.0419C212.928 44.3359 213.314 43.688 213.82 43.14C214.26 42.7193 214.83 42.4597 215.436 42.4034C216.042 42.3471 216.65 42.4975 217.16 42.83C218.587 43.6242 219.722 44.8542 220.4 46.34C221.266 47.9904 221.719 49.8262 221.72 51.69ZM215.06 47.23L219.23 49.35C219.141 48.6208 218.906 47.9169 218.54 47.28C218.237 46.7045 217.771 46.2314 217.2 45.92C216.998 45.7919 216.764 45.7239 216.525 45.7239C216.286 45.7239 216.052 45.7919 215.85 45.92C215.432 46.2556 215.151 46.732 215.06 47.26" fill="black"/>
<path opacity="0.25" d="M231.82 52.2398C232.673 53.9443 233.118 55.8238 233.12 57.7298C233.249 59.2411 232.778 60.7424 231.81 61.9098C231.431 62.3288 230.916 62.6007 230.357 62.6775C229.797 62.7543 229.228 62.6312 228.75 62.3298C228.191 62.0312 227.698 61.6231 227.3 61.1298C226.91 60.7065 226.574 60.2362 226.3 59.7298L226.02 59.0998V66.3198L223.53 65.0498V46.3398L226.02 47.6098V49.2098L226.13 49.0698L226.45 48.7998C226.614 48.6733 226.796 48.5721 226.99 48.4998C227.232 48.4222 227.487 48.395 227.74 48.4198C228.09 48.4475 228.43 48.5462 228.74 48.7098C230.122 49.5219 231.203 50.7607 231.82 52.2398ZM229.82 58.6798C230.313 58.031 230.545 57.2212 230.47 56.4098C230.482 55.4037 230.263 54.4081 229.83 53.4998C229.522 52.7362 228.97 52.0961 228.26 51.6798C228.015 51.5196 227.721 51.4526 227.431 51.4912C227.141 51.5297 226.874 51.6712 226.68 51.8898C226.188 52.5312 225.956 53.3347 226.03 54.1398C226.017 55.1525 226.236 56.1547 226.67 57.0698C226.983 57.833 227.538 58.4724 228.25 58.8898C228.494 59.0482 228.788 59.1132 229.076 59.0728C229.364 59.0324 229.629 58.8893 229.82 58.6698" fill="black"/>
<path opacity="0.25" d="M242.73 50.0499C244.071 50.7423 245.172 51.8226 245.89 53.1499C246.66 54.4565 247.07 55.9434 247.08 57.4599C247.092 57.9469 247.028 58.4327 246.89 58.8999C246.797 59.2333 246.641 59.5457 246.43 59.8199C246.274 60.0016 246.096 60.1629 245.9 60.2999C245.756 60.3982 245.592 60.4631 245.42 60.4899H245.24L245.49 60.7599C245.69 61.0031 245.877 61.2568 246.05 61.5199C246.317 61.9027 246.551 62.3075 246.75 62.7299C246.987 63.2511 247.175 63.7935 247.31 64.3499C247.477 65.0034 247.561 65.6754 247.56 66.3499C247.618 66.9648 247.528 67.5847 247.297 68.1573C247.065 68.7299 246.699 69.2384 246.23 69.6399C245.34 70.2899 244.18 70.2599 242.73 69.5199C242.093 69.1906 241.498 68.7842 240.96 68.3099C240.445 67.8756 239.976 67.3897 239.56 66.8599C239.2 66.3899 238.88 65.9499 238.56 65.5199C238.338 65.2023 238.141 64.8679 237.97 64.5199L237.78 64.1199L239.46 62.4399C239.46 62.5099 239.52 62.5899 239.57 62.7199C239.62 62.8499 239.75 63.0599 239.94 63.3899C240.125 63.7085 240.328 64.0157 240.55 64.3099C240.796 64.6311 241.07 64.929 241.37 65.1999C241.669 65.4903 242.005 65.7392 242.37 65.9399C243.09 66.2999 243.64 66.3499 244.02 66.0999C244.23 65.9304 244.394 65.7102 244.495 65.46C244.597 65.2098 244.633 64.9379 244.6 64.6699C244.593 63.9641 244.396 63.2733 244.03 62.6699C243.665 62.0378 243.123 61.5267 242.47 61.1999L241.07 60.4899V57.1399L242.37 57.7999C242.559 57.9315 242.784 58.0021 243.015 58.0021C243.246 58.0021 243.471 57.9315 243.66 57.7999C243.838 57.6165 243.973 57.3955 244.054 57.1533C244.135 56.911 244.161 56.6536 244.13 56.3999C244.135 55.7766 243.976 55.1629 243.67 54.6199C243.379 54.0776 242.929 53.6377 242.38 53.3599C241.98 53.1337 241.513 53.0525 241.06 53.1299C240.73 53.1763 240.42 53.3188 240.17 53.5399L239.89 53.8299L238.23 50.5899C238.281 50.5156 238.338 50.4454 238.4 50.3799C238.787 49.9872 239.27 49.7013 239.8 49.5499C240.214 49.4798 240.636 49.4798 241.05 49.5499C241.636 49.6116 242.206 49.7811 242.73 50.0499Z" fill="black"/>
</g>
<path style="mix-blend-mode:multiply" opacity="0.63" d="M300.64 210.06C309.97 203.9 308.94 207.06 317.64 200.69C312.14 197.83 295.64 187.53 292.27 185.41L272.77 193L290.29 203.2C290.43 203.18 300.49 210.06 300.64 210.06Z" fill="url(#paint1_linear)"/>
<path d="M273.29 175.87V190.75H297.37V175.87" fill="#0A297C"/>
<path d="M285.33 181.79C291.98 181.79 297.37 179.139 297.37 175.87C297.37 172.6 291.98 169.95 285.33 169.95C278.681 169.95 273.29 172.6 273.29 175.87C273.29 179.139 278.681 181.79 285.33 181.79Z" fill="#0A297C"/>
<path opacity="0.73" d="M285.33 181.79C291.98 181.79 297.37 179.139 297.37 175.87C297.37 172.6 291.98 169.95 285.33 169.95C278.681 169.95 273.29 172.6 273.29 175.87C273.29 179.139 278.681 181.79 285.33 181.79Z" fill="black"/>
<path d="M285.33 197.25C291.98 197.25 297.37 194.599 297.37 191.33C297.37 188.06 291.98 185.41 285.33 185.41C278.681 185.41 273.29 188.06 273.29 191.33C273.29 194.599 278.681 197.25 285.33 197.25Z" fill="#0A297C"/>
<path d="M298.81 141.27C296.27 140.27 292.75 136.77 289.68 136.88C288.667 139.83 288.042 142.899 287.82 146.01C287.235 151.072 287.118 156.177 287.47 161.26C287.543 162.393 287.637 163.523 287.75 164.65C287.775 164.998 287.866 165.337 288.02 165.65C288.02 169.577 288.02 173.503 288.02 177.43C288.02 177.529 288.059 177.625 288.13 177.695C288.2 177.765 288.296 177.805 288.395 177.805C288.494 177.805 288.59 177.765 288.66 177.695C288.73 177.625 288.77 177.529 288.77 177.43C288.77 173.65 288.77 169.873 288.77 166.1C289.977 165.703 291.134 165.169 292.22 164.51C294.483 163.091 296.194 160.943 297.07 158.42C299.01 153.01 297.79 146.97 299.63 141.62C299.34 141.48 299.07 141.38 298.81 141.27Z" fill="#297600"/>
<path d="M293.6 132.41C292.162 133.258 290.975 134.473 290.16 135.93C289.948 136.245 289.767 136.58 289.62 136.93L289.52 137.16C289.288 137.771 289.094 138.395 288.94 139.03C289.233 138.554 289.687 138.199 290.22 138.03C290.85 137.756 291.551 137.692 292.22 137.85C292.872 138.106 293.491 138.441 294.06 138.85C294.92 139.37 295.75 139.95 296.59 140.49C300.59 143.02 305.89 143.28 308.97 139.59C308.97 139.44 309.05 139.3 309.07 139.15C309.54 136.63 302.42 127.28 293.6 132.41Z" fill="#5FAD00"/>
<path d="M307.22 141.17L307.72 140.84C307.727 140.787 307.722 140.733 307.705 140.683C307.687 140.633 307.658 140.587 307.62 140.55C305.21 138.07 302.62 135.65 299.32 134.43C296.959 133.532 294.401 133.28 291.91 133.7C291.64 134.01 291.4 134.34 291.16 134.7C293.998 133.959 297.004 134.209 299.68 135.41C302.59 136.65 304.91 138.88 307.09 141.12C307.13 141.145 307.174 141.162 307.22 141.17Z" fill="#297600"/>
<path d="M266.81 146.56C265.07 147.466 263.634 148.862 262.678 150.575C261.722 152.288 261.288 154.244 261.43 156.2C261.71 163.3 273.43 156.37 276.53 150.37C279.63 144.37 280.12 152.93 280.12 152.93" fill="#297600"/>
<path d="M277.34 144.08C275.143 144.042 272.954 144.345 270.85 144.98C269.451 145.321 268.105 145.853 266.85 146.56C267.586 147.052 268.37 147.467 269.19 147.8C270.718 148.254 272.049 149.208 272.97 150.51C273.158 150.849 273.309 151.208 273.42 151.58C274.13 153.92 273.52 156.75 274.48 159.1C275.44 161.45 277.4 163.52 280.17 163.69C283.47 163.89 284.98 160.69 285.63 157.98C286.28 155.27 287.17 151.5 286.13 148.68C284.87 145.41 280.46 144.23 277.34 144.08Z" fill="#5FAD00"/>
<path d="M281.68 155.16C280.3 150.67 277.36 146.44 273.07 144.46H272.91L272.71 144.52L271.93 144.72C276.93 146.58 280.07 151.51 281.36 156.55C283 163 282.45 169.98 282.46 176.55C282.474 176.631 282.516 176.705 282.579 176.759C282.642 176.812 282.722 176.841 282.805 176.841C282.888 176.841 282.967 176.812 283.031 176.759C283.094 176.705 283.136 176.631 283.15 176.55C283.13 169.54 283.79 162 281.68 155.16Z" fill="#297600"/>
<path style="mix-blend-mode:multiply" opacity="0.63" d="M154.62 139.74C160.5 135.86 159.85 137.85 165.32 133.83C161.86 132.02 151.47 125.53 149.32 124.2L137 129L148 135.43C148.18 135.4 154.52 139.74 154.62 139.74Z" fill="url(#paint2_linear)"/>
<path style="mix-blend-mode:multiply" opacity="0.63" d="M190.48 97C196.36 93.12 195.71 95.11 201.18 91.09C197.72 89.28 187.33 82.79 185.18 81.46L172.9 86.23L183.9 92.66C184 92.7 190.39 97 190.48 97Z" fill="url(#paint3_linear)"/>
<path d="M152.23 33.5898L147.4 59.3898L161.57 43.1598" fill="#FFEDE1"/>
<path d="M187 80.87C185.83 80.51 180.8 80.79 180.8 80.79C180.8 80.79 180.43 74.01 180.55 73.79H175.55C175.55 73.79 174 83.74 173.9 84.73C173.71 86.55 175.9 87.35 176.4 87.33C176.766 87.2463 177.127 87.1394 177.48 87.01C177.388 86.0556 177.388 85.0945 177.48 84.14C177.55 83.71 177.67 83.41 178.11 83.29C178.9 83.08 180.27 83.64 181.03 83.87C181.79 84.1 182.82 84.45 183.72 84.71C185.86 83.85 187.72 83 187.87 82.6C188.33 81.61 188.78 81.42 187 80.87Z" fill="#F9CE9B"/>
<path d="M188.67 81.36L188.56 81.21C188.21 80.79 187.17 80.71 186.68 80.65C184.712 80.4575 182.727 80.5045 180.77 80.79C180.77 80.79 185.51 80.64 185.6 81.5C185.641 81.8447 185.601 82.1941 185.483 82.5205C185.364 82.8469 185.172 83.1412 184.92 83.38C182.78 84.91 179.92 82.68 178.13 81.66L174.76 79.77L174.23 82.62C173.971 83.9212 173.834 85.2435 173.82 86.57C174.02 87 176 88.32 176.46 88.14C176.92 87.96 178.39 87.28 178.39 87.28L178.48 83.78C178.48 83.78 181.27 85.35 182.68 85.13C183.75 85 189.71 83.12 188.67 81.36Z" fill="#56403D"/>
<path d="M171.76 66.6099L171.36 74.3299C175.108 76.0709 179.325 76.5312 183.36 75.6399C184.2 71.1999 185.77 62.3499 185.6 59.3799C185.37 55.3799 186.22 51.1499 180.83 48.5099C176.7 46.5099 164.08 51.3699 164.08 51.3699L154.59 67.5599C166.77 72.3899 171.76 66.6099 171.76 66.6099Z" fill="#999A1C"/>
<path d="M147.37 123.79C146.6 123.43 145.45 123.09 144.96 122.32C144.599 121.436 144.515 120.463 144.72 119.53C144.787 118.643 144.877 117.76 144.99 116.88C144.945 116.836 144.911 116.783 144.888 116.724C144.866 116.665 144.856 116.603 144.86 116.54C144.891 115.819 144.972 115.1 145.1 114.39L141.51 113.66C141.51 113.66 139.25 119.66 139.28 120.4C139.31 121.14 142.28 126.18 143.98 126.68C145.68 127.18 150.73 126.16 151.2 125.54V125.48C149.94 124.94 148.64 124.38 147.37 123.79Z" fill="#F9CE9B"/>
<path d="M142.63 120.83C142.63 120.83 143.9 126.95 144.55 127.41C145.2 127.87 152.72 126.31 151.78 124.81C151.18 123.81 146.78 123.4 146.41 123.25C146.41 123.25 148.64 124.25 148.6 124.62C148.56 124.99 145.51 126.03 145.39 125.74C145.27 125.45 142.64 119.93 142.64 119.93L139.77 118.57L136.77 123.76L138.77 124.87C138.77 124.87 139.23 126.59 139.45 126.61C140.264 125.714 141.009 124.758 141.68 123.75C141.736 124.516 141.901 125.27 142.17 125.99C142.44 126.23 144.65 128.48 145.92 127.07L144.12 124.57" fill="#56403D"/>
<path d="M163.39 63.74C165.71 56.15 165.77 57.5 167.29 51.24L152.11 47.24C144.37 58.84 137.18 114.86 137.18 114.86C137.18 114.86 144.67 120.86 151.18 119.04C151.18 119.04 159.95 72.83 159.97 72.78C161.21 69.65 161.26 69.05 163.39 63.74Z" fill="#999A1C"/>
<path d="M161 70.0701C161 70.0701 156.91 69.4201 154.64 67.5601L153.81 102.28L161 70.0701Z" fill="#7A770E"/>
<path d="M159.88 27.48C159.88 27.48 151.48 8.55997 150.52 7.33997C149.56 6.11997 151.67 -0.0200331 150.35 0.0499669C149.03 0.119967 147.45 3.17997 147.45 3.17997C147.45 3.17997 141.67 -1.00003 139.61 0.299967C137.55 1.59997 146.07 10.23 146.07 10.23L153.15 33.67" fill="#F9CE9B"/>
<path d="M174.59 23.6199C174.59 23.6199 193.72 15.6899 195.25 15.4699C196.78 15.2499 199.48 9.33986 200.4 10.3099C201.32 11.2799 200.34 14.5799 200.34 14.5799C200.34 14.5799 207.4 15.5799 208.01 17.8899C208.62 20.1999 196.48 20.6399 196.48 20.6399L175.19 32.7599" fill="#F9CE9B"/>
<path d="M160.16 21.6L153.8 15.97L149.58 29.78L154.87 37.54" fill="#B05800"/>
<path d="M170.09 24.9999H169.5C166.45 24.9999 163.08 20.8599 163.08 20.8599C163.08 20.8599 162 11.2999 156.57 18.9999C152.57 24.7199 151.47 40.8999 151.19 48.7299C153.36 50.3299 156.19 50.8699 158.83 51.1699C160.583 51.4006 162.352 51.4875 164.12 51.4299C165.207 51.3831 166.273 51.1107 167.25 50.6299L169.52 37.9799C169.49 33.6464 169.681 29.3141 170.09 24.9999Z" fill="#B05800"/>
<path d="M166.9 10.46C166.9 10.46 172.1 17.75 168.37 20.46C164.64 23.17 160.94 20.02 160.47 19.13C160 18.24 159 11 166.9 10.46Z" fill="#F9CE9B"/>
<path d="M167 9.23003C165.874 8.71142 164.649 8.44287 163.41 8.44287C162.171 8.44287 160.946 8.71142 159.82 9.23003C157.826 9.90344 156.082 11.1656 154.82 12.85C154.247 12.5675 153.607 12.4466 152.97 12.5C152.197 12.5507 151.46 12.8452 150.866 13.3412C150.271 13.8371 149.849 14.509 149.66 15.26C149.513 15.9581 149.606 16.6853 149.923 17.324C150.241 17.9628 150.765 18.4758 151.41 18.78C152.392 19.1217 153.467 19.0679 154.41 18.63V18.81C154.75 20.27 153.41 21.22 153.09 22.55C152.891 23.1574 152.891 23.8126 153.09 24.42C153.32 25.02 154.09 25.6 154.09 26.22C154.054 26.722 153.892 27.2069 153.62 27.63C153.389 28.101 153.214 28.5978 153.1 29.11C156.27 30.28 159.95 29.76 163.1 28.65C166.53 27.5413 169.508 25.3522 171.59 22.41C171.401 22.1061 171.149 21.8468 170.85 21.65C170.25 21.356 169.619 21.128 168.97 20.97C168.03 20.59 168.72 18.97 168.57 18.12C168.32 16.71 167.21 16.27 165.97 15.95C165.08 15.72 164.97 15.21 164.84 14.34C164.674 13.6761 164.719 12.9768 164.97 12.34C165.23 12.3391 165.481 12.2471 165.68 12.08C166.081 11.7557 166.521 11.4835 166.99 11.27C167.221 11.1484 167.396 10.9412 167.476 10.6926C167.556 10.4441 167.536 10.174 167.42 9.94003C167.418 9.79535 167.378 9.65371 167.304 9.52916C167.231 9.40462 167.126 9.3015 167 9.23003Z" fill="#56403D"/>
<path d="M164.37 12.81C165.656 12.3379 166.876 11.7027 168 10.92C168 10.79 167.69 5.83996 159.24 8.75996C150.79 11.68 156.37 21.49 156.37 21.49" fill="#56403D"/>
<path d="M166.24 21.4798C166.24 21.4798 179.24 19.7098 182.11 20.0898L182.93 29.8898L166.24 39.7398" fill="#B05800"/>
</g>
<defs>
<linearGradient id="paint0_linear" x1="233.09" y1="253.89" x2="217.69" y2="228.09" gradientUnits="userSpaceOnUse">
<stop stop-color="white" stop-opacity="0"/>
<stop offset="0.99" stop-color="#FFA86A"/>
</linearGradient>
<linearGradient id="paint1_linear" x1="15123" y1="5650.81" x2="15010.5" y2="5299.98" gradientUnits="userSpaceOnUse">
<stop stop-color="white" stop-opacity="0"/>
<stop offset="0.99" stop-color="#FFA86A"/>
</linearGradient>
<linearGradient id="paint2_linear" x1="5371.1" y1="2496.07" x2="5326.41" y2="2356.59" gradientUnits="userSpaceOnUse">
<stop stop-color="#8BDB5A" stop-opacity="0"/>
<stop offset="0.99" stop-color="#C4E2A6"/>
</linearGradient>
<linearGradient id="paint3_linear" x1="6413.73" y1="1789.77" x2="6369" y2="1650.2" gradientUnits="userSpaceOnUse">
<stop stop-color="white" stop-opacity="0"/>
<stop offset="0.99" stop-color="#C2C61A"/>
</linearGradient>
<clipPath id="clip0">
<rect width="351" height="276" fill="white"/>
</clipPath>
</defs>
</svg>
