<svg width="114" height="112" viewBox="0 0 114 112" fill="none" xmlns="http://www.w3.org/2000/svg">
<path d="M110.748 75.641L113.618 64.7732C113.618 64.7732 99.3624 54.7033 98.9873 55.3788L98.003 47.625L109.802 34.2037L103.505 24.6431C103.505 24.6431 86.7093 27.915 86.7509 28.671C83.3163 25.7826 79.6441 23.1764 75.7733 20.8798L74.2661 3.17886L62.9693 0.605904C62.9693 0.605904 53.5378 14.7512 54.2363 15.106C54.2363 15.106 46.4822 16.9804 42.794 18.2661L29.5309 8.16229L20.1841 14.5883C20.1841 14.5883 23.7883 27.6493 25.078 30.3747C22.5269 33.3732 19.3188 36.7728 19.3188 36.7728L1.41761 40.2245L0.481857 51.4286C0.481857 51.4286 13.5587 57.7043 16.0653 58.3052C16.3156 61.9149 17.0832 65.4821 18.3458 68.9024L9.30774 84.0284L17.2118 92.3743C17.2118 92.3743 26.8775 88.6594 31.0605 86.6703C35.2493 90.0778 41.1688 94.0888 41.1688 94.0888L46.6706 111.227L58.2183 111.306C58.2183 111.306 63.0687 98.5247 63.4976 95.7407C67.1813 95.2112 70.9161 95.0361 74.6484 95.2179L91.2978 102.957L98.9647 94.6479C96.3443 89.6219 93.4606 84.7272 90.3252 79.9835C91.286 78.7283 92.1453 77.4012 92.8956 76.0139L110.748 75.641ZM57.0343 77.8776C52.5047 78.037 48.0033 76.8814 44.0997 74.5572C40.196 72.2329 37.0654 68.8443 35.1039 64.8202C33.1425 60.796 32.4384 56.3171 33.0806 51.95C33.7228 47.583 35.6826 43.524 38.7119 40.2867C41.7413 37.0493 45.7041 34.7791 50.099 33.7631C54.4939 32.7471 59.1235 33.031 63.402 34.579C67.6805 36.127 71.4157 38.8694 74.1351 42.4593C76.8544 46.0493 78.4357 50.3254 78.6789 54.7468C78.9983 60.6685 76.8993 66.4284 72.8422 70.7642C68.785 75.0999 63.1005 77.6579 57.0343 77.8776Z" fill="#807B54" fill-opacity="0.15"/>
</svg>
