<svg width="210" height="212" viewBox="0 0 210 212" fill="none" xmlns="http://www.w3.org/2000/svg">
<g filter="url(#filter0_d)">
<path d="M11.4625 144.009L93.5585 189.875C94.6191 190.468 95.8254 190.781 97.0536 190.781C98.2823 190.781 99.4885 190.468 100.549 189.875L198.522 135.743C199.579 135.162 200.457 134.324 201.068 133.315C201.679 132.306 202 131.16 202 129.993C202 128.827 201.679 127.681 201.068 126.671C200.457 125.662 199.579 124.824 198.522 124.243L115.408 78.8978C114.359 78.3212 113.17 78.0177 111.96 78.0177C110.75 78.0177 109.56 78.3212 108.511 78.8978L11.4934 132.51C10.4349 133.088 9.5544 133.923 8.94116 134.931C8.32792 135.939 8.00303 137.084 8.00002 138.251C7.99701 139.417 8.31545 140.564 8.92311 141.575C9.5312 142.586 10.407 143.426 11.4625 144.009Z" fill="#7AC11F"/>
<path d="M84.9586 0.405838C74.2009 6.5089 47.5813 21.5844 39.6194 26.0149C38.9404 26.3924 38.3783 26.9353 37.9894 27.588C37.6005 28.2406 37.3993 28.9805 37.4053 29.7319V134.331C37.2425 136.464 39.7358 138.442 41.8175 137.305L86.5822 112.915C88.3841 111.926 89.5341 110.536 89.5341 108.551V2.89611C89.5333 2.38454 89.3915 1.88221 89.1224 1.44018C88.8534 0.998106 88.4671 0.632037 88.0021 0.379107C87.5375 0.126176 87.0111 -0.00456666 86.4769 0.0001218C85.9423 0.00481027 85.4185 0.144806 84.9586 0.405838Z" fill="#172D51"/>
<path d="M89.2305 1.67637L75.0159 9.51149V12.4254C75.0159 12.671 74.9489 12.9123 74.8204 13.125C74.6923 13.3377 74.5079 13.5144 74.2858 13.6372L63.4111 19.6659C63.2646 19.7466 63.0991 19.7893 62.9302 19.7894C62.7613 19.7895 62.5955 19.7471 62.4489 19.6666C62.3028 19.586 62.1812 19.4701 62.0965 19.3304C62.0114 19.1906 61.9667 19.032 61.9663 18.8705V16.737L41.4517 28.2145C41.2574 28.3247 41.0967 28.481 40.9849 28.6689C40.8732 28.8565 40.8148 29.0691 40.8148 29.285V133.832C40.8131 133.982 40.853 134.129 40.9299 134.259C41.0069 134.39 41.1186 134.498 41.2535 134.573C41.3885 134.649 41.5415 134.689 41.6979 134.689C41.8543 134.689 42.0077 134.65 42.1431 134.576L89.5258 108.29C89.601 109.097 89.4475 109.908 89.081 110.638C88.7148 111.368 88.1493 111.99 87.4441 112.438C84.9894 113.925 41.8169 137.311 41.8169 137.311C41.8169 137.311 38.4069 138.798 37.4048 134.888V29.7234C37.4022 29.0366 37.5715 28.3589 37.8985 27.7469C38.2256 27.1353 38.7009 26.6073 39.2849 26.2075C41.2656 24.8322 84.9894 0.375481 84.9894 0.375481C85.356 0.188888 85.7578 0.0744735 86.1712 0.0390221C86.585 0.00357076 87.0015 0.0477826 87.3968 0.169025C87.7922 0.290308 88.1583 0.486154 88.4733 0.745048C88.7883 1.00394 89.0457 1.32062 89.2305 1.67637Z" fill="#112E7C"/>
<path d="M136.986 129.246C137.072 129.664 137.061 130.095 136.953 130.509C136.846 130.923 136.645 131.308 136.365 131.64C135.417 132.614 131.813 135.669 131.471 136.33C131.129 136.992 130.648 138.798 131.471 139.423C132.294 140.047 133.895 140.121 135.852 139.423C138.564 138.233 141.104 136.714 143.41 134.903C144.28 133.996 143.41 124.682 143.41 124.682C143.41 124.682 138.353 123.5 136.652 124.682L136.986 129.246Z" fill="#F96156"/>
<path d="M131.083 137.602C130.987 137.91 130.973 138.235 131.042 138.55C131.112 138.864 131.262 139.157 131.48 139.401C132.303 140.025 133.903 140.1 135.86 139.401C138.572 138.211 141.112 136.692 143.418 134.881C143.719 134.219 143.846 133.497 143.791 132.777C140.513 135.773 133.584 140.769 131.083 137.602Z" fill="#391A3A"/>
<path d="M139.06 132.791C138.759 132.359 138.34 132.014 137.848 131.795C137.272 131.608 136.659 131.547 136.054 131.617C135.557 131.617 135.557 132.36 136.054 132.36C136.482 132.271 136.928 132.299 137.34 132.441C137.752 132.583 138.114 132.833 138.384 133.163C138.711 133.542 139.363 133.17 139.06 132.791Z" fill="#391A3A"/>
<path d="M137.934 134.078C137.535 133.626 137.017 133.285 136.435 133.089C135.851 132.893 135.224 132.85 134.618 132.963C134.128 133.06 134.338 133.773 134.827 133.707C135.301 133.629 135.788 133.675 136.237 133.838C136.687 134.001 137.082 134.277 137.383 134.636C137.748 134.955 138.3 134.428 137.934 134.078Z" fill="#391A3A"/>
<path d="M148.98 134.948C149.065 135.366 149.054 135.797 148.947 136.211C148.839 136.624 148.639 137.011 148.358 137.342C147.41 138.316 143.806 141.371 143.464 142.033C143.123 142.694 142.641 144.501 143.464 145.125C144.288 145.749 145.888 145.824 147.846 145.125C150.557 143.936 153.098 142.416 155.404 140.605C156.273 139.698 155.404 130.384 155.404 130.384C155.404 130.384 150.347 129.202 148.645 130.384L148.98 134.948Z" fill="#F96156"/>
<path d="M143.076 143.296C142.98 143.604 142.966 143.929 143.035 144.244C143.104 144.558 143.254 144.851 143.472 145.095C144.295 145.72 145.895 145.794 147.853 145.095C150.565 143.905 153.105 142.387 155.411 140.575C155.719 139.91 155.852 139.183 155.799 138.457C152.506 141.467 145.577 146.47 143.076 143.296Z" fill="#391A3A"/>
<path d="M151.054 138.494C150.753 138.061 150.334 137.717 149.842 137.497C149.265 137.31 148.652 137.249 148.048 137.319C147.551 137.319 147.551 138.063 148.048 138.063C148.476 137.973 148.921 138.001 149.334 138.143C149.746 138.285 150.108 138.535 150.378 138.865C150.681 139.244 151.357 138.873 151.054 138.494Z" fill="#391A3A"/>
<path d="M149.95 139.781C149.551 139.329 149.033 138.988 148.451 138.791C147.867 138.596 147.24 138.552 146.634 138.666C146.144 138.762 146.354 139.476 146.843 139.409C147.317 139.331 147.804 139.377 148.253 139.54C148.703 139.704 149.098 139.979 149.399 140.338C149.741 140.687 150.292 140.13 149.95 139.781Z" fill="#391A3A"/>
<path d="M138.004 71.5079C135.301 77.4256 133.811 83.7851 133.615 90.2407C133.444 100.484 134.71 128.011 134.71 128.011C134.71 128.011 137.677 130.74 144.194 129.781V91.5864C144.194 91.5864 146.478 92.367 146.478 94.0096C146.478 95.6526 148.56 134.702 148.56 134.702C148.56 134.702 149.725 136.775 158.254 133.609C158.254 133.609 159.419 82.4579 153.158 72.4147" fill="#5B434D"/>
<path d="M106.684 88.2348V147.109L124.387 156.803L144.381 145.503V86.6218" fill="#112E7C"/>
<path d="M106.684 88.2341L127.23 77.0389L144.381 86.6207L124.387 97.9277L106.684 88.2341Z" fill="#112E7C"/>
<path d="M124.387 97.9284V156.803L144.381 145.503V86.6218L124.387 97.9284Z" fill="#112E7C"/>
<path opacity="0.1" d="M106.684 88.2348V147.109L124.387 156.803L144.381 145.503V86.6218" fill="#2E90A0"/>
<path d="M106.684 88.2341L127.23 77.0389L144.381 86.6207L124.387 97.9277L106.684 88.2341Z" fill="#112E7C"/>
<path opacity="0.47" d="M124.387 97.9284V156.803L144.381 145.503V86.6218L124.387 97.9284Z" fill="#2E90A0"/>
<path d="M124.046 87.7063L114.041 92.2632V151.138L64.0566 125.261" stroke="#1B1464" stroke-miterlimit="10"/>
<path d="M133.56 94.8129L148.474 86.4354L124.775 73.6791L110.91 82.064L133.56 94.8129Z" fill="#6C7F91"/>
<path d="M137.11 74.214C141.188 75.5671 145.352 75.6415 149.616 75.4034C151.309 73.6995 152.731 71.7657 153.834 69.6646C157.477 62.4542 158.79 50.337 158.79 50.337C158.79 50.337 153.353 46.3156 149.748 45.3492C146.144 44.3827 138.182 46.0927 136.877 48.1816C135.572 50.2704 135.091 59.6666 136.877 73.0246C136.932 73.2628 137.072 73.9837 137.11 74.214Z" fill="#FFE70D"/>
<path d="M143.984 46.6136C142.711 46.8739 142.47 43.4986 143.014 43.1865C143.557 42.8743 149.523 42.8373 150.44 43.2313C152.451 44.0859 150.44 46.948 150.44 46.948" fill="#FFE70D"/>
<path d="M151.652 32.4967C150.502 32.3038 150.541 30.4675 148.405 29.6351C146.269 28.8023 143.744 29.9991 142.812 30.646C141.88 31.2925 141.197 29.9769 140.172 30.9878C139.146 31.9987 139.799 33.5451 139.2 34.0953L139.115 34.1546C138.857 34.5708 138.713 35.0429 138.698 35.5265C138.683 36.0106 138.797 36.4901 139.03 36.9199C139.499 37.5208 140.05 38.0583 140.669 38.5181L150.254 43.3057C151.411 42.5251 153.625 35.1284 153.5 34.2438C153.457 33.791 153.247 33.3678 152.909 33.0482C152.57 32.7287 152.126 32.5333 151.652 32.4967Z" fill="#200904"/>
<path d="M141.134 35.2988C140.699 35.7447 142.136 44.5906 144.94 44.9032C147.745 45.2154 151.061 41.662 151.357 40.6063C151.652 39.5509 151.481 33.9162 150.339 33.3511C149.197 32.786 143.767 32.5853 141.134 35.2988Z" fill="#F9B16F"/>
<path d="M142.447 32.7491C142.447 32.7491 141.896 34.8084 145.252 35.1949C148.607 35.5815 148.84 36.3025 149.236 37.4248C150.013 39.5437 152.344 42.0039 153.12 35.6482C153.159 35.3434 150.744 30.9873 148.133 30.6455C145.523 30.3033 142.447 32.7491 142.447 32.7491Z" fill="#200904"/>
<path d="M149.539 38.5553C149.539 38.5553 150.595 36.8156 151.411 37.6406C152.227 38.466 151.636 40.406 150.533 41.0155" fill="#F1A056"/>
<path d="M124.092 75.27C124.092 75.27 121.358 77.3366 120.635 77.7528C119.913 78.169 123.742 79.3584 123.805 79.7672C123.867 80.176 127.549 76.9944 127.549 76.9944L124.092 75.27Z" fill="#F9B16F"/>
<path d="M133.561 94.8129L127.727 80.4736L105.077 67.6725L110.91 82.0644L133.561 94.8129Z" fill="#8BAADC"/>
<path d="M136.877 48.1813C136.877 48.1813 135.401 50.2031 134.718 55.5332C134.034 60.8632 132.069 65.5015 130.934 67.1815C129.801 68.8616 122.274 75.5965 122.585 76.2656C122.895 76.9347 124.915 78.1241 126.227 78.57C129.898 76.3709 133.18 73.6286 135.953 70.4449C139.836 65.71 139.704 57.3173 139.704 57.3173" fill="#FFE70D"/>
<path d="M139.418 89.3124C139.431 88.7486 139.552 88.1917 139.775 87.6694C139.979 87.3984 140.245 87.1751 140.552 87.0151C140.925 86.7897 141.283 86.5413 141.624 86.2719L144.265 83.5958L140.28 83.0233C139.402 83.581 138.495 84.0947 137.561 84.5623C137.383 84.5623 134.842 86.049 134.967 86.4204C135.091 86.7922 136.8 85.5436 136.8 85.5436C135.849 85.9495 134.935 86.429 134.066 86.9781C133.755 87.3277 133.351 89.1043 133.631 89.3495C133.91 89.595 134.345 89.3495 134.633 89.2158C134.92 89.0817 134.439 89.959 134.882 90.1004C135.213 90.2115 135.563 90.2691 135.915 90.2711C136.086 90.3575 136.282 90.39 136.474 90.3649C136.666 90.3394 136.846 90.2575 136.986 90.13C137.506 89.5267 137.892 88.8288 138.121 88.0782C138.121 88.0782 138.02 90.2119 138.656 90.0704C138.882 89.9886 139.154 89.6912 139.418 89.3124Z" fill="#F9B16F"/>
<path d="M136.621 86.1671C136.138 86.3715 135.694 86.6528 135.309 86.9995C134.819 87.5921 134.517 88.3069 134.438 89.0587C134.392 89.2668 134.741 89.3117 134.781 89.1036C134.84 88.3567 135.163 87.6514 135.697 87.1036C136.086 86.8075 136.511 86.5578 136.963 86.3604C136.84 86.3115 136.725 86.2465 136.621 86.1671Z" fill="#5B434D"/>
<path d="M137.562 86.5471C137.172 86.8149 136.813 87.1217 136.49 87.4614C135.962 88.1083 135.907 89.2829 135.713 90.0556C135.659 90.2637 136.008 90.3086 136.055 90.1005C136.296 89.1414 136.373 88.0561 137.134 87.3499C137.414 87.0896 137.709 86.8371 138.012 86.6063C137.861 86.5948 137.711 86.5747 137.562 86.5471Z" fill="#5B434D"/>
<path d="M158.798 50.3375C158.798 50.3375 160.351 50.6575 160.149 56.0616C159.947 61.466 158.549 72.1853 155.986 74.787C153.422 77.3887 141.662 86.6809 141.662 86.6809C141.662 86.6809 138.02 85.1942 138.307 83.8785C138.594 82.5629 151.046 70.8101 151.046 70.8101C151.046 70.8101 152.926 46.9034 158.798 50.3375Z" fill="#FFE70D"/>
<path d="M137.67 52.2257L136.8 74.0661C136.8 74.5419 137.577 74.5419 137.577 74.0661L138.447 52.2257C138.47 51.7799 137.694 51.7873 137.67 52.2257Z" fill="#C7B623"/>
<path d="M151.1 57.7863L149.904 64.8034C149.5 67.1822 149.407 69.955 148.18 72.1108C146.953 74.2667 145.073 75.9319 143.472 77.7086L138.183 83.6556C137.857 84.0195 138.408 84.5476 138.735 84.1832L144.273 77.9685C145.826 76.2293 147.69 74.5192 148.848 72.5048C150.005 70.4904 150.153 67.9702 150.534 65.7255L151.846 58.0019C151.916 57.5112 151.178 57.3105 151.1 57.7863Z" fill="#C7B623"/>
<path d="M46.5561 43.2836V46.2423L82.4968 26.2382V23.8075L46.5561 43.2836Z" fill="#8CC63F"/>
<path d="M65.4313 41.5504L46.5561 51.7791V54.7377L65.4313 44.2265V41.5504Z" fill="#F7931E"/>
<path d="M68.0804 40.1166V42.7557L72.1273 40.5032V37.9238L68.0804 40.1166Z" fill="#00A99D"/>
<path d="M74.7678 36.4876V39.0297L82.4967 34.7332V32.2947L74.7678 36.4876Z" fill="#F15A24"/>
<path d="M63.2486 50.063L46.5561 59.1097V62.0684L63.2486 52.7762V50.063Z" fill="#F15A24"/>
<path d="M47.0216 67.3233V70.282L82.9623 50.2779V47.8395L47.0216 67.3233Z" fill="#8CC63F"/>
<path d="M58.6574 69.5157V72.3033L67.3417 67.4639V64.8026L58.6574 69.5157Z" fill="#00A99D"/>
<path d="M56.0088 70.9517L47.0216 75.8212V78.7798L56.0088 73.7767V70.9517Z" fill="#F15A24"/>
<path d="M69.9903 63.3694V65.9937L82.9621 58.7681V56.3371L69.9903 63.3694Z" fill="#F7931E"/>
<path d="M77.0357 66.8772L47.0216 83.1499V86.1085L77.0357 69.3974V66.8772Z" fill="#F7931E"/>
<path d="M79.685 65.4432V67.9261L82.9626 66.0976V63.6666L79.685 65.4432Z" fill="#00A99D"/>
<path d="M47.0216 92.0479V94.9992L82.9623 74.9951V72.5645L47.0216 92.0479Z" fill="#00A99D"/>
<path d="M60.2968 93.3484V96.1137L82.9628 83.4915V81.0605L60.2968 93.3484Z" fill="#F7931E"/>
<path d="M57.6479 94.7842L47.0216 100.538V103.496L57.6479 97.5866V94.7842Z" fill="#F15A24"/>
<path d="M69.2527 95.8245L47.0216 107.867V110.826L69.2527 98.4562V95.8245Z" fill="#00A99D"/>
<path d="M71.9012 94.3898V96.984L82.9623 90.8216V88.391L71.9012 94.3898Z" fill="#8CC63F"/>
<path d="M93.7441 163.947L99.4691 170.555L98.7153 171.254L92.9908 164.653L93.7441 163.947Z" fill="white"/>
<path d="M79.1102 167.374C79.2632 167.747 79.5353 168.064 79.8868 168.28C79.7514 168.426 79.653 168.6 79.5993 168.788C79.5456 168.977 79.5374 169.174 79.5761 169.366L79.1102 167.374Z" fill="#A68D0B"/>
<path d="M91.7784 167.366L93.2155 168.31L92.4467 171.157L95.8799 170.05L97.3169 170.987L91.5532 172.785L90.567 172.139L91.7784 167.366Z" fill="white"/>
<path d="M115.198 167.998C115.21 168.167 115.186 168.336 115.129 168.495C115.072 168.654 114.982 168.802 114.864 168.927C114.746 169.058 114.607 169.171 114.453 169.262L100.471 177.662C99.9475 177.952 99.3399 178.072 98.7391 178.004C98.3064 177.967 97.8861 177.845 97.504 177.647L80.0968 168.407L79.879 168.28C79.5274 168.064 79.2554 167.747 79.1024 167.374C78.9894 167.073 78.992 166.744 79.1101 166.446C79.2283 166.147 79.4544 165.899 79.747 165.746L92.9522 157.569C93.4782 157.27 94.0919 157.145 94.6999 157.212C95.103 157.247 95.4958 157.356 95.8572 157.532L114.041 166.512C114.353 166.64 114.625 166.845 114.828 167.106C115.032 167.367 115.159 167.675 115.198 167.998ZM98.7077 171.254L99.4847 170.555L93.7678 163.954L92.9909 164.653L98.7155 171.254H98.7077ZM91.5538 172.786L97.3175 170.987L95.8804 170.042L92.4472 171.165L93.2238 168.318L91.7867 167.374L90.5516 172.139L91.5383 172.786H91.5538ZM100.859 167.656L102.079 162.891L101.085 162.244L95.3291 164.044L96.7657 164.98L100.207 163.865L99.4301 166.72L100.867 167.664" fill="#FFD600"/>
<path d="M101.092 162.244L95.3367 164.035L96.7656 164.972L100.215 163.857L99.43 166.711L100.867 167.655L102.087 162.883L101.092 162.244Z" fill="white"/>
<path d="M114.872 168.934C114.989 168.809 115.08 168.662 115.137 168.502C115.194 168.343 115.217 168.174 115.206 168.005L115.68 169.916C115.536 169.509 115.251 169.163 114.872 168.934Z" fill="#A68D0B"/>
<path d="M114.872 168.934C115.239 169.167 115.514 169.513 115.649 169.915C115.665 169.967 115.678 170.018 115.688 170.071C115.732 170.348 115.686 170.631 115.555 170.881C115.424 171.131 115.215 171.337 114.958 171.469L100.976 179.869C100.453 180.162 99.8456 180.284 99.2439 180.218C98.8103 180.179 98.3901 180.055 98.0089 179.854L80.6017 170.614C80.3417 170.493 80.1126 170.319 79.9304 170.105C79.7478 169.89 79.6163 169.64 79.5449 169.373C79.5062 169.181 79.5144 168.983 79.5681 168.795C79.6218 168.607 79.7203 168.433 79.8556 168.287L80.0731 168.414L97.5426 177.646C97.9246 177.844 98.3449 177.966 98.7777 178.003C99.3785 178.071 99.9866 177.951 100.51 177.661L114.492 169.261C114.634 169.17 114.762 169.06 114.872 168.934Z" fill="#A68D0B"/>
<path d="M145.33 38.1069L146.792 38.5033" stroke="black"/>
<path d="M143.344 38.0526L142.129 38.4421" stroke="black"/>
<path d="M143.375 41.904L143.857 42.0965C144.213 42.2384 144.608 42.2618 144.978 42.1631L145.953 41.904" stroke="black"/>
<path d="M143.402 38.9189L142.607 39.018" stroke="black"/>
<path d="M146.166 39.0705L145.523 39.0248" stroke="black"/>
</g>
<defs>
<filter id="filter0_d" x="0" y="0" width="210" height="211.781" filterUnits="userSpaceOnUse" color-interpolation-filters="sRGB">
<feFlood flood-opacity="0" result="BackgroundImageFix"/>
<feColorMatrix in="SourceAlpha" type="matrix" values="0 0 0 0 0 0 0 0 0 0 0 0 0 0 0 0 0 0 127 0"/>
<feOffset dy="13"/>
<feGaussianBlur stdDeviation="4"/>
<feColorMatrix type="matrix" values="0 0 0 0 0 0 0 0 0 0 0 0 0 0 0 0 0 0 0.25 0"/>
<feBlend mode="normal" in2="BackgroundImageFix" result="effect1_dropShadow"/>
<feBlend mode="normal" in="SourceGraphic" in2="effect1_dropShadow" result="shape"/>
</filter>
</defs>
</svg>
