<svg width="362" height="268" viewBox="0 0 362 268" fill="none" xmlns="http://www.w3.org/2000/svg">
<g filter="url(#filter0_d)">
<path d="M32.79 174.366C66.9 194.156 142.56 237.856 164.01 250.246C165.757 251.264 167.743 251.801 169.765 251.801C171.787 251.801 173.773 251.264 175.52 250.246L349.22 148.136C350.953 147.12 352.387 145.665 353.378 143.918C354.369 142.171 354.883 140.193 354.866 138.185C354.85 136.176 354.305 134.207 353.286 132.477C352.266 130.746 350.809 129.314 349.06 128.326L216.61 53.3261C214.866 52.3385 212.892 51.8268 210.888 51.8426C208.884 51.8584 206.919 52.4011 205.19 53.4161L32.74 154.606C31.0137 155.616 29.5826 157.062 28.5898 158.798C27.597 160.534 27.0771 162.5 27.0822 164.501C27.0873 166.501 27.617 168.464 28.6187 170.196C29.6203 171.927 31.0586 173.365 32.79 174.366Z" fill="#FFD15B"/>
<path d="M151.28 222.106L238.2 174.936L246.52 167.436L249.12 162.086L246.48 134.506C246.48 134.506 244.48 129.726 241.88 128.856C239.28 127.986 107.49 196.786 107.49 196.786L151.28 222.106Z" fill="url(#paint0_linear)"/>
<path d="M218.45 58.8461C219.64 59.4261 220.9 60.0261 222.2 60.5161C224.471 60.5799 226.745 60.5231 229.01 60.3461C229.948 60.1176 230.918 60.0433 231.88 60.1261C232.062 60.1268 232.241 60.1688 232.405 60.249C232.568 60.3292 232.711 60.4454 232.822 60.589C232.934 60.7325 233.012 60.8995 233.05 61.0775C233.087 61.2554 233.084 61.4396 233.04 61.6161C232.889 62.0484 232.623 62.4314 232.271 62.7239C231.918 63.0164 231.493 63.2073 231.04 63.2761C230.3 63.4661 229.54 63.6261 228.79 63.7861C230.95 64.8207 233.183 65.6964 235.47 66.4061C236.91 66.8861 236.32 69.1961 234.86 68.7061L233.3 68.1761C234.166 68.68 235.004 69.2308 235.81 69.8261C236.81 70.5561 236.32 72.4861 234.92 72.0161C233.036 71.3781 231.204 70.5958 229.44 69.6761C230.533 70.4495 231.65 71.1928 232.79 71.9061C234.09 72.7161 232.92 74.7861 231.61 73.9761C230.01 72.9828 228.45 71.9261 226.93 70.8061C227.29 71.4661 227.65 72.1361 227.98 72.8061C228.66 74.1761 226.62 75.4061 225.98 74.0261C225.34 72.6461 224.62 71.4261 223.87 70.1761L223.72 70.1161C219.92 68.3161 216.16 66.4428 212.44 64.4961C211.08 63.7861 212.26 61.7161 213.62 62.4261L215.34 63.3161C215.376 63.1328 215.449 62.9587 215.553 62.804C215.658 62.6494 215.793 62.5175 215.95 62.4161C215.831 62.2431 215.761 62.0418 215.745 61.8326C215.729 61.6235 215.769 61.4138 215.86 61.225C215.952 61.0362 216.091 60.8749 216.265 60.7574C216.439 60.6399 216.641 60.5705 216.85 60.5561C216.73 60.3282 216.685 60.0688 216.719 59.8137C216.754 59.5587 216.867 59.3207 217.043 59.1328C217.218 58.9449 217.448 58.8163 217.701 58.7649C217.953 58.7136 218.215 58.7419 218.45 58.8461Z" fill="#FFC285"/>
<path d="M228.19 65.0263C226.84 66.4463 225.19 67.8563 223.11 67.4363C222.69 67.3563 222.8 66.6863 223.22 66.7763C225.07 67.1463 226.48 65.8363 227.66 64.5963C227.96 64.2863 228.49 64.7163 228.19 65.0263Z" fill="#6D320B"/>
<path d="M229.61 66.4762C231.406 67.1946 233.243 67.8089 235.11 68.3162C235.42 68.3962 235.34 68.8962 235.03 68.8162C233.122 68.3011 231.246 67.6768 229.41 66.9462C229.1 66.8062 229.28 66.3562 229.61 66.4762Z" fill="#6D320B"/>
<path d="M228.5 68.8362C230.543 70.0763 232.742 71.0381 235.04 71.6962C235.35 71.7862 235.27 72.2762 234.96 72.1962C232.621 71.5335 230.382 70.5616 228.3 69.3062C228.02 69.1362 228.22 68.6762 228.5 68.8362Z" fill="#6D320B"/>
<path d="M226.02 70.1063C227.581 71.2989 229.255 72.3339 231.02 73.1963C231.31 73.3363 231.1 73.7963 230.81 73.6563C229.017 72.7726 227.315 71.7141 225.73 70.4963C225.45 70.2963 225.77 69.9063 226.02 70.1063Z" fill="#6D320B"/>
<path d="M227.11 44.6062C227.95 42.3562 228.7 40.0762 229.45 37.7662C230.668 34.5074 231.52 31.1233 231.99 27.6762C231.39 26.0662 229.23 24.8362 227.71 24.4762C225.8 24.0162 223.84 24.8362 221.9 24.7962C219.37 24.7962 217.37 23.7962 215.01 23.0762C212.567 22.4626 209.997 22.5809 207.62 23.4162C203.06 24.8262 198.41 24.3362 194.62 21.3262C192.47 19.6162 190.79 18.2162 188.07 17.5062C183.87 16.3962 179.54 17.1862 176.77 20.7162C174.28 23.9062 173.77 28.0862 176.38 31.3462C177.799 32.8545 179.651 33.8853 181.68 34.2962C183.53 34.8262 185.26 35.9162 187.16 36.2962H187.37C189.167 36.4222 190.954 36.6627 192.72 37.0162C194.95 37.6762 197.02 38.7862 199.21 39.5762C202.12 40.5762 204.94 40.2162 207.93 39.8362C211.74 39.3562 213.76 40.5362 216.71 42.7062L217.24 43.0762C219.324 44.3379 221.725 44.9764 224.16 44.9162C225.151 44.9 226.138 44.7962 227.11 44.6062Z" fill="#653200"/>
<path d="M225.81 123.116C225.81 123.116 236.56 122.746 238.29 125.596C240.02 128.446 241.24 136.536 244.01 136.936C246.78 137.336 247.58 130.476 247.96 125.756C248.34 121.036 247.5 118.756 246.48 118.586C245.46 118.416 237.74 115.526 237.41 114.146C237.08 112.766 246.81 114.296 246.81 114.296L246.39 109.516L223.28 110.756L225.81 123.116Z" fill="#F77819"/>
<path d="M195.38 128.866L233.14 128.796C233.14 128.796 231 114.366 225.64 107.266L198.28 103.776" fill="#F28830"/>
<path d="M227.61 158.286C227.61 158.286 232.26 163.486 230.76 166.876C229.26 170.266 222.64 176.566 224.05 179.356C225.46 182.146 232.24 178.496 236.8 175.816C241.36 173.136 242.93 170.906 242.41 169.876C241.89 168.846 239.62 159.876 240.67 158.746C241.72 157.616 246.55 167.436 246.55 167.436L249.15 162.086L234.74 143.686L227.61 158.286Z" fill="#F77819"/>
<path d="M155.51 17.2662C154.85 16.1262 154.17 14.8962 153.59 13.6362C153.38 11.3726 153.29 9.09939 153.32 6.82621C153.476 5.87258 153.476 4.89985 153.32 3.94621C153.308 3.7639 153.254 3.58681 153.163 3.42843C153.072 3.27005 152.946 3.13456 152.794 3.03232C152.643 2.93007 152.47 2.86376 152.289 2.83844C152.108 2.81312 151.924 2.82946 151.75 2.88621C151.342 3.0711 150.991 3.36125 150.733 3.72683C150.474 4.0924 150.318 4.52019 150.28 4.96621C150.14 5.71621 150.03 6.48621 149.92 7.24621C148.764 5.1584 147.761 2.98936 146.92 0.756215C146.34 -0.653785 144.08 0.0862135 144.66 1.51621L145.29 3.03621C144.731 2.20382 144.127 1.40263 143.48 0.636212C142.69 -0.293788 140.79 0.306212 141.36 1.63621C142.119 3.47607 143.018 5.25468 144.05 6.95621C143.203 5.91621 142.39 4.84955 141.61 3.75622C140.72 2.51622 138.73 3.81621 139.61 5.06621C140.71 6.59955 141.867 8.08621 143.08 9.52621C142.4 9.20621 141.71 8.89621 141.01 8.60621C139.6 8.01621 138.51 10.1362 139.92 10.7262C141.33 11.3162 142.6 11.9162 143.92 12.5762L143.99 12.7262C145.99 16.4195 148.087 20.0462 150.28 23.6062C151.08 24.9162 153.07 23.6062 152.28 22.2962L151.28 20.6362C151.461 20.5883 151.631 20.5042 151.778 20.389C151.926 20.2739 152.049 20.1301 152.14 19.9662C152.319 20.0732 152.523 20.1312 152.732 20.1344C152.94 20.1377 153.146 20.0861 153.328 19.9848C153.51 19.8835 153.663 19.7361 153.77 19.5574C153.878 19.3786 153.936 19.1747 153.94 18.9662C154.173 19.0586 154.428 19.0783 154.672 19.0228C154.917 18.9672 155.138 18.839 155.308 18.6549C155.478 18.4709 155.588 18.2397 155.624 17.9918C155.66 17.744 155.621 17.491 155.51 17.2662Z" fill="#FFC285"/>
<path d="M148.71 7.95623C147.39 9.39623 146.08 11.1062 146.63 13.1762C146.74 13.5962 147.39 13.4362 147.28 13.0162C146.79 11.1962 148 9.69623 149.16 8.43623C149.46 8.12623 149 7.60623 148.71 7.95623Z" fill="#6D320B"/>
<path d="M147.17 6.60617C146.338 4.86296 145.607 3.07334 144.98 1.24617C144.88 0.946171 144.39 1.05617 144.49 1.36617C145.131 3.23765 145.879 5.07069 146.73 6.85617C146.87 7.15617 147.28 6.91617 147.17 6.60617Z" fill="#6D320B"/>
<path d="M144.88 7.89616C143.513 5.95372 142.41 3.83861 141.6 1.60616C141.49 1.30616 141 1.41615 141.11 1.72615C141.924 4.01765 143.041 6.19018 144.43 8.18616C144.62 8.39616 145.07 8.16616 144.88 7.89616Z" fill="#6D320B"/>
<path d="M143.78 10.4462C142.489 8.97563 141.347 7.38123 140.37 5.68622C140.21 5.40622 139.76 5.68622 139.93 5.92622C140.931 7.65708 142.1 9.28496 143.42 10.7862C143.63 11.0362 143.99 10.6962 143.78 10.4462Z" fill="#6D320B"/>
<path d="M167.17 57.3462C167.17 57.3462 154.76 95.6562 156.77 113.116C158.78 130.576 192.05 128.676 192.05 128.676L218.87 163.416C229.11 161.853 238.357 156.415 244.7 148.226C244.7 148.226 236.1 136.136 230 130.026C223.9 123.916 207.35 102.456 206.66 95.9462C205.97 89.4362 198.42 65.0462 190.77 61.0362" fill="#F99943"/>
<path d="M188.21 32.1762L180.08 30.5562C173.207 30.2828 166.7 27.3837 161.9 22.4562C159.047 19.5122 156.55 16.2431 154.46 12.7162C151.995 14.1773 149.8 16.0512 147.97 18.2562C147.001 19.3578 146.112 20.5274 145.31 21.7562C148.85 29.1162 155.61 39.7562 166.45 43.8762C166.45 43.8762 166.84 47.9362 167.16 57.3462C170.457 60.4108 174.548 62.489 178.967 63.3446C183.387 64.2002 187.957 63.7989 192.16 62.1862C192.16 62.1862 190.96 36.1662 188.21 32.1762Z" fill="#021E6A"/>
<path d="M186.28 31.9163C186.28 31.9163 202.09 52.0463 224.08 58.8163C224.08 58.8163 222.63 66.9363 219.21 70.0163C219.21 70.0163 189.39 56.5063 182.52 44.4463" fill="#021E6A"/>
<path d="M176.97 24.5362C176.97 24.5362 174.1 32.8462 179.4 36.6062C184.7 40.3662 191.89 32.5062 189.92 25.1062C187.95 17.7062 180.34 17.4162 176.97 24.5362Z" fill="#FFC285"/>
<path d="M190.62 35.4461C190.185 35.5411 189.733 35.5239 189.306 35.3962C188.879 35.2685 188.492 35.0345 188.18 34.7161C187.4 33.9261 187.47 32.8061 187.46 31.7761C187.494 31.1077 187.352 30.442 187.048 29.8454C186.745 29.2489 186.29 28.7423 185.73 28.3761C184.34 27.4361 182.59 27.1661 181.33 26.0161C181.2 25.8961 181.07 25.7661 180.96 25.6361C181.126 25.7903 181.307 25.9276 181.5 26.0461C183.5 27.2861 186.59 27.5861 187.5 28.0461C188.41 28.5061 186.93 32.3161 188.64 33.9761C190.35 35.6361 194.39 25.2361 192.05 22.4061C189.71 19.5761 181.99 16.2661 178.64 20.9661C178.731 21.3852 178.845 21.7991 178.98 22.2061C179.061 23.4774 179.533 24.6927 180.33 25.6861C181.58 27.2361 183.39 27.5861 185.04 28.5361C185.571 28.7963 186.024 29.1923 186.352 29.6841C186.681 30.1759 186.873 30.7459 186.91 31.3361C186.84 32.3103 186.945 33.2891 187.22 34.2261C187.529 34.8638 188.046 35.377 188.686 35.6807C189.326 35.9843 190.051 36.0604 190.74 35.8961C191.09 35.8561 190.93 35.3761 190.62 35.4461Z" fill="#653200"/>
<path d="M192.85 128.976C186.523 119.429 181.495 109.081 177.9 98.2063C176.873 95.0929 175.97 91.9463 175.19 88.7663C175.133 88.5289 174.984 88.3239 174.776 88.1964C174.568 88.0689 174.317 88.0292 174.08 88.0863C173.843 88.1433 173.638 88.2923 173.51 88.5004C173.383 88.7086 173.343 88.9589 173.4 89.1963C176.189 100.47 180.467 111.322 186.12 121.466C187.713 124.326 189.417 127.123 191.23 129.856C191.88 130.836 193.51 129.976 192.85 128.976Z" fill="#F77819"/>
<path d="M66.23 83.3062L65.54 184.036L57.26 188.546V81.7262L66.23 83.3062Z" fill="#021E6A"/>
<path d="M44.82 36.2962L55.43 30.3262L91.86 88.6662L82.64 95.0662" fill="#021E6A"/>
<g opacity="0.5">
<path opacity="0.5" d="M66.23 83.3062L65.54 184.036L57.26 188.546V81.7262L66.23 83.3062Z" fill="#647CCF"/>
<path opacity="0.5" d="M44.82 36.2962L55.43 30.3262L91.86 88.6662L82.64 95.0662" fill="#647CCF"/>
</g>
<path d="M7 52.5961L44.82 36.2961L82.64 95.0661L57.26 81.7261V188.546L31.33 173.366L30.03 66.3861L7 52.5961Z" fill="#042170"/>
<path d="M118.64 145.826L118.15 217.196L112.28 220.396V144.696L118.64 145.826Z" fill="#021E6A"/>
<path d="M103.46 111.996L110.98 107.766L136.8 149.106L130.26 153.636" fill="#021E6A"/>
<path opacity="0.5" d="M118.64 145.826L118.15 217.196L112.28 220.396V144.696L118.64 145.826Z" fill="#647CCF"/>
<path opacity="0.5" d="M103.46 111.996L110.98 107.766L136.8 149.106L130.26 153.636" fill="#647CCF"/>
<path d="M76.5 123.526L103.46 111.916L130.42 153.806L112.33 144.296V220.396L92.92 208.966V133.356L76.5 123.526Z" fill="#042170"/>
<path d="M161.25 196.116L160.95 244.486L157.31 246.466V194.416L161.25 196.116Z" fill="#021E6A"/>
<path d="M151.37 174.116L155.99 171.536L173.4 199.506L169.45 202.206" fill="#021E6A"/>
<path opacity="0.5" d="M161.25 196.116L160.95 244.486L157.31 246.466V194.416L161.25 196.116Z" fill="#647CCF"/>
<path opacity="0.5" d="M151.37 174.116L155.99 171.536L173.4 199.506L169.45 202.206" fill="#647CCF"/>
<path d="M133.28 181.906L151.37 174.116L169.45 202.206L157.32 195.836V246.466L144.3 239.206V188.496L133.28 181.906Z" fill="#042170"/>
</g>
<defs>
<filter id="filter0_d" x="0" y="0" width="361.867" height="267.801" filterUnits="userSpaceOnUse" color-interpolation-filters="sRGB">
<feFlood flood-opacity="0" result="BackgroundImageFix"/>
<feColorMatrix in="SourceAlpha" type="matrix" values="0 0 0 0 0 0 0 0 0 0 0 0 0 0 0 0 0 0 127 0"/>
<feOffset dy="9"/>
<feGaussianBlur stdDeviation="3.5"/>
<feColorMatrix type="matrix" values="0 0 0 0 0 0 0 0 0 0 0 0 0 0 0 0 0 0 0.25 0"/>
<feBlend mode="normal" in2="BackgroundImageFix" result="effect1_dropShadow"/>
<feBlend mode="normal" in="SourceGraphic" in2="effect1_dropShadow" result="shape"/>
</filter>
<linearGradient id="paint0_linear" x1="156.11" y1="197.356" x2="259.86" y2="126.186" gradientUnits="userSpaceOnUse">
<stop stop-color="#F2C526"/>
<stop offset="0.98" stop-color="#DCA926"/>
</linearGradient>
</defs>
</svg>
